<svg width="65" height="64" viewBox="0 0 65 64" fill="none" xmlns="http://www.w3.org/2000/svg">
<g clip-path="url(#clip0_701_1090)">
<path fill-rule="evenodd" clip-rule="evenodd" d="M10.8564 3C10.8564 1.34314 12.1996 0 13.8564 0H51.1436C52.8004 0 54.1436 1.34315 54.1436 3V36.5973C54.1436 37.2699 53.5983 37.8151 52.9257 37.8151C52.103 37.8151 51.5166 37.015 51.6951 36.2119C51.9964 34.8553 52.1551 33.4461 52.1551 32C52.1551 26.9829 50.242 22.407 47.1012 18.9522L47.0842 18.9329C46.9773 18.8147 46.8679 18.699 46.7585 18.5857L46.7439 18.5712C46.6296 18.4531 46.513 18.335 46.3963 18.2168C42.8399 14.6897 37.927 12.5078 32.4988 12.5078H13.8564C12.1996 12.5078 10.8564 11.1647 10.8564 9.5078V3ZM50.3076 40.228C50.3076 40.2269 50.3085 40.226 50.3096 40.226H55.359C56.03 40.226 56.5745 39.686 56.5745 39.0206C56.5745 38.0125 57.7913 37.5055 58.5071 38.2154L62.8523 42.5248C64.0355 43.6983 64.0355 45.6114 62.8523 46.7849L58.5071 51.0944C57.7913 51.8042 56.5745 51.2972 56.5745 50.2892C56.5745 49.6237 56.03 49.0837 55.359 49.0837H47.509C46.0456 49.0837 45.3572 46.8161 46.3963 45.7856C48.0638 44.1318 49.3667 42.2442 50.3074 40.2288C50.3075 40.2286 50.3076 40.2283 50.3076 40.228ZM15.5844 22.0854C14.9898 23.0879 13.9475 23.774 12.782 23.774H9.64097C8.97004 23.774 8.42552 24.314 8.42552 24.9794C8.42552 25.9876 7.20857 26.4948 6.49263 25.7849L2.14835 21.4776C0.964782 20.3041 0.964642 18.3908 2.14804 17.2172L6.4929 12.9081C7.20865 12.1982 8.42552 12.7052 8.42552 13.7133C8.42552 14.3787 8.97004 14.9187 9.64097 14.9187H17.491C18.9544 14.9187 19.6428 17.1863 18.6037 18.2168C17.4111 19.3997 16.4049 20.7022 15.5844 22.0854ZM32.4988 51.4934C32.4988 51.4927 32.4993 51.4922 32.5 51.4922H51.1411C52.798 51.4922 54.1411 52.8354 54.1411 54.4922V61C54.1411 62.6568 52.798 64 51.1411 64H13.8564C12.1996 64 10.8564 62.6569 10.8564 61V27.4027C10.8564 26.7301 11.4017 26.1849 12.0743 26.1849C12.897 26.1849 13.4834 26.985 13.3049 27.7881C13.0036 29.1447 12.8449 30.5539 12.8449 32C12.8449 36.8435 14.6268 41.2772 17.5779 44.6862C17.6824 44.8092 17.7894 44.9297 17.8988 45.0503L17.9133 45.0671C18.0203 45.1853 18.1297 45.301 18.2391 45.4167L18.2537 45.4312C18.3679 45.5493 18.4846 45.6674 18.6013 45.7856C22.1574 49.3125 27.0698 51.4943 32.4976 51.4946C32.4982 51.4946 32.4988 51.4941 32.4988 51.4934ZM17.0917 56.003C16.4572 56.003 15.9419 56.5431 15.9419 57.2085C15.9419 57.8739 16.4572 58.4139 17.0917 58.4139H47.9059C48.5403 58.4139 49.0557 57.8739 49.0557 57.2085C49.0557 56.5431 48.5403 56.003 47.9059 56.003H17.0917ZM17.0917 5.82476C16.4572 5.82476 15.9419 6.3648 15.9419 7.03021C15.9419 7.69562 16.4572 8.23567 17.0917 8.23567H47.9059C48.5403 8.23567 49.0557 7.69562 49.0557 7.03021C49.0557 6.3648 48.5403 5.82476 47.9059 5.82476H17.0917Z" fill="white"/>
<path d="M21.3906 25.1768C21.3906 23.657 22.6443 22.4215 24.1862 22.4215H40.9594C42.5013 22.4215 43.755 23.657 43.755 25.1768V38.9534C43.755 40.4731 42.5013 41.7087 40.9594 41.7087H24.1862C22.6443 41.7087 21.3906 40.4731 21.3906 38.9534V25.1768ZM35.5343 29.7618C35.3378 29.4777 35.0145 29.3098 34.6694 29.3098C34.3244 29.3098 33.9968 29.4777 33.8046 29.7618L30.0044 35.2552L28.8469 33.8302C28.6459 33.5848 28.3445 33.4428 28.03 33.4428C27.7155 33.4428 27.4098 33.5848 27.2132 33.8302L24.4177 37.2744C24.1643 37.5844 24.1163 38.0106 24.291 38.3679C24.4657 38.7252 24.8326 38.9534 25.2345 38.9534H29.4278H30.8256H39.9111C40.2998 38.9534 40.658 38.7425 40.8371 38.4023C41.0162 38.0622 40.9944 37.6532 40.776 37.339L35.5343 29.7618ZM26.2828 29.3098C26.8389 29.3098 27.3722 29.092 27.7654 28.7045C28.1586 28.317 28.3795 27.7913 28.3795 27.2433C28.3795 26.6952 28.1586 26.1696 27.7654 25.782C27.3722 25.3945 26.8389 25.1768 26.2828 25.1768C25.7268 25.1768 25.1935 25.3945 24.8003 25.782C24.4071 26.1696 24.1862 26.6952 24.1862 27.2433C24.1862 27.7913 24.4071 28.317 24.8003 28.7045C25.1935 29.092 25.7268 29.3098 26.2828 29.3098Z" fill="white"/>
</g>
<defs>
<clipPath id="clip0_701_1090">
<rect width="65" height="64" rx="8" fill="white"/>
</clipPath>
</defs>
</svg>
