<svg width="79" height="45" viewBox="0 0 79 45" fill="none" xmlns="http://www.w3.org/2000/svg">
<path fill-rule="evenodd" clip-rule="evenodd" d="M73.2733 9.13904C70.0248 5.89054 65.5347 3.87924 60.5748 3.87924C55.615 3.87924 51.127 5.88833 47.8763 9.13904C44.6278 12.3876 42.6165 16.8777 42.6165 21.8375C42.6165 22.1529 42.6253 22.4683 42.6408 22.7814L54.1065 34.2471C54.5365 34.6772 54.5365 35.3763 54.1065 35.8063L54.0955 35.8174L52.19 37.7228C54.6931 39.046 57.5447 39.7959 60.5726 39.7959C65.5303 39.7959 70.0204 37.7868 73.2711 34.5361C76.5196 31.2875 78.5309 26.7974 78.5309 21.8375C78.5309 16.8777 76.5218 12.3898 73.2711 9.13904H73.2733ZM36.9796 13.8497H41.7785C43.0069 11.0026 44.8726 8.49728 47.1949 6.51245C48.163 5.68544 49.2106 4.94664 50.3221 4.31149H36.9796C36.3709 4.31149 35.8769 3.81749 35.8769 3.20881V0L28.5441 7.33285L26.7952 9.0817L35.4403 17.7267L35.8769 18.1634V14.9546C35.8769 14.3459 36.3709 13.8519 36.9796 13.8519V13.8497ZM26.643 6.11769L24.4686 8.29218L24.4575 8.30321C24.0275 8.73325 24.0275 9.43236 24.4575 9.8624L35.9056 21.3105L35.9058 21.3178C35.9101 21.4917 35.9144 21.6636 35.9144 21.8375C35.9144 26.7952 33.9053 31.2853 30.6546 34.5361C27.4061 37.7846 22.916 39.7959 17.9561 39.7959C12.9962 39.7959 8.50831 37.7868 5.2576 34.5361C2.00909 31.2853 0 26.7952 0 21.8375C0 16.8799 2.00909 12.3898 5.2598 9.13904C8.50831 5.89054 12.9984 3.87924 17.9583 3.87924C21.1098 3.87924 24.0694 4.69082 26.643 6.11548V6.11769ZM27.1348 39.7959L27.1391 39.7937H41.5844C42.1931 39.7937 42.6871 40.2877 42.6871 40.8963V44.1051L50.2581 36.5363L51.7688 35.0257L43.2252 26.4821L42.6893 25.9461V29.155C42.6893 29.7636 42.1953 30.2576 41.5866 30.2576H36.2827C35.2771 32.4432 33.8921 34.417 32.2138 36.0952C30.7329 37.5783 29.0208 38.828 27.1391 39.7937H27.1326L27.1348 39.7959ZM10.3281 21.9094C10.3281 25.7037 13.4046 28.7801 17.1648 28.7801C20.9249 28.7801 23.9672 25.7379 24.0014 22.012C24.0014 18.1835 20.9591 15.1413 17.1989 15.1071C13.4046 15.0729 10.3623 18.1493 10.3281 21.9094ZM17.5576 22.2349L17.7612 21.1491L19.5594 21.4205L19.6951 20.9116L17.829 20.6401C17.9401 20.291 18.0364 19.9418 18.1316 19.5961L18.1317 19.596L18.1317 19.596L18.1317 19.596C18.2401 19.2026 18.3473 18.8138 18.4737 18.4346C18.5755 18.197 18.7451 17.9595 18.9148 17.7899C19.1523 17.5523 19.4576 17.5863 19.6612 17.8577C19.7121 17.9086 19.7545 17.9595 19.7969 18.0104L19.7969 18.0104C19.8393 18.0613 19.8817 18.1122 19.9326 18.1631C20.0683 18.2988 20.238 18.3328 20.3737 18.231C20.4755 18.1292 20.4755 17.9595 20.4755 17.8238C20.4755 17.7559 20.4076 17.6881 20.3737 17.6541C20.1701 17.4166 19.8648 17.3148 19.5594 17.3148C18.8469 17.2809 18.3719 17.6202 17.9648 18.1631C17.5576 18.706 17.388 19.3168 17.2183 19.9275C17.1788 20.0264 17.1508 20.1252 17.1209 20.2308C17.0994 20.3064 17.077 20.3855 17.0487 20.4704L15.0469 20.199L14.979 20.7419L16.913 21.0473L16.6755 22.0992L14.8094 21.8277L14.7415 22.3367L16.5397 22.6081V22.7439C16.3985 23.4218 16.2338 24.0763 16.0651 24.7464C16.0311 24.8812 15.997 25.0166 15.963 25.153C15.8612 25.5262 15.6915 25.8995 15.3862 26.1709C15.1147 26.3745 14.8433 26.3406 14.6397 26.0691C14.5719 25.9334 14.4701 25.7977 14.3683 25.6959C14.2665 25.662 14.0969 25.628 14.029 25.662C13.9272 25.7298 13.8594 25.8995 13.8594 26.0352C13.8594 26.137 13.9612 26.2727 14.0629 26.3406C14.3683 26.5781 14.7755 26.612 15.1487 26.5442C15.7933 26.4424 16.2683 26.0352 16.5397 25.4584C16.7433 25.0173 16.913 24.5422 17.0826 24.0672C17.1858 23.8195 17.2513 23.5466 17.3174 23.2716L17.3174 23.2716C17.3599 23.0945 17.4027 22.9166 17.4558 22.7439L19.3558 23.0153L19.4915 22.5063L17.5576 22.2349ZM54.875 17.6983L61.2706 14.0043L67.6661 17.6983V25.0862L61.2706 28.7802L54.875 25.0862V17.6983ZM60.6108 14.8939H60.6102L55.9729 17.5727C55.9822 17.6549 55.9822 17.7379 55.9729 17.8202L60.6108 20.4983C60.8013 20.3578 61.0317 20.2819 61.2684 20.2819C61.5051 20.2819 61.7355 20.3578 61.926 20.4983L66.5633 17.8202C66.554 17.7377 66.554 17.6545 66.5633 17.5721L61.9266 14.8939C61.7361 15.0346 61.5055 15.1105 61.2687 15.1105C61.0319 15.1105 60.8013 15.0346 60.6108 14.8939ZM67.2236 18.6839C67.1479 18.6507 67.0759 18.6094 67.0089 18.5602L62.3666 21.2685C62.3931 21.5039 62.3434 21.7416 62.2248 21.9467C62.1063 22.1518 61.9252 22.3135 61.7081 22.4081L61.7137 27.7354C61.7896 27.7683 61.8617 27.8096 61.9285 27.8586L66.5657 25.1804C66.5391 24.945 66.5887 24.7072 66.7071 24.502C66.8255 24.2968 67.0065 24.135 67.2236 24.0402V18.6839ZM60.1696 21.2679L55.5323 18.5897C55.4646 18.639 55.3938 18.6809 55.3175 18.7141V24.0704C55.5346 24.1651 55.7156 24.327 55.834 24.5322C55.9524 24.7374 56.002 24.9752 55.9754 25.2106L60.6127 27.8888C60.6797 27.8395 60.7511 27.7976 60.8275 27.7644V22.4081C60.6104 22.3134 60.4293 22.1515 60.3109 21.9463C60.1925 21.7411 60.143 21.5033 60.1696 21.2679Z" fill="#6C41F4"/>
</svg>
