<svg width="68" height="46" viewBox="0 0 68 46" fill="none" xmlns="http://www.w3.org/2000/svg">
<path d="M7.55556 0C3.3882 0 0 3.43802 0 7.66667V38.3333C0 42.562 3.3882 46 7.55556 46H60.4445C64.6118 46 68 42.562 68 38.3333V7.66667C68 3.43802 64.6118 0 60.4445 0H7.55556ZM15.1111 38.3333H7.55556V30.6667C11.7229 30.6667 15.1111 34.1047 15.1111 38.3333ZM7.55556 15.3333V7.66667H15.1111C15.1111 11.8953 11.7229 15.3333 7.55556 15.3333ZM52.8889 38.3333C52.8889 34.1047 56.2771 30.6667 60.4445 30.6667V38.3333H52.8889ZM60.4445 15.3333C56.2771 15.3333 52.8889 11.8953 52.8889 7.66667H60.4445V15.3333ZM34 11.5C37.0058 11.5 39.8885 12.7116 42.0139 14.8683C44.1393 17.0249 45.3333 19.95 45.3333 23C45.3333 26.05 44.1393 28.9751 42.0139 31.1317C39.8885 33.2884 37.0058 34.5 34 34.5C30.9942 34.5 28.1115 33.2884 25.9861 31.1317C23.8607 28.9751 22.6667 26.05 22.6667 23C22.6667 19.95 23.8607 17.0249 25.9861 14.8683C28.1115 12.7116 30.9942 11.5 34 11.5Z" fill="white"/>
</svg>
