<svg width="40" height="65" viewBox="0 0 40 65" fill="none" xmlns="http://www.w3.org/2000/svg">
<path fill-rule="evenodd" clip-rule="evenodd" d="M33.9646 24.4448H6.06583C4.40667 24.4448 2.89719 25.1346 1.80377 26.244C0.707807 27.356 0.0279064 28.8849 0.0279064 30.5682V36.1022H16.0868L19.8871 32.2465L20.0216 32.11L20.4681 31.657H27.0819C27.3102 31.168 27.6197 30.7253 27.9926 30.3469C28.8298 29.4975 29.9867 28.9724 31.2653 28.9724C32.5439 28.9724 33.7008 29.4975 34.538 30.3469C35.3751 31.1963 35.8927 32.37 35.8927 33.6673C35.8927 34.9646 35.3751 36.1383 34.538 36.9877C33.7008 37.8371 32.5439 38.3622 31.2653 38.3622C29.9867 38.3622 28.8298 37.8371 27.9926 36.9877C27.6197 36.6093 27.3102 36.1666 27.0819 35.6775H22.1069L18.3066 39.5333L18.1721 39.6697L17.7256 40.1228H0.0279064V42.7122H27.0819C27.3102 42.2231 27.6197 41.7804 27.9926 41.402C28.8298 40.5526 29.9867 40.0275 31.2653 40.0275C32.5439 40.0275 33.7008 40.5526 34.538 41.402C35.3751 42.2514 35.8927 43.4251 35.8927 44.7224C35.8927 46.0197 35.3751 47.1934 34.538 48.0428C33.7008 48.8922 32.5439 49.4173 31.2653 49.4173C29.9867 49.4173 28.8298 48.8922 27.9926 48.0428C27.6197 47.6644 27.3102 47.2217 27.0819 46.7327H0.0279064V49.3221H17.7256L18.1721 49.7751L18.3066 49.9115L22.1069 53.7673H27.0819C27.3102 53.2782 27.6197 52.8355 27.9926 52.4571C28.8298 51.6077 29.9867 51.0826 31.2653 51.0826C32.5439 51.0826 33.7008 51.6077 34.538 52.4571C35.3751 53.3065 35.8927 54.4803 35.8927 55.7775C35.8927 57.0748 35.3751 58.2485 34.538 59.0979C33.7008 59.9473 32.5439 60.4724 31.2653 60.4724C29.9867 60.4724 28.8298 59.9473 27.9926 59.0979C27.6197 58.7196 27.3102 58.2768 27.0819 57.7878H20.4681L20.0216 57.3348L19.8871 57.1983L16.0868 53.3426H0.0279064V58.8766C0.0279064 60.5599 0.707807 62.0914 1.80123 63.2008C2.89719 64.3102 4.40413 65 6.0633 65H33.9646C35.6238 65 37.1333 64.3102 38.2267 63.2008C39.3201 62.0914 40 60.5599 40 58.8766V30.5682C40 28.8849 39.3201 27.3534 38.2267 26.244C37.1333 25.1346 35.6238 24.4448 33.9646 24.4448ZM6.18761 22.3857V14.028C6.18761 10.1697 7.74275 6.66139 10.2493 4.1209C12.7558 1.57783 16.2111 0 20.0165 0C23.8194 0 27.2772 1.57783 29.7812 4.1209C32.2877 6.66396 33.8428 10.1697 33.8428 14.028V22.3857H29.3778V14.1001C29.3778 11.4875 28.325 9.11179 26.6278 7.38981C24.9305 5.66784 22.5915 4.59965 20.014 4.59965C17.439 4.59965 15.0974 5.66784 13.4001 7.38981C11.7029 9.11179 10.6501 11.485 10.6501 14.1001V22.3857H6.18507H6.18761ZM30.2404 31.2452C30.1846 31.2709 30.1287 31.2967 30.0729 31.325H30.0653L30.045 31.3404L30.0273 31.3507H30.0197L29.9943 31.3687L29.9715 31.3816L29.9461 31.3971L29.9233 31.4125H29.9182L29.8979 31.4279C29.8269 31.4717 29.7584 31.5206 29.6924 31.5721L29.6873 31.5772L29.6721 31.5901C29.6493 31.6081 29.629 31.6261 29.6061 31.6442L29.5909 31.657L29.5858 31.6622C29.5326 31.7085 29.4818 31.7574 29.4311 31.8063C29.0632 32.1795 28.8045 32.6634 28.7106 33.2065H21.1023L20.9678 33.343L16.721 37.6518H0V38.5835H17.0965L17.2309 38.4471L21.4778 34.1383H28.7081C28.8019 34.6814 29.0607 35.1653 29.4286 35.5386C29.4793 35.59 29.53 35.6364 29.5833 35.6827L29.5884 35.6878L29.6036 35.7007C29.6239 35.7187 29.6467 35.7367 29.6696 35.7548L29.6848 35.7676L29.6899 35.7728C29.7558 35.8243 29.8243 35.8732 29.8953 35.9169L29.9156 35.9298H29.9207L29.9436 35.9452L29.9689 35.9607L29.9918 35.9735C30.0146 35.9864 30.0374 35.9993 30.0628 36.0122H30.0704C30.1287 36.0456 30.1871 36.0739 30.2454 36.0997H30.2505L30.2708 36.11C30.2886 36.1177 30.3063 36.1254 30.3241 36.1306L30.3393 36.1357L30.3495 36.1409L30.3748 36.1511L30.3977 36.1589H30.4027L30.4281 36.1692L30.456 36.1795L30.4814 36.1872H30.4865L30.5093 36.1949H30.5169L30.5372 36.2026H30.5473L30.5626 36.2103L30.5778 36.2155H30.5905L30.5955 36.2206L30.6463 36.2335L30.6717 36.2387H30.6742L30.7021 36.2464L30.73 36.2515L30.7579 36.2567H30.7655L30.7884 36.2618H30.7985L30.8036 36.2644L30.8289 36.2696H30.8315L30.8467 36.2721H30.8645L30.8771 36.2773H30.8974L30.9051 36.2824H30.9279L30.933 36.285H30.9609V36.2876H30.9913V36.2901H31.0192L31.0243 36.2927H31.0497L31.0573 36.2953H31.0776H31.0903H31.108H31.1232H31.1385H31.1587C31.1816 36.2953 31.2019 36.2953 31.2247 36.2953H31.2272H31.2577C31.9756 36.2953 32.6251 35.9993 33.097 35.5231C33.5663 35.0469 33.8581 34.3854 33.8581 33.657C33.8581 32.9286 33.5663 32.2696 33.097 31.7909C32.6276 31.3147 31.9756 31.0187 31.2577 31.0187H31.2272H31.2247C31.2019 31.0187 31.179 31.0187 31.1587 31.0187H31.1385H31.1232H31.108H31.0903H31.0776H31.0573H31.0497L31.0243 31.0213H31.0192L30.9913 31.0238L30.9609 31.0264L30.933 31.029H30.9279L30.9051 31.0316H30.8974L30.8771 31.0367H30.8645L30.8467 31.0419H30.8315L30.8289 31.0444L30.8036 31.0496H30.7985L30.7884 31.0522L30.7655 31.0573H30.7579L30.73 31.065L30.7021 31.0702L30.6742 31.0779H30.6717L30.6463 31.0856L30.5955 31.0985H30.5905L30.5778 31.1036L30.5626 31.1088L30.5473 31.1139H30.5372L30.5169 31.1242H30.5093L30.4865 31.1345H30.4814L30.456 31.1448L30.4281 31.1551L30.4027 31.1654H30.3977L30.3748 31.1757L30.3495 31.186L30.3393 31.1911L30.3241 31.1963L30.2708 31.2169L30.2505 31.2246H30.2454L30.2378 31.2298L30.2404 31.2452ZM28.7055 56.246H21.0972L20.9628 56.1096L16.7159 51.8008H0V50.869H17.0965L17.2309 51.0054L21.4778 55.3142H28.7081C28.8019 54.7711 29.0607 54.2872 29.4286 53.914C29.4793 53.8625 29.53 53.8162 29.5833 53.7698L29.5884 53.7647L29.6036 53.7518C29.6239 53.7338 29.6467 53.7158 29.6696 53.6978L29.6848 53.6849L29.6899 53.6798C29.7558 53.6283 29.8243 53.5794 29.8953 53.5356L29.9156 53.5227H29.9207L29.9436 53.5073L29.9689 53.4919L29.9918 53.479L30.0171 53.4661L30.0247 53.461L30.0425 53.4507L30.0628 53.4404H30.0704C30.1262 53.4069 30.182 53.3812 30.2378 53.3554H30.2454L30.2505 53.3503L30.2708 53.3426C30.2886 53.3349 30.3063 53.3271 30.3241 53.322L30.3393 53.3168L30.3495 53.3117L30.3748 53.3014L30.3977 53.2937H30.4027L30.4281 53.2834L30.456 53.2731L30.4814 53.2654H30.4865L30.5093 53.2576H30.5169L30.5372 53.2499H30.5473L30.5626 53.2422L30.5778 53.237H30.5905L30.5955 53.2319L30.6463 53.219L30.6717 53.2139H30.6742L30.7021 53.2062L30.73 53.201L30.7579 53.1959H30.7655L30.7884 53.1907H30.7985L30.8036 53.1881L30.8289 53.183H30.8315L30.8467 53.1804H30.8645L30.8771 53.1753H30.8974L30.9051 53.1701H30.9279L30.933 53.1675H30.9609V53.165H30.9913V53.1624H31.0192L31.0243 53.1598H31.0497L31.0573 53.1572H31.0776H31.0903H31.108H31.1232H31.1385H31.1587C31.1816 53.1572 31.2019 53.1572 31.2247 53.1572H31.2272H31.2577C31.9756 53.1572 32.6251 53.4533 33.097 53.9294C33.5663 54.4056 33.8581 55.0671 33.8581 55.7955C33.8581 56.524 33.5663 57.1829 33.097 57.6617C32.6276 58.1404 31.9756 58.4338 31.2577 58.4338H31.2272H31.2247C31.2019 58.4338 31.179 58.4338 31.1587 58.4338H31.1385H31.1232H31.108H31.0903H31.0776H31.0573H31.0497L31.0243 58.4313H31.0192L30.9913 58.4287L30.9609 58.4261L30.933 58.4235H30.9279L30.9051 58.421H30.8974L30.8771 58.4158H30.8645L30.8467 58.4107H30.8315L30.8289 58.4081L30.8036 58.403H30.7985L30.7884 58.4004L30.7655 58.3952H30.7579L30.73 58.3875L30.7021 58.3824L30.6742 58.3772H30.6717L30.6463 58.3695L30.5955 58.3566H30.5905L30.5778 58.3515L30.5626 58.3463L30.5473 58.3412H30.5372L30.5169 58.3309H30.5093L30.4865 58.3206H30.4814L30.456 58.3103L30.4281 58.3L30.4027 58.2897H30.3977L30.3748 58.2794L30.3495 58.2691L30.3393 58.264L30.3241 58.2588C30.3063 58.2511 30.2886 58.2459 30.2708 58.2382L30.2505 58.2305H30.2454C30.1871 58.2022 30.1287 58.1739 30.0704 58.1456H30.0628C30.04 58.1301 30.0146 58.1172 29.9918 58.1018L29.9689 58.0889L29.9436 58.0735L29.9207 58.058H29.9156L29.8953 58.0426C29.8243 57.9988 29.7558 57.9499 29.6899 57.8985L29.6848 57.8933L29.6696 57.8804C29.6467 57.8624 29.6264 57.8444 29.6036 57.8264L29.5884 57.8135L29.5833 57.8084C29.53 57.762 29.4793 57.7131 29.4286 57.6642C29.0607 57.291 28.8019 56.8071 28.7081 56.264L28.7055 56.246ZM28.7055 45.1909H0V44.2591H28.7081C28.8019 43.716 29.0607 43.2321 29.4286 42.8589C29.4793 42.8074 29.53 42.7611 29.5833 42.7147L29.5884 42.7096L29.6036 42.6967C29.6239 42.6787 29.6467 42.6607 29.6696 42.6427L29.6848 42.6298L29.6899 42.6246C29.7558 42.5732 29.8243 42.5243 29.8953 42.4805L29.9156 42.4676H29.9207L29.9436 42.4522L29.9689 42.4367L29.9918 42.4239L30.0171 42.411H30.0247L30.0425 42.3981L30.0628 42.3878H30.0704C30.1262 42.3544 30.182 42.3286 30.2378 42.3029H30.2454L30.2505 42.2977L30.2708 42.29C30.2886 42.2823 30.3063 42.2746 30.3241 42.2694L30.3393 42.2643L30.3495 42.2591L30.3748 42.2488L30.3977 42.2411H30.4027L30.4281 42.2308L30.456 42.2205L30.4814 42.2128H30.4865L30.5093 42.2051H30.5169L30.5372 42.1974H30.5473L30.5626 42.1896L30.5778 42.1845H30.5905L30.5955 42.1793L30.6463 42.1665L30.6717 42.1613H30.6742L30.7021 42.1536L30.73 42.1485L30.7579 42.1433H30.7655L30.7884 42.1382H30.7985L30.8036 42.1356L30.8289 42.1304H30.8315L30.8467 42.1279H30.8645L30.8771 42.1227H30.8974L30.9051 42.1176H30.9279L30.933 42.115H30.9609V42.1124H30.9913V42.1098H31.0192L31.0243 42.1073H31.0497L31.0573 42.1047H31.0776H31.0903H31.108H31.1232H31.1385H31.1587C31.1816 42.1047 31.2019 42.1047 31.2247 42.1047H31.2272H31.2577C31.9756 42.1047 32.6251 42.4007 33.097 42.8769C33.5663 43.3531 33.8581 44.0146 33.8581 44.743C33.8581 45.4714 33.5663 46.1304 33.097 46.6091C32.6276 47.0853 31.9756 47.3813 31.2577 47.3813H31.2272H31.2247C31.2019 47.3813 31.179 47.3813 31.1587 47.3813H31.1385H31.1232H31.108H31.0903H31.0776H31.0573H31.0497L31.0243 47.3787H31.0192L30.9913 47.3762L30.9609 47.3736L30.933 47.371H30.9279L30.9051 47.3659H30.8974L30.8771 47.3607H30.8645L30.8467 47.3556H30.8315L30.8289 47.353L30.8036 47.3478H30.7985L30.7884 47.3453L30.7655 47.3401H30.7579L30.73 47.3324L30.7021 47.3272L30.6742 47.3195H30.6717L30.6463 47.3118L30.5955 47.2989H30.5905L30.5778 47.2938L30.5626 47.2886L30.5473 47.2835H30.5372L30.5169 47.2732H30.5093L30.4865 47.2629H30.4814L30.456 47.2526L30.4281 47.2423L30.4027 47.232H30.3977L30.3748 47.2217L30.3495 47.2114L30.3393 47.2063L30.3241 47.2011C30.3063 47.1934 30.2886 47.1883 30.2708 47.1805L30.2505 47.1728H30.2454C30.1871 47.1445 30.1287 47.1162 30.0704 47.0879H30.0628C30.04 47.0724 30.0146 47.0596 29.9918 47.0441L29.9689 47.0312L29.9436 47.0158L29.9207 47.0004H29.9156L29.8953 46.9849C29.8243 46.9412 29.7558 46.8922 29.6899 46.8408L29.6848 46.8356L29.6696 46.8228C29.6467 46.8047 29.6264 46.7867 29.6036 46.7687L29.5884 46.7558L29.5833 46.7507C29.53 46.7043 29.4793 46.6554 29.4286 46.6065C29.0607 46.2333 28.8019 45.7494 28.7081 45.2063L28.7055 45.1909Z" fill="white"/>
</svg>
