<svg width="72" height="45" viewBox="0 0 72 45" fill="none" xmlns="http://www.w3.org/2000/svg">
<path d="M62.8021 12.5045C62.2677 12.5045 61.7837 12.7167 61.4328 13.0615C61.082 13.4063 60.8661 13.8819 60.8661 14.4071C60.8661 14.9322 61.082 15.4079 61.4328 15.7527C61.7837 16.0974 62.2677 16.3096 62.8021 16.3096C63.3365 16.3096 63.8205 16.0974 64.1713 15.7527C64.5222 15.4079 64.7381 14.9322 64.7381 14.4071C64.7381 13.8819 64.5222 13.4063 64.1713 13.0615C63.8205 12.7167 63.3365 12.5045 62.8021 12.5045ZM44.9892 21.7627C44.9586 20.3552 44.8399 18.9884 44.6455 17.6835C44.4458 16.3432 44.1633 15.0701 43.8107 13.8819C42.7095 14.1401 41.5562 14.3452 40.3597 14.4902C39.1937 14.6334 37.9864 14.72 36.7467 14.7448V21.7627H44.9874H44.9892ZM40.8958 5.68644C41.3439 6.10727 41.7703 6.58468 42.1751 7.11513C42.6699 7.76228 43.1306 8.48369 43.5534 9.27407C43.7927 9.72141 44.0194 10.1882 44.2317 10.6745C44.4314 11.1324 44.6222 11.6098 44.8003 12.1049C45.5686 11.8839 46.3027 11.6328 46.9972 11.3587C47.6773 11.0882 48.3179 10.7947 48.917 10.4782C48.8757 10.4358 48.8343 10.3933 48.7929 10.3509C48.7281 10.2855 48.6579 10.2147 48.5806 10.1387C47.4722 9.04951 46.2181 8.10354 44.8507 7.33084C43.6182 6.63418 42.2921 6.07898 40.8958 5.68821V5.68644ZM45.2573 13.5035C45.6279 14.7554 45.923 16.0939 46.1317 17.4961C46.3351 18.8611 46.4574 20.2898 46.488 21.7627H53.7733V21.7061L53.7661 21.6071V21.6L53.7553 21.409V21.3754L53.7481 21.31L53.7373 21.1527L53.7337 21.1138L53.7247 21.0165L53.7175 20.9316V20.9193L53.7067 20.822L53.6977 20.7248V20.7124C53.6869 20.6098 53.6743 20.4984 53.6599 20.3835C53.6455 20.2686 53.6311 20.1607 53.6168 20.0564V20.0475C53.6078 19.9857 53.597 19.9149 53.5844 19.8354C53.5718 19.7523 53.561 19.6815 53.5502 19.6214L53.5412 19.5719C53.5322 19.5206 53.5214 19.457 53.507 19.3827C53.4962 19.3191 53.4836 19.2589 53.4728 19.2059L53.471 19.1935L53.4332 19.0043L53.4278 18.9796C53.1633 17.7118 52.7603 16.4935 52.2331 15.3407C51.6969 14.1666 51.0312 13.0615 50.2539 12.0413L50.2503 12.0342C50.2215 11.9953 50.1855 11.9511 50.1459 11.898C50.1046 11.8468 50.0686 11.799 50.0362 11.7583L49.9948 11.7071L49.9822 11.6912L49.921 11.6151C49.2427 11.99 48.5086 12.3383 47.7259 12.6566C46.9486 12.9713 46.1245 13.256 45.2573 13.5071V13.5035ZM46.488 23.2373C46.4574 24.7102 46.3351 26.1389 46.1317 27.5039C45.923 28.9061 45.6279 30.2446 45.2573 31.4965C46.1228 31.7475 46.9486 32.0305 47.7259 32.347C48.5086 32.6635 49.2427 33.0118 49.921 33.3884L49.9822 33.3124L49.9948 33.2965L50.0362 33.2434C50.0668 33.2045 50.1046 33.1585 50.1441 33.1037C50.1873 33.0489 50.2215 33.0047 50.2485 32.9676L50.2521 32.9623C51.0294 31.9403 51.6933 30.8334 52.2313 29.6593C52.7585 28.5083 53.1615 27.29 53.426 26.0222L53.4314 25.9974L53.4692 25.8083V25.7976H53.471C53.4836 25.7287 53.4962 25.6703 53.5052 25.6208C53.516 25.566 53.5268 25.5024 53.5394 25.4316L53.5484 25.3821C53.5592 25.322 53.57 25.2495 53.5826 25.1682C53.5952 25.0886 53.606 25.0161 53.615 24.956V24.9507V24.9489C53.6293 24.8446 53.6437 24.7367 53.6581 24.6236C53.6725 24.5069 53.6851 24.3972 53.6959 24.2912V24.2788L53.7049 24.1815L53.7139 24.0843V24.0719L53.7211 23.987L53.7301 23.8898L53.7337 23.8509L53.7445 23.6935L53.7481 23.6281V23.5945H53.7499L53.7607 23.4035V23.3965L53.7661 23.2974V23.2409H46.4826L46.488 23.2373ZM44.7985 32.8969C44.6204 33.3919 44.4314 33.8694 44.2299 34.3273C44.0176 34.8136 43.7909 35.2821 43.5516 35.7277C43.1287 36.5163 42.6681 37.2395 42.1733 37.8866C41.7685 38.4153 41.3403 38.8927 40.894 39.3153C42.2903 38.9228 43.6164 38.3676 44.8489 37.6727C46.2163 36.9 47.4686 35.9558 48.577 34.8648C48.6543 34.7888 48.7245 34.7181 48.7893 34.6526C48.8325 34.6084 48.8738 34.566 48.9134 34.5253C48.3161 34.2088 47.6737 33.9136 46.9936 33.6448C46.2991 33.369 45.565 33.1196 44.7967 32.8986L44.7985 32.8969ZM31.0988 39.3136C30.6507 38.8927 30.2243 38.4153 29.8195 37.8849C29.3247 37.2377 28.8641 36.5163 28.4412 35.7259C28.2019 35.2786 27.9752 34.8118 27.7629 34.3255C27.5632 33.8676 27.3725 33.3902 27.1943 32.8951C26.426 33.1161 25.6919 33.3672 24.9992 33.6413C24.3191 33.9118 23.6767 34.2053 23.0794 34.5236C23.119 34.5642 23.1603 34.6067 23.2035 34.6509C23.2755 34.7234 23.3457 34.7941 23.4158 34.8631C24.5242 35.9523 25.7783 36.8982 27.1439 37.6692C28.3764 38.3658 29.7025 38.921 31.0988 39.3118V39.3136ZM26.7373 31.4965C26.3667 30.2446 26.0716 28.9061 25.8629 27.5039C25.6595 26.1389 25.5372 24.7102 25.5066 23.2373H18.2213V23.2939L18.2285 23.3929V23.4L18.2393 23.591V23.6246L18.2465 23.69L18.2573 23.8473L18.2609 23.8862L18.2681 23.9835L18.2753 24.0684V24.0807L18.2861 24.178L18.2951 24.2752V24.2876C18.3059 24.3919 18.3185 24.5016 18.3329 24.6183C18.3473 24.7314 18.3617 24.8411 18.376 24.9454V24.9542C18.385 25.0179 18.3958 25.0886 18.4084 25.1664C18.421 25.2477 18.4318 25.3185 18.4426 25.3804L18.4516 25.4299L18.4678 25.5253L18.4804 25.5961L18.484 25.6208L18.5182 25.7976L18.52 25.81L18.5578 25.9992L18.5632 26.024C18.5848 26.1318 18.6082 26.2379 18.6315 26.3405C18.6549 26.443 18.6783 26.5456 18.7053 26.6499V26.657L18.7089 26.6623C18.7701 26.9081 18.8367 27.1503 18.9068 27.3908C18.9788 27.6312 19.0544 27.8717 19.1371 28.1104V28.1157L19.1389 28.1193L19.1983 28.2908L19.2055 28.312C19.3962 28.8442 19.6122 29.364 19.8515 29.8697C20.0926 30.3807 20.3589 30.8776 20.6467 31.3568L20.6647 31.3868L20.7763 31.569L20.7853 31.5849L20.8788 31.7352L20.8878 31.7475L20.9256 31.8077C21.0138 31.9438 21.102 32.08 21.1937 32.2143C21.2837 32.347 21.3772 32.4796 21.4726 32.6122L21.4816 32.6246C21.5284 32.69 21.5698 32.7466 21.6058 32.7961C21.6399 32.842 21.6831 32.9004 21.7335 32.9658L21.7371 32.9729C21.7659 33.01 21.8001 33.0542 21.8415 33.109C21.8828 33.1621 21.9188 33.2081 21.9512 33.2487L21.9926 33.3L22.0052 33.3159L22.0664 33.3919C22.7447 33.0171 23.4788 32.6688 24.2615 32.3505C25.0388 32.0358 25.8629 31.7511 26.7301 31.5L26.7373 31.4965ZM25.5066 21.7627C25.5372 20.2898 25.6595 18.8611 25.8629 17.4961C26.0716 16.0939 26.3667 14.7554 26.7373 13.5035C25.8719 13.2525 25.046 12.9678 24.2687 12.653C23.486 12.3365 22.7519 11.9882 22.0736 11.6116L22.0124 11.6876L21.9998 11.7035L21.9584 11.7566C21.9278 11.7937 21.8918 11.8415 21.8505 11.8963C21.8073 11.9511 21.7731 11.9953 21.7461 12.0324V12.036L21.7407 12.0413C21.6957 12.0996 21.6525 12.1562 21.613 12.211C21.577 12.2605 21.5356 12.3171 21.4888 12.3825L21.4798 12.3949C21.3844 12.5275 21.2909 12.6601 21.2009 12.7927C21.1092 12.9271 21.021 13.0615 20.9328 13.1976L20.895 13.2578L20.886 13.2719L20.7925 13.4204L20.7835 13.4363L20.6719 13.6185L20.6539 13.6485C20.3661 14.1295 20.0998 14.6263 19.8587 15.1373C19.6194 15.643 19.4034 16.1611 19.2145 16.6916L19.2073 16.711L19.1443 16.8896V16.8931C19.0616 17.1318 18.986 17.3723 18.914 17.6128C18.8439 17.8532 18.7773 18.0955 18.7161 18.3413V18.3448L18.7143 18.3501C18.6891 18.4544 18.6639 18.5587 18.6405 18.6613C18.6172 18.7639 18.5938 18.8699 18.5722 18.9778L18.5668 19.0026L18.529 19.1917V19.2024H18.5254L18.4912 19.3792L18.4876 19.4039L18.475 19.4747L18.4588 19.5701L18.4498 19.6196C18.439 19.6798 18.4282 19.7523 18.4156 19.8336C18.403 19.9149 18.3922 19.9857 18.3832 20.0458V20.0511V20.0528C18.3689 20.1572 18.3545 20.265 18.3401 20.3782C18.3257 20.4949 18.3131 20.6045 18.3023 20.7106V20.723L18.2933 20.8202L18.2843 20.9175V20.9299L18.2771 21.0147L18.2699 21.112L18.2663 21.1509L18.2555 21.3083L18.2519 21.3737V21.4073H18.2501L18.2393 21.5982V21.6053L18.2339 21.7043V21.7609H25.5174L25.5066 21.7627ZM27.1961 12.1031C27.3743 11.6081 27.5632 11.1306 27.7647 10.6727C27.977 10.1864 28.2037 9.71788 28.443 9.2723C28.8659 8.48193 29.3265 7.76051 29.8213 7.11336C30.2261 6.58468 30.6543 6.10727 31.1006 5.68468C29.7043 6.07721 28.3783 6.63242 27.1457 7.32731C25.7783 8.1 24.526 9.04597 23.4158 10.1352C23.3457 10.2041 23.2755 10.2749 23.2035 10.3473C23.1621 10.3898 23.1208 10.4322 23.0794 10.4747C23.6767 10.7912 24.3191 11.0864 24.9992 11.3552C25.6937 11.631 26.426 11.8804 27.1943 12.1014L27.1961 12.1031ZM42.2309 9.95658C41.4734 8.54204 40.5936 7.37682 39.6292 6.5334C38.7313 5.7501 37.7615 5.2444 36.7503 5.07642V13.2701C37.9126 13.2454 39.0462 13.1658 40.1419 13.0332C41.2557 12.8988 42.3281 12.7132 43.3501 12.478C43.1899 12.0395 43.0208 11.6169 42.8427 11.2138C42.6501 10.7788 42.4468 10.3597 42.2327 9.95658H42.2309ZM35.2497 5.07642C34.2385 5.2444 33.2687 5.7501 32.3709 6.5334C31.4064 7.37682 30.5248 8.54204 29.7691 9.95658C29.555 10.358 29.3499 10.777 29.1591 11.2138C28.981 11.6169 28.8119 12.0395 28.6517 12.478C29.6737 12.7132 30.7461 12.8988 31.8599 13.0332C32.9556 13.1658 34.091 13.2454 35.2515 13.2701V5.07642H35.2497ZM28.1857 13.8802C27.8331 15.0684 27.5524 16.3432 27.3509 17.6817C27.1565 18.9866 27.0378 20.3534 27.0072 21.7609H35.2479V14.743C34.0082 14.7183 32.8009 14.6316 31.6349 14.4884C30.4402 14.3417 29.2851 14.1365 28.1839 13.8802H28.1857ZM27.0072 23.2356C27.0378 24.643 27.1565 26.0098 27.3509 27.3147C27.5506 28.655 27.8331 29.9281 28.1857 31.1163C29.2869 30.8582 30.4402 30.653 31.6367 30.5081C32.8027 30.3648 34.01 30.2782 35.2497 30.2534V23.2356H27.009H27.0072ZM28.6481 32.5202C28.8083 32.9587 28.9774 33.3813 29.1555 33.7845C29.3481 34.2195 29.5514 34.6385 29.7655 35.0416C30.523 36.4562 31.4028 37.6214 32.3673 38.4648C33.2651 39.2481 34.2349 39.7538 35.2461 39.9218V31.7281C34.0838 31.7528 32.9502 31.8324 31.8545 31.965C30.7407 32.0994 29.6683 32.2851 28.6463 32.5202H28.6481ZM36.7485 39.9218C37.7597 39.7538 38.7295 39.2481 39.6273 38.4648C40.5918 37.6214 41.4734 36.4562 42.2291 35.0416C42.4432 34.6403 42.6483 34.2212 42.8391 33.7845C43.0172 33.3813 43.1863 32.9587 43.3465 32.5202C42.3245 32.2851 41.2521 32.0994 40.1383 31.965C39.0426 31.8324 37.9072 31.7528 36.7467 31.7281V39.9218H36.7485ZM43.8125 31.1181C44.1651 29.9299 44.4458 28.655 44.6473 27.3165C44.8417 26.0116 44.9604 24.6448 44.991 23.2373H36.7503V30.2552C37.99 30.28 39.1973 30.3666 40.3633 30.5098C41.558 30.6566 42.7131 30.8617 43.8143 31.1181H43.8125ZM35.9982 0C42.3209 0 48.0444 2.51788 52.1881 6.58998C54.2033 8.57033 55.8443 10.9185 56.9994 13.523H59.1765C59.3421 12.8652 59.6893 12.2764 60.1607 11.8114C60.8373 11.1466 61.7711 10.7363 62.8021 10.7363C63.8331 10.7363 64.7669 11.1466 65.4434 11.8114C66.12 12.4762 66.5374 13.3939 66.5374 14.4071C66.5374 15.4202 66.12 16.3379 65.4434 17.0028C64.7669 17.6676 63.8331 18.0778 62.8021 18.0778C61.7711 18.0778 60.8373 17.6676 60.1607 17.0028C59.6875 16.5377 59.3421 15.9507 59.1765 15.2912H57.6939C58.3741 17.2662 58.7807 19.365 58.8743 21.5452H64.6391C64.8047 20.8874 65.1519 20.2986 65.6234 19.8336C66.2999 19.1688 67.2337 18.7585 68.2647 18.7585C69.2957 18.7585 70.2295 19.1688 70.906 19.8336C71.5826 20.4984 72 21.4161 72 22.4293C72 23.4424 71.5826 24.3601 70.906 25.025C70.2295 25.6898 69.2957 26.1 68.2647 26.1C67.2337 26.1 66.2999 25.6898 65.6234 25.025C65.1501 24.5599 64.8047 23.9729 64.6391 23.3134H58.8815C58.8005 25.543 58.3902 27.6896 57.6957 29.7088H59.1783C59.3439 29.0511 59.6911 28.4623 60.1625 27.9972C60.8391 27.3324 61.7729 26.9222 62.8039 26.9222C63.8349 26.9222 64.7687 27.3324 65.4452 27.9972C66.1217 28.6621 66.5392 29.5798 66.5392 30.5929C66.5392 31.6061 66.1217 32.5238 65.4452 33.1886C64.7687 33.8534 63.8349 34.2637 62.8039 34.2637C61.7729 34.2637 60.8391 33.8534 60.1625 33.1886C59.6893 32.7236 59.3439 32.1365 59.1783 31.477H57.0012C55.8461 34.0815 54.2051 36.4297 52.1899 38.41C48.0462 42.4821 42.3227 45 36 45C29.6773 45 23.9538 42.4821 19.8101 38.41C17.7949 36.4297 16.1539 34.0815 14.9988 31.477H12.8217C12.6561 32.1348 12.3089 32.7236 11.8375 33.1886C11.1609 33.8534 10.2271 34.2637 9.19612 34.2637C8.16513 34.2637 7.23131 33.8534 6.55478 33.1886C5.87825 32.5238 5.46082 31.6061 5.46082 30.5929C5.46082 29.5798 5.87825 28.6621 6.55478 27.9972C7.23131 27.3324 8.16513 26.9222 9.19612 26.9222C10.2271 26.9222 11.1609 27.3324 11.8375 27.9972C12.3107 28.4623 12.6561 29.0493 12.8217 29.7088H14.3043C13.6098 27.6896 13.1995 25.543 13.1186 23.3134H7.36086C7.19532 23.9711 6.84806 24.5599 6.37665 25.025C5.70012 25.6898 4.76629 26.1 3.73531 26.1C2.70432 26.1 1.77049 25.6898 1.09396 25.025C0.417433 24.3601 0 23.4424 0 22.4293C0 21.4161 0.417433 20.4984 1.09396 19.8336C1.77049 19.1688 2.70432 18.7585 3.73531 18.7585C4.76629 18.7585 5.70012 19.1688 6.37665 19.8336C6.84986 20.2986 7.19532 20.8857 7.36086 21.5452H13.1257C13.2175 19.3668 13.6259 17.268 14.3061 15.2912H12.8235C12.6579 15.9489 12.3107 16.5377 11.8393 17.0028C11.1627 17.6676 10.2289 18.0778 9.19792 18.0778C8.16693 18.0778 7.23311 17.6676 6.55658 17.0028C5.88005 16.3379 5.46262 15.4202 5.46262 14.4071C5.46262 13.3939 5.88005 12.4762 6.55658 11.8114C7.23311 11.1466 8.16693 10.7363 9.19792 10.7363C10.2289 10.7363 11.1627 11.1466 11.8393 11.8114C12.3125 12.2764 12.6579 12.8635 12.8235 13.523H15.0006C16.1557 10.9185 17.7967 8.57033 19.8119 6.58998C23.952 2.51788 29.6755 0 35.9982 0ZM10.5636 29.2473C10.2127 28.9026 9.72871 28.6904 9.19432 28.6904C8.65994 28.6904 8.17593 28.9026 7.82507 29.2473C7.47421 29.5921 7.2583 30.0678 7.2583 30.5929C7.2583 31.1181 7.47421 31.5937 7.82507 31.9385C8.17593 32.2833 8.65994 32.4955 9.19432 32.4955C9.72871 32.4955 10.2127 32.2833 10.5636 31.9385C10.9144 31.5937 11.1303 31.1181 11.1303 30.5929C11.1303 30.0678 10.9144 29.5921 10.5636 29.2473ZM5.10276 21.0837C4.7519 20.7389 4.26789 20.5267 3.73351 20.5267C3.19912 20.5267 2.71511 20.7389 2.36425 21.0837C2.01339 21.4285 1.79748 21.9041 1.79748 22.4293C1.79748 22.9544 2.01339 23.4301 2.36425 23.7749C2.71511 24.1196 3.19912 24.3318 3.73351 24.3318C4.26789 24.3318 4.7519 24.1196 5.10276 23.7749C5.45362 23.4301 5.66953 22.9544 5.66953 22.4293C5.66953 21.9041 5.45362 21.4285 5.10276 21.0837ZM10.5636 13.0615C10.2127 12.7167 9.72871 12.5045 9.19432 12.5045C8.65994 12.5045 8.17593 12.7167 7.82507 13.0615C7.47421 13.4063 7.2583 13.8819 7.2583 14.4071C7.2583 14.9322 7.47421 15.4079 7.82507 15.7527C8.17593 16.0974 8.65994 16.3096 9.19432 16.3096C9.72871 16.3096 10.2127 16.0974 10.5636 15.7527C10.9144 15.4079 11.1303 14.9322 11.1303 14.4071C11.1303 13.8819 10.9144 13.4063 10.5636 13.0615ZM68.2647 20.5267C67.7303 20.5267 67.2463 20.7389 66.8954 21.0837C66.5446 21.4285 66.3287 21.9041 66.3287 22.4293C66.3287 22.9544 66.5446 23.4301 66.8954 23.7749C67.2463 24.1196 67.7303 24.3318 68.2647 24.3318C68.7991 24.3318 69.2831 24.1196 69.6339 23.7749C69.9848 23.4301 70.2007 22.9544 70.2007 22.4293C70.2007 21.9041 69.9848 21.4285 69.6339 21.0837C69.2831 20.7389 68.7991 20.5267 68.2647 20.5267ZM62.8039 28.6904C62.2695 28.6904 61.7855 28.9026 61.4346 29.2473C61.0838 29.5921 60.8679 30.0678 60.8679 30.5929C60.8679 31.1181 61.0838 31.5937 61.4346 31.9385C61.7855 32.2833 62.2695 32.4955 62.8039 32.4955C63.3383 32.4955 63.8223 32.2833 64.1731 31.9385C64.524 31.5937 64.7399 31.1181 64.7399 30.5929C64.7399 30.0678 64.524 29.5921 64.1731 29.2473C63.8223 28.9026 63.3383 28.6904 62.8039 28.6904ZM50.9178 7.84008C47.0998 4.08802 41.8261 1.76817 36 1.76817C30.1739 1.76817 24.9002 4.08802 21.0822 7.84008C17.2641 11.5921 14.9034 16.7747 14.9034 22.5C14.9034 28.2253 17.2641 33.4079 21.0822 37.1599C24.9002 40.912 30.1739 43.2318 36 43.2318C41.8261 43.2318 47.0998 40.912 50.9178 37.1599C54.7359 33.4079 57.0966 28.2253 57.0966 22.5C57.0966 16.7747 54.7359 11.5921 50.9178 7.84008Z" fill="#6C41F4"/>
</svg>
