<svg width="64" height="51" viewBox="0 0 64 51" fill="none" xmlns="http://www.w3.org/2000/svg">
<path d="M59.9065 48.5883V50.2933H9.46094C9.66586 49.7436 9.66586 49.138 9.46094 48.5883H59.9065Z" fill="#6C41F4"/>
<path d="M7.90816 49.4401C7.90816 49.9111 7.52627 50.2929 7.05592 50.2929C6.58499 50.2929 6.20312 49.911 6.20312 49.4401C6.20312 48.9698 6.58501 48.5879 7.05592 48.5879C7.52629 48.5879 7.90816 48.9698 7.90816 49.4401Z" fill="#6C41F4"/>
<path d="M4.65559 48.5883C4.45067 49.138 4.45067 49.7436 4.65559 50.2933H1.94531V48.5883H4.65559Z" fill="#6C41F4"/>
<path d="M36.7079 24.4827L32.6333 26.8522L28.5246 29.2217C27.9971 29.5185 27.3521 29.5134 26.8292 29.208C26.3069 28.9032 25.9849 28.3438 25.9844 27.7387V18.2939C25.9849 17.6888 26.3069 17.1294 26.8292 16.8245C27.352 16.5191 27.9971 16.514 28.5246 16.8108L32.6333 19.1803L36.725 21.5498C37.2404 21.8604 37.5549 22.4192 37.5509 23.0214C37.5475 23.623 37.2273 24.1785 36.7079 24.4827Z" fill="#6C41F4"/>
<path d="M56.2598 0H6.8196C5.01065 0 3.27594 0.718668 1.99731 1.99731C0.718668 3.27651 0 5.01065 0 6.8196V39.2108C0 41.0197 0.718668 42.7539 1.99731 44.0331C3.27594 45.3117 5.01065 46.0304 6.8196 46.0304H56.2598C58.0681 46.0304 59.8029 45.3117 61.0815 44.0331C62.3607 42.7539 63.0794 41.0197 63.0794 39.2108V6.8196C63.0794 5.01065 62.3607 3.27653 61.0815 1.99731C59.8029 0.718668 58.0681 0 56.2598 0ZM30.9252 37.5072C27.0818 37.5072 23.3962 35.9803 20.6784 33.2626C17.9607 30.5448 16.4338 26.8591 16.4338 23.0158C16.4338 19.1724 17.9607 15.4867 20.6784 12.769C23.3962 10.0513 27.0818 8.52435 30.9252 8.52435C34.7686 8.52435 38.4543 10.0513 41.172 12.769C43.8897 15.4867 45.4166 19.1724 45.4166 23.0158C45.4121 26.858 43.884 30.5409 41.1669 33.2575C38.4503 35.9746 34.7674 37.5027 30.9252 37.5072Z" fill="#6C41F4"/>
</svg>
