<svg width="40" height="43" viewBox="0 0 40 43" fill="none" xmlns="http://www.w3.org/2000/svg">
<path d="M6.71499 10.8836C6.45347 10.5347 5.95412 10.4636 5.60518 10.7251L2.43428 13.1032C2.2361 13.2539 2.11719 13.4836 2.11719 13.7373C2.11719 13.991 2.2361 14.2207 2.43428 14.3715L5.60518 16.7495C5.7478 16.8607 5.91449 16.9081 6.08081 16.9081C6.31863 16.9081 6.55645 16.797 6.71499 16.591C6.97652 16.2421 6.90539 15.7428 6.55645 15.4812L4.23381 13.7373L6.55645 11.9934C6.90539 11.7319 6.97652 11.2326 6.71499 10.8836Z" fill="#6C41F4"/>
<path d="M13.9472 10.7251C13.5983 10.4636 13.0989 10.5347 12.8374 10.8836C12.5759 11.2326 12.647 11.7319 12.9959 11.9934L15.3186 13.7373L12.9959 15.4812C12.647 15.7428 12.5759 16.2421 12.8374 16.591C12.9959 16.797 13.2338 16.9081 13.4716 16.9081C13.6379 16.9081 13.8046 16.8607 13.9472 16.7495L17.1181 14.3715C17.3163 14.2207 17.4352 13.991 17.4352 13.7373C17.4352 13.4836 17.3163 13.2539 17.1181 13.1032L13.9472 10.7251Z" fill="#6C41F4"/>
<path d="M10.9894 8.99808C10.5534 8.91104 10.1412 9.18844 10.0542 9.61622L8.4691 17.5421C8.38206 17.9702 8.65946 18.3902 9.08723 18.4772C9.14278 18.485 9.19019 18.4931 9.24574 18.4931C9.61831 18.4931 9.94312 18.2317 10.0224 17.8591L11.6075 9.93323C11.6945 9.5051 11.4171 9.0851 10.9894 8.99808Z" fill="#6C41F4"/>
<path d="M38.0971 0H1.52388C0.685747 0 0 0.684794 0 1.52177V30.4353C0 31.2723 0.685747 31.9571 1.52388 31.9571H15.46L14.0657 38.0441H25.5636L24.1693 31.9571H38.1054C38.9436 31.9571 39.6293 31.2723 39.6293 30.4353L39.6286 1.52177C39.6286 0.684794 38.9429 0 38.1047 0H38.0971ZM22.8582 8.36971H32.0015C32.4206 8.36971 32.7635 8.71211 32.7635 9.13059C32.7635 9.54908 32.4206 9.89147 32.0015 9.89147H22.8582C22.4392 9.89147 22.0963 9.54908 22.0963 9.13059C22.0963 8.71211 22.4392 8.36971 22.8582 8.36971ZM22.0963 4.5653C22.0963 4.14681 22.4392 3.80441 22.8582 3.80441H24.3821C24.8012 3.80441 25.1441 4.14681 25.1441 4.5653C25.1441 4.98378 24.8012 5.32618 24.3821 5.32618H22.8582C22.4392 5.32618 22.0963 4.98378 22.0963 4.5653ZM36.5732 12.935C36.9922 12.935 37.3351 13.2774 37.3351 13.6959C37.3351 14.1144 36.9922 14.4568 36.5732 14.4568H32.8322C32.4131 14.4568 32.0702 14.1144 32.0702 13.6959C32.0702 13.2774 32.4131 12.935 32.8322 12.935H36.5732ZM34.2874 9.13059C34.2874 8.71211 34.6302 8.36971 35.0493 8.36971H36.5732C36.9922 8.36971 37.3351 8.71211 37.3351 9.13059C37.3351 9.54908 36.9922 9.89147 36.5732 9.89147H35.0493C34.6302 9.89147 34.2874 9.54908 34.2874 9.13059ZM26.7367 21.3047H30.4777C30.8967 21.3047 31.2396 21.6471 31.2396 22.0656C31.2396 22.4841 30.8967 22.8265 30.4777 22.8265H26.7367C26.3176 22.8265 25.9747 22.4841 25.9747 22.0656C25.9747 21.6471 26.3176 21.3047 26.7367 21.3047ZM22.9269 19.0221C22.5079 19.0221 22.165 18.6797 22.165 18.2612C22.165 17.8427 22.5079 17.5003 22.9269 17.5003H26.6679C27.087 17.5003 27.4299 17.8427 27.4299 18.2612C27.4299 18.6797 27.087 19.0221 26.6679 19.0221H22.9269ZM28.1918 13.6959C28.1918 13.2774 28.5347 12.935 28.9538 12.935H29.7157C30.1348 12.935 30.4777 13.2774 30.4777 13.6959C30.4777 14.1144 30.1348 14.4568 29.7157 14.4568H28.9538C28.5347 14.4568 28.1918 14.1144 28.1918 13.6959ZM29.7157 19.0221C29.2966 19.0221 28.9538 18.6797 28.9538 18.2612C28.9538 17.8427 29.2966 17.5003 29.7157 17.5003H32.7635C33.1825 17.5003 33.5254 17.8427 33.5254 18.2612C33.5254 18.6797 33.1825 19.0221 32.7635 19.0221H29.7157ZM33.5254 21.3047H36.5732C36.9922 21.3047 37.3351 21.6471 37.3351 22.0656C37.3351 22.4841 36.9922 22.8265 36.5732 22.8265H33.5254C33.1063 22.8265 32.7635 22.4841 32.7635 22.0656C32.7635 21.6471 33.1063 21.3047 33.5254 21.3047ZM36.5732 19.0221H35.8112C35.3922 19.0221 35.0493 18.6797 35.0493 18.2612C35.0493 17.8427 35.3922 17.5003 35.8112 17.5003H36.5732C36.9922 17.5003 37.3351 17.8427 37.3351 18.2612C37.3351 18.6797 36.9922 19.0221 36.5732 19.0221ZM22.8582 12.935H25.906C26.3251 12.935 26.6679 13.2774 26.6679 13.6959C26.6679 14.1144 26.3251 14.4568 25.906 14.4568H22.8582C22.4392 14.4568 22.0963 14.1144 22.0963 13.6959C22.0963 13.2774 22.4392 12.935 22.8582 12.935ZM22.8582 21.3047H23.6202C24.0392 21.3047 24.3821 21.6471 24.3821 22.0656C24.3821 22.4841 24.0392 22.8265 23.6202 22.8265H22.8582C22.4392 22.8265 22.0963 22.4841 22.0963 22.0656C22.0963 21.6471 22.4392 21.3047 22.8582 21.3047ZM36.5732 5.32618H27.4299C27.0108 5.32618 26.6679 4.98378 26.6679 4.5653C26.6679 4.14681 27.0108 3.80441 27.4299 3.80441H36.5732C36.9922 3.80441 37.3351 4.14681 37.3351 4.5653C37.3351 4.98378 36.9922 5.32618 36.5732 5.32618ZM1.52388 27.3918V1.52177H19.8105V27.3918H1.52388Z" fill="#6C41F4"/>
<path d="M10.791 39.6298L10.0391 42.8001H29.5895L28.8376 39.6298H10.791Z" fill="#6C41F4"/>
</svg>
