<svg width="49" height="37" viewBox="0 0 49 37" fill="none" xmlns="http://www.w3.org/2000/svg">
<path d="M0.742957 11.8964L23.7045 21.4868C23.8529 21.5476 24.013 21.5805 24.1704 21.5805C24.3306 21.5805 24.4913 21.5476 24.6408 21.4868L47.6023 11.8964C48.048 11.7096 48.3402 11.2736 48.3402 10.7909C48.3402 10.3081 48.048 9.87323 47.6023 9.68536L24.6408 0.0949126C24.3401 -0.0316375 24.0035 -0.0316375 23.7045 0.0949126L0.742957 9.68536C0.292804 9.87212 0 10.3081 0 10.7909C0.000561954 11.2736 0.292804 11.7085 0.742957 11.8964Z" fill="#6C41F4"/>
<path d="M0.741296 19.1566L23.7028 28.8237C23.8511 28.8849 24.0113 28.9181 24.1687 28.9181C24.3288 28.9181 24.4896 28.8849 24.639 28.8237L47.6005 19.1566C48.2159 18.897 48.5053 18.189 48.244 17.5736C47.9877 16.9566 47.278 16.6689 46.6643 16.9285L24.169 26.3972L1.67795 16.9285C1.06258 16.6689 0.354475 16.9566 0.0930936 17.5736C-0.163166 18.1889 0.127937 18.897 0.741625 19.1566" fill="#6C41F4"/>
<path d="M46.664 24.2656L24.1688 33.7349L1.67794 24.2656C1.06257 24.006 0.354472 24.2937 0.093093 24.9107C-0.163165 25.526 0.127936 26.2341 0.74162 26.4937L23.7029 36.1608C23.8513 36.2237 24.0115 36.2552 24.1688 36.2552C24.329 36.2552 24.4897 36.2237 24.6392 36.1608L47.6005 26.4937C48.2159 26.2341 48.5053 25.5261 48.244 24.9107C47.9872 24.2937 47.278 24.0066 46.6643 24.2656" fill="#6C41F4"/>
</svg>
