<svg width="48" height="39" viewBox="0 0 48 39" fill="none" xmlns="http://www.w3.org/2000/svg">
<path d="M47.2707 10.5042V4.9677C47.2707 2.22522 45.1313 0 42.4937 0H4.77697C2.13978 0 0 2.22485 0 4.9677V10.5046L47.2707 10.5042ZM33.3881 3.93252H40.8022C41.4988 3.93252 42.0462 4.50174 42.0462 5.22615C42.0462 5.95056 41.4988 6.51977 40.8022 6.51977H33.3881C32.6915 6.51977 32.1442 5.95056 32.1442 5.22615C32.1442 4.50174 32.6915 3.93252 33.3881 3.93252ZM16.4206 3.41529C17.3661 3.41529 18.1123 4.19131 18.1123 5.17452C18.1123 6.15773 17.366 6.93376 16.4206 6.93376C15.4751 6.93376 14.7289 6.15773 14.7289 5.17452C14.7289 4.2433 15.5247 3.41529 16.4206 3.41529ZM11.4447 3.41529C12.3902 3.41529 13.1364 4.19131 13.1364 5.17452C13.1364 6.15773 12.3902 6.93376 11.4447 6.93376C10.4993 6.93376 9.75306 6.15773 9.75306 5.17452C9.75306 4.2433 10.4993 3.41529 11.4447 3.41529ZM6.46893 3.41529C7.41442 3.41529 8.16062 4.19131 8.16062 5.17452C8.16062 6.15773 7.41439 6.93376 6.46893 6.93376C5.52347 6.93376 4.77724 6.15773 4.77724 5.17452C4.77724 4.2433 5.52347 3.41529 6.46893 3.41529Z" fill="#6C41F4"/>
<path d="M0 12.8918V33.8222C0 36.5017 2.13943 38.6759 4.77697 38.6759H42.4937C45.1309 38.6759 47.2707 36.5021 47.2707 33.8222L47.2703 12.8918H0ZM23.0878 26.9971C23.8341 26.9971 24.4314 27.6037 24.4314 28.3622C24.4314 29.1204 23.8344 29.7274 23.0878 29.7274H19.9033V31.7494C19.9033 32.5076 19.3063 33.0638 18.6097 33.0638H17.316C13.8331 33.0638 10.947 30.536 10.3501 27.1992H6.71745C5.97122 27.1992 5.37389 26.5926 5.37389 25.834C5.37389 25.0758 5.97088 24.4689 6.71745 24.4689H10.3C10.897 21.1321 13.8331 18.5538 17.266 18.5538H18.5596C19.3059 18.5538 19.8533 19.1604 19.8533 19.8682V21.8903H23.0378C23.784 21.8903 24.3814 22.4968 24.3814 23.2554C24.3814 24.0136 23.7844 24.6205 23.0378 24.6205H19.8533V26.9967L23.0878 26.9971ZM40.553 27.1488H36.9704C36.3734 30.4856 33.4374 33.0134 30.0044 33.0134H28.7108C27.9645 33.0134 27.4171 32.4068 27.4171 31.699L27.4168 19.9194C27.4168 19.1612 28.0138 18.605 28.7104 18.605H30.004C33.487 18.605 36.3731 21.1328 36.97 24.5201H40.553C41.2992 24.5201 41.8466 25.1267 41.8466 25.8345C41.8469 26.5426 41.2996 27.1491 40.553 27.1491L40.553 27.1488Z" fill="#6C41F4"/>
</svg>
