<svg width="39" height="48" viewBox="0 0 39 48" fill="none" xmlns="http://www.w3.org/2000/svg">
<path fill-rule="evenodd" clip-rule="evenodd" d="M31.555 42.0944C31.555 44.8681 29.2695 47.1245 26.4601 47.1245L5.18117 47.125C2.37189 47.125 0.0859375 44.8687 0.0859375 42.0949V12.6846C0.0859375 9.91052 2.37109 7.65484 5.18117 7.65484H7.53434V6.14868C7.53434 2.92487 9.81994 0.302002 12.6289 0.302002H27.5718C28.349 0.302002 29.3506 0.711428 29.8998 1.25395L38.0388 9.28818C38.589 9.83069 39.0038 10.8191 39.0038 11.5872V33.9257C39.0038 37.1491 36.3473 39.7716 33.0814 39.7716H31.555V42.0944ZM36.139 9.75562L29.4276 3.12958L29.4275 8.0744C29.4275 9.00064 30.1905 9.75562 31.1297 9.75562H36.139ZM1.76334 12.6834V42.0938L1.76378 42.0939C1.76378 43.9538 3.2964 45.4672 5.18117 45.4672L26.46 45.4675C28.3437 45.4675 29.8764 43.9545 29.8764 42.0938V39.7711H13.4563C10.1907 39.7711 7.5339 37.1486 7.5339 33.9251V9.30975H5.18072C3.29631 9.30975 1.76334 10.8224 1.76334 12.6834ZM24.2022 14.8957H15.4947C15.0451 14.8957 14.6797 14.487 14.6797 13.9837C14.6797 13.4804 15.0451 13.0718 15.4947 13.0718L24.2022 13.0714C24.6525 13.0714 25.0172 13.48 25.0172 13.9833C25.0172 14.487 24.6529 14.8957 24.2022 14.8957ZM15.5187 21.5854H30.8672C31.3304 21.5854 31.7062 21.3132 31.7062 20.9772C31.7062 20.6412 31.3304 20.3695 30.8672 20.3695L15.5187 20.3698C15.0558 20.3698 14.6797 20.6417 14.6797 20.9775C14.6797 21.3135 15.0558 21.5857 15.5187 21.5857V21.5854ZM30.8672 29.4906H15.5187C15.0558 29.4906 14.6797 29.0825 14.6797 28.5783C14.6797 28.0744 15.0558 27.6663 15.5187 27.6663L30.8672 27.6667C31.3304 27.6667 31.7062 28.0744 31.7062 28.5787C31.7062 29.0825 31.3304 29.4906 30.8672 29.4906Z" fill="#6C41F4"/>
</svg>
