<svg width="147" height="39" viewBox="0 0 147 39" fill="none" xmlns="http://www.w3.org/2000/svg">
<path d="M17.5833 10.0012C18.3135 9.91639 18.9806 10.0705 19.6471 10.1207L19.6772 9.95052C18.965 9.57259 18.2539 9.19266 17.5402 8.81774C17.3192 8.70181 17.0896 8.60093 16.8656 8.49101C16.7859 8.45186 16.6616 8.35048 16.6391 8.37006C16.0266 8.90959 15.1881 8.23906 14.5191 8.84033C13.9763 9.32817 13.2065 9.56306 12.5544 9.9982H14.4519C13.7803 10.5949 13.3769 11.3493 12.3875 11.3684C11.2368 11.3904 11.4087 11.3473 11.3451 12.3772C11.3195 12.7927 11.1957 13.12 10.876 13.4156C10.4881 13.7739 10.5317 14.1865 10.9381 14.5283C11.082 14.6492 11.2624 14.7466 11.1556 14.9554C11.0449 15.1717 10.8284 15.0457 10.6685 15.0236C8.0458 14.6628 5.42361 14.2979 2.80294 13.921C1.4718 13.7293 1.46127 13.7162 1.33949 15.0241C1.24526 16.035 1.33949 17.0428 1.43922 18.0506C1.47881 18.4501 1.69883 18.4471 1.99553 18.3989C4.76055 17.9462 7.52657 17.5015 10.2906 17.0453C11.1767 16.8992 11.1712 16.8872 11.2213 17.7896C11.2614 18.5108 11.335 19.2305 11.3506 19.9517C11.3601 20.4074 11.4899 20.6549 11.9926 20.6549C12.172 20.6549 12.5058 20.5655 12.5279 20.8571C12.5529 21.1899 12.4848 21.5417 12.3925 21.8665C12.3504 22.016 12.1319 21.9257 11.9966 21.9066C11.7019 21.866 11.5967 21.9769 11.6558 22.2695C11.734 22.6584 11.7946 23.0514 11.8708 23.4404C12.1054 24.6339 12.0613 25.854 11.7245 27.3275C11.5305 27.3557 11.5907 26.9541 11.3962 27.0907C11.1787 27.2432 11.0153 27.4992 10.9892 27.7687C10.9722 27.9444 11.0193 28.1682 11.2258 28.2751C11.3536 28.3414 11.6217 28.2852 11.5596 28.5175C11.5044 28.7243 11.2699 28.5386 11.1346 28.5928C10.8238 28.7178 10.5036 28.8327 10.2064 28.9758C9.8726 29.1364 9.93324 29.4194 10.3011 29.5775C10.5657 29.6915 10.8324 29.8064 11.108 29.8882C11.3401 29.957 11.4087 30.0619 11.3917 30.3133C11.3225 31.3382 11.327 31.3552 10.3618 30.9793C6.26159 29.3823 3.24899 26.6013 1.42419 22.5877C-1.47164 16.2166 0.149681 8.68675 5.36899 4.06382C7.0715 2.55613 8.99553 1.42235 11.1697 0.772403C15.9179 -0.646448 20.4771 -0.152585 24.6169 2.60331C29.8587 6.09247 32.2609 11.0968 31.883 17.3961C31.7717 19.2486 31.2946 21.0353 30.4702 22.7026C29.8266 24.0045 29.0714 25.2266 28.1151 26.3539C26.2652 28.5356 24.0019 30.0488 21.3652 31.0687C20.9673 31.2222 20.8395 31.2062 20.7543 30.7264C20.6465 30.1231 20.8094 29.8169 21.3898 29.696C21.5115 29.6704 21.6298 29.6157 21.7416 29.558C21.8634 29.4947 22.0568 29.4641 22.0353 29.2874C22.0137 29.1113 21.918 28.8945 21.719 28.8975C21.3281 28.903 21.0755 28.4689 20.658 28.5973C20.5803 28.6214 20.5082 28.5456 20.5222 28.4739C20.5327 28.4187 20.6069 28.3424 20.6615 28.3348C21.0184 28.2842 21.1517 27.9534 21.0615 27.7511C20.9417 27.4826 20.9733 26.9762 20.419 27.0475C20.2736 27.0661 20.3007 26.8638 20.2866 26.7619C20.0912 25.3345 19.8366 23.9066 20.2912 22.4778C20.3984 22.141 20.451 21.8529 19.8927 21.886C19.5364 21.9071 19.6732 21.5091 19.6106 21.2933C19.4818 20.8501 19.6236 20.5987 20.1203 20.6293C20.4636 20.6504 20.5753 20.4767 20.6084 20.1455C20.6996 19.2285 20.7863 18.312 20.7763 17.3906C20.7723 17.0392 20.8971 16.9539 21.2269 17.0086C23.2952 17.3534 25.3721 17.6521 27.4325 18.0395C28.3296 18.2082 29.2408 18.2609 30.1304 18.4586C30.3769 18.5133 30.4897 18.427 30.5283 18.1695C30.7308 16.8204 30.7162 15.4718 30.5714 14.1192C30.5128 13.5687 30.1188 13.7539 29.8422 13.79C28.3051 13.9918 26.7719 14.2206 25.2373 14.4384C23.9167 14.6256 22.5961 14.8139 21.2745 14.993C21.1166 15.0146 20.9016 15.1582 20.8064 14.9077C20.7287 14.7039 20.9257 14.6417 21.052 14.5463C21.4143 14.2728 21.5391 13.8156 21.2324 13.5636C20.637 13.0743 20.662 12.4369 20.5994 11.808C20.5658 11.4738 20.4024 11.3528 20.1112 11.3869C18.9726 11.5194 18.2774 10.8354 17.5833 10.0017V10.0012ZM20.666 4.22693C20.5964 3.99957 20.6801 3.75465 20.5553 3.52528C20.4124 3.2633 20.1563 3.3446 19.9514 3.27584C19.8777 3.25125 19.791 3.31499 19.8195 3.38927C19.9468 3.72102 20.0476 4.07636 20.2446 4.36395C20.4104 4.60586 20.443 4.0322 20.6726 4.22041C20.5407 4.57725 20.644 4.70774 21.0234 4.60184C21.1597 4.5637 21.3071 4.56721 21.4489 4.54664C22.2518 4.4312 23.0542 4.31175 23.9237 4.07636C22.7404 3.61362 21.6849 3.62667 20.666 4.22693ZM1.66976 12.9222C1.80659 12.8575 1.91635 12.8299 1.99553 12.7651C3.70055 11.3679 5.51533 10.1171 7.28149 8.80219C8.06183 8.22099 8.18863 7.73466 7.61528 6.9507C7.2424 6.44128 6.84998 5.94391 6.50617 5.41491C6.28464 5.07413 6.1373 5.08968 5.86064 5.36071C4.11353 7.06865 2.81998 9.06317 2.06369 11.3894C1.90732 11.8698 1.61614 12.3245 1.66976 12.9222ZM30.2777 12.5473C30.2712 12.5242 30.2562 12.4725 30.2426 12.4203C29.5425 9.67347 28.1597 7.32863 26.1259 5.3597C25.8718 5.11378 25.737 5.14288 25.5481 5.42144C25.1732 5.97352 24.7687 6.50552 24.3758 7.04506C23.9443 7.63729 24.0485 8.25713 24.6384 8.7013C26.4306 10.0489 28.2189 11.402 30.0096 12.7511C30.0592 12.7887 30.0993 12.8695 30.189 12.8103C30.2772 12.7521 30.2957 12.6728 30.2772 12.5478L30.2777 12.5473ZM1.73241 19.2044C1.72489 19.2546 1.70084 19.3098 1.71136 19.3565C2.31178 22.0245 3.59631 24.3177 5.48776 26.2806C5.66318 26.4628 5.77093 26.4196 5.92079 26.255C6.51418 25.6005 7.12513 24.9621 7.71401 24.3036C8.01071 23.9724 7.95258 23.5473 7.60175 23.2948C5.78948 21.9924 3.9762 20.691 2.15992 19.3941C2.03763 19.3068 1.93439 19.1492 1.73241 19.2044ZM30.3103 19.2089C30.0607 19.1984 29.9439 19.3575 29.8036 19.4579C28.069 20.6975 26.3379 21.9422 24.6063 23.1859C24.0861 23.5593 24.0545 23.9302 24.473 24.4291C24.9687 25.0198 25.5731 25.5152 25.9936 26.1722C26.1986 26.4929 26.3865 26.4226 26.6231 26.1722C28.076 24.6299 29.1656 22.8682 29.8662 20.8672C30.0542 20.3297 30.2371 19.7886 30.3108 19.2099L30.3103 19.2089ZM28.2184 20.0145C26.1179 20.8812 24.059 21.3324 21.9491 21.7038C22.1591 22.1646 22.6778 22.3257 22.6753 22.8552C22.365 22.6173 22.1094 22.3292 21.8473 22.0466C21.7892 21.9839 21.714 21.9111 21.6148 21.9523C21.509 21.9964 21.5286 22.1064 21.5376 22.1877C21.5902 22.666 21.4514 23.1187 21.3617 23.5769C21.2494 24.1496 21.1226 24.7192 20.9728 25.4294C21.4664 25.0771 21.8338 24.792 22.2237 24.542C22.8086 24.1676 23.2987 23.7706 22.8522 22.935C23.5418 23.4309 24.0876 23.2592 24.671 22.798C25.531 22.1184 26.4532 21.5181 27.3373 20.8692C27.6285 20.6554 27.9592 20.4712 28.2178 20.014L28.2184 20.0145ZM4.0589 13.4507C5.93332 13.7192 7.80824 13.9867 9.68215 14.2568C9.91921 14.2909 9.94627 14.1478 9.9563 13.9672C9.99439 13.3027 10.0345 12.6376 10.0816 11.9736C10.0991 11.7267 10.0691 11.6414 9.76234 11.6846C8.27985 11.8923 6.83895 12.2562 5.42712 12.7446C4.95701 12.9072 4.4824 13.0638 4.0589 13.4507ZM27.9442 13.4357C27.9432 13.387 27.9422 13.3383 27.9412 13.2896C26.0803 12.4379 24.1127 11.9586 22.0969 11.6459C21.8263 11.6038 21.8553 11.79 21.8669 11.9521C21.9115 12.6 21.9656 13.2474 22.0062 13.8959C22.0252 14.2015 22.1305 14.2824 22.4543 14.2156C23.0346 14.0956 23.6305 14.0505 24.2189 13.9677C25.4608 13.7925 26.7028 13.6133 27.9442 13.4357ZM10.0049 19.0915C9.98888 18.7683 9.9583 18.4445 9.96131 18.1213C9.96382 17.8292 9.85205 17.7374 9.56839 17.7971C9.19952 17.8744 8.82613 17.9306 8.45376 17.9918C7.14317 18.2077 5.83258 18.4205 4.52249 18.6383C4.41123 18.6568 4.24383 18.6167 4.24283 18.8089C4.24233 18.9223 4.34507 18.9178 4.43127 18.9479C5.87267 19.4488 7.32409 19.9106 8.82814 20.1941C10.1477 20.4426 10.1452 20.4561 10.0049 19.092V19.0915ZM27.7257 18.7748C27.6585 18.7241 27.6209 18.6729 27.5763 18.6654C25.8372 18.3793 24.0971 18.1013 22.359 17.8112C22.112 17.77 22.0769 17.8764 22.0147 18.0842C21.8368 18.6814 21.8929 19.2862 21.8644 19.8915C21.8438 20.3221 21.9476 20.4265 22.3661 20.3512C23.7308 20.1048 25.0825 19.8087 26.3946 19.3545C26.8436 19.1994 27.3162 19.083 27.7262 18.7748H27.7257ZM21.9811 10.338C23.1324 10.5463 24.258 10.752 25.3656 11.0451C26.4281 11.3262 27.454 11.7292 28.511 12.0434C27.1423 10.9142 25.7445 9.87222 24.3422 8.83682C23.8581 8.47947 23.2607 8.57834 22.9133 9.05664C22.6116 9.47221 22.3089 9.88728 21.9806 10.338H21.9811ZM3.61936 11.8241C3.84188 11.931 3.96066 11.926 4.08245 11.8763C5.89272 11.135 7.78217 10.6908 9.70821 10.3902C10.0435 10.338 9.98537 10.1979 9.83552 9.9982C9.59745 9.681 9.36841 9.35678 9.13386 9.03657C8.86924 8.67571 8.1305 8.5156 7.76062 8.77257C6.37536 9.7352 5.13443 10.8916 3.61936 11.8236V11.8241ZM11.6398 10.0388C12.8742 9.39592 14.0234 8.81674 15.1505 8.19791C15.4367 8.04081 15.4668 7.76578 15.1175 7.58008C14.3236 7.15849 13.5272 6.74192 12.7343 6.31832C12.5875 6.24002 12.4627 6.19385 12.4021 6.40213C12.0663 7.55799 11.7851 8.72489 11.6398 10.0394V10.0388ZM20.3212 9.67598C20.1503 8.68474 19.9639 7.74821 19.7023 6.82774C19.5218 6.19335 19.5063 6.16976 18.9305 6.51857C18.2854 6.90955 17.6254 7.2679 16.9418 7.58309C16.7954 7.65084 16.6125 7.68196 16.603 7.86415C16.5919 8.06741 16.7588 8.15525 16.9282 8.24609C17.681 8.64911 18.5055 8.9111 19.2031 9.42604C19.4306 9.59367 19.6998 9.71161 19.9629 9.82103C20.1258 9.88878 20.3353 9.93847 20.3217 9.67598H20.3212ZM4.03384 20.3276C4.11252 20.3874 4.18118 20.4391 4.24935 20.4913C5.23116 21.2436 6.28565 21.8951 7.22987 22.7046C7.59122 23.0143 8.00119 23.459 8.58858 23.1909C9.05618 22.9776 9.3208 22.5214 9.67463 22.1726C9.79291 22.0557 10.0154 21.9473 9.94377 21.749C9.88413 21.5834 9.6596 21.6391 9.50975 21.613C7.80924 21.3159 6.12727 20.948 4.51146 20.3211C4.36863 20.2659 4.22178 20.1851 4.03384 20.3276ZM25.3761 5.17651C23.8556 5.42495 22.3941 5.69095 20.856 5.90827C21.4313 6.54869 22.2042 6.78106 22.7264 7.35021C23.0888 7.7452 23.5844 7.52386 23.8145 7.2694C24.3948 6.62598 24.8634 5.88117 25.3766 5.17701L25.3761 5.17651ZM11.0213 6.03475C9.58342 5.76021 8.2182 5.48769 6.69611 5.15593C7.26596 5.9414 7.71702 6.62899 8.24426 7.25234C8.42669 7.46765 8.82012 7.62173 9.11832 7.42349C9.77136 6.98835 10.3893 6.50101 11.0218 6.03525L11.0213 6.03475ZM21.3557 25.5187C21.4619 25.6081 21.485 25.6452 21.513 25.6492C22.8727 25.8435 24.2149 26.1225 25.534 26.507C25.6312 26.5351 25.7019 26.5391 25.7726 26.4638C25.8909 26.3378 25.7555 26.2615 25.7009 26.2008C25.2468 25.6914 24.7827 25.1905 24.3197 24.6891C24.1663 24.523 23.0988 24.2846 22.9163 24.4075C22.3986 24.7558 21.8979 25.1298 21.3557 25.5187ZM13.3573 6.14767C13.3478 6.19385 13.3378 6.24052 13.3282 6.2867C13.852 6.56073 14.3782 6.82874 14.8984 7.1098C15.6963 7.54043 16.4747 7.65687 17.2911 7.11783C17.7361 6.82423 18.2453 6.62949 18.719 6.37754C18.8267 6.32033 19.0066 6.30979 18.9921 6.07791C17.1127 6.22497 15.2347 6.17076 13.3578 6.14767H13.3573ZM10.7507 25.5313C10.1723 25.1202 9.71473 24.6856 9.17095 24.4492C8.83967 24.3052 8.25128 24.3137 7.99618 24.5215C7.36018 25.0394 6.84847 25.7104 6.28665 26.3197C7.75561 25.9724 9.22508 25.9097 10.7507 25.5313ZM20.8109 6.30928C21.2344 7.62675 21.4429 8.85388 21.7005 10.2376C22.1566 9.61023 22.5395 9.13645 22.8587 8.62301C23.0181 8.36654 23.0542 7.98259 22.8216 7.76778C22.2488 7.23829 21.6138 6.77956 20.8109 6.30928ZM18.6132 4.83372C17.6439 3.95741 16.5338 3.65076 15.3881 3.81939C14.717 3.91776 14.1031 4.40811 13.4636 4.7223C15.1982 4.92607 16.8731 4.93209 18.6132 4.83422V4.83372ZM11.0794 6.3665C10.4054 6.86689 9.8731 7.26489 9.33784 7.65787C9.21305 7.74972 9.15441 7.85511 9.14038 8.01672C9.06219 8.93669 9.86859 9.31562 10.27 9.96055C10.5136 8.78863 10.7547 7.65135 11.0794 6.367V6.3665ZM15.8923 1.29487C15.5029 1.31595 15.118 1.53729 14.7747 1.84093C14.3482 2.21836 14.3552 2.25901 14.8769 2.52351C15.1911 2.68261 15.4908 2.90043 15.8758 2.67006C15.9574 2.62138 16.1188 2.68411 16.2351 2.72075C16.5072 2.80708 17.3392 2.57319 17.4946 2.3629C17.5612 2.27256 17.5537 2.19075 17.4855 2.1235C17.061 1.70542 16.629 1.29688 15.8923 1.29437V1.29487ZM10.3036 22.0582C9.81847 22.3789 9.43056 22.7297 9.13937 23.1468C8.91585 23.467 8.99904 23.9142 9.2782 24.1466C9.76585 24.5521 10.3347 24.8597 10.9456 25.2582C10.7236 24.1516 10.5181 23.1282 10.3036 22.0582ZM7.44438 27.4746C7.43636 27.5263 7.42884 27.5775 7.42082 27.6292C8.14453 27.7707 8.86773 27.9128 9.59194 28.0523C9.62402 28.0583 9.67313 28.0503 9.69368 28.0287C9.94928 27.7627 10.2435 27.6202 10.6219 27.5579C10.8474 27.5208 11.0343 27.1885 10.9983 26.9687C10.9592 26.7318 10.662 26.8713 10.4941 26.8954C9.46915 27.044 8.44474 27.2006 7.44438 27.4746ZM13.229 1.59099C12.2773 1.71245 11.4884 1.99501 10.7021 2.28511C10.5843 2.32877 10.3683 2.35136 10.3873 2.47031C10.4154 2.64697 10.5051 2.86781 10.7406 2.88788C10.9406 2.90495 11.118 3.01787 11.294 3.03895C11.7134 3.08864 12.182 3.08111 12.4858 2.74835C12.7674 2.43969 12.9484 2.03918 13.229 1.59099ZM18.8422 1.65674C19.2166 2.18473 19.2798 2.9727 20.1869 3.0515C20.6761 3.09416 21.0008 2.77295 21.4278 2.69917C21.6068 2.66805 21.6128 2.40606 21.3662 2.31221C20.5643 2.00756 19.7544 1.7275 18.8422 1.65674ZM24.5702 27.5308C23.3343 27.2066 22.1977 26.9888 20.9958 26.8693C21.1838 27.7185 22.0072 27.6247 22.4272 28.0483C22.4543 28.0759 22.5355 28.0688 22.5836 28.0538C23.2005 27.8586 23.8671 27.8641 24.5707 27.5308H24.5702ZM13.0711 4.57123C13.627 4.30171 14.1056 4.09794 14.5546 3.84248C14.8308 3.68539 15.3124 3.69191 15.3104 3.26932C15.3084 2.85225 14.8173 2.88085 14.5591 2.68913C14.27 2.47432 14.0765 2.58725 13.9121 2.8673C13.6134 3.37572 13.3052 3.87812 13.0716 4.57173L13.0711 4.57123ZM18.8352 4.49795C18.743 4.01513 18.5601 3.72554 18.3962 3.43043C18.0293 2.76994 17.5266 2.62974 16.8881 3.00984C16.8726 3.01888 16.8556 3.0249 16.8395 3.03343C16.5749 3.17597 16.5258 3.33758 16.823 3.48965C17.4575 3.81488 18.098 4.12906 18.8352 4.49745V4.49795ZM7.89995 4.11651C9.13486 4.34437 10.2004 4.58578 11.329 4.63999C10.9376 3.83345 9.86408 3.4239 7.89995 4.11651ZM7.63082 27.975C7.61177 28.0177 7.59323 28.0603 7.57418 28.103C8.15154 28.4407 8.73542 28.7675 9.30326 29.1203C9.67463 29.3512 9.7874 29.0681 9.88914 28.8347C10.0029 28.5732 9.85757 28.3604 9.60246 28.3087C8.94943 28.1773 8.28837 28.0834 7.63032 27.9745L7.63082 27.975ZM24.3532 27.9459C23.7107 28.0633 23.0652 28.1647 22.4277 28.3052C22.1726 28.3614 22.0423 28.5773 22.15 28.8408C22.2493 29.0832 22.3921 29.2854 22.7184 29.1032C23.2917 28.784 23.8731 28.4789 24.3527 27.9454L24.3532 27.9459ZM8.10493 3.68589C8.72039 3.60609 9.30125 3.43043 9.92021 3.43243C10.1703 3.43294 10.2916 3.11875 10.2299 2.85576C10.1633 2.57068 9.96983 2.58122 9.73528 2.69867C9.16794 2.98274 8.60511 3.27283 8.10443 3.68589H8.10493ZM23.2993 3.67334C23.4772 3.69091 23.5949 3.67535 23.635 3.55992C23.6847 3.41788 23.5398 3.38977 23.4566 3.3441C23.0657 3.12779 22.6698 2.9205 22.2768 2.7077C22.0764 2.59929 21.8659 2.49791 21.7481 2.79403C21.6383 3.06957 21.7456 3.27333 22.0278 3.3702C22.4623 3.51926 22.9394 3.48564 23.2993 3.67334ZM12.2417 3.22565C11.8603 3.37271 11.4904 3.21612 11.3356 3.60308C11.1877 3.97197 11.4694 4.17172 11.6954 4.49896C11.8863 4.05428 12.0412 3.69342 12.2417 3.22565Z" fill="url(#paint0_linear_3_8)"/>
<path d="M19.6743 38.8685C19.7635 38.4815 19.7755 38.1453 19.7445 37.8085C19.7314 37.6675 19.764 37.4818 19.6307 37.409C19.4738 37.3232 19.3886 37.5159 19.2829 37.5937C18.4143 38.2306 17.4365 38.6015 16.365 38.863C16.4061 38.335 16.4963 37.8542 16.2853 37.3312C15.3992 38.0625 14.4084 38.4996 13.2827 38.7977C13.3574 38.2958 13.4025 37.8366 13.1975 37.3427C12.2182 38.1297 11.1001 38.5824 9.90376 38.881C9.50783 38.9799 9.4527 38.9342 9.51885 38.5277C9.68274 37.5229 10.1549 36.8092 11.1853 36.5743C11.4855 36.5061 11.4755 36.2953 11.5015 36.0875C11.899 32.8829 12.2939 29.6773 12.6893 26.4722C12.9655 24.2343 13.2366 21.9954 13.5213 19.7584C13.5544 19.4959 13.5729 19.369 13.2321 19.2841C12.8507 19.1893 12.5139 18.9152 12.0087 18.6377C12.9665 18.4525 12.8662 17.8422 12.8577 17.262C12.8462 16.4861 12.8517 15.7097 12.8557 14.9332C12.8587 14.3746 12.5355 13.9962 11.9671 13.9204C11.8453 13.9043 11.7195 13.9179 11.5978 13.9179C11.5642 13.7051 11.7276 13.6459 11.8238 13.555C13.1354 12.3174 14.45 11.0827 15.7696 9.85357C15.9059 9.72659 16.0122 9.47363 16.2853 9.73261C17.7217 11.0963 19.1721 12.4453 20.616 13.7974C20.5253 13.9857 20.3835 13.9023 20.2747 13.9139C19.6317 13.9816 19.3059 14.3365 19.3074 14.9734C19.3089 15.7498 19.3159 16.5257 19.3054 17.3022C19.2974 17.8688 19.2052 18.465 20.0602 18.583C19.755 18.9403 19.4282 19.1235 19.1095 19.2219C18.7175 19.3429 18.7341 19.5567 18.7727 19.8603C19.4523 25.2662 20.1299 30.6721 20.7944 36.08C20.8335 36.3987 20.9132 36.5894 21.259 36.5999C21.3442 36.6024 21.4319 36.6506 21.5121 36.6903C21.9236 36.8961 22.4102 37.1631 22.4293 37.6022C22.4438 37.949 21.8885 38.0539 21.5597 38.2175C20.9819 38.5056 20.3719 38.7104 19.6763 38.8685H19.6743ZM16.1365 35.946C17.198 35.946 18.2605 35.9269 19.3215 35.9555C19.7289 35.9665 19.8026 35.8275 19.7465 35.4621C19.6392 34.768 19.555 34.0699 19.4838 33.3713C19.4503 33.0425 19.3555 32.9607 19.0107 33.0551C17.1398 33.568 15.2674 34.0779 13.381 34.5291C12.7966 34.6687 12.5565 34.9065 12.5264 35.5138C12.5064 35.9169 12.6247 35.955 12.9514 35.9505C14.0129 35.9369 15.0749 35.9455 16.1365 35.9455V35.946ZM12.966 31.9253C12.8407 32.2897 13.1008 32.2586 13.4972 32.1491C14.7948 31.7903 16.1019 31.4646 17.4004 31.1067C17.9658 30.9511 18.7546 31.0068 19.0328 30.5717C19.3109 30.1366 18.9491 29.4309 18.9165 28.8402C18.898 28.5059 18.8178 28.4201 18.4634 28.522C17.3243 28.8482 16.169 29.1172 15.0268 29.4329C14.4415 29.5945 13.6561 29.5458 13.3268 29.977C13.0016 30.4026 13.0883 31.1434 12.9665 31.9253H12.966ZM13.5839 27.0926C13.4867 27.4775 13.7338 27.3992 13.9794 27.3345C15.1952 27.0133 16.4106 26.6916 17.6275 26.3754C18.5557 26.1345 18.5572 26.1375 18.4514 25.1578C18.4243 24.9073 18.3697 24.6574 18.3662 24.407C18.3617 24.0943 18.2244 24.0536 17.9582 24.1264C17.1614 24.3442 16.3595 24.5455 15.5611 24.7588C15.0063 24.9068 14.3167 24.9134 13.9378 25.2592C13.5308 25.6301 13.7268 26.3769 13.602 26.95C13.5945 26.9852 13.5925 27.0213 13.5834 27.0926H13.5839ZM18.0018 21.4739C17.9537 21.0804 17.8961 20.6879 17.86 20.2934C17.8365 20.0345 17.7172 19.9627 17.4701 20.0054C16.6482 20.1474 15.8528 20.3627 15.1612 20.853C14.6284 21.231 14.2575 21.7153 14.1678 22.3929C14.1297 22.6789 14.1879 22.7522 14.47 22.6759C15.5461 22.3858 16.6246 22.1073 17.7026 21.8242C17.8831 21.777 18.064 21.7283 18.0018 21.4739ZM16.1615 10.5417C16.1615 11.3954 16.163 12.077 16.1605 12.758C16.16 12.9302 16.1575 13.0802 16.4011 13.0782C17.1789 13.0717 17.9562 13.0757 18.8789 13.0757C17.9342 12.1944 17.1042 11.421 16.1615 10.5412V10.5417ZM18.5181 16.5609C18.5181 16.2 18.5211 15.8386 18.5171 15.4778C18.5131 15.1019 18.3507 14.8203 17.9507 14.8369C17.5859 14.8519 17.44 15.1194 17.443 15.4778C17.4485 16.1814 17.4606 16.8861 17.4375 17.5892C17.426 17.9431 17.5423 18.0369 17.8956 18.056C18.3913 18.0826 18.5897 17.9335 18.5251 17.4261C18.489 17.1421 18.5186 16.8495 18.5181 16.5604V16.5609ZM14.7412 16.595C14.7412 16.2181 14.7467 15.8417 14.7397 15.4647C14.7326 15.0898 14.5572 14.8178 14.1638 14.8379C13.8035 14.8564 13.6596 15.1199 13.6636 15.4783C13.6721 16.1779 13.6872 16.8786 13.6576 17.5767C13.6406 17.9702 13.7944 18.0369 14.1513 18.056C14.6274 18.0816 14.8068 17.934 14.7482 17.4552C14.7136 17.1727 14.7417 16.8821 14.7412 16.595ZM16.6176 16.5789C16.6176 16.2176 16.6126 15.8567 16.6191 15.4953C16.6256 15.1149 16.4758 14.8369 16.0753 14.8374C15.7049 14.8379 15.5466 15.1069 15.5446 15.4587C15.54 16.199 15.5421 16.9393 15.5436 17.6796C15.5436 17.8427 15.541 17.9908 15.7671 18.0424C16.4046 18.188 16.6176 18.0344 16.6181 17.391C16.6181 17.12 16.6181 16.8495 16.6181 16.5784L16.6176 16.5789Z" fill="black"/>
<path d="M42 24.7955V13.1591H45.1591V22.25H49.8636V24.7955H42Z" fill="black"/>
<path d="M54.2997 13.1591V24.7955H51.1406V13.1591H54.2997Z" fill="black"/>
<path d="M63.3537 17C63.3045 16.7992 63.2268 16.6231 63.1207 16.4716C63.0147 16.3163 62.8821 16.1856 62.723 16.0795C62.5677 15.9697 62.3859 15.8883 62.1776 15.8352C61.973 15.7784 61.7476 15.75 61.5014 15.75C60.9711 15.75 60.5185 15.8769 60.1435 16.1307C59.7723 16.3845 59.4882 16.75 59.2912 17.2273C59.098 17.7045 59.0014 18.2803 59.0014 18.9545C59.0014 19.6364 59.0942 20.2197 59.2798 20.7045C59.4654 21.1894 59.742 21.5606 60.1094 21.8182C60.4768 22.0758 60.9332 22.2045 61.4787 22.2045C61.9598 22.2045 62.3594 22.1345 62.6776 21.9943C62.9995 21.8542 63.2401 21.6553 63.3991 21.3977C63.5582 21.1402 63.6378 20.8371 63.6378 20.4886L64.1832 20.5455H61.5241V18.2955H66.6832V19.9091C66.6832 20.9697 66.4579 21.8769 66.0071 22.6307C65.5601 23.3807 64.9427 23.9564 64.1548 24.358C63.3707 24.7557 62.4711 24.9545 61.456 24.9545C60.3234 24.9545 59.3291 24.714 58.473 24.233C57.617 23.7519 56.9484 23.0663 56.4673 22.1761C55.9901 21.286 55.7514 20.2273 55.7514 19C55.7514 18.0379 55.8973 17.1856 56.1889 16.4432C56.4844 15.7008 56.8935 15.0739 57.4162 14.5625C57.9389 14.0473 58.5431 13.6591 59.2287 13.3977C59.9143 13.1326 60.6491 13 61.4332 13C62.1226 13 62.7628 13.0985 63.3537 13.2955C63.9484 13.4886 64.473 13.7652 64.9276 14.125C65.3859 14.4811 65.7552 14.9034 66.0355 15.392C66.3158 15.8807 66.4863 16.4167 66.5469 17H63.3537Z" fill="black"/>
<path d="M68.1562 24.7955V13.1591H71.3153V17.7045H75.4972V13.1591H78.6562V24.7955H75.4972V20.25H71.3153V24.7955H68.1562Z" fill="black"/>
<path d="M79.8381 15.7045V13.1591H89.9517V15.7045H86.4517V24.7955H83.3381V15.7045H79.8381Z" fill="black"/>
<path d="M91.1406 24.7955V13.1591H94.2997V17.7045H98.4815V13.1591H101.641V24.7955H98.4815V20.25H94.2997V24.7955H91.1406Z" fill="black"/>
<path d="M114.413 18.9773C114.413 20.2727 114.161 21.3655 113.658 22.2557C113.154 23.142 112.474 23.8144 111.618 24.2727C110.762 24.7273 109.807 24.9545 108.754 24.9545C107.694 24.9545 106.735 24.7254 105.879 24.267C105.027 23.8049 104.349 23.1307 103.845 22.2443C103.345 21.3542 103.095 20.2652 103.095 18.9773C103.095 17.6818 103.345 16.5909 103.845 15.7045C104.349 14.8144 105.027 14.142 105.879 13.6875C106.735 13.2292 107.694 13 108.754 13C109.807 13 110.762 13.2292 111.618 13.6875C112.474 14.142 113.154 14.8144 113.658 15.7045C114.161 16.5909 114.413 17.6818 114.413 18.9773ZM111.163 18.9773C111.163 18.2803 111.071 17.6932 110.885 17.2159C110.703 16.7348 110.432 16.3712 110.072 16.125C109.716 15.875 109.277 15.75 108.754 15.75C108.232 15.75 107.79 15.875 107.43 16.125C107.074 16.3712 106.804 16.7348 106.618 17.2159C106.436 17.6932 106.345 18.2803 106.345 18.9773C106.345 19.6742 106.436 20.2633 106.618 20.7443C106.804 21.2216 107.074 21.5852 107.43 21.8352C107.79 22.0814 108.232 22.2045 108.754 22.2045C109.277 22.2045 109.716 22.0814 110.072 21.8352C110.432 21.5852 110.703 21.2216 110.885 20.7443C111.071 20.2633 111.163 19.6742 111.163 18.9773Z" fill="black"/>
<path d="M122.761 13.1591H125.92V20.6136C125.92 21.5 125.708 22.267 125.284 22.9148C124.864 23.5587 124.277 24.0568 123.523 24.4091C122.769 24.7576 121.894 24.9318 120.898 24.9318C119.894 24.9318 119.015 24.7576 118.261 24.4091C117.508 24.0568 116.92 23.5587 116.5 22.9148C116.083 22.267 115.875 21.5 115.875 20.6136V13.1591H119.034V20.3409C119.034 20.7008 119.114 21.0227 119.273 21.3068C119.432 21.5871 119.652 21.8068 119.932 21.9659C120.216 22.125 120.538 22.2045 120.898 22.2045C121.261 22.2045 121.583 22.125 121.864 21.9659C122.144 21.8068 122.364 21.5871 122.523 21.3068C122.682 21.0227 122.761 20.7008 122.761 20.3409V13.1591Z" fill="black"/>
<path d="M133.695 16.7955C133.664 16.4167 133.522 16.1212 133.268 15.9091C133.018 15.697 132.638 15.5909 132.126 15.5909C131.801 15.5909 131.534 15.6307 131.325 15.7102C131.121 15.786 130.969 15.8902 130.871 16.0227C130.772 16.1553 130.721 16.3068 130.717 16.4773C130.71 16.6174 130.734 16.7443 130.791 16.858C130.852 16.9678 130.947 17.0682 131.075 17.1591C131.204 17.2462 131.369 17.3258 131.57 17.3977C131.77 17.4697 132.009 17.5341 132.286 17.5909L133.24 17.7955C133.884 17.9318 134.435 18.1117 134.893 18.3352C135.352 18.5587 135.727 18.822 136.018 19.125C136.31 19.4242 136.524 19.7614 136.661 20.1364C136.801 20.5114 136.873 20.9205 136.876 21.3636C136.873 22.1288 136.681 22.7765 136.303 23.3068C135.924 23.8371 135.382 24.2405 134.678 24.517C133.977 24.7936 133.134 24.9318 132.149 24.9318C131.138 24.9318 130.255 24.7822 129.501 24.483C128.751 24.1837 128.168 23.7235 127.751 23.1023C127.339 22.4773 127.13 21.678 127.126 20.7045H130.126C130.145 21.0606 130.234 21.3598 130.393 21.6023C130.553 21.8447 130.776 22.0284 131.064 22.1534C131.356 22.2784 131.702 22.3409 132.104 22.3409C132.441 22.3409 132.723 22.2992 132.95 22.2159C133.178 22.1326 133.35 22.017 133.467 21.8693C133.585 21.7216 133.645 21.553 133.649 21.3636C133.645 21.1856 133.587 21.0303 133.473 20.8977C133.363 20.7614 133.181 20.6402 132.928 20.5341C132.674 20.4242 132.331 20.322 131.899 20.2273L130.74 19.9773C129.71 19.7538 128.897 19.3807 128.303 18.858C127.712 18.3314 127.418 17.6136 127.422 16.7045C127.418 15.9659 127.615 15.3201 128.013 14.767C128.414 14.2102 128.969 13.7765 129.678 13.4659C130.39 13.1553 131.206 13 132.126 13C133.066 13 133.878 13.1572 134.564 13.4716C135.25 13.786 135.778 14.2292 136.149 14.8011C136.524 15.3693 136.714 16.0341 136.717 16.7955H133.695Z" fill="black"/>
<path d="M138.078 24.7955V13.1591H146.464V15.7045H141.237V17.7045H146.033V20.25H141.237V22.25H146.442V24.7955H138.078Z" fill="black"/>
<defs>
<linearGradient id="paint0_linear_3_8" x1="0.00032934" y1="15.6023" x2="31.9211" y2="15.6023" gradientUnits="userSpaceOnUse">
<stop stop-color="#5081C2"/>
<stop offset="1" stop-color="#D23C6E"/>
</linearGradient>
</defs>
</svg>
