<svg width="1439" height="1687" viewBox="0 0 1439 1687" fill="none" xmlns="http://www.w3.org/2000/svg">
<mask id="mask0_520_8669" style="mask-type:alpha" maskUnits="userSpaceOnUse" x="0" y="0" width="1439" height="1687">
<path d="M1439 0H0V1589.27C561.966 1722.56 877.033 1716.56 1439 1589.27V0Z" fill="#0C0C0C"/>
</mask>
<g mask="url(#mask0_520_8669)">
<g opacity="0.12">
<path fill-rule="evenodd" clip-rule="evenodd" d="M593.041 2258.11C565.014 2258.23 533.497 2307.92 517.248 2329.14C485.11 2371.1 455.432 2414.74 425.28 2457.98C395.128 2501.22 365.058 2544.57 331.955 2585.8C310.467 2612.57 286.265 2644.03 255.581 2662.18C190.193 2700.86 199.904 2578.91 198.473 2547.33C194.82 2466.97 196.487 2374.8 162.436 2299.47C142.109 2254.51 108.017 2236.58 58.33 2246.23C42.171 2249.35 23.5762 2258.56 7.83404 2250.76C-8.97887 2242.42 -18.6808 2223.25 -25.1869 2207.33C-48.8901 2149.28 -51.6364 2082.54 -54.6116 2021.13C-57.881 1954.9 -56.9247 1888.05 -57.1781 1822.29C-57.2843 1794.41 -67.8037 1765.29 -76.3532 1738.74C-87.5591 1703.93 -100.146 1669.53 -112.317 1635.01C-139.028 1559.06 -167.161 1480.8 -173.945 1400.45C-178.195 1350.13 -172.449 1295.14 -135.48 1256.05C-116.918 1236.42 -89.3245 1226.15 -64.8121 1214.8C-35.1995 1201.06 -5.30083 1187.87 23.8459 1173.25C117.719 1126.15 209.45 1058.89 214.06 949.732C214.755 933.218 212.491 917 212.066 900.564C211.804 890.097 214.461 880.782 225.961 876.89C254.805 867.108 300.34 897.856 323.225 910.463C373.321 938.066 421.169 969.195 470.259 998.355C502.724 1017.65 547.09 1051.04 586.535 1051.39C621.681 1051.7 647.085 1007.19 664.396 982.954C680.604 960.245 703.286 919.101 736.258 916.611C752.245 915.404 765.494 925.443 775.777 935.926C793.758 954.3 806.444 975.467 826.959 991.997C860.618 1019.1 906.929 1041.75 952.284 1038.07C983.711 1035.51 1004.29 1018.44 1023.97 996.72C1032.24 987.592 1038.09 980.183 1051.52 979.701C1072.84 978.922 1095.41 986.876 1115.18 993.428C1185.94 1016.87 1254.36 1050.16 1318.24 1087.2C1350.17 1105.7 1382 1125.69 1409.23 1150.23C1427.12 1166.3 1448.4 1187.98 1448.37 1212.49C1448.37 1240.87 1437.62 1270.9 1429.58 1298.49C1414.54 1350.02 1397.17 1400.92 1379.34 1451.62C1338.1 1568.87 1293.51 1685.02 1245.59 1800.07C1211.78 1881.1 1177.91 1963.86 1132.96 2040.05C1124.13 2054.9 1113.84 2068.93 1102.22 2081.93C1090.02 2095.82 1084.56 2113.06 1080.49 2130.54C1055.22 2239.02 1074.62 2357.87 1086.78 2466.8C1089.86 2494.45 1092.96 2522.1 1095.12 2549.83C1096.97 2573.67 1102.29 2602.21 1094.3 2625.37C1078.56 2671.02 1020.57 2631.12 996.944 2614.25C913.745 2554.84 843.355 2478.21 771.494 2407.17C737.271 2373.39 703.139 2339.36 666.979 2307.43C648.18 2290.79 617.611 2258 593.041 2258.11Z" stroke="white"/>
<path fill-rule="evenodd" clip-rule="evenodd" d="M588.318 2237.64C558.661 2255.85 536.741 2287.79 516.112 2314.31C486.415 2352.47 458.368 2391.82 429.512 2430.59C402.224 2467.25 374.626 2503.98 343.638 2537.93C324.741 2558.62 302.143 2584.6 274.194 2594.4C213.614 2615.67 222.805 2501.25 221.22 2473.01C217.298 2402.79 216.4 2323.18 184.504 2258.21C164.586 2217.65 131.555 2200.98 85.6975 2209.64C69.8316 2212.63 56.2859 2218.01 40.5016 2211.19C22.2337 2203.3 10.8448 2185.16 2.80566 2168.53C-22.3822 2116.42 -27.7334 2054.83 -32.186 1998.34C-36.7856 1939.99 -40.0292 1879.2 -36.6632 1822.72C-35.3233 1800.14 -42.9295 1774.14 -48.7628 1751.79C-57.7497 1717.4 -68.1173 1683.36 -77.7578 1649.15C-97.3656 1579.6 -116.254 1508.25 -118.403 1435.91C-119.955 1383.68 -111.54 1329.22 -79.016 1285.76C-46.0341 1241.73 5.09316 1222.19 53.6959 1197.77C137.723 1155.59 239.888 1098.62 257.641 1001.05C260.337 986.249 258.875 972.029 259.537 957.249C259.872 949.648 260.934 940.996 268.801 937.141C289.226 927.134 326.571 954.554 342.216 963.782C385.451 989.279 426.57 1017.94 468.972 1044.66C502.64 1065.88 540.05 1092.78 579.96 1100.99C628.391 1110.95 662.852 1045.87 696.953 1022.98C756.087 983.305 789.78 1058.48 817.974 1095.54C850.343 1138.1 909.395 1173.23 959.477 1135.08C978.627 1120.48 990.04 1102.52 1015.03 1096.01C1054.12 1085.81 1098.78 1093.52 1137.42 1101.79C1195.5 1114.25 1252.95 1133.97 1305.44 1160.77C1343.02 1179.98 1401.95 1211.84 1397.53 1258.49C1394.58 1289.9 1383.81 1321.83 1374.28 1352.41C1360.02 1398.2 1343.77 1443.41 1326.89 1488.39C1288.04 1592.2 1245.19 1694.87 1198.07 1795.53C1165.91 1864.2 1034.46 2055.78 1029.77 2070.19C1015.8 2113.17 1018.26 2162.04 1020.42 2206.35C1023.3 2265.29 1030.75 2323.94 1037.65 2382.54C1040.92 2410.44 1044.92 2438.47 1046.53 2466.51C1047.67 2486.47 1048.65 2512.69 1036.47 2530.17C1012.7 2564.29 958.325 2526.28 935.318 2510.55C864.788 2462.39 803.709 2401.46 741.259 2344.33C710.597 2316.29 679.984 2287.83 646.864 2262.38C633.489 2252.12 606.635 2226.39 588.318 2237.64Z" stroke="white"/>
<path fill-rule="evenodd" clip-rule="evenodd" d="M573.109 2212.45C513.762 2262.17 469.624 2330.8 420.06 2390.03C395.176 2419.76 369.613 2449.68 339.972 2475.32C324.56 2488.66 305.069 2505.31 283.584 2507.88C226.109 2514.75 233.881 2411.63 231.699 2380.76C227.466 2321.09 224.254 2253.67 194.924 2199.53C176.994 2166.46 147.566 2150.17 108.887 2156.35C91.7257 2159.09 77.1466 2163.36 60.2955 2156.35C43.2238 2149.25 31.178 2134.45 22.1477 2119.47C-3.8235 2076.42 -12.1265 2022.92 -18.3129 1974.45C-25.5184 1917.59 -28.3317 1860.3 -26.7302 1803.05C-25.3491 1752.91 -40.8845 1703 -51.1243 1654.04C-64.6819 1589.18 -76.5234 1523.15 -74.7337 1456.78C-73.3117 1404.36 -62.1404 1351.53 -32.4508 1306.72C-2.21369 1261.18 43.0439 1233.81 91.8809 1209.12C165.709 1171.81 264.641 1125.31 292.68 1043.45C296.766 1031.55 297.215 1020.45 297.926 1008.17C298.27 1002.21 298.376 994.508 304.906 991.549C320.629 984.432 351.111 1010.74 361.735 1018.08C395.649 1041.52 428.036 1066.93 461.501 1090.95C492.743 1113.37 525.301 1137.8 561.913 1151.73C620.221 1173.9 654.316 1103.03 709.878 1105.01C744.373 1106.25 769.111 1137.71 786.223 1162.63C807.266 1193.31 821.102 1237.48 859.503 1252.84C888.106 1264.27 904.753 1246.33 926.458 1232.51C963.233 1209.08 1013.08 1207.49 1055.65 1209.93C1113.18 1213.21 1171.55 1226.05 1224.42 1247.91C1248.39 1257.81 1273.33 1269.94 1291.94 1287.8C1309.39 1304.54 1313.86 1320.37 1310.29 1342.74C1299.34 1411.19 1268.82 1480.31 1241.55 1545.96C1207.3 1628.44 1169.47 1709.79 1126.92 1788.7C1097.9 1842.51 1067.2 1897.54 1027.11 1944.77C1016.65 1957.08 1005.3 1969.69 991.509 1978.69C981.146 1985.49 972.59 1988.38 966.673 1999.85C949.144 2033.85 953.729 2081.13 955.551 2117.56C958.452 2175.8 966.175 2233.76 973.129 2291.65C977.215 2325.42 990.07 2389.05 959.237 2416.03C932.612 2439.31 887.215 2411.21 863.761 2396.86C804.447 2360.56 752.39 2313.87 698.789 2270.54C674.223 2250.69 649.47 2230.06 622.158 2213.66C615.195 2209.47 605.969 2202.76 597.511 2201.6C587.819 2200.31 580.423 2206.35 573.109 2212.45Z" stroke="white"/>
<path fill-rule="evenodd" clip-rule="evenodd" d="M586.922 2208.18C534.449 2254.12 491.34 2309.48 442.236 2358.8C420.22 2380.92 397.124 2403.25 370.266 2420.11C355.822 2429.17 337.642 2438.8 319.69 2436.3C268.165 2429.12 272.819 2344.31 269.801 2310.04C265.368 2259.13 260.903 2200.64 233.121 2155.62C214.923 2126.13 188.049 2115.07 153.389 2120.57C116.209 2126.48 89.2202 2113.27 68.4796 2083.19C42.4965 2045.49 31.9054 1997.89 24.3812 1954.11C15.3593 1901.36 11.3601 1847.94 12.4324 1794.51C13.4792 1742.54 4.33566 1692.2 -1.61009 1640.57C-9.48597 1572.13 -13.3708 1501.49 2.77356 1433.82C16.8324 1374.89 47.8125 1321.67 95.722 1281.78C145.725 1240.11 208.724 1219.48 264.043 1185.64C298.548 1164.54 344.193 1135.11 357.605 1095.67C362.079 1082.52 356.043 1058.55 378.051 1069.06C390.638 1075.06 401.679 1086.3 411.968 1095.17C428.594 1109.52 444.763 1124.34 461.161 1138.93C496.116 1170.01 531.815 1203.3 573.206 1226.6C625.32 1255.96 665.427 1212.32 718.268 1217.64C746.705 1220.5 769.4 1239.33 787.229 1259.25C798.777 1272.14 808.78 1286.24 818.111 1300.64C827.86 1315.68 835.286 1333.47 847.889 1346.59C865.824 1365.28 887.056 1357.16 910.242 1353.66C950.989 1347.49 992.38 1346.14 1033.48 1349.62C1083.85 1353.89 1135.66 1363.9 1181.43 1384.98C1199.25 1393.18 1218.15 1403.57 1230.09 1419C1242.04 1434.42 1241.23 1450.38 1237.63 1468.06C1226.99 1520.49 1202.25 1572.81 1178.81 1622.55C1149.45 1684.81 1116.65 1745.84 1079.33 1804.12C1053.57 1844.35 1025.74 1884.71 990.808 1918.37C980.642 1928.16 969.757 1937.47 957.603 1945C949.27 1950.18 938.515 1952.95 932.25 1960.44C912.695 1983.88 918.535 2030.94 919.672 2058.43C921.937 2113.29 932.708 2167.29 935.325 2222.08C936.757 2251.99 940.355 2298.82 913.62 2320.78C888.487 2341.44 848.903 2322.73 824.687 2310.39C777.072 2286.13 734.65 2253.54 690.388 2224.33C672.174 2212.32 653.119 2199.16 632.321 2191.38C613.788 2184.46 600.375 2196.4 586.922 2208.18Z" stroke="white"/>
<path fill-rule="evenodd" clip-rule="evenodd" d="M587.781 2196.88C541.606 2233.45 500.617 2277.54 453.691 2314.37C426.21 2335.93 380.011 2373.07 341.267 2356.39C298.694 2338.1 297.535 2274.33 294.104 2237.47C290.021 2193.6 284.443 2142.08 257.86 2104.54C249.457 2092.66 238.334 2082.55 223.682 2078.26C208.002 2073.67 194.282 2078.69 178.586 2079.34C145.657 2080.71 119.221 2061.99 101.067 2037.21C75.3985 2002.2 63.2626 1958.41 54.8019 1917.05C45.259 1870.2 40.5543 1822.57 40.7551 1774.84C40.9184 1729.22 39.8567 1684.09 38.6317 1638.43C36.9984 1578.72 39.6362 1518.16 56.2882 1460.24C72.7034 1403.18 103.468 1351.3 148.72 1310.55C192.877 1270.8 246.851 1243.98 301.83 1220.48C333.035 1207.15 379.668 1184.64 395.429 1152.84C402.445 1138.7 401.963 1124.83 420.207 1139.86C443.18 1158.79 461.613 1184.31 481.262 1206.24C509.617 1237.87 538.527 1270.29 572.24 1296.84C593.767 1313.8 614.658 1321.35 642.531 1320.19C663.765 1319.28 684.778 1315.19 706.093 1317.26C756.123 1322.11 790.431 1359.64 822.38 1392.82C842.927 1414.16 858.599 1433.65 887.828 1444.64C922.373 1457.63 959.957 1463.09 995.825 1471.77C1035.21 1481.31 1076.19 1492.33 1110.88 1513.15C1141.77 1531.69 1155.62 1554.23 1147.29 1587.97C1134.33 1640.59 1102.38 1692.46 1072.82 1739.18C1042.75 1786.73 1008.94 1833.47 967.609 1872.87C945.289 1894.15 919.082 1908.67 895.105 1927.56C865.002 1951.32 876.403 2005.08 878.951 2037.03C883.181 2090.07 914.836 2256.95 812.31 2241.56C769.516 2235.13 730.022 2209.82 692.259 2191.3C676.587 2183.63 657.779 2172.53 639.82 2170.79C620.26 2168.9 601.681 2185.88 587.781 2196.88Z" stroke="white"/>
<path fill-rule="evenodd" clip-rule="evenodd" d="M591.701 2177.57C549.857 2205.51 510.326 2238.96 465.132 2262.94C435.863 2278.5 396.757 2293.77 365.789 2273.71C330.841 2251.06 322.695 2201.11 318.241 2164.41C313.657 2126.6 309.801 2081.46 283.302 2050.56C274.862 2040.73 263.479 2032.62 249.85 2031.12C236.776 2029.66 223.703 2033.77 210.392 2032.41C180.503 2029.36 155.875 2012.1 138.013 1989.84C85.1713 1924.02 73.4213 1826.04 72.0404 1746.62C71.354 1706.86 74.9575 1665.95 77.5395 1625.94C80.8896 1574.02 88.0801 1522.02 105.411 1472.5C142.246 1367.22 223.94 1296.66 325.595 1247.37C357.593 1231.86 392.214 1219.99 417.928 1195.69C431.206 1183.16 440.741 1185.89 452.851 1198.7C471.775 1218.73 486.238 1243.16 502.032 1265.4C524.494 1297.01 547.291 1329.31 574.199 1357.27C592.747 1376.55 610.617 1390.23 638.431 1394.38C658.262 1397.35 678.469 1396.65 698.423 1398.44C736.328 1401.83 773.947 1413.44 805.389 1434C830.311 1450.33 852.961 1469.78 874.557 1489.88C902.674 1516 931.239 1538.1 964.61 1557.95C1008.78 1584.25 1090.26 1621.21 1068.7 1683.18C1044.91 1751.52 984.449 1815.57 925.871 1859.42C906.203 1874.14 882.083 1886.23 867.579 1906.09C845.901 1935.82 846.661 1965.98 846.751 2001.34C846.874 2054.28 858.942 2169.48 775.663 2170.72C742.669 2171.21 711.472 2157.61 679.735 2151.1C644.192 2143.76 620.218 2158.48 591.701 2177.57Z" stroke="white"/>
<path fill-rule="evenodd" clip-rule="evenodd" d="M595.427 2156.75C540.891 2184.39 451.277 2246.38 390.633 2199.24C358.584 2174.33 346.54 2130.28 339.363 2093.33C333.558 2063.59 331.378 2027.73 306.767 2005.26C288.673 1988.75 262.34 1996.08 239.689 1989.75C211.609 1981.9 188.632 1963.87 171.362 1941.72C123.097 1879.83 108.285 1793.77 105.133 1719.31C101.867 1641.98 117.144 1556.78 146.531 1484.01C183.185 1393.28 252.59 1325.31 340.482 1277.77C356.706 1269 373.355 1261.03 389.776 1252.61C400.791 1246.95 411.446 1238.57 423.033 1234.11C442.352 1226.68 458.144 1235.43 470.735 1249.45C488.862 1269.63 501.763 1294.41 515.366 1317.4C533.983 1348.85 552.265 1381 574.107 1410.26C588.805 1429.92 604.638 1450.49 630.138 1457.53C647.53 1462.33 665.951 1463.33 683.964 1463.16C722.585 1462.78 753.818 1464.71 789.19 1481.88C847.261 1510.13 899.479 1553.57 942.926 1599.47C977.025 1635.49 1029.99 1692.48 1007.2 1744.96C986.782 1792.04 937.921 1819.58 898.417 1850.61C879.212 1865.69 861.673 1882.63 848.013 1902.54C830.792 1927.64 823.566 1951.27 820.749 1981C816.005 2031.05 814.772 2106.52 751.736 2121.99C728.473 2127.71 704.377 2124.44 680.812 2127.44C649.653 2131.36 622.936 2142.8 595.427 2156.75Z" stroke="white"/>
<path fill-rule="evenodd" clip-rule="evenodd" d="M597.447 2128.01C537.774 2147.69 462.569 2173.55 409.534 2126.01C383.842 2102.98 369.479 2070.58 358.746 2039.23C351.054 2016.78 348.79 1981.13 325.141 1967.36C307.738 1957.25 283.73 1955.85 265.084 1946.7C239.449 1934.13 218.335 1915.1 201.806 1892.76C158.735 1834.57 142.092 1758.77 137.327 1689.66C126.986 1539.47 209.343 1386.66 344.842 1306.29C385.231 1282.33 428.22 1251.4 469.485 1290.12C514.501 1332.4 535.591 1396.09 567.577 1446.55C579.79 1465.83 594.471 1490.4 616.583 1501.16C629.874 1507.63 646.55 1508.07 661.182 1508.37C698.449 1509.15 731.964 1512.09 766.738 1526.37C820.477 1548.41 870.054 1583.55 910.665 1623.38C946.076 1658.12 987.692 1707.65 962.163 1758.1C942.545 1796.78 900.904 1821.31 870.21 1851.36C836.024 1884.8 812.989 1926.16 801.733 1971.58C790.812 2015.77 783.447 2064.23 737.049 2087.52C721.133 2095.5 700.526 2103.85 682.91 2106.84C653.865 2111.68 625.283 2118.75 597.447 2128.01Z" stroke="white"/>
<path fill-rule="evenodd" clip-rule="evenodd" d="M597.871 2095.95C537.614 2105.06 474.783 2106.07 427.291 2063.76C405.135 2044.01 389.395 2019.05 375.133 1993.81C364.64 1975.24 355.789 1956.06 338.585 1942.19C322.657 1929.34 304.162 1919.57 287.817 1907.16C266.156 1890.8 247.404 1871.21 232.283 1849.17C194.452 1793.9 176.758 1726.68 170.621 1662.36C167.638 1631.23 166.085 1597.45 174.217 1566.53C182.062 1536.66 194.468 1507.13 208.934 1479.67C239.655 1421.29 284.646 1370.7 341.527 1334.03C380.544 1308.88 418.481 1295.28 458.061 1327.85C502.676 1364.56 527.292 1422.13 556.248 1469.58C576.107 1502.12 595.574 1538.59 637.778 1544.67C671.36 1549.51 703.233 1553.44 734.976 1565.97C781.796 1584.61 824.21 1612.01 859.699 1646.56C892.03 1678.15 919.465 1718.12 902.196 1763.31C888.491 1799.12 857.786 1826.9 835.834 1858.18C811.316 1893.04 797.799 1931.35 786.929 1971.68C777.122 2007.93 762.052 2042.06 730.056 2065.49C723.517 2070.28 716.399 2075.32 709.085 2079.02C699.751 2083.73 690.5 2083.37 680.039 2084.29C652.432 2086.71 625.143 2091.84 597.871 2095.95Z" stroke="white"/>
<path fill-rule="evenodd" clip-rule="evenodd" d="M592.944 2060.61C535.709 2059.84 481.617 2046.73 437.013 2010.82C417.931 1995.47 402.215 1977.14 384.73 1960.25C370.634 1946.65 357.536 1933.8 345.921 1918.16C318.416 1881.07 282.824 1850.92 258.333 1811.5C225.589 1758.88 207.49 1698.6 200.254 1638.78C196.718 1609.58 195.482 1579.41 199.477 1549.86C202.906 1524.48 214.948 1500.18 227.267 1477.63C251.399 1433.44 285.698 1390.53 329.091 1361.84C424.758 1298.58 494.313 1423.3 535.046 1487.32C553.783 1516.76 575.484 1561.74 612.598 1573.8C639.112 1582.42 666.076 1587.67 691.772 1598.77C760.778 1628.59 841.94 1689.13 831.135 1769.8C826.518 1804.32 807.765 1835.78 795.175 1868.01C782.208 1901.19 774.98 1935.43 767.048 1969.92C759.64 2002.16 749.097 2027.85 720.831 2048.66C707.333 2058.62 691.174 2057.74 674.614 2058.62C647.413 2060.07 620.056 2060.96 592.944 2060.61Z" stroke="white"/>
<path fill-rule="evenodd" clip-rule="evenodd" d="M585.61 2028.44C499.219 2015.48 404.904 1967.34 354.732 1896.57C295.714 1813.31 246.016 1723.12 231.729 1623.65C225.104 1577.54 221.845 1527.02 243.508 1483.51C259.984 1450.39 284.613 1411.92 319.248 1393.69C403.965 1349.1 471.405 1448.28 510.598 1504.79C531.698 1535.21 552.258 1573.94 583.07 1596.87C600.935 1610.17 624.567 1616.96 644.188 1627.7C703.647 1660.25 751.605 1713.83 760.182 1780.57C764.144 1811.43 759.243 1842.51 755.346 1873.14C751.36 1904.49 749.195 1936.23 743.633 1967.38C739.189 1992.25 731.666 2021.56 703.721 2030.72C668.506 2042.27 620.891 2033.72 585.61 2028.44Z" stroke="white"/>
<path fill-rule="evenodd" clip-rule="evenodd" d="M571.733 1996.88C490.51 1977.98 411.283 1937.95 362.794 1870.67C337.083 1834.98 319.334 1793.56 301.798 1753.8C281.923 1708.72 266.497 1661.62 258.844 1613.51C249.312 1553.62 240.719 1456.62 312.377 1425.33C383.503 1394.27 446.453 1472.75 482.327 1519.16C505.308 1548.92 526.4 1580.76 551.523 1609.19C565.144 1624.61 580.881 1636.49 596.856 1649.53C641.117 1685.59 676.157 1736.99 694.863 1789.38C712.996 1840.16 721.024 1902.98 715.031 1956.58C712.456 1979.71 703.766 1996.24 679.059 2003.23C644.715 2012.93 605.285 2004.69 571.733 1996.88Z" stroke="white"/>
<path fill-rule="evenodd" clip-rule="evenodd" d="M549.856 1965.52C478.343 1946.75 413.025 1906.25 370.104 1847.17C321.988 1780.95 295.252 1695.68 281.656 1617.3C274.435 1575.64 254.855 1485.37 310.892 1464.13C366.929 1442.9 422.151 1504.28 452.551 1539.61C489.39 1582.49 524.96 1628.72 558.014 1674.9C586.752 1715.02 616.134 1757.83 638.328 1801.29C650.918 1825.8 661.197 1851.33 669.045 1877.58C674.809 1897.02 683.406 1921.73 679.116 1942.11C668.28 1993.52 584.049 1974.5 549.856 1965.52Z" stroke="white"/>
<path fill-rule="evenodd" clip-rule="evenodd" d="M528.44 1926.82C393.2 1885.62 326.687 1755.09 303.503 1629.41C298.121 1600.2 278.718 1518.33 320.031 1502.01C360.086 1486.19 407.589 1536.5 430.095 1560.05C499.834 1633.04 551.543 1723.21 602.769 1808.66C618.758 1835.33 653.457 1883.43 637.451 1916.51C620.041 1952.43 556.483 1935.35 528.44 1926.82Z" stroke="white"/>
<path fill-rule="evenodd" clip-rule="evenodd" d="M502.412 1884.62C402.817 1848.79 345.696 1744.58 326.865 1648.77C322.258 1625.3 307.912 1565.7 335.705 1547.92C361.414 1531.48 398.667 1570.73 413.47 1585.41C446.434 1618.11 473.59 1656.85 499.691 1695.13C523.84 1730.52 548.594 1766.3 569.018 1803.54C579.769 1823.15 602.709 1859.94 586.108 1882.23C568.25 1906.23 524.527 1892.57 502.412 1884.62Z" stroke="white"/>
<path fill-rule="evenodd" clip-rule="evenodd" d="M473.316 1838.11C408.277 1810.81 366.043 1737.67 352.009 1673.15C348.24 1655.79 338.465 1618.27 355.834 1603.62C371.83 1590.14 395.281 1611.87 406.111 1621.51C454.116 1664.26 496.996 1726.85 523.332 1784.19C529.953 1798.61 542.949 1824.53 529.585 1839.36C515.861 1854.58 488.25 1844.39 473.316 1838.11Z" stroke="white"/>
<path fill-rule="evenodd" clip-rule="evenodd" d="M445.991 1788.78C413.695 1773.39 389.329 1733.18 381.573 1699.86C376.119 1676.41 380.83 1648.23 408.943 1668.66C436.841 1688.96 462.321 1726.63 473.617 1758.55C482.231 1782.91 473.732 1801.99 445.991 1788.78Z" stroke="white"/>
<path fill-rule="evenodd" clip-rule="evenodd" d="M1671.16 1465.62C1711.54 1529 1744.87 1600.65 1778.75 1668.22C1828.25 1766.96 1876.42 1867.15 1913.3 1970.9C1933.06 2026.53 1961.56 2098.6 1946.07 2158.29C1940.41 2180.11 1923.29 2200.01 1912.17 2219.58C1896.83 2246.56 1882.25 2273.94 1867.64 2301.27C1838.35 2356.09 1809.36 2411.08 1778.19 2464.97C1763.18 2490.91 1744.28 2516.09 1731.47 2543.1C1723.98 2558.88 1727.48 2577.77 1727.96 2594.64C1729.06 2633.71 1731.15 2672.75 1732.93 2711.8C1735.1 2759.56 1737.42 2807.43 1736.56 2855.24C1736.17 2876.81 1740.18 2929.62 1720.68 2941.49C1710.18 2947.88 1691.24 2932.83 1682.47 2925.85C1666.37 2913.04 1651.85 2898.31 1637.49 2883.78C1604.26 2850.17 1572.62 2814.48 1535.51 2784.6C1516.43 2769.25 1493.12 2749.14 1467.08 2759.16C1440.77 2769.28 1417.99 2786.8 1391.78 2797.48C1361.61 2809.79 1330.21 2814.9 1298.22 2820.71C1274.58 2825.01 1253.63 2835.03 1231.83 2844.45C1207.73 2854.86 1183.44 2865.64 1158.03 2872.87C1141.24 2877.65 1111.05 2885.36 1100.42 2868.65C1085.32 2844.9 1097.55 2800.38 1102 2773.31C1108.14 2735.91 1115.97 2698.78 1122.71 2661.47C1127.61 2634.39 1132.98 2607.22 1133.55 2579.68C1134.47 2535.3 1131.28 2490.77 1128.31 2446.5C1122.8 2364.54 1115.34 2283.16 1115.34 2200.92C1115.34 2128.86 1202.87 1962.35 1218.28 1923.38C1249.04 1845.58 1278.21 1765.71 1319.14 1692.09C1330.23 1672.18 1344.99 1641.52 1367.81 1631.05C1381.86 1624.58 1389.99 1627.55 1399.04 1612.3C1411.4 1591.5 1416.25 1564.85 1421.78 1541.82C1430.68 1504.73 1438.22 1467.36 1446.28 1430.1C1462.55 1354.75 1480.94 1279.91 1498.64 1204.87C1503.99 1182.18 1505.17 1154.73 1514.6 1133.11C1520.65 1119.17 1528.27 1120.61 1537.46 1131.4C1553.6 1150.33 1562.56 1176.86 1571.77 1199.22C1585.25 1231.98 1597.28 1265.28 1609.14 1298.59C1621 1331.9 1632.49 1365.38 1644.37 1398.71C1652.2 1420.73 1658.56 1445.83 1671.16 1465.62Z" stroke="white"/>
<path fill-rule="evenodd" clip-rule="evenodd" d="M1662.28 1517.78C1702.74 1584.82 1734.98 1659.24 1766.43 1730.98C1806.7 1822.8 1844.44 1916.7 1869.62 2013.45C1884.39 2070.25 1900.7 2137.27 1883.76 2195.31C1877.72 2216.02 1864.13 2231.49 1852.14 2249.24C1838.46 2269.47 1825.92 2290.48 1813.58 2311.49C1788.17 2354.74 1763.64 2398.44 1739.97 2442.61C1727.38 2466 1710.52 2491.74 1706.16 2518.17C1702.68 2539.18 1707.71 2563.05 1709.17 2584.15C1711.81 2622.15 1714.52 2660.15 1716.83 2698.17C1719.49 2742.04 1721.94 2786.04 1721.52 2830C1721.28 2854.5 1725.2 2896.57 1708.57 2913.9C1694.06 2929.02 1641.58 2873.97 1631.61 2864.29C1600.48 2834.06 1570.84 2802.27 1537.55 2774.13C1517.92 2757.5 1494.05 2737.25 1468.03 2730.24C1445.86 2724.28 1420.6 2735.79 1400.1 2742.59C1374.43 2751.1 1347.81 2757.96 1322.68 2767.84C1300.28 2776.64 1280.33 2790.65 1259.98 2802.95C1237.58 2816.48 1214.82 2830.19 1190.39 2840.23C1175.36 2846.39 1150.18 2856.57 1135.85 2844.34C1119.33 2830.21 1130.13 2786.65 1132.48 2768.75C1137.33 2732.42 1144.52 2696.38 1150.97 2660.3C1161.67 2600.39 1171.02 2543.27 1168.78 2482.25C1165.85 2402.8 1158.97 2323.42 1155.16 2243.98C1153.73 2214.64 1150.87 2184.84 1152.42 2155.48C1153.31 2138.65 1158.71 2125.83 1170.88 2116.05C1187.5 2102.68 1196.7 2071.89 1206.24 2050.47C1221.1 2017.08 1234.92 1983.27 1248.93 1949.56C1279.68 1875.54 1309.32 1800.1 1349.09 1729.9C1361.67 1707.7 1375.7 1682.27 1396.48 1665.84C1408.07 1656.67 1419.24 1658.98 1431.56 1653.39C1447.76 1645.98 1455.07 1621.63 1460.37 1607.07C1470.61 1578.97 1477.47 1549.72 1483.9 1520.69C1498.44 1455.02 1508 1389.19 1515.05 1322.45C1516.68 1306.81 1522.35 1245.22 1549.67 1277.57C1579.86 1313.3 1594.65 1364.91 1611.66 1406.98C1626.96 1444.89 1641.19 1482.82 1662.28 1517.78Z" stroke="white"/>
<path fill-rule="evenodd" clip-rule="evenodd" d="M1654.8 1610.43C1690.39 1673.45 1716.95 1743.26 1742.35 1811.13C1773.18 1893.49 1800.66 1977.92 1816.05 2064.3C1825.71 2118.56 1833.14 2178.39 1817.08 2232.28C1806.12 2269.09 1776.5 2297.56 1756.11 2329.89C1735.73 2362.22 1716.6 2395.85 1700.65 2430.49C1690.75 2451.99 1680.78 2475.12 1682.09 2499.04C1685.26 2557.21 1692.81 2615.31 1696.48 2673.53C1698.93 2712.05 1700.94 2750.65 1700.34 2789.29C1699.98 2812.59 1701.45 2844.6 1688.58 2865.22C1674.35 2888.02 1552.82 2766.62 1539.14 2755.15C1504.84 2726.38 1459.32 2691.54 1410.55 2697.11C1363.92 2702.43 1329.11 2725.48 1292.57 2751.56C1271.79 2766.36 1216.27 2813.83 1189.24 2796.24C1173.79 2786.19 1179.14 2753.07 1180.19 2737.33C1182.26 2706.32 1186.72 2675.48 1190.59 2644.63C1196.2 2599.66 1204.87 2553.44 1207.41 2508.27C1209.17 2476.81 1206.81 2445.17 1206.76 2413.66C1206.7 2368.48 1207.06 2323.3 1207.48 2278.12C1207.84 2240.18 1207.48 2201.93 1211.3 2164.12C1213.65 2140.62 1218.94 2122.78 1233.87 2105.93C1246.85 2091.26 1254.45 2069.13 1262.71 2050.43C1276.34 2019.55 1288.97 1988.27 1301.81 1957.09C1328.69 1891.8 1355.01 1825.77 1388.61 1763.28C1403.93 1734.75 1425.39 1686.79 1462.56 1680.1C1475.96 1677.69 1481.75 1675.91 1489.37 1663.45C1500.18 1645.76 1505.05 1624.57 1509.29 1604.72C1519.17 1558.45 1517.7 1510.84 1527.46 1464.64C1531.49 1445.83 1540.18 1421.27 1560.07 1442.75C1583.34 1467.81 1596.12 1504.29 1610.5 1534.31C1617.67 1549.3 1624.38 1564.74 1633.13 1578.97C1639.88 1589.9 1648.53 1599.25 1654.8 1610.43Z" stroke="white"/>
<path fill-rule="evenodd" clip-rule="evenodd" d="M1643.69 1729.79C1672.6 1788.01 1693.62 1851.24 1712.57 1913.34C1733.59 1982.31 1751 2052.94 1758.41 2124.51C1763.54 2173.93 1765.06 2226.58 1749.35 2274.54C1739.41 2304.88 1718.51 2325.44 1700.99 2351.54C1674.5 2390.93 1653.51 2433.55 1658.62 2480.88C1664.33 2533.94 1668.62 2587.17 1671.48 2640.57C1673.2 2672.79 1674.5 2705.12 1673.29 2737.38C1672.54 2757.77 1671.27 2784.04 1661.57 2801.78C1648.58 2825.52 1549.73 2736.36 1535.33 2725.25C1499.6 2697.68 1462.11 2677.48 1417.84 2665.67C1381.71 2656.04 1353.32 2675.71 1326.3 2696C1309.52 2708.62 1267.31 2749.38 1245.52 2736.62C1233.51 2729.62 1234.13 2706.55 1233.51 2694.16C1232.35 2670.55 1233.56 2646.83 1234.09 2623.22C1234.91 2588.35 1229.29 2551.24 1233.82 2516.67C1243.84 2440.05 1252.51 2363.63 1259.38 2286.54C1263.16 2244.05 1266.6 2201.3 1273.89 2159.18C1276.51 2144.06 1279.29 2128.44 1285.21 2114.12C1289.02 2104.9 1295.5 2099.88 1300.82 2092.1C1326.15 2055.02 1339.18 2006.61 1355.41 1964.85C1376.99 1909.32 1398.23 1853.5 1423.72 1799.46C1437.13 1771.03 1452.54 1731.33 1479.9 1711.77C1488.17 1705.86 1494.78 1708.38 1502.73 1704.66C1511.9 1700.38 1514.63 1687.39 1517.19 1678.99C1522.99 1659.95 1531.77 1580.22 1565.81 1616.96C1582.03 1634.49 1592.43 1656.83 1605.17 1676.59C1609.79 1683.75 1614.43 1690.72 1620.66 1696.69C1631.11 1706.67 1637.07 1716.5 1643.69 1729.79Z" stroke="white"/>
</g>
</g>
</svg>
