<svg width="1439" height="846" viewBox="0 0 1439 846" fill="none" xmlns="http://www.w3.org/2000/svg">
<mask id="mask0_77_2423" style="mask-type:alpha" maskUnits="userSpaceOnUse" x="0" y="0" width="1439" height="846">
<path d="M1439 0H0V796.992C561.966 863.831 877.033 860.824 1439 796.992V0Z" fill="#F4F4FF"/>
</mask>
<g mask="url(#mask0_77_2423)">
<g opacity="0.12">
<path fill-rule="evenodd" clip-rule="evenodd" d="M593.041 1417.11C565.014 1417.23 533.497 1466.92 517.248 1488.14C485.11 1530.1 455.432 1573.74 425.28 1616.98C395.128 1660.22 365.058 1703.57 331.955 1744.8C310.467 1771.57 286.265 1803.03 255.581 1821.18C190.193 1859.86 199.904 1737.91 198.473 1706.33C194.82 1625.97 196.487 1533.8 162.436 1458.47C142.109 1413.51 108.017 1395.58 58.33 1405.23C42.171 1408.35 23.5762 1417.56 7.83404 1409.76C-8.97887 1401.42 -18.6808 1382.25 -25.1869 1366.33C-48.8901 1308.28 -51.6364 1241.54 -54.6116 1180.13C-57.881 1113.9 -56.9247 1047.05 -57.1781 981.292C-57.2843 953.409 -67.8037 924.288 -76.3532 897.735C-87.5591 862.925 -100.146 828.528 -112.317 794.006C-139.028 718.06 -167.161 639.802 -173.945 559.451C-178.195 509.132 -172.449 454.135 -135.48 415.045C-116.918 395.419 -89.3245 385.146 -64.8121 373.8C-35.1995 360.064 -5.30083 346.874 23.8459 332.251C117.719 285.145 209.45 217.892 214.06 108.731C214.755 92.2175 212.491 75.9994 212.066 59.5635C211.804 49.0965 214.461 39.7812 225.961 35.8901C254.805 26.1079 300.34 56.8553 323.225 69.4624C373.321 97.0658 421.169 128.194 470.259 157.354C502.724 176.646 547.09 210.04 586.535 210.39C621.681 210.701 647.085 166.187 664.396 141.953C680.604 119.245 703.286 78.1006 736.258 75.6103C752.245 74.4041 765.494 84.4431 775.777 94.9257C793.758 113.299 806.444 134.467 826.959 150.996C860.618 178.102 906.929 200.748 952.284 197.067C983.711 194.514 1004.29 177.44 1023.97 155.72C1032.24 146.591 1038.09 139.183 1051.52 138.7C1072.84 137.922 1095.41 145.876 1115.18 152.428C1185.94 175.868 1254.36 209.16 1318.24 246.196C1350.17 264.702 1382 284.694 1409.23 309.231C1427.12 325.301 1448.4 346.975 1448.37 371.489C1448.37 399.87 1437.62 429.902 1429.58 457.489C1414.54 509.015 1397.17 559.918 1379.34 610.619C1338.1 727.871 1293.51 844.02 1245.59 959.066C1211.78 1040.1 1177.91 1122.86 1132.96 1199.04C1124.13 1213.9 1113.84 1227.93 1102.22 1240.93C1090.02 1254.82 1084.56 1272.06 1080.49 1289.54C1055.22 1398.02 1074.62 1516.87 1086.78 1625.8C1089.86 1653.45 1092.96 1681.1 1095.12 1708.83C1096.97 1732.67 1102.29 1761.21 1094.3 1784.37C1078.56 1830.02 1020.57 1790.12 996.944 1773.24C913.745 1713.84 843.355 1637.2 771.494 1566.17C737.271 1532.39 703.139 1498.36 666.979 1466.43C648.18 1449.79 617.611 1417 593.041 1417.11Z" stroke="black"/>
<path fill-rule="evenodd" clip-rule="evenodd" d="M588.318 1396.64C558.661 1414.85 536.741 1446.79 516.112 1473.31C486.415 1511.47 458.368 1550.82 429.512 1589.59C402.224 1626.25 374.626 1662.98 343.638 1696.93C324.741 1717.62 302.143 1743.6 274.194 1753.4C213.614 1774.67 222.805 1660.25 221.22 1632.01C217.298 1561.79 216.4 1482.18 184.504 1417.21C164.586 1376.65 131.555 1359.98 85.6975 1368.63C69.8316 1371.63 56.2859 1377.01 40.5016 1370.19C22.2337 1362.3 10.8448 1344.16 2.80566 1327.52C-22.3822 1275.42 -27.7334 1213.83 -32.186 1157.34C-36.7856 1098.99 -40.0292 1038.2 -36.6632 981.721C-35.3233 959.137 -42.9295 933.142 -48.7628 910.792C-57.7497 876.402 -68.1173 842.363 -77.7578 808.145C-97.3656 738.602 -116.254 667.253 -118.403 594.907C-119.955 542.676 -111.54 488.218 -79.016 444.764C-46.0341 400.726 5.09316 381.187 53.6959 356.765C137.723 314.588 239.888 257.623 257.641 160.045C260.337 145.249 258.875 131.029 259.537 116.248C259.872 108.648 260.934 99.9957 268.801 96.1409C289.226 86.1339 326.571 113.554 342.216 122.782C385.451 148.278 426.57 176.944 468.972 203.663C502.64 224.884 540.05 251.782 579.96 259.99C628.391 269.95 662.852 204.87 696.953 181.983C756.087 142.305 789.78 217.478 817.974 254.539C850.343 297.097 909.395 332.227 959.477 294.076C978.627 279.482 990.04 261.524 1015.03 255.006C1054.12 244.812 1098.78 252.522 1137.42 260.792C1195.5 273.252 1252.95 292.97 1305.44 319.775C1343.02 338.979 1401.95 370.837 1397.53 417.492C1394.58 448.899 1383.81 480.828 1374.28 511.41C1360.02 557.2 1343.77 602.414 1326.89 647.387C1288.04 751.202 1245.19 853.873 1198.07 954.526C1165.91 1023.2 1034.46 1214.78 1029.77 1229.19C1015.8 1272.17 1018.26 1321.04 1020.42 1365.35C1023.3 1424.29 1030.75 1482.94 1037.65 1541.54C1040.92 1569.44 1044.92 1597.47 1046.53 1625.51C1047.67 1645.47 1048.65 1671.69 1036.47 1689.17C1012.7 1723.29 958.325 1685.27 935.318 1669.55C864.788 1621.39 803.709 1560.46 741.259 1503.33C710.597 1475.29 679.984 1446.83 646.864 1421.38C633.489 1411.12 606.635 1385.39 588.318 1396.64Z" stroke="black"/>
<path fill-rule="evenodd" clip-rule="evenodd" d="M573.109 1371.45C513.762 1421.17 469.624 1489.8 420.06 1549.03C395.176 1578.76 369.613 1608.68 339.972 1634.32C324.56 1647.66 305.069 1664.31 283.584 1666.88C226.109 1673.75 233.881 1570.63 231.699 1539.76C227.466 1480.09 224.254 1412.67 194.924 1358.53C176.994 1325.46 147.566 1309.17 108.887 1315.35C91.7257 1318.09 77.1466 1322.36 60.2955 1315.35C43.2238 1308.25 31.178 1293.45 22.1477 1278.47C-3.8235 1235.42 -12.1265 1181.92 -18.3129 1133.45C-25.5184 1076.59 -28.3317 1019.3 -26.7302 962.051C-25.3491 911.907 -40.8845 862.004 -51.1243 813.044C-64.6819 748.183 -76.5234 682.147 -74.7337 615.776C-73.3117 563.358 -62.1404 510.528 -32.4508 465.717C-2.21369 420.183 43.0439 392.806 91.8809 368.123C165.709 330.811 264.641 284.311 292.68 202.453C296.766 190.547 297.215 179.452 297.926 167.173C298.27 161.208 298.376 153.508 304.906 150.549C320.629 143.432 351.111 169.742 361.735 177.085C395.649 200.522 428.036 225.929 461.501 249.949C492.743 272.374 525.301 296.8 561.913 310.73C620.221 332.898 654.316 262.026 709.878 264.012C744.373 265.25 769.111 296.714 786.223 321.631C807.266 352.309 821.102 396.481 859.503 411.836C888.106 423.274 904.753 405.326 926.458 391.505C963.233 368.084 1013.08 366.488 1055.65 368.925C1113.18 372.211 1171.55 385.051 1224.42 406.907C1248.39 416.811 1273.33 428.942 1291.94 446.804C1309.39 463.537 1313.86 479.375 1310.29 501.737C1299.34 570.195 1268.82 639.314 1241.55 704.961C1207.3 787.442 1169.47 868.786 1126.92 947.701C1097.9 1001.51 1067.2 1056.54 1027.11 1103.77C1016.65 1116.08 1005.3 1128.69 991.509 1137.69C981.146 1144.49 972.59 1147.38 966.673 1158.85C949.144 1192.85 953.729 1240.13 955.551 1276.56C958.452 1334.8 966.175 1392.76 973.129 1450.65C977.215 1484.42 990.07 1548.05 959.237 1575.02C932.612 1598.31 887.215 1570.21 863.761 1555.86C804.447 1519.56 752.39 1472.87 698.789 1429.54C674.223 1409.69 649.47 1389.06 622.158 1372.66C615.195 1368.47 605.969 1361.76 597.511 1360.6C587.819 1359.31 580.423 1365.35 573.109 1371.45Z" stroke="black"/>
<path fill-rule="evenodd" clip-rule="evenodd" d="M586.922 1367.18C534.449 1413.12 491.34 1468.48 442.236 1517.8C420.22 1539.92 397.124 1562.25 370.266 1579.11C355.822 1588.17 337.642 1597.8 319.69 1595.3C268.165 1588.12 272.819 1503.31 269.801 1469.04C265.368 1418.13 260.903 1359.64 233.121 1314.62C214.923 1285.13 188.049 1274.07 153.389 1279.57C116.209 1285.48 89.2202 1272.27 68.4796 1242.19C42.4965 1204.49 31.9054 1156.89 24.3812 1113.11C15.3593 1060.36 11.3601 1006.94 12.4324 953.51C13.4792 901.544 4.33566 851.198 -1.61009 799.574C-9.48597 731.129 -13.3708 660.489 2.77356 592.815C16.8324 533.895 47.8125 480.675 95.722 440.779C145.725 399.108 208.724 378.479 264.043 344.642C298.548 323.538 344.193 294.109 357.605 254.673C362.079 241.52 356.043 217.55 378.051 228.055C390.638 234.059 401.679 245.297 411.968 254.175C428.594 268.519 444.763 283.339 461.161 297.925C496.116 329.013 531.815 362.304 573.206 385.605C625.32 414.964 665.427 371.322 718.268 376.641C746.705 379.499 769.4 398.329 787.229 418.25C798.777 431.138 808.78 445.242 818.111 459.641C827.86 474.678 835.286 492.473 847.889 505.587C865.824 524.277 887.056 516.163 910.242 512.658C950.989 506.49 992.38 505.135 1033.48 508.624C1083.85 512.892 1135.66 522.899 1181.43 543.98C1199.25 552.18 1218.15 562.568 1230.09 577.995C1242.04 593.423 1241.23 609.379 1237.63 627.057C1226.99 679.49 1202.25 731.815 1178.81 781.554C1149.45 843.807 1116.65 904.838 1079.33 963.12C1053.57 1003.35 1025.74 1043.71 990.808 1077.37C980.642 1087.16 969.757 1096.47 957.603 1104C949.27 1109.17 938.515 1111.95 932.25 1119.44C912.695 1142.88 918.535 1189.94 919.672 1217.43C921.937 1272.29 932.708 1326.29 935.325 1381.08C936.757 1410.99 940.355 1457.82 913.62 1479.78C888.487 1500.44 848.903 1481.73 824.687 1469.39C777.072 1445.13 734.65 1412.54 690.388 1383.33C672.174 1371.32 653.119 1358.16 632.321 1350.38C613.788 1343.46 600.375 1355.4 586.922 1367.18Z" stroke="black"/>
<path fill-rule="evenodd" clip-rule="evenodd" d="M587.781 1355.88C541.606 1392.45 500.617 1436.54 453.691 1473.37C426.21 1494.93 380.011 1532.07 341.267 1515.39C298.694 1497.1 297.535 1433.33 294.104 1396.47C290.021 1352.6 284.443 1301.08 257.86 1263.54C249.457 1251.66 238.334 1241.55 223.682 1237.26C208.002 1232.67 194.282 1237.69 178.586 1238.34C145.657 1239.71 119.221 1220.99 101.067 1196.21C75.3985 1161.2 63.2626 1117.41 54.8019 1076.05C45.259 1029.2 40.5543 981.565 40.7551 933.836C40.9184 888.222 39.8567 843.091 38.6317 797.43C36.9984 737.717 39.6362 677.163 56.2882 619.24C72.7034 562.18 103.468 510.302 148.72 469.552C192.877 429.797 246.851 402.975 301.83 379.484C333.035 366.154 379.668 343.635 395.429 311.841C402.445 297.703 401.963 283.829 420.207 298.862C443.18 317.794 461.613 343.309 481.262 365.236C509.617 396.867 538.527 429.292 572.24 455.841C593.767 472.796 614.658 480.352 642.531 479.185C663.765 478.282 684.778 474.189 706.093 476.259C756.123 481.107 790.431 518.636 822.38 551.815C842.927 573.159 858.599 592.651 887.828 603.638C922.373 616.633 959.957 622.088 995.825 630.771C1035.21 640.311 1076.19 651.33 1110.88 672.152C1141.77 690.687 1155.62 713.229 1147.29 746.969C1134.33 799.593 1102.38 851.463 1072.82 898.182C1042.75 945.733 1008.94 992.467 967.609 1031.87C945.289 1053.15 919.082 1067.67 895.105 1086.56C865.002 1110.32 876.403 1164.08 878.951 1196.03C883.181 1249.07 914.836 1415.95 812.31 1400.56C769.516 1394.13 730.022 1368.82 692.259 1350.3C676.587 1342.63 657.779 1331.53 639.82 1329.79C620.26 1327.9 601.681 1344.88 587.781 1355.88Z" stroke="black"/>
<path fill-rule="evenodd" clip-rule="evenodd" d="M591.701 1336.57C549.857 1364.51 510.326 1397.96 465.132 1421.94C435.863 1437.5 396.757 1452.77 365.789 1432.71C330.841 1410.05 322.695 1360.11 318.241 1323.41C313.657 1285.6 309.801 1240.46 283.302 1209.56C274.862 1199.73 263.479 1191.62 249.85 1190.12C236.776 1188.66 223.703 1192.77 210.392 1191.41C180.503 1188.36 155.875 1171.1 138.013 1148.84C85.1713 1083.02 73.4213 985.04 72.0404 905.616C71.354 865.861 74.9575 824.947 77.5395 784.935C80.8896 733.015 88.0801 681.017 105.411 631.5C142.246 526.221 223.94 455.656 325.595 406.373C357.593 390.863 392.214 378.993 417.928 354.686C431.206 342.155 440.741 344.893 452.851 357.704C471.775 377.733 486.238 402.165 502.032 424.395C524.494 456.014 547.291 488.309 574.199 516.272C592.747 535.547 610.617 549.229 638.431 553.383C658.262 556.346 678.469 555.654 698.423 557.435C736.328 560.827 773.947 572.44 805.389 592.998C830.311 609.332 852.961 628.778 874.557 648.877C902.674 675.004 931.239 697.103 964.61 716.945C1008.78 743.251 1090.26 780.214 1068.7 842.176C1044.91 910.516 984.449 974.571 925.871 1018.42C906.203 1033.14 882.083 1045.23 867.579 1065.09C845.901 1094.82 846.661 1124.98 846.751 1160.34C846.874 1213.28 858.942 1328.48 775.663 1329.72C742.669 1330.21 711.472 1316.61 679.735 1310.1C644.192 1302.76 620.218 1317.48 591.701 1336.57Z" stroke="black"/>
<path fill-rule="evenodd" clip-rule="evenodd" d="M595.427 1315.75C540.891 1343.39 451.277 1405.38 390.633 1358.23C358.584 1333.33 346.54 1289.28 339.363 1252.33C333.558 1222.59 331.378 1186.73 306.767 1164.26C288.673 1147.75 262.34 1155.08 239.689 1148.75C211.609 1140.9 188.632 1122.87 171.362 1100.72C123.097 1038.83 108.285 952.769 105.133 878.312C101.867 800.984 117.144 715.78 146.531 643.013C183.185 552.283 252.59 484.31 340.482 436.774C356.706 428.003 373.355 420.033 389.776 411.613C400.791 405.955 411.446 397.565 423.033 393.106C442.352 385.681 458.144 394.429 470.735 408.453C488.862 428.625 501.763 453.405 515.366 476.403C533.983 507.852 552.265 540.002 574.107 569.257C588.805 588.916 604.638 609.493 630.138 616.529C647.53 621.331 665.951 622.327 683.964 622.156C722.585 621.782 753.818 623.712 789.19 640.88C847.261 669.131 899.479 712.574 942.926 758.468C977.025 794.486 1029.99 851.478 1007.2 903.956C986.782 951.041 937.921 978.584 898.417 1009.61C879.212 1024.69 861.673 1041.63 848.013 1061.54C830.792 1086.64 823.566 1110.27 820.749 1140C816.005 1190.05 814.772 1265.52 751.736 1280.99C728.473 1286.7 704.377 1283.44 680.812 1286.44C649.653 1290.36 622.936 1301.8 595.427 1315.75Z" stroke="black"/>
<path fill-rule="evenodd" clip-rule="evenodd" d="M597.447 1287.01C537.774 1306.69 462.569 1332.55 409.534 1285.01C383.842 1261.98 369.479 1229.58 358.746 1198.23C351.054 1175.78 348.79 1140.13 325.141 1126.36C307.738 1116.25 283.73 1114.85 265.084 1105.7C239.449 1093.13 218.335 1074.1 201.806 1051.76C158.735 993.566 142.092 917.774 137.327 848.655C126.986 698.471 209.343 545.658 344.842 465.293C385.231 441.33 428.22 410.399 469.485 449.123C514.501 491.402 535.591 555.092 567.577 605.553C579.79 624.833 594.471 649.403 616.583 660.159C629.874 666.63 646.55 667.073 661.182 667.369C698.449 668.146 731.964 671.094 766.738 685.366C820.477 707.407 870.054 742.554 910.665 782.383C946.076 817.117 987.692 866.653 962.163 917.098C942.545 955.775 900.904 980.306 870.21 1010.36C836.024 1043.8 812.989 1085.16 801.733 1130.58C790.812 1174.77 783.447 1223.23 737.049 1246.52C721.133 1254.5 700.526 1262.85 682.91 1265.84C653.865 1270.68 625.283 1277.75 597.447 1287.01Z" stroke="black"/>
<path fill-rule="evenodd" clip-rule="evenodd" d="M597.871 1254.95C537.614 1264.06 474.783 1265.07 427.291 1222.76C405.135 1203.01 389.395 1178.05 375.133 1152.81C364.64 1134.24 355.789 1115.06 338.585 1101.19C322.657 1088.34 304.162 1078.57 287.817 1066.16C266.156 1049.8 247.404 1030.21 232.283 1008.17C194.452 952.903 176.758 885.676 170.621 821.361C167.638 790.226 166.085 756.453 174.217 725.529C182.062 695.663 194.468 666.132 208.934 638.672C239.655 580.295 284.646 529.701 341.527 493.025C380.544 467.876 418.481 454.278 458.061 486.845C502.676 523.56 527.292 581.128 556.248 628.576C576.107 661.12 595.574 697.594 637.778 703.673C671.36 708.514 703.233 712.445 734.976 724.969C781.796 743.608 824.21 771.013 859.699 805.56C892.03 837.154 919.465 877.122 902.196 922.314C888.491 958.118 857.786 985.898 835.834 1017.18C811.316 1052.04 797.799 1090.35 786.929 1130.68C777.122 1166.93 762.052 1201.06 730.056 1224.49C723.517 1229.28 716.399 1234.32 709.085 1238.02C699.751 1242.73 690.5 1242.37 680.039 1243.29C652.432 1245.71 625.143 1250.84 597.871 1254.95Z" stroke="black"/>
<path fill-rule="evenodd" clip-rule="evenodd" d="M592.944 1219.61C535.709 1218.84 481.617 1205.73 437.013 1169.82C417.931 1154.47 402.215 1136.14 384.73 1119.25C370.634 1105.65 357.536 1092.8 345.921 1077.16C318.416 1040.07 282.824 1009.92 258.333 970.499C225.589 917.876 207.49 857.596 200.254 797.784C196.718 768.578 195.482 738.407 199.477 708.859C202.906 683.481 214.948 659.176 227.267 636.63C251.399 592.439 285.698 549.533 329.091 520.84C424.758 457.581 494.313 582.302 535.046 646.316C553.783 675.755 575.484 720.739 612.598 732.798C639.112 741.418 666.076 746.67 691.772 757.772C760.778 787.592 841.94 848.128 831.135 928.799C826.518 963.319 807.765 994.781 795.175 1027.01C782.208 1060.19 774.98 1094.43 767.048 1128.92C759.64 1161.16 749.097 1186.85 720.831 1207.66C707.333 1217.61 691.174 1216.74 674.614 1217.62C647.413 1219.07 620.056 1219.96 592.944 1219.61Z" stroke="black"/>
<path fill-rule="evenodd" clip-rule="evenodd" d="M585.61 1187.44C499.219 1174.47 404.904 1126.34 354.732 1055.57C295.714 972.314 246.016 882.121 231.729 782.653C225.104 736.537 221.845 686.02 243.508 642.505C259.984 609.388 284.613 570.92 319.248 552.694C403.965 508.104 471.405 607.285 510.598 663.791C531.698 694.213 552.258 732.938 583.07 755.868C600.935 769.171 624.567 775.963 644.188 786.703C703.647 819.252 751.605 872.83 760.182 939.57C764.144 970.429 759.243 1001.51 755.346 1032.14C751.36 1063.49 749.195 1095.23 743.633 1126.38C739.189 1151.25 731.666 1180.56 703.721 1189.72C668.506 1201.27 620.891 1192.72 585.61 1187.44Z" stroke="black"/>
<path fill-rule="evenodd" clip-rule="evenodd" d="M571.733 1155.88C490.51 1136.98 411.283 1096.95 362.794 1029.67C337.083 993.984 319.334 952.563 301.798 912.795C281.923 867.716 266.497 820.618 258.844 772.514C249.312 712.621 240.719 615.617 312.377 584.325C383.503 553.267 446.453 631.751 482.327 678.163C505.308 707.919 526.4 739.764 551.523 768.195C565.144 783.611 580.881 795.487 596.856 808.532C641.117 844.588 676.157 895.991 694.863 948.383C712.996 999.162 721.024 1061.98 715.031 1115.58C712.456 1138.71 703.766 1155.24 679.059 1162.23C644.715 1171.93 605.285 1163.69 571.733 1155.88Z" stroke="black"/>
<path fill-rule="evenodd" clip-rule="evenodd" d="M549.856 1124.52C478.343 1105.75 413.025 1065.25 370.104 1006.17C321.988 939.948 295.252 854.677 281.656 776.303C274.435 734.643 254.855 644.365 310.892 623.131C366.929 601.896 422.151 663.282 452.551 698.613C489.39 741.493 524.96 787.724 558.014 833.902C586.752 874.022 616.134 916.832 638.328 960.288C650.918 984.797 661.197 1010.33 669.045 1036.58C674.809 1056.02 683.406 1080.73 679.116 1101.11C668.28 1152.52 584.049 1133.5 549.856 1124.52Z" stroke="black"/>
<path fill-rule="evenodd" clip-rule="evenodd" d="M528.44 1085.82C393.2 1044.62 326.687 914.088 303.503 788.407C298.121 759.202 278.718 677.332 320.031 661.008C360.086 645.189 407.589 695.498 430.095 719.052C499.834 792.037 551.543 882.209 602.769 967.655C618.758 994.326 653.457 1042.43 637.451 1075.51C620.041 1111.43 556.483 1094.35 528.44 1085.82Z" stroke="black"/>
<path fill-rule="evenodd" clip-rule="evenodd" d="M502.412 1043.62C402.817 1007.79 345.696 903.578 326.865 807.766C322.258 784.299 307.912 724.698 335.705 706.924C361.414 690.476 398.667 729.729 413.47 744.414C446.434 777.108 473.59 815.854 499.691 854.132C523.84 889.524 548.594 925.299 569.018 962.54C579.769 982.154 602.709 1018.94 586.108 1041.23C568.25 1065.23 524.527 1051.57 502.412 1043.62Z" stroke="black"/>
<path fill-rule="evenodd" clip-rule="evenodd" d="M473.316 997.114C408.277 969.806 366.043 896.667 352.009 832.15C348.24 814.79 338.465 777.269 355.834 762.624C371.83 749.141 395.281 770.871 406.111 780.514C454.116 823.255 496.996 885.846 523.332 943.192C529.953 957.611 542.949 983.531 529.585 998.363C515.861 1013.58 488.25 1003.39 473.316 997.114Z" stroke="black"/>
<path fill-rule="evenodd" clip-rule="evenodd" d="M445.991 947.781C413.695 932.393 389.329 892.175 381.573 858.86C376.119 835.414 380.83 807.231 408.943 827.664C436.841 847.963 462.321 885.627 473.617 917.55C482.231 941.906 473.732 960.995 445.991 947.781Z" stroke="black"/>
<path fill-rule="evenodd" clip-rule="evenodd" d="M1671.16 624.618C1711.54 687.999 1744.87 759.65 1778.75 827.217C1828.25 925.956 1876.42 1026.15 1913.3 1129.9C1933.06 1185.53 1961.56 1257.6 1946.07 1317.29C1940.41 1339.11 1923.29 1359.01 1912.17 1378.58C1896.83 1405.56 1882.25 1432.94 1867.64 1460.27C1838.35 1515.09 1809.36 1570.08 1778.19 1623.97C1763.18 1649.91 1744.28 1675.09 1731.47 1702.1C1723.98 1717.88 1727.48 1736.77 1727.96 1753.64C1729.06 1792.71 1731.15 1831.75 1732.93 1870.8C1735.1 1918.56 1737.42 1966.43 1736.56 2014.24C1736.17 2035.81 1740.18 2088.62 1720.68 2100.49C1710.18 2106.88 1691.24 2091.83 1682.47 2084.85C1666.37 2072.04 1651.85 2057.31 1637.49 2042.78C1604.26 2009.17 1572.62 1973.48 1535.51 1943.6C1516.43 1928.25 1493.12 1908.14 1467.08 1918.16C1440.77 1928.28 1417.99 1945.8 1391.78 1956.48C1361.61 1968.79 1330.21 1973.9 1298.22 1979.71C1274.58 1984.01 1253.63 1994.03 1231.83 2003.45C1207.73 2013.86 1183.44 2024.64 1158.03 2031.87C1141.24 2036.65 1111.05 2044.36 1100.42 2027.65C1085.32 2003.9 1097.55 1959.38 1102 1932.31C1108.14 1894.91 1115.97 1857.78 1122.71 1820.47C1127.61 1793.39 1132.98 1766.22 1133.55 1738.68C1134.47 1694.3 1131.28 1649.77 1128.31 1605.5C1122.8 1523.54 1115.34 1442.16 1115.34 1359.92C1115.34 1287.86 1202.87 1121.35 1218.28 1082.37C1249.04 1004.58 1278.21 924.712 1319.14 851.093C1330.23 831.177 1344.99 800.525 1367.81 790.045C1381.86 783.581 1389.99 786.552 1399.04 771.304C1411.4 750.501 1416.25 723.848 1421.78 700.82C1430.68 663.734 1438.22 626.361 1446.28 589.104C1462.55 513.75 1480.94 438.909 1498.64 363.867C1503.99 341.181 1505.17 313.734 1514.6 292.107C1520.65 278.166 1528.27 279.613 1537.46 290.403C1553.6 309.331 1562.56 335.86 1571.77 358.218C1585.25 390.979 1597.28 424.276 1609.14 457.588C1621 490.901 1632.49 524.385 1644.37 557.713C1652.2 579.729 1658.56 604.834 1671.16 624.618Z" stroke="black"/>
<path fill-rule="evenodd" clip-rule="evenodd" d="M1662.28 676.775C1702.74 743.82 1734.98 818.24 1766.43 889.985C1806.7 981.805 1844.44 1075.7 1869.62 1172.45C1884.39 1229.25 1900.7 1296.27 1883.76 1354.31C1877.72 1375.02 1864.13 1390.49 1852.14 1408.24C1838.46 1428.47 1825.92 1449.48 1813.58 1470.49C1788.17 1513.74 1763.64 1557.44 1739.97 1601.61C1727.38 1625 1710.52 1650.74 1706.16 1677.17C1702.68 1698.18 1707.71 1722.05 1709.17 1743.15C1711.81 1781.15 1714.52 1819.15 1716.83 1857.17C1719.49 1901.04 1721.94 1945.04 1721.52 1989C1721.28 2013.5 1725.2 2055.57 1708.57 2072.9C1694.06 2088.02 1641.58 2032.97 1631.61 2023.29C1600.48 1993.06 1570.84 1961.27 1537.55 1933.13C1517.92 1916.5 1494.05 1896.25 1468.03 1889.24C1445.86 1883.27 1420.6 1894.79 1400.1 1901.59C1374.43 1910.1 1347.81 1916.96 1322.68 1926.84C1300.28 1935.64 1280.33 1949.65 1259.98 1961.95C1237.58 1975.48 1214.82 1989.19 1190.39 1999.23C1175.36 2005.39 1150.18 2015.57 1135.85 2003.34C1119.33 1989.21 1130.13 1945.65 1132.48 1927.75C1137.33 1891.42 1144.52 1855.38 1150.97 1819.3C1161.67 1759.39 1171.02 1702.26 1168.78 1641.25C1165.85 1561.8 1158.97 1482.42 1155.16 1402.98C1153.73 1373.64 1150.87 1343.84 1152.42 1314.48C1153.31 1297.65 1158.71 1284.83 1170.88 1275.05C1187.5 1261.68 1196.7 1230.89 1206.24 1209.47C1221.1 1176.08 1234.92 1142.27 1248.93 1108.56C1279.68 1034.54 1309.32 959.099 1349.09 888.903C1361.67 866.695 1375.7 841.265 1396.48 824.839C1408.07 815.673 1419.24 817.984 1431.56 812.389C1447.76 804.981 1455.07 780.625 1460.37 766.066C1470.61 737.968 1477.47 708.718 1483.9 679.693C1498.44 614.019 1508 548.188 1515.05 481.448C1516.68 465.807 1522.35 404.218 1549.67 436.565C1579.86 472.305 1594.65 523.911 1611.66 565.984C1626.96 603.887 1641.19 641.822 1662.28 676.775Z" stroke="black"/>
<path fill-rule="evenodd" clip-rule="evenodd" d="M1654.8 769.429C1690.39 832.448 1716.95 902.26 1742.35 970.132C1773.18 1052.49 1800.66 1136.92 1816.05 1223.3C1825.71 1277.56 1833.14 1337.39 1817.08 1391.28C1806.12 1428.09 1776.5 1456.56 1756.11 1488.89C1735.73 1521.22 1716.6 1554.85 1700.65 1589.49C1690.75 1610.99 1680.78 1634.12 1682.09 1658.04C1685.26 1716.21 1692.81 1774.3 1696.48 1832.53C1698.93 1871.05 1700.94 1909.65 1700.34 1948.29C1699.98 1971.59 1701.45 2003.6 1688.58 2024.22C1674.35 2047.02 1552.82 1925.62 1539.14 1914.15C1504.84 1885.38 1459.32 1850.54 1410.55 1856.1C1363.92 1861.43 1329.11 1884.48 1292.57 1910.56C1271.79 1925.36 1216.27 1972.83 1189.24 1955.24C1173.79 1945.19 1179.14 1912.07 1180.19 1896.33C1182.26 1865.32 1186.72 1834.48 1190.59 1803.63C1196.2 1758.66 1204.87 1712.44 1207.41 1667.27C1209.17 1635.81 1206.81 1604.17 1206.76 1572.66C1206.7 1527.48 1207.06 1482.3 1207.48 1437.12C1207.84 1399.18 1207.48 1360.93 1211.3 1323.12C1213.65 1299.62 1218.94 1281.78 1233.87 1264.93C1246.85 1250.26 1254.45 1228.13 1262.71 1209.43C1276.34 1178.55 1288.97 1147.27 1301.81 1116.09C1328.69 1050.8 1355.01 984.769 1388.61 922.279C1403.93 893.753 1425.39 845.792 1462.56 839.101C1475.96 836.686 1481.75 834.91 1489.37 822.446C1500.18 804.756 1505.05 783.568 1509.29 763.719C1519.17 717.448 1517.7 669.838 1527.46 623.644C1531.49 604.832 1540.18 580.271 1560.07 601.748C1583.34 626.807 1596.12 663.286 1610.5 693.308C1617.67 708.296 1624.38 723.735 1633.13 737.967C1639.88 748.896 1648.53 758.251 1654.8 769.429Z" stroke="black"/>
<path fill-rule="evenodd" clip-rule="evenodd" d="M1643.69 888.788C1672.6 947.01 1693.62 1010.24 1712.57 1072.34C1733.59 1141.31 1751 1211.94 1758.41 1283.51C1763.54 1332.93 1765.06 1385.58 1749.35 1433.54C1739.41 1463.87 1718.51 1484.44 1700.99 1510.54C1674.5 1549.93 1653.51 1592.55 1658.62 1639.88C1664.33 1692.94 1668.62 1746.17 1671.48 1799.57C1673.2 1831.79 1674.5 1864.12 1673.29 1896.38C1672.54 1916.77 1671.27 1943.04 1661.57 1960.78C1648.58 1984.52 1549.73 1895.36 1535.33 1884.25C1499.6 1856.68 1462.11 1836.48 1417.84 1824.67C1381.71 1815.04 1353.32 1834.71 1326.3 1855C1309.52 1867.62 1267.31 1908.38 1245.52 1895.62C1233.51 1888.62 1234.13 1865.55 1233.51 1853.16C1232.35 1829.55 1233.56 1805.83 1234.09 1782.22C1234.91 1747.35 1229.29 1710.24 1233.82 1675.67C1243.84 1599.05 1252.51 1522.63 1259.38 1445.54C1263.16 1403.05 1266.6 1360.3 1273.89 1318.18C1276.51 1303.06 1279.29 1287.44 1285.21 1273.12C1289.02 1263.9 1295.5 1258.88 1300.82 1251.1C1326.15 1214.02 1339.18 1165.61 1355.41 1123.85C1376.99 1068.32 1398.23 1012.5 1423.72 958.459C1437.13 930.032 1452.54 890.328 1479.9 870.768C1488.17 864.857 1494.78 867.377 1502.73 863.659C1511.9 859.382 1514.63 846.386 1517.19 837.994C1522.99 818.947 1531.77 739.221 1565.81 775.961C1582.03 793.491 1592.43 815.828 1605.17 835.591C1609.79 842.746 1614.43 849.722 1620.66 855.688C1631.11 865.666 1637.07 875.497 1643.69 888.788Z" stroke="black"/>
</g>
</g>
</svg>
