<?xml version="1.0" encoding="UTF-8"?>
<svg id="Layer_2" data-name="Layer 2" xmlns="http://www.w3.org/2000/svg" xmlns:xlink="http://www.w3.org/1999/xlink" viewBox="0 0 737.03 151.98">
  <defs>
    <style>
      .cls-1 {
        fill: none;
      }

      .cls-2 {
        fill: #fff;
      }

      .cls-3 {
        clip-path: url(#clippath);
      }
    </style>
    <clipPath id="clippath">
      <rect class="cls-1" x="211.66" width="525.37" height="151.98"/>
    </clipPath>
  </defs>
  <g id="Layer_1-2" data-name="Layer 1">
    <g>
      <g class="cls-3">
        <g>
          <path class="cls-2" d="M651.49,27.6c7.63,0,13.81-6.18,13.81-13.8S659.12,0,651.49,0s-13.81,6.18-13.81,13.8,6.18,13.8,13.81,13.8Z"/>
          <path class="cls-2" d="M268.33,4.73l-56.68,144.16h24.94l15.29-39.54h59.05l15.11,39.54h25.14L294.51,4.73h-26.18ZM280.91,31.51h.83l22.33,57.87h-45.49l22.33-57.87h.01Z"/>
          <path class="cls-2" d="M428.79,49.63c-7.76-5.07-17.21-7.62-28.34-7.62s-19.76,2.27-27.52,6.8-13.74,10.98-17.93,19.36c-4.19,8.38-6.29,17.99-6.29,28.84s2.1,20.8,6.29,29.04c4.19,8.24,10.2,14.62,18.03,19.15,7.83,4.53,16.97,6.8,27.42,6.8,8.51,0,16.04-1.41,22.56-4.22,6.52-2.82,11.85-6.76,15.98-11.84,4.12-5.07,6.94-10.91,8.45-17.5h-21.85c-1.37,4.12-4.19,7.69-8.45,10.71-4.26,3.02-9.83,4.53-16.69,4.53-9.76,0-17.25-3.39-22.47-10.19-4.04-5.25-6.34-12.09-6.93-20.49h77.41c1.51-11.94.55-22.56-2.88-31.82-3.44-9.27-9.03-16.44-16.79-21.52h0ZM374.47,76.2c2.33-5.35,5.67-9.44,9.99-12.25,4.33-2.82,9.38-4.22,15.15-4.22,6.6,0,12.09,1.55,16.48,4.63,4.4,3.09,7.45,7.21,9.18,12.36,1.05,3.16,1.54,6.55,1.49,10.19h-55.17c.51-3.9,1.47-7.47,2.88-10.71Z"/>
          <path class="cls-2" d="M605.74,46.86c-5.77-3.23-12.64-4.84-20.61-4.84-8.94,0-16.28,1.99-22.06,5.97-4.2,2.9-7.63,6.84-10.3,11.78V4.73h-22.06v144.16h22.06v-51.28c0-12.08,2.44-21.17,7.32-27.29,4.87-6.11,11.57-9.17,20.1-9.17,7.14,0,12.5,2.17,16.07,6.49,3.57,4.32,5.36,10.95,5.36,19.88v61.37h22.06v-65.9c0-8.65-1.55-16.03-4.64-22.13-3.1-6.11-7.52-10.78-13.29-14.01h0Z"/>
          <path class="cls-2" d="M662.62,45.1h-22.06v103.8h22.06V45.1Z"/>
          <path class="cls-2" d="M703.64,45.1c-7.42,0-13.12,1.99-17.1,5.97s-5.98,9.67-5.98,17.09v80.73h22.06v-84.84h34.42v-18.95h-33.4Z"/>
          <path class="cls-2" d="M483.62,12.97h-22.06v112.85c0,7.42,1.99,13.11,5.98,17.09,3.98,3.98,9.68,5.97,17.1,5.97h33.39v-18.95h-34.42v-65.9h34.42v-18.95h-34.42V12.97h.01Z"/>
        </g>
      </g>
      <path class="cls-2" d="M111.15,4.01h-38.75c-4.46,0-8.53,2.54-10.47,6.54l-19.81,40.93c-2.48,5.12,1.27,11.06,6.98,11.06h26.73c3.72,0,7.11-2.12,8.72-5.46l7.21-14.9,36.96,76.34-49.93-35.97c-1.99-1.43-4.37-2.2-6.82-2.2h-36.55c-4.46,0-8.53,2.54-10.47,6.54L.78,136.91c-2.48,5.12,1.27,11.06,6.98,11.06h26.73c3.72,0,7.11-2.12,8.72-5.46l19.65-40.58,54.12,40.99c4.32,3.27,9.59,5.04,15.01,5.04h43.82c5.71,0,9.46-5.94,6.98-11.06L121.62,10.56c-1.94-4-6-6.54-10.47-6.54Z"/>
    </g>
  </g>
</svg>