<?xml version="1.0" encoding="UTF-8"?>
<svg id="Layer_2" data-name="Layer 2" xmlns="http://www.w3.org/2000/svg" viewBox="0 0 1457.58 300">
  <defs>
    <style>
      .cls-1 {
        fill: #fff;
      }
    </style>
  </defs>
  <g id="Layer_1-2" data-name="Layer 1">
    <g>
      <g>
        <path class="cls-1" d="M123.33,203.23l-37.92,78.78c-2.8,6.12-8.69,10.38-15.39,11.05-18.2,1.83-39.47-1.2-57.99-.17-8.74-2.23-13.07-9.35-11.82-18.26,17.2-36.14,33.68-73.26,53.09-108.17,5.03-4.64,10.65-6.58,17.46-7.09,19.39-1.45,50.07-1.27,69.57,0,3.06.2,6.11.77,9.07,1.5,34.57,21.46,66.01,48.18,99.82,70.9,1.09.73,2.67,2.08,4,2.03l-71.77-148.4c-8.84,10.09-12.1,35.83-27.15,38.93-18.53-1.15-42.08,2.71-60.04.27-11.63-1.58-14.62-13.07-10.91-22.86,10.27-27.07,28.75-54.64,39.78-81.82,4.41-6.27,10.93-10.17,18.63-10.83,25.29,1.55,52.85-1.98,77.87,0,16.93,1.34,20.16,13.21,26.69,26.19,39.2,77.92,74.79,157.73,114.09,235.61,4.63,9.34-1.44,20.72-11.61,22.18-30.2-1.78-63.08,2.37-92.96.02-6.73-.53-14.14-3.18-20.01-6.43l-110.31-83.07-2.21-.36Z"/>
        <g>
          <path class="cls-1" d="M696.75,293.82h-49.87l-29.43-77.44-116.4.02-30.59,77.42h-48.73L532.86,10.31l2.54-1.24,49.56.39,111.79,284.36ZM603.82,176.01l-44.95-114.02-44.2,114.02h89.15Z"/>
          <path class="cls-1" d="M888.66,203.2h-152.62c1.1,24.6,13.87,50.99,39.13,57.93s58.37-.36,68.16-27.73h43.07c-6.53,33.22-33.21,56.85-65.87,63.68-60.88,12.71-115.33-16.5-126.55-79.4-8.73-48.92,6.41-105.36,55.16-126.39,28.44-12.27,69.04-11.56,96.21,3.78,38.05,21.47,49.22,67.16,43.31,108.12ZM845.59,171.48c1.59-39.64-34.37-61.95-71.03-50.98-21.7,6.49-35.74,29.01-37.01,50.98h108.04Z"/>
        </g>
      </g>
      <g>
        <g>
          <path class="cls-1" d="M1094.16,9.11v107.99l7.92-11.34c44.2-46.47,131.3-20.65,131.84,47.97v140.08s-42.68,0-42.68,0l-1.13-1.13v-132.16c0-16.9-12.65-34.85-29.44-38.54-42.15-9.27-65.38,23.72-66.51,61.96v109.87h-42.7l-1.13-1.13V10.25l1.13-1.13h42.69Z"/>
          <path class="cls-1" d="M958.17,25.73v63.44h68v37h-68v129.89h66.87l1.13,1.13v35.49l-1.13,1.13h-70.26c-19.87,0-40.42-17.59-40.42-38.14V25.73h43.82Z"/>
        </g>
        <path class="cls-1" d="M1457.58,89.16v37h-66.87l-1.13,1.13v166.52h-42.69l-1.17-2.6c2.26-51.95-2.86-106.23,0-157.91,1.08-19.54,8.18-36.02,28.16-42.09,1.66-.5,7.25-2.05,8.52-2.05h75.18Z"/>
        <g>
          <rect class="cls-1" x="1267.18" y="89.16" width="43.82" height="204.66"/>
          <ellipse class="cls-1" cx="1288.84" cy="27.32" rx="27.33" ry="27.32"/>
        </g>
      </g>
    </g>
  </g>
</svg>