<?xml version="1.0" encoding="UTF-8"?>
<svg id="Layer_2" data-name="Layer 2" xmlns="http://www.w3.org/2000/svg" xmlns:xlink="http://www.w3.org/1999/xlink" viewBox="0 0 1333.57 300">
  <defs>
    <style>
      .cls-1 {
        fill: #fff;
      }

      .cls-2 {
        clip-path: url(#clippath);
      }
    </style>
    <clipPath id="clippath">
      <path class="cls-1" d="M204.57,25.76C187.02,9.89,162.84,0,136.2,0,82.9,0,39.38,39.48,39.38,87.79v8.09h58.5v62.69h47.59v56.58h48.66v74.83h38.9V87.78c0-24.16-10.89-46.09-28.46-62.01ZM188.01,38.94l-.19-.17v.17l-1.3-1.17-1.28,1.22v-.17l-.17.17.1-1.88-1.87-.25,1.54-1.09-.97-1.61.2.06-.03-.06,1.65.48.64-1.71.09.22.09-.22.7,1.7,1.64-.54-.04.07.2-.07-.91,1.65,1.57,1.04-1.86.32.17,1.87.04-.03ZM204.07,55.78l-3.73-3.48-3.76,3.44v-.17l-.17.17.41-5.19-5.15-.81,4.32-2.93-2.58-4.52.2.06-.04-.06,4.83,1.51,1.91-4.78.09.22.09-.22,1.87,4.81,4.84-1.45-.04.06.2-.06-2.62,4.51,4.29,2.96-5.16.77.35,5.21-.19-.17v.17l.04-.03ZM213.74,70.06l-.19-.17v.17l-2.12-1.9-2.06,1.97v-.17l-.17.17.16-2.97-2.94-.41,2.42-1.73-1.52-2.55.2.06-.03-.06,2.7.78,1.03-2.74.09.22.09-.22,1.12,2.7,2.68-.87-.04.07.2-.07-1.44,2.6,2.48,1.64-2.93.49.26,2.96v.03Z"/>
    </clipPath>
  </defs>
  <g id="Layer_1-2" data-name="Layer 1">
    <g>
      <g>
        <path class="cls-1" d="M401.13,197.78h-58.87l-11.44,32.23h-34.58l59.1-149.51h32.94l58.87,149.51h-34.58l-11.45-32.23h.01ZM392.72,173.48l-21.02-59.56-21.02,59.56h42.05Z"/>
        <path class="cls-1" d="M457.2,71.16h30.13v158.85h-30.13V71.16Z"/>
        <path class="cls-1" d="M610.92,183.99h-81.3c2.33,16.12,12.38,26.63,28.97,26.63,10.74,0,18.46-3.51,25-10.28l20.1,16.59c-10.28,10.05-25,16.12-44.38,16.12-37.38,0-61.2-24.05-61.2-56.53s24.07-57,57.46-57,55.37,21.95,55.37,56.53v7.95h-.01ZM530.32,165.07h50.69c-2.1-14.02-10.98-23.13-25.46-23.13-13.54,0-22.2,9.11-25.23,23.13Z"/>
        <path class="cls-1" d="M693.14,230.01l-25-36.67-25,36.67h-33.87l41.82-56.07-37.15-51.63h33.17l21.02,32.23,21.02-32.23h33.17l-36.91,51.4,41.82,56.3h-34.1Z"/>
        <path class="cls-1" d="M839.61,122.33v107.7h-25l-3.51-13.31c-7.95,9.35-19.62,15.64-35.51,15.64-28.03,0-49.99-20.79-49.99-56.3s21.97-56.53,49.99-56.53c15.89,0,27.56,6.54,35.74,16.12l3.51-13.31h24.76,0ZM811.82,176.06c0-18.46-11.44-31.07-28.03-31.07s-27.33,12.61-27.33,31.07,11.21,30.84,27.33,30.84,28.03-12.61,28.03-30.84Z"/>
        <path class="cls-1" d="M957.81,162.51v67.51h-29.9v-59.1c0-16.12-6.31-25.92-20.33-25.92-10.05,0-20.56,6.08-22.2,23.36v61.68h-30.13v-107.7h26.4l3.51,12.38c7.48-9.35,18.46-15.18,33.17-15.18,18.23,0,39.48,10.51,39.48,42.99h-.01Z"/>
        <path class="cls-1" d="M1079.76,71.16v158.85h-24.76l-3.28-13.08c-8.18,9.34-19.62,15.41-35.28,15.41-28.03,0-49.99-20.79-49.99-56.3s21.97-56.53,49.99-56.53c14.25,0,25.23,5.13,33.17,13.31v-61.66h30.14ZM1052.66,176.05c0-18.46-11.44-31.07-28.03-31.07s-27.33,12.61-27.33,31.07,11.21,30.84,27.33,30.84,28.03-12.61,28.03-30.84Z"/>
        <path class="cls-1" d="M1165.49,121.15l-4.44,28.97c-2.57-.93-6.54-1.64-9.82-1.64-16.12,0-25.69,11.44-25.69,30.13v51.4h-30.13v-107.68h26.4l3.51,14.72c5.84-8.87,15.41-17.51,28.27-17.51,4.9,0,8.64.7,11.92,1.64h-.03Z"/>
        <path class="cls-1" d="M1173.31,88.92c0-9.35,7.95-17.05,17.51-17.05s17.75,7.71,17.75,17.05-7.95,17.05-17.75,17.05-17.51-7.71-17.51-17.05ZM1176.11,122.33h30.13v107.7h-30.13v-107.7Z"/>
        <path class="cls-1" d="M1333.57,122.33v107.7h-25l-3.51-13.31c-7.95,9.35-19.62,15.64-35.51,15.64-28.03,0-49.99-20.79-49.99-56.3s21.97-56.53,49.99-56.53c15.89,0,27.56,6.54,35.74,16.12l3.51-13.31h24.76,0ZM1305.77,176.06c0-18.46-11.44-31.07-28.03-31.07s-27.33,12.61-27.33,31.07,11.21,30.84,27.33,30.84,28.03-12.61,28.03-30.84Z"/>
      </g>
      <polygon class="cls-1" points="184.37 42.83 185.28 41.19 185.07 41.26 184.2 42.83 185.76 43.87 183.91 44.19 184.07 45.9 184.25 46.06 184.08 44.19 185.94 43.87 184.37 42.83"/>
      <polygon class="cls-1" points="181.5 45.93 181.48 46.11 182.76 44.89 182.67 44.82 181.5 45.93"/>
      <polygon class="cls-1" points="194.65 50.91 189.82 49.4 189.87 49.47 194.64 50.95 194.65 50.91"/>
      <polygon class="cls-1" points="183.47 41.73 182.78 40.03 182.69 40.25 183.31 41.77 183.47 41.73"/>
      <polygon class="cls-1" points="181.95 41.76 180.3 41.28 180.34 41.34 181.93 41.8 181.95 41.76"/>
      <polygon class="cls-1" points="192.85 62.69 192.84 62.85 196.59 59.42 196.51 59.34 192.85 62.69"/>
      <polygon class="cls-1" points="206.44 70.39 203.73 69.61 203.77 69.67 206.41 70.44 206.44 70.39"/>
      <polygon class="cls-1" points="205.63 77.08 205.61 77.25 207.67 75.28 207.58 75.19 205.63 77.08"/>
      <polygon class="cls-1" points="210.16 72.07 211.6 69.48 211.38 69.54 209.99 72.07 212.47 73.71 209.54 74.22 209.79 77 209.98 77.18 209.71 74.22 212.64 73.71 210.16 72.07"/>
      <polygon class="cls-1" points="208.74 70.35 207.63 67.65 207.55 67.87 208.6 70.39 208.74 70.35"/>
      <polygon class="cls-1" points="187.31 225.17 139.31 225.17 139.13 225.17 138.81 225.17 138.81 168.6 138.65 168.6 91.72 168.6 91.55 168.6 91.24 168.6 91.24 105.9 91.07 105.9 33.2 105.9 33.04 105.9 32.72 105.9 19.01 105.9 19.01 120.97 76.48 120.97 76.48 168.6 0 168.6 0 183.7 124.07 183.7 124.07 225.17 55.34 225.17 55.34 226.27 55.34 239.7 55.34 240.23 172.73 240.23 172.73 284.89 24.94 284.89 24.94 300 33.04 300 187.47 300 187.47 225.17 187.31 225.17"/>
      <g>
        <path class="cls-1" d="M204.57,25.76C187.02,9.89,162.84,0,136.2,0,82.9,0,39.38,39.48,39.38,87.79v8.09h58.5v62.69h47.59v56.58h48.66v74.83h38.9V87.78c0-24.16-10.89-46.09-28.46-62.01ZM188.01,38.94l-.19-.17v.17l-1.3-1.17-1.28,1.22v-.17l-.17.17.1-1.88-1.87-.25,1.54-1.09-.97-1.61.2.06-.03-.06,1.65.48.64-1.71.09.22.09-.22.7,1.7,1.64-.54-.04.07.2-.07-.91,1.65,1.57,1.04-1.86.32.17,1.87.04-.03ZM204.07,55.78l-3.73-3.48-3.76,3.44v-.17l-.17.17.41-5.19-5.15-.81,4.32-2.93-2.58-4.52.2.06-.04-.06,4.83,1.51,1.91-4.78.09.22.09-.22,1.87,4.81,4.84-1.45-.04.06.2-.06-2.62,4.51,4.29,2.96-5.16.77.35,5.21-.19-.17v.17l.04-.03ZM213.74,70.06l-.19-.17v.17l-2.12-1.9-2.06,1.97v-.17l-.17.17.16-2.97-2.94-.41,2.42-1.73-1.52-2.55.2.06-.03-.06,2.7.78,1.03-2.74.09.22.09-.22,1.12,2.7,2.68-.87-.04.07.2-.07-1.44,2.6,2.48,1.64-2.93.49.26,2.96v.03Z"/>
        <g class="cls-2">
          <rect class="cls-1" x="35.75" y="-3.62" width="200.9" height="297.23"/>
        </g>
      </g>
    </g>
  </g>
</svg>