<?xml version="1.0" encoding="UTF-8"?>
<svg id="Layer_2" data-name="Layer 2" xmlns="http://www.w3.org/2000/svg" viewBox="0 0 1896.8 300">
  <defs>
    <style>
      .cls-1 {
        fill: #fff;
      }
    </style>
  </defs>
  <g id="Layer_1-2" data-name="Layer 1">
    <g>
      <path class="cls-1" d="M1043.34,106.2v62.83c24.36-23.05,69.01-34.45,97.31-11.87,4.2,3.35,17.76,22.48,17.76,25.62v115.85c0,.79-15.87.79-15.87,0v-100.14c0-4.4-9.49-21.06-14.42-25-16.22-12.95-48.48-11.44-65.12,1.26-6.25,4.77-19.66,25.03-19.66,31.59v92.29h-19.84V106.2h19.84Z"/>
      <path class="cls-1" d="M1896.45,298.61c-1.36,1.26-12.48.1-15.89-1.91-13.51-7.96-64.93-148.66-81.35-170.89l-80.89,170.39-20.23,2.41c11.94-23.19,82.98-200.22,93.68-203.87,4.3-1.47,9.61-.86,13.54,1.55,7.61,4.68,67.26,140.45,76,160.42,2.58,5.89,18.02,39.26,15.15,41.91Z"/>
      <path class="cls-1" d="M697.65,94.95l91.71,203.66-20.23-2.41-80.93-174.33-81.31,174.83c-29.86,12.63-7.43-24.71-.74-40,22.95-52.42,49.5-103.56,72.54-155.97,3.61-6.98,11.69-7.85,18.95-5.78Z"/>
      <path class="cls-1" d="M1571.06,172.96c-17.75-11.1-77.38-18.75-74.52,13.12,2.63,29.35,88.06,19.95,86.64,71.15-1.64,59.35-105.8,41.64-110.75,19.32-.29-1.31,2.9-12.83,3.45-13.25,3.62-2.75,23.69,12.2,31.43,14.01,16.33,3.82,52.09,5.34,55.84-16.14,7.01-40.09-73.71-25.96-82.47-63.5-9.91-42.48,28.06-56.56,64.27-51.83,16.22,2.12,36.67,8.54,26.1,27.13Z"/>
      <path class="cls-1" d="M901.84,265.88c17.89,17.88,51.32,17.06,72.87,6.07,7.48-3.81,21.08-21.18,24.63-2.21,2.44,13.04-35.03,26.42-46.31,27.86-115.11,14.71-114-167.08.7-151.77,10.13,1.35,38.82,12.13,41.44,21.84,7.11,26.32-24.38,1.03-31.07-.73-69.9-18.34-104.2,57.02-62.26,98.93Z"/>
      <path class="cls-1" d="M1257.16,145.95c15.08,35.67,26.52,81.73,44,115.48,1.91,3.69,2.25,9.33,8,9.71l44.04-119.43c3.89-7.47,11.72-6.66,19.47-6.21-4.61,19.95-52.83,148.76-62.13,152.56-3.01,1.23-10.11,1.69-12.77.05-7.05-4.33-53.42-134.42-59.97-152.61l19.36.45Z"/>
      <path class="cls-1" d="M1614.74,165.11c-1.2-1.14-15.48.86-19.86-.02v-15.67c4.43-.9,18.62,1.21,19.88,0,1.57-1.5-1.19-36.23-.04-43.24l17.57-.05,2.27,43.29c7.52,1.2,46.01-1.71,47.66,0,.55.57.55,15.11,0,15.67-1.64,1.71-40.09-1.2-47.63.02v100.14c0,27.72,45.39,4.24,47.59,5.89.64.48,4.31,12.58,2.34,15.72-7.89,12.6-43.43,14.37-56.02,4.05-3.68-3.02-13.74-22.59-13.74-25.67,0-13.8,3.64-96.67,0-100.14Z"/>
      <path class="cls-1" d="M813.19,298.63c-1.75,1.67-18.03.68-18.87-5.72v-141.72c22.28-16.74,17.8-1.06,20.83,17.82,13.27-16.44,32.03-24.97,53.59-23.56,3.01,29.14-3.03,15.88-20.98,20.47-15.57,3.98-34.57,29.32-34.57,44.34,0,12.39,3.21,85.29,0,88.36Z"/>
      <path class="cls-1" d="M1428.24,145.47v153.16c-5.19,1.29-19.84-.73-19.84-5.89v-147.27h19.84Z"/>
      <rect class="cls-1" x="1186.19" y="149.4" width="19.84" height="149.23"/>
      <g>
        <path class="cls-1" d="M392.58,106.2c-21.29-33.25-40.06-68.83-61.44-102.15l-23.21-4.05-82,133.69c-2.7,1.17-5.24,2.73-7.94,3.93-8.44-13.14-44.14-71.07-51.27-76.86-8.98-7.3-18.57-9.65-24.12,2.25L2.84,280.11c-14.13,23.29,28.45,23.71,40.55,8.7l111.11-174.75c10.93,19.48,27.27,43.01,39.68,62.83-6.4,17.08-18.87,31.4-27.78,47.13-16.04,28.34-40.69,69.94,13.7,74.8,21.16,1.89,71.43,2.15,89.47-4.11,49.49-17.17-10.51-89.56-27.78-117.81,8.88-12.46,15.77-26.32,23.81-39.27,17.28-27.84,34.73-56.99,55.5-82.46l63.54,102.1c-.29,17.82,70.11,107,79.27,131.65,12.31,13,32.42,13.59,43.46-.49-34.9-62.73-76.1-121.76-114.8-182.21ZM245.76,255.43l-51.56-.02c-1.26-1.12,6.27-16.78,7.92-19.62,3.47-5.97,11.3-13.8,15.87-19.64,8,12.47,19.16,26.32,27.78,39.27Z"/>
        <ellipse class="cls-1" cx="318.03" cy="187.86" rx="23.46" ry="23.22"/>
      </g>
      <ellipse class="cls-1" cx="689.47" cy="225.58" rx="13.6" ry="13.46"/>
      <ellipse class="cls-1" cx="1797.98" cy="225.58" rx="13.6" ry="13.46"/>
    </g>
  </g>
</svg>