<?xml version="1.0" encoding="UTF-8"?>
<svg xmlns="http://www.w3.org/2000/svg" viewBox="0 0 1685.47 488.65">
  <defs>
    <style>
      .cls-1 {
        isolation: isolate;
      }

      .cls-2, .cls-3 {
        fill: #fff;
      }

      .cls-3 {
        stroke: #231f20;
        stroke-miterlimit: 10;
      }

      .cls-4 {
        mix-blend-mode: overlay;
        opacity: .8;
      }
    </style>
  </defs>
  <g class="cls-1">
    <g id="Layer_2" data-name="Layer 2">
      <g id="Layer_1-2" data-name="Layer 1">
        <g>
          <g>
            <path class="cls-2" d="M1338.28,164.15l-35.93,100.01h.29l35.84-99.43-.2-.58ZM700.44,164.15l-35.92,100.01h.14l35.92-99.67-.14-.34ZM709.43,189.14l26.94,75.02h-54.03l-13.63,37.84h81.42l23.08,64.17h51.65l-94.13-236.13-21.31,59.1Z"/>
            <path class="cls-2" d="M664.52,264.15l35.93-100.01.15.34,15.14-42.05h-39.66l-96.86,243.75h48.65l36.79-102.02h-.15ZM981.37,240.6c-11.75-6.93-27.38-13.43-46.83-19.4-11.13-3.63-19.83-6.98-26.13-10.08-6.31-3.11-10.7-6.64-13.14-10.55-2.44-3.97-3.68-8.61-3.68-13.96,0-9.41,3.63-16.67,10.89-21.78,7.27-5.12,17.44-7.7,30.49-7.7,10.7,0,21.83,1.62,33.49,4.82,11.65,3.2,21.97,7.59,30.96,13.14l6.74-39.42c-9.18-5.54-20.36-9.99-33.49-13.33-12.83-3.27-26.03-4.94-39.28-4.97-17.72,0-33.16,2.87-46.15,8.66-13.05,5.77-23.13,14-30.29,24.7-7.17,10.7-10.75,23.31-10.75,37.84,0,12.42,2.38,23.13,7.21,32.2,4.82,9.08,12.66,16.97,23.55,23.56,10.89,6.64,25.23,12.62,42.95,17.96,12.81,3.88,22.75,7.51,29.82,10.9,7.07,3.4,12,7.22,14.77,11.37,2.76,4.16,4.15,9.12,4.15,14.91,0,10.03-4.1,17.92-12.32,23.56-8.22,5.64-19.64,8.51-34.16,8.51-12.62,0-25.81-1.95-39.61-5.93-13.81-3.96-25.81-9.03-36.08-15.24l-4.49,40.71c5.97,4.06,13.48,7.59,22.46,10.56,8.98,3.01,18.63,5.35,29,7.07,10.37,1.71,20.69,2.58,30.96,2.58,28.86,0,51.51-6.6,67.99-19.73,16.44-13.15,24.7-31.35,24.7-54.67,0-12.38-2.67-23.13-8.02-32.2-5.35-9.08-13.9-17.12-25.66-24.04l-.05-.05ZM1237.24,122.44h-206.18v39.74h206.18v-39.74ZM1158.68,178.82h-49.07v187.3h49.07v-187.3ZM1302.36,264.15l35.93-100.01.19.58,15.24-42.29h-39.85l-96.81,243.74h48.74l23.08-64.18h.09l13.67-37.84h-.29ZM1347.31,189.33l26.86,74.83h-53.86l-13.62,37.84h81.28l23.08,64.17h51.65l-94.08-235.94-21.31,59.11ZM1621.39,267.4c11.61-6.5,21.51-15.67,28.86-26.76,7.5-11.23,11.23-24.32,11.23-39.27,0-16.25-3.63-30.25-10.9-42-7.26-11.75-17.63-20.84-31.1-27.24-13.48-6.4-29.48-9.6-48.12-9.6h-17.06v36.89h10.61c32.49,0,48.73,13.9,48.73,41.67s-16.77,41.67-50.36,41.67h-9.03v36.88h25.04l51.32,86.58h54.85l-64.12-98.76.05-.05ZM1537.73,122.44h-46.5v243.68h46.5V122.44Z"/>
          </g>
          <g>
            <path class="cls-3" d="M487.53,227.79C478.4,93.43,362.09-8.05,227.77,1.08,160.86,5.64,102.1,36.81,61.08,83.5l-.12-.08c-.29.37-.54.75-.8,1.12C19.44,131.52-3.48,193.95,1.07,260.88c.42,6.39,1.17,12.65,2.09,18.86,0,.3.08.54.12.84.63,4.09,1.34,8.18,2.13,12.19.75,3.7,1.58,7.39,2.5,11.05,28.17,112.29,133.36,191.82,252.95,183.68,134.32-9.14,235.84-125.43,226.71-259.79l-.05.08ZM434.45,231.42c1.13,16.53.08,32.72-2.88,48.33,0-.08-.08-.16-.08-.25-17.7-43.19-52.67-74.4-83.38-91.64,6.22-73.19-18.61-104.06-46.73-109.07-5.45-1.02-11.05-.92-16.46.3-5.41,1.22-10.51,3.53-14.99,6.8-4.48,3.26-8.25,7.41-11.07,12.18-2.82,4.77-4.64,10.07-5.34,15.57-.69,5.31-.32,10.69,1.08,15.86,1.4,5.16,3.81,10,7.08,14.23,3.27,4.23,7.35,7.78,11.99,10.43,4.64,2.66,9.77,4.37,15.07,5.04,1.96.25,3.88.33,5.75.29.14,2.61.21,5.23.21,7.84-26-6.42-50.28-7.72-72.44-5.71-8.33.55-16.62,1.59-24.83,3.13,2.76-24.71,12.06-52.5,30.05-72.77,17.39-19.65,43.27-30.88,71.47-28,5.35.54,11.06,1.88,16.19,3.59.25.08.5.16.72.2,65.34,26.63,113.46,88.67,118.55,163.66h.04ZM264.5,268.64s0,.04-.04.08c-6.16,8.86-13.15,17.12-20.86,24.67-11.68-12.34-21.57-26.26-29.38-41.35-.37-.8-.79-1.5-1.17-2.3v-.08c-4.58-9.78-8.24-19.97-10.93-30.42,17.31-4.09,34.3-5.59,50.54-4.8l2.58.12h.08c10.18.84,20.78,2.71,31.75,5.72-5.09,17.13-12.69,33.41-22.53,48.32l-.04.04ZM181.21,64.47l-.12.16c-28.58,36.89-38.1,82.75-37.68,117.96-66.52,31.21-80.79,68.14-71.11,95.01.24.76.54,1.46.84,2.18,4.17,9.96,12.13,17.86,22.12,21.96,9.99,4.1,21.2,4.06,31.17-.1,9.96-4.17,17.86-12.13,21.96-22.12,4.1-9.99,4.06-21.2-.1-31.17-.76-1.77-1.63-3.49-2.63-5.14,2.09-1.38,4.34-2.75,6.76-4.17,7.42,25.75,18.4,47.49,31.21,65.68,4.63,6.88,9.64,13.52,15.1,19.9-22.78,9.97-51.49,15.82-78.07,10.39-25.7-5.25-48.36-22.03-60-47.9-2.23-5.07-3.91-10.37-5.01-15.81-.69-4.67-1.2-9.36-1.54-14.06-5.93-87.34,48.24-165.08,127.1-192.78ZM257.23,434.47c-51.86,3.54-100.35-14.14-136.99-45.61,46.24,6.31,90.72-8.39,121.02-26.37,60.29,42.02,99.43,35.92,117.87,14.1,3.61-4.21,6.33-9.12,7.98-14.42,1.65-5.3,2.2-10.88,1.61-16.4-.59-5.52-2.29-10.86-5.02-15.69-2.73-4.83-6.41-9.06-10.83-12.42-4.25-3.24-9.11-5.62-14.28-6.98-5.17-1.37-10.56-1.7-15.86-.99-5.3.72-10.41,2.47-15.03,5.16-4.62,2.69-8.67,6.27-11.91,10.53-1.16,1.54-2.21,3.22-3.13,4.88-2.21-1.13-4.55-2.38-6.92-3.75,16.99-17.53,30.91-37.78,41.18-59.92,3.68-7.49,6.91-15.2,9.68-23.07,20.03,14.78,39.48,36.68,48.07,62.42,8.31,24.87,5.13,52.91-11.48,75.91-3.28,4.46-7.03,8.56-11.18,12.22l-.16.16c-30.01,23.63-66.46,37.64-104.57,40.19l-.05.04Z"/>
            <path class="cls-3" d="M301.38,78.74c-4.57-.87-9.26-.92-13.86-.16,23.33,12.68,40.31,48.02,31.39,117.79-2.96,22.69-9.62,44.74-19.73,65.26-8.71,18.73-20.06,36.12-33.68,51.65,6.46,4.86,13.22,9.31,20.24,13.31,16.99-17.52,30.91-37.78,41.19-59.92,10.14-20.52,16.8-42.57,19.73-65.26,10.65-83.04-15.47-117.34-45.27-122.64v-.03Z"/>
            <g class="cls-4">
              <path class="cls-3" d="M318.9,196.33c8.93-69.73-8.05-105.11-31.38-117.8-.92.12-1.79.33-2.71.54,22.83,13.14,39.26,48.44,30.46,117.26-2.95,22.69-9.62,44.74-19.73,65.26-8.4,18.07-19.25,34.89-32.26,49.98.75.59,1.46,1.13,2.21,1.67,13.61-15.54,24.95-32.93,33.67-51.66,10.14-20.52,16.81-42.56,19.74-65.26Z"/>
            </g>
            <path class="cls-3" d="M230.23,354.52c-2.21-1.67-4.3-3.42-6.42-5.18-34.43,14.36-82.13,23.37-129.53,12.35,7.72,9.89,16.4,18.99,25.91,27.16,46.24,6.31,90.72-8.39,121.02-26.37-3.72-2.6-7.4-5.27-11.02-8.01l.04.04Z"/>
            <path class="cls-3" d="M223.85,349.34c-1.04-.88-2.12-1.75-3.12-2.63-34.68,13.85-82.62,22.16-129.9,10.35,1.17,1.54,2.34,3.13,3.5,4.63,47.37,11.01,95.09,2.01,129.52-12.35Z"/>
            <path class="cls-3" d="M72.33,277.65c.24.75.54,1.46.84,2.17,1.54,3.67,3.54,6.97,5.97,9.93-.67-26.54,21.45-58.96,86.29-86.09,21.12-8.79,43.55-14.03,66.39-15.52,20.58-1.84,41.32-.71,61.59,3.34,1.05-8.76,1.46-16.94,1.38-24.16-23.67-5.96-48.17-7.89-72.48-5.71-22.83,1.5-45.26,6.74-66.39,15.52-77.23,32.3-93.88,72.07-83.57,100.56v-.04h0Z"/>
            <g class="cls-4">
              <path class="cls-3" d="M165.43,203.71c-64.84,27.13-86.96,59.55-86.29,86.09.59.71,1.21,1.38,1.84,2.05-.05-26.33,22.32-58.21,86.29-85.01,21.12-8.79,43.55-14.03,66.39-15.52,19.85-1.76,39.84-.77,59.42,2.93.13-.92.24-1.83.33-2.76-20.27-4.03-41.01-5.15-61.59-3.33-22.83,1.5-45.26,6.74-66.39,15.52v.03Z"/>
            </g>
            <path class="cls-3" d="M346.74,201.38c-.33,2.76-.79,5.42-1.25,8.14,29.62,22.62,61.3,59.46,75.49,105.98,4.69-11.64,8.23-23.71,10.56-36.05-17.65-43.19-52.62-74.37-83.33-91.6-.37,4.39-.84,8.85-1.42,13.52h-.04Z"/>
            <path class="cls-3" d="M345.49,209.51c-.25,1.33-.46,2.71-.72,4.05,29.34,23.11,60.51,60.47,73.9,107.32.79-1.79,1.54-3.59,2.25-5.38-14.18-46.53-45.81-83.33-75.49-105.99h.05Z"/>
            <path class="cls-3" d="M359.13,376.55c3.02-3.55,5.41-7.59,7.1-11.93-22.66,13.85-61.77,10.89-117.72-31.72-18.19-13.89-33.95-30.7-46.65-49.74-11.88-16.9-21.28-35.42-27.92-54.99-8.09,3.46-15.39,7.22-21.65,10.89,6.69,23.47,17.27,45.66,31.29,65.64,12.52,18.69,28.12,35.6,46.65,49.74,66.6,50.74,109.37,45.27,128.85,22.11h.05Z"/>
            <g class="cls-4">
              <path class="cls-3" d="M248.55,332.9c55.91,42.6,95.05,45.56,117.7,31.71.33-.87.63-1.75.88-2.58-22.78,13.23-61.59,9.76-116.75-32.25-18.19-13.89-33.95-30.7-46.65-49.74-11.44-16.3-20.58-34.11-27.16-52.91-.88.37-1.71.71-2.54,1.08,6.63,19.57,16.03,38.09,27.91,55,12.52,18.69,28.12,35.6,46.65,49.74l-.04-.04h0Z"/>
            </g>
            <path class="cls-3" d="M155.87,177.05c2.54-1.05,5.09-2.01,7.67-2.97,4.76-36.97,20.82-82.83,54.05-118.34-12.44,1.79-24.67,4.71-36.52,8.84-28.59,36.89-38.1,82.75-37.68,117.97,3.96-1.87,8.09-3.71,12.44-5.5h.04Z"/>
            <path class="cls-3" d="M163.54,174.09c1.3-.46,2.55-.96,3.84-1.41,5.34-36.98,22.11-82.62,55.96-117.68-1.92.21-3.84.46-5.76.72-33.22,35.55-49.28,81.36-54.03,118.34v.04h0Z"/>
            <path class="cls-3" d="M227.77,1.09C160.84,5.64,102.09,36.81,61.07,83.5l-.92,1.04c7.96,7.93,34.09,23.54,44.64,30.05,21.04-22.67,47.28-39.87,76.46-50.11,2.05-2.67,4.21-5.3,6.47-7.84,27.54-31.09,65.13-47.49,108.78-47.49,4.84,0,14.74.8,14.94.8C284.28,2.12,255.97-.87,227.78,1.08h0Z"/>
            <path class="cls-3" d="M257.23,434.51c-51.86,3.54-100.35-14.14-136.99-45.6-3.44-.45-6.86-1.02-10.27-1.71-40.69-8.31-73.73-32.67-95.51-70.43-2.4-4.17-4.58-8.46-6.55-12.86,28.17,112.29,133.36,191.82,252.91,183.68.54-12.31-3.09-40.88-3.63-53.07h.04Z"/>
            <path class="cls-3" d="M487.53,227.79c-7.51-.76-44.07,2.13-53.07,3.62,1.12,16.53.08,32.72-2.89,48.33,1.25,3.09,2.46,6.26,3.54,9.47,13.15,39.39,8.56,80.16-13.22,117.96-2.41,4.16-5.03,8.21-7.84,12.11,0,0,.12-.09.16-.17,49.54-48.2,78.37-116.96,73.32-191.28v-.04Z"/>
            <path class="cls-3" d="M299.01,63.93c5.34.54,11.05,1.88,16.19,3.59.24.08.5.16.71.2,20.93,8.54,40.19,20.72,56.88,35.97,0,0,.08.04.12.08,8.01-9.14,23.41-19.19,23.41-19.19,0,0-23.57-24.12-59.66-31.63-25.24-5.26-82.2-10.31-118.13,50.82l.33-.33c2.67-4.01,5.47-7.93,8.68-11.52,17.4-19.65,43.27-30.88,71.48-28Z"/>
            <path class="cls-3" d="M373.2,381.89c-3.28,4.46-7.03,8.56-11.18,12.22-.16.16-.37.33-.54.5-17.86,13.85-38.04,24.42-59.58,31.25-.04,0-.08,0-.13.04,3.93,11.52,4.93,29.88,4.93,29.88,0,0,32.67-8.34,57.22-35.84,17.15-19.24,50.02-66.05,15.05-127.72,0,0,.05.2.13.46,2.17,4.31,4.13,8.72,5.63,13.27,8.31,24.87,5.13,52.91-11.48,75.9l-.04.04Z"/>
            <path class="cls-3" d="M60.75,287.21c-2.23-5.08-3.91-10.38-5.01-15.82-.04-.24-.12-.5-.16-.76-3.09-22.49-2.09-45.27,2.71-67.21v-.13c-11.94-2.34-28.33-10.68-28.33-10.68,0,0-9.1,32.51,2.46,67.47,8.09,24.49,32.17,76.36,103.06,76.9,0,0-.2-.05-.46-.13-4.8-.29-9.59-.79-14.3-1.75-25.71-5.26-48.37-22.03-60.01-47.9h.05Z"/>
            <path class="cls-3" d="M288.73,159.16c1.96.24,3.88.33,5.75.28,0,0-1.29-25.33-4.38-38.35-3.13-12.98-7.72-21.62-12.73-26.5-3.62-3.5-15.02-7.85-23.86,18.94-.69,5.31-.32,10.69,1.08,15.86,1.4,5.16,3.8,10,7.07,14.23,3.27,4.23,7.34,7.78,11.99,10.44,4.64,2.66,9.77,4.37,15.07,5.04v.04h0Z"/>
            <path class="cls-3" d="M148.34,248.44c-.76-1.77-1.64-3.48-2.63-5.13,0,0-21.33,13.77-31.01,22.94-9.68,9.18-14.86,17.49-16.56,24.28-1.21,4.88.71,16.91,28.33,11.18,9.96-4.17,17.86-12.13,21.96-22.12,4.1-9.99,4.06-21.2-.1-31.17h0Z"/>
            <path class="cls-3" d="M295.84,325.35c-1.17,1.54-2.21,3.22-3.13,4.88,0,0,22.58,11.57,35.39,15.36,12.81,3.8,22.57,4.14,29.29,2.21,4.84-1.37,14.27-9.09-4.47-30.12-4.25-3.24-9.11-5.61-14.28-6.98-5.17-1.37-10.56-1.7-15.86-.98-5.3.72-10.41,2.47-15.03,5.16-4.62,2.69-8.67,6.27-11.91,10.52v-.05Z"/>
            <path class="cls-3" d="M287.07,220.32c-5.12,17.03-12.31,32.51-21.11,46.15-.46.71-.92,1.42-1.42,2.17,0,0,0,.04-.04.08-6.16,8.86-13.15,17.12-20.86,24.67,5.59,5.92,11.6,11.68,18.24,17.15,7.54,5.93,15.52,11.29,23.86,16.02,16.99-17.52,30.91-37.78,41.19-59.92,3.68-7.5,6.91-15.2,9.67-23.08-8.59-6.3-17.27-11.35-25.28-14.77-7.89-3.38-16.01-6.21-24.29-8.47h.05,0Z"/>
            <path class="cls-3" d="M120.25,388.91c46.23,6.3,90.71-8.39,121.01-26.37-3.72-2.6-7.4-5.27-11.02-8.01-11.52-8.82-22.09-18.81-31.54-29.83-22.79,9.96-51.5,15.81-78.08,10.38-25.7-5.25-48.36-22.03-60-47.9-2.23-5.08-3.91-10.38-5.01-15.82,6.72,47.15,30.5,88.29,64.6,117.54h.04Z"/>
            <path class="cls-3" d="M243.64,293.38c-11.68-12.34-21.57-26.26-29.37-41.34-.37-.8-.8-1.5-1.17-2.3v-.08c-4.58-9.78-8.24-19.97-10.93-30.42-7.93,1.88-15.9,4.22-23.91,7.23-8.9,3.55-17.52,7.77-25.79,12.6,7.43,25.75,18.4,47.49,31.21,65.68,4.63,6.88,9.65,13.52,15.12,19.9,9.75-4.26,18.48-9.31,25.44-14.52,6.85-5.15,13.35-10.75,19.45-16.78l-.04.04Z"/>
            <path class="cls-3" d="M181.09,64.63c-28.58,36.89-38.1,82.75-37.68,117.96,4.12-1.93,8.28-3.78,12.48-5.54,13.38-5.59,27.31-9.74,41.56-12.39,2.76-24.71,12.06-52.5,30.05-72.77,17.39-19.65,43.27-30.88,71.48-28,5.34.54,11.05,1.88,16.19,3.59.24.08.5.16.71.2-26.78-10.93-55.7-15.56-84.55-13.56-17.52,1.21-34.3,4.75-50.15,10.35-.04.04-.08.12-.12.16h.05Z"/>
            <path class="cls-3" d="M431.54,279.41c-17.69-43.19-52.66-74.41-83.37-91.64-.37,4.39-.83,8.89-1.46,13.61-1.86,14.37-5.23,28.51-10.05,42.18,20.03,14.78,39.48,36.68,48.07,62.43,8.3,24.87,5.13,52.91-11.48,75.9-3.28,4.46-7.03,8.56-11.18,12.22l-.16.16c35.8-28.12,61.12-68.68,69.81-114.57,0-.08-.08-.17-.08-.25l-.09-.04Z"/>
            <path class="cls-3" d="M197.32,194.03c1.02,8.5,2.62,16.92,4.8,25.2,17.32-4.09,34.3-5.59,50.54-4.8l2.58.12h.08c10.18.84,20.78,2.71,31.76,5.72,2.33-7.8,4.3-15.91,5.71-24.33,1.54-10.51,2-20.24,1.96-28.71-25.99-6.42-50.28-7.72-72.43-5.71-8.33.55-16.62,1.59-24.83,3.13-1.17,10.6-1.22,20.65-.13,29.34l-.04.03Z"/>
          </g>
        </g>
      </g>
    </g>
  </g>
</svg>