<?xml version="1.0" encoding="UTF-8"?>
<svg id="Layer_2" data-name="Layer 2" xmlns="http://www.w3.org/2000/svg" viewBox="0 0 989.05 300">
  <defs>
    <style>
      .cls-1 {
        fill: #fff;
      }
    </style>
  </defs>
  <g id="Layer_1-2" data-name="Layer 1">
    <g>
      <path class="cls-1" d="M492.43,135.21c10.32,2.75,18.32,8.25,24.2,16.28,5.77,8.03,8.66,17.38,8.66,28.16,0,13.31-4.88,24.97-14.54,34.87-9.66,9.79-22.87,14.63-39.63,14.63h-73.81V57.43h70.6c15.21,0,26.97,4.29,35.41,12.76,8.55,8.47,12.88,18.48,12.88,29.92,0,7.7-2.11,14.85-6.44,21.34-4.33,6.49-9.99,11.11-17.2,13.75h-.11ZM463.8,81.75h-39.85v44.33h38.96c7.77,0,14.1-2.2,18.76-6.71,4.66-4.51,6.99-9.9,6.99-16.28s-2.22-11.11-6.77-15.18c-4.55-4.07-10.54-6.16-18.09-6.16ZM423.95,204.63h42.4c9.21,0,16.65-2.64,22.31-7.92s8.44-11.66,8.44-19.25-2.77-14.52-8.32-19.8c-5.55-5.28-13.21-7.92-23.09-7.92h-41.74v54.9Z"/>
      <path class="cls-1" d="M638.74,121.35v-17.38h24.86v125.19h-24.86v-17.16c-11.43,13.53-25.75,20.24-43.18,20.24-18.32,0-33.41-6.38-45.29-19.03-11.88-12.65-17.87-28.49-17.87-47.41s5.99-34.21,17.87-46.42c11.88-12.21,26.97-18.37,45.29-18.37s31.75,6.82,43.18,20.46v-.11ZM599.11,208.69c11.77,0,21.53-4.07,29.3-12.32,7.66-8.03,11.43-18.04,11.43-29.92s-3.89-21.67-11.43-29.7c-7.77-8.25-17.54-12.32-29.3-12.32s-21.76,4.07-29.3,12.32c-7.55,8.03-11.21,18.04-11.21,29.92s3.77,21.89,11.21,29.92c7.55,8.03,17.32,12.1,29.3,12.1Z"/>
      <path class="cls-1" d="M784.13,119.91v-16.06h24.86v112.43c0,20.13-6.22,36.19-18.76,48.07-12.54,11.88-29.08,17.93-49.73,17.93s-39.74-5.94-56.5-17.93l11.21-19.8c13.88,9.9,28.86,14.85,44.73,14.85,13.32,0,23.86-3.63,31.63-11,7.77-7.37,11.77-16.94,11.77-28.71v-9.02c-11.1,12.43-25.2,18.59-42.4,18.59-18.43,0-33.63-6.16-45.51-18.37-11.88-12.21-17.87-27.61-17.87-45.98s6.22-33.66,18.54-45.76c12.32-12.21,27.64-18.37,45.95-18.37,16.76,0,30.75,6.38,41.96,19.03l.11.11ZM744.28,206.6c11.77,0,21.42-3.96,29.08-11.88,7.66-7.7,11.43-17.6,11.43-29.48s-3.88-21.89-11.43-29.48c-7.77-7.7-17.54-11.66-29.08-11.66s-20.98,3.96-28.86,11.88c-7.66,7.59-11.43,17.38-11.43,29.26s3.77,22,11.43,29.7c7.77,7.7,17.43,11.66,28.86,11.66Z"/>
      <path class="cls-1" d="M949.64,164.03c0,4.07-.33,8.14-.89,12.32h-98.68c1.89,10.12,6.33,18.04,13.43,23.98,7.1,5.94,16.65,8.8,28.53,8.8,7.21,0,14.76-1.21,22.64-3.74,7.88-2.53,14.65-5.72,20.31-9.79l10.77,18.81c-15.76,11.66-33.97,17.38-54.61,17.38-22.2,0-39.07-6.38-50.51-19.25-11.54-12.87-17.2-28.38-17.2-46.42s5.88-34.43,17.87-46.75c11.99-12.43,27.64-18.59,46.62-18.59s33.19,5.61,44.51,16.94c11.54,11.44,17.32,26.84,17.32,46.2l-.11.11ZM887.7,122.88c-9.66,0-17.98,2.97-24.75,8.91-6.77,5.94-11.1,13.86-12.99,23.54h73.59c-1.11-9.79-4.99-17.6-11.65-23.54-6.66-5.94-14.76-8.91-24.31-8.91h.11Z"/>
      <path class="cls-1" d="M989.05,53.03v176.12h-25.75V53.03h25.75Z"/>
      <path class="cls-1" d="M190.74,118.81c2,1.65,4.55,4.07,6.55,5.83l.78.88c-1.11-1.65,1-5.17,3.55-9.02,8.99-13.2,30.64-35.42,48.4-49.61,16.1-12.76,18.65-11.33,19.54-10.78l-1.78-1.76c-4-3.74-9.55-8.58-13.65-12.21-.78-.66-6.22,4.29-15.43,14.52-15.1,16.61-34.52,40.81-43.51,54.01-3.44,5.17-4.88,7.81-4.33,8.25l-.11-.11Z"/>
      <path class="cls-1" d="M208.61,124.53c-3.22,4.84-4.11,8.14-2.77,9.9,1.55,2.31,3.66,5.39,5.11,7.81-1.33-2.31-.67-5.83,2.44-10.34,8.99-13.2,34.63-30.14,57.39-37.84,14.87-5.06,24.86-4.84,27.31-.44-3.33-5.5-7.99-12.65-11.65-17.93-2.22-3.08-10.88-1.32-24.09,5.5-20.76,10.78-44.73,30.25-53.72,43.45v-.11Z"/>
      <path class="cls-1" d="M178.86,100.33c-3.44,5.06-5.66,7.26-6.66,6.82,2,.99,4.66,2.42,6.66,3.52l1.89,1.1s2.11-2.31,5.55-7.37c8.99-13.2,25.53-39.49,36.85-58.74,6.99-11.66,10.43-18.04,9.99-18.26l-4-2.42c-4.11-2.31-9.88-5.17-14.1-7.37,1.55.66-.22,8.03-5.22,20.9-8.21,20.9-22.2,48.62-31.08,61.82h.11Z"/>
      <path class="cls-1" d="M107.26,157.53l-2.11-4.07-1.55-3.63c-2.44-6.16-13.54-8.69-30.41-5.83-24.42,4.18-51.5,18.26-60.49,31.46-2.77,4.07-3.55,7.7-2.44,10.45l4.11,9.46,5.11,10.01c-1.33-2.42-.67-5.94,2.44-10.45,8.99-13.2,34.74-29.92,57.61-37.4,10.21-3.3,23.31-5.94,27.64,0h.11Z"/>
      <path class="cls-1" d="M137.01,188.23c-2.11-1.43-5-3.3-6.99-4.84l-1.11-.88c-.67-.55-5.88,4.62-14.76,14.96-14.65,16.94-33.74,41.47-42.73,54.67-3.55,5.17-4.88,7.81-4.55,8.14l2.33,1.76c4.33,3.19,10.21,7.15,14.65,10.12.22.11,2-2.31,5.55-7.48,8.99-13.2,25.64-39.38,37.3-58.41,7.1-11.66,10.66-17.93,10.32-18.15v.11Z"/>
      <path class="cls-1" d="M156.54,197.36c-2-.66-4.66-1.76-6.66-2.53l-2.22-.99c1.67.77.22,8.14-4.55,21.23-7.77,21.12-21.31,49.06-30.19,62.27-3.44,5.06-5.77,7.26-6.77,6.82l4.66,1.98c4.33,1.76,10.1,3.85,14.54,5.39,1.78.55,4.33-1.54,7.66-6.38,8.99-13.2,19.76-42.13,24.2-64.57,2.78-14.08,2.33-22.22-.55-23.21h-.11Z"/>
      <path class="cls-1" d="M175.97,201.1c-1.67,0-3.88-.33-5.44-.55l-3.11-.55c4.55.77,7.44,9.68,7.33,24.86-.22,23.54-7.55,53.35-16.54,66.56-3.22,4.62-6.11,6.6-8.55,6.16l7.21,1.1c4,.55,9.32.99,13.32,1.32,2.89.11,5.88-1.76,8.88-6.16,8.99-13.2,13.54-43.34,10.32-67.21-2.22-16.06-7.44-25.3-13.32-25.63l-.11.11Z"/>
      <path class="cls-1" d="M193.07,199.79c-1.11.22-2.66.55-3.77.77l-3.44.44c4.55-.33,13.43,2.42,21.2,25.41,9.88,33.22,4.11,70.19-11.32,73.27l9.66-1.21c3.44-.55,7.88-1.54,11.32-2.31,3-.77,5.66-2.64,7.88-5.94,8.99-13.2,7.44-42.79-3.44-66.11-8.1-17.49-19.2-26.4-28.08-24.31Z"/>
      <path class="cls-1" d="M205.72,194.51l-2,1.21c-.89.44-2.11,1.1-3,1.54,3.89-1.65,18.09-5.17,36.74,21.34,18.2,28.16,20.2,60.5,4.33,69.09,3.33-1.54,7.66-3.74,10.88-5.39l7.88-4.73c1.67-1.1,3.22-2.64,4.44-4.51,8.99-13.2,2-40.48-15.65-60.95-15.1-17.6-33.19-24.42-43.62-17.6Z"/>
      <path class="cls-1" d="M178.42,28.05c-.67,23.43-8.55,53.13-17.54,66.34-4.33,6.38-6.99,6.27-8.44,6.16,1.78.33,4.11.99,5.88,1.43l3,.88c1.78.55,4.44-1.43,7.77-6.38,8.99-13.2,19.54-42.13,23.75-64.68,2.55-14.19,2-22.44-1-23.32l-6.55-1.98c-4-1.1-9.32-2.2-13.32-3.19,6.11,1.98,6.66,15.07,6.55,24.75h-.11Z"/>
      <path class="cls-1" d="M146.12,26.07c6.99,23.87,5.44,54.01-3.55,67.22-2.66,3.85-5.66,5.83-8.77,6.16,1.33,0,3.11-.11,4.33-.22h3.66c4,0,6.44-2.75,8.88-6.05,8.99-13.2,13.32-43.34,9.77-67.33-2.55-15.95-7.1-24.64-13.76-25.63l-9.21-.22c-3.55,0-8.21.33-11.66.44,7.33-.66,15.21,8.69,20.2,25.52l.11.11Z"/>
      <path class="cls-1" d="M115.37,33.33c14.32,22.22,18.65,50.82,9.77,64.02-1.78,2.64-4,4.51-6.44,5.5l2.66-.99c1.11-.33,2.55-.77,3.66-1.1,2.89-.77,5.55-2.75,7.77-5.94,8.99-13.2,7.21-42.79-3.88-66.01-8.33-17.49-19.65-26.4-28.53-24.2-3.44.88-7.99,2.31-11.43,3.41l-9.21,3.52c9.88-4.18,24.2,4.07,35.74,21.78h-.11Z"/>
      <path class="cls-1" d="M90.72,49.06c20.2,18.48,29.3,44.11,20.42,57.31-.67,1.1-1.55,1.98-2.44,2.86l1.22-1.1c.78-.66,1.89-1.43,2.66-1.98,1.67-1.1,3.11-2.53,4.33-4.4,8.99-13.2,1.78-40.37-15.98-60.72-15.43-17.6-33.63-24.31-44.18-17.27-3.44,2.31-7.77,5.72-10.99,8.25l-5.33,4.73c10.32-9.57,31.86-4.62,50.39,12.32h-.11Z"/>
      <path class="cls-1" d="M74.19,71.07c18.65,10.23,35.63,28.82,28.64,45.76.55-.99,1.22-2.2,1.78-3.19,0-.11.11-.22.22-.33v-.22s.33-.22.44-.33c8.99-13.2-2.11-36.63-24.75-52.36-22.42-15.51-47.84-17.71-56.94-4.84l-1.89,2.64c-2.55,3.96-5.66,9.35-8.1,13.75.22-.33.33-.55.55-.88,8.99-13.2,35.85-13.2,59.94,0h.11Z"/>
      <path class="cls-1" d="M13.7,72.06s-.45.78-.67,1.11c.22-.33.45-.78.67-1.11Z"/>
      <path class="cls-1" d="M66.42,97.81c21.65,5.61,34.85,17.82,33.52,29.37.11-1.1.44-2.64.67-3.74l.33-1.21c3.44-12.65-9.66-28.16-32.08-36.74-25.75-9.68-57.83-8.25-64.6,11l-1.33,5.17c-.89,4.4-1.78,10.23-2.44,14.63,2.22-15.62,29.86-27.06,65.93-18.48Z"/>
      <path class="cls-1" d="M68.08,127.18c13.1,0,29.3,2.53,32.74,13.64-.22-1.21-.56-2.97-.67-4.29l-.22-2.31c-.67-9.79-13.54-18.15-33.74-20.46-26.08-2.97-54.5,5.28-63.49,18.48-2,2.97-2.89,5.94-2.66,8.91l.78,7.59c.55,3.85,1.44,8.91,2.11,12.65-2.55-14.52,26.97-33.11,65.16-34.21Z"/>
      <path class="cls-1" d="M100.06,184.93c11.1-8.69,18.2-12.21,19.76-10.56-1.89-2.09-4.33-4.95-6.22-7.15l-.22-.22c-2.22-2.86-10.66-.88-23.53,6.16-20.42,11.22-44.18,31.02-53.17,44.22-3.33,4.84-4.11,8.14-2.89,9.79l.44.55c3.88,4.73,9.32,10.89,13.43,15.4-1-.99,0-4.07,3.44-9.13,8.99-13.2,30.86-35.2,48.84-49.17l.11.11Z"/>
      <path class="cls-1" d="M269.87,192.96c-19.31-13.09-44.29-19.91-56.61-5.39q-.89,1.21-2.89,3.3c10.21-10.01,32.19-5.28,51.28,11.55,20.54,18.15,29.97,43.56,20.98,56.76-.67.99-1.33,1.76-2.11,2.53,5.22-5.06,5.33-5.28,13.54-15.51,6.55-8.8,5.88-30.91-24.09-53.13l-.11-.11Z"/>
      <path class="cls-1" d="M281.98,168.2c-25.42-10.01-53.28-7.37-62.16,5.83-1.11,1.76-1.22,1.87-2.22,4.62-.33,1.1-.89,2.53-1.33,3.63l-.33.66c.33-.77.89-1.65,1.33-2.31,8.99-13.2,35.96-13.53,60.38-.77,23.2,12.76,34.74,30.36,29.19,44.66l1.44-3.3c1.89-4.62,4-11,5.55-15.73,2.77-9.9-4-25.63-31.97-37.4l.11.11Z"/>
      <path class="cls-1" d="M318.71,160.94c-.22-3.85-3.33-16.61-33.74-21.01-26.09-3.3-54.5,4.84-63.49,18.04-2.55,4.07-2.66,6.16-2.66,8.8v5.83c.11-2.42,1-4.84,2.55-7.15,8.99-13.2,37.41-18.7,63.38-12.43,21.42,5.28,34.63,16.94,33.63,28.27l.44-5.72c.11-4.29,0-10.12,0-14.52l-.11-.11Z"/>
      <path class="cls-1" d="M278.31,109.91c-24.53,3.96-51.62,17.82-60.61,31.02-3.66,5.61-2.89,8.47-2.44,10.45.56,1.32,1.11,3.19,1.55,4.51l.78,2.75c-.78-4.4.89-7.26,2.55-10.01,8.99-13.2,36.96-24.42,62.49-25.08,12.88-.22,28.97,1.87,32.52,12.65l-2.11-7.92c-1.11-3.63-2.89-8.47-4.11-11.99-1.89-4.62-8.66-9.46-30.53-6.38h-.11Z"/>
    </g>
  </g>
</svg>