<?xml version="1.0" encoding="UTF-8"?>
<svg id="Layer_2" data-name="Layer 2" xmlns="http://www.w3.org/2000/svg" viewBox="0 0 1178.76 300">
  <defs>
    <style>
      .cls-1 {
        fill: #fff;
      }
    </style>
  </defs>
  <g id="Layer_1-2" data-name="Layer 1">
    <g>
      <path class="cls-1" d="M442.04,23.89c20.4,1.48,48.41,6.59,63.7,21.26,20.82,19.98,21.54,62.88,1.46,83.72-6.67,6.92-15.85,9.59-21.34,17.12,59.66,14.49,55.53,100.94.72,121.55-8.25,3.1-31.32,8.56-39.22,8.56h-88.94V23.89c27.33,1.45,56.52-1.97,83.63,0ZM390.27,132.74h54.42c.89,0,15.46-3.29,17.31-3.92,28.39-9.71,37.62-51.36,13.12-68.99-1.76-1.27-13.59-6.74-14.5-6.74h-70.35v79.65ZM390.27,246.9h73.01c16.56,0,33.21-28.33,33.17-43.81-.03-16.25-15.63-43.8-33.17-43.8h-73.01v87.61Z"/>
      <g>
        <path class="cls-1" d="M974.35,98.24l-31.86-.02c6.62-54.21-86.19-67.45-104.06-25.73-22.5,52.53,57.71,59.5,89.07,73.91,34.79,15.99,58.37,44.65,45.59,84.66-23.99,75.12-183.17,57.8-179.3-29.29,5.66,1.11,29.37-1.65,31.62.27.79.68,3.17,15.71,5.04,20.18,16.82,39.97,105.87,40.47,111.77-3.42,6.16-45.73-43.69-48.27-74.74-60.17-27.22-10.44-59.55-24.55-65.08-57.03-17.61-103.42,177.12-107.9,171.94-3.34Z"/>
        <path class="cls-1" d="M679.28,26.91l93.27,246.53c-7.66-1.36-26.34,2.55-31.96-1.2-5.38-3.59-18.68-59.85-25.47-62.14-13.27.96-101.84-3.13-104.81,1.21-4.85,7.67-18.72,59.75-21.2,61.88-2.29,1.98-28.34-.87-34.24.25l92.61-245.31,31.8-1.22ZM621.24,183.19h84.96l-43.78-114.18-41.18,114.18Z"/>
        <g>
          <polygon class="cls-1" points="1019.47 26.55 1176.12 26.54 1176.12 50.46 1051.33 53.1 1051.33 132.74 1160.18 132.74 1160.18 159.29 1051.33 159.29 1051.33 246.9 1178.76 246.9 1178.76 273.45 1019.49 276.1 1019.47 26.55"/>
          <polygon class="cls-1" points="1178.76 26.55 1178.76 50.44 1051.33 53.1 1176.12 50.46 1176.12 26.54 1019.47 26.55 1178.76 26.55"/>
        </g>
      </g>
      <g>
        <path class="cls-1" d="M169.91,0c97.9,17.54,159.09,117.59,117.27,211.51-21.93,49.25-68.35,78.19-119.92,88.49h-23.89c-2.65-3.21-5.31-3.21-7.96,0h-10.62c-17.43-8.85-35.89-12.22-53.19-22.47C33.66,255.04,13.18,218.78,0,177.88v-15.93l199.16-1.53-.03-22.38H0s0-18.57,0-18.57c7.63-15.17,11.16-29.84,20.12-44.92C44.17,34.11,81.11,13.95,124.78,0h45.13Z"/>
        <path class="cls-1" d="M143.36,300h-7.96c2.65-3.21,5.31-3.21,7.96,0Z"/>
      </g>
    </g>
  </g>
</svg>