<?xml version="1.0" encoding="UTF-8"?>
<svg id="Layer_2" data-name="Layer 2" xmlns="http://www.w3.org/2000/svg" viewBox="0 0 1491.8 300">
  <defs>
    <style>
      .cls-1 {
        fill: #fff;
      }
    </style>
  </defs>
  <g id="Layer_1-2" data-name="Layer 1">
    <path class="cls-1" d="M67.68,150l-33.69,33.69L0,150l33.98-33.98,33.69,33.98ZM150,67.68l58.01,58.01,33.98-33.98L150,0,58.01,91.99l33.98,33.98,58.01-58.3ZM266.02,116.02l-33.69,33.98,33.99,33.98,33.98-33.98-34.28-33.98ZM150,232.32l-58.01-58.3-33.98,33.98,91.99,91.99,91.99-91.99-33.98-33.98-58.01,58.3ZM150,183.69l33.98-33.98-33.98-33.69-33.98,33.98,33.98,33.69ZM507.42,187.21v-.59c0-21.97-11.72-33.11-30.76-40.43,11.72-6.45,21.68-16.99,21.68-35.45v-.59c0-25.78-20.8-42.48-54.2-42.48h-76.46v164.36h78.22c37.21.29,61.52-14.94,61.52-44.82ZM462.31,116.89c0,12.3-9.96,17.29-26.08,17.29h-33.4v-34.86h35.74c15.23,0,23.73,6.15,23.73,16.99v.59ZM471.39,182.52c0,12.3-9.67,17.87-25.49,17.87h-43.07v-36.04h41.89c18.46,0,26.66,6.74,26.66,17.87v.29ZM583.3,232.03V67.68h-36.33v164.36h36.33ZM777.83,232.32V67.68h-35.74v101.37l-77.05-101.37h-33.4v164.36h35.74v-104.3l79.69,104.59h30.76ZM978.22,232.32l-70.6-165.53h-33.4l-70.6,165.53h37.21l14.94-36.91h69.43l14.94,36.91h38.09ZM912.3,163.48h-43.65l21.97-53.32,21.68,53.32ZM1150.78,232.32V67.68h-35.74v101.37l-77.05-101.37h-33.4v164.36h35.74v-104.3l79.69,104.59h30.76ZM1337.4,205.66l-23.14-23.14c-12.9,11.72-24.32,19.33-43.36,19.33-28.13,0-47.75-23.44-47.75-51.56v-.88c0-28.12,19.92-51.27,47.75-51.27,16.4,0,29.3,7.03,42.19,18.46l23.14-26.66c-15.23-14.94-33.69-25.49-64.74-25.49-50.39,0-85.84,38.38-85.84,84.96v.59c0,47.17,36.03,84.67,84.38,84.67,31.64.29,50.39-10.84,67.37-29ZM1491.8,232.03v-31.93h-89.36v-34.57h77.64v-32.23h-77.64v-33.4h88.19v-32.23h-123.93v164.36h125.1Z"/>
  </g>
</svg>