<?xml version="1.0" encoding="UTF-8"?>
<svg id="Layer_2" data-name="Layer 2" xmlns="http://www.w3.org/2000/svg" viewBox="0 0 1874.25 327.39">
  <defs>
    <style>
      .cls-1 {
        fill-rule: evenodd;
      }

      .cls-1, .cls-2, .cls-3 {
        fill: #fff;
      }

      .cls-3 {
        font-family: LiGothicMed, 'Apple LiGothic';
        font-size: 301.24px;
        letter-spacing: .03em;
      }
    </style>
  </defs>
  <g id="Layer_1-2" data-name="Layer 1">
    <g>
      <g>
        <path class="cls-1" d="M159.16,31.45c-3.09,0-5.6,2.51-5.6,5.6v11.19h-32.17c-3.09,0-5.6,2.51-5.6,5.6v120.3c0,3.09,2.51,5.6,5.6,5.6h23.78v-5.6c0-6.18,5.01-11.19,11.19-11.19h22.38c6.18,0,11.19,5.01,11.19,11.19v5.6h29.38c3.09,0,5.6-2.51,5.6-5.6V53.83c0-3.09-2.51-5.6-5.6-5.6h-32.17v-11.19c0-3.09-2.51-5.6-5.6-5.6h-22.38ZM156.44,148.95l-21.91-86.17h16.74l18.22,75.71h1.72l18.22-75.71h16.74l-21.91,86.17h-27.82Z"/>
        <path class="cls-1" d="M47.24,168.51c-3.09,0-5.6,2.51-5.6,5.6v11.19H5.6c-3.09,0-5.6,2.51-5.6,5.6v103.52c0,3.09,2.51,5.6,5.6,5.6h213.71c3.09,0,5.6-2.51,5.6-5.6v-103.52c0-3.09-2.51-5.6-5.6-5.6h-34.97v-11.19c0-3.09-2.51-5.6-5.6-5.6h-22.38c-3.09,0-5.6,2.51-5.6,5.6v11.19h-75.54v-11.19c0-3.09-2.51-5.6-5.6-5.6h-22.38ZM66.83,199.56v86.17h15.76v-74.23h2.22l14.77,74.23h26.84l14.77-74.23h2.22v74.23h15.76v-86.17h-30.16l-14.89,75.09h-2.22l-14.9-75.09h-30.16Z"/>
        <path class="cls-2" d="M46.81,102.73h15.26c3.53,0,6.36-.86,8.49-2.59,2.22-1.72,3.32-4.19,3.32-7.39v-1.23c0-3.2-1.07-5.66-3.2-7.39-2.13-1.72-5.01-2.59-8.62-2.59h-15.26v21.17Z"/>
        <path class="cls-2" d="M46.81,66.79h15.02c3.36,0,6.11-.86,8.25-2.59,2.22-1.72,3.32-4.1,3.32-7.14v-1.23c0-3.12-1.07-5.5-3.2-7.14-2.13-1.72-4.92-2.59-8.37-2.59h-15.02v20.68Z"/>
        <path class="cls-1" d="M43.5,0c-3.09,0-5.6,2.51-5.6,5.6v11.19H5.73c-3.09,0-5.6,2.51-5.6,5.6v120.3c0,3.09,2.51,5.6,5.6,5.6h28.41v-10.31c0-3.09,2.51-5.6,5.6-5.6h29.9c3.09,0,5.6,2.51,5.6,5.6v10.31h28.41c3.09,0,5.6-2.51,5.6-5.6V22.38c0-3.09-2.51-5.6-5.6-5.6h-32.17V5.6c0-3.09-2.51-5.6-5.6-5.6h-22.38ZM34.12,22.94h8.39v8.39h15.07v-8.39h8.39v8.46c4.24.24,7.99,1.12,11.23,2.64,3.94,1.72,6.98,4.23,9.11,7.51,2.22,3.2,3.32,7.06,3.32,11.57v1.23c0,3.94-.74,7.18-2.22,9.72-1.48,2.46-3.24,4.39-5.29,5.79-1.97,1.31-3.86,2.26-5.66,2.83v2.22c1.81.49,3.78,1.44,5.91,2.83,2.13,1.31,3.94,3.24,5.42,5.79,1.56,2.54,2.34,5.87,2.34,9.97v1.23c0,4.76-1.11,8.86-3.32,12.31-2.22,3.36-5.29,5.95-9.23,7.76-3.37,1.58-7.24,2.46-11.6,2.66v8.44h-8.39v-8.39h-15.07v8.39h-8.39v-8.39h-14.88v-14.28h11.33v-57.61h-11.33v-14.28h14.88v-8.39Z"/>
      </g>
      <text class="cls-3" transform="translate(280.42 263.83)"><tspan x="0" y="0">BVM Network</tspan></text>
    </g>
  </g>
</svg>