<?xml version="1.0" encoding="UTF-8"?>
<svg id="Layer_2" data-name="Layer 2" xmlns="http://www.w3.org/2000/svg" viewBox="0 0 1904 300">
  <defs>
    <style>
      .cls-1 {
        fill: #fff;
      }
    </style>
  </defs>
  <g id="Layer_1-2" data-name="Layer 1">
    <g id="Group">
      <path id="Path" class="cls-1" d="M88.97,148.87c-.68,12.04,8.56,22.38,20.59,23.07.42.02.84.04,1.26.04,11.57,0,21.16-9.06,21.81-20.63.68-12.03-8.55-22.38-20.59-23.07-12.11-.71-22.39,8.6-23.07,20.59Z"/>
      <path id="path1" class="cls-1" d="M7.47,143.29c-3.89-.22-7.24,2.76-7.45,6.65-.23,3.89,2.75,7.24,6.65,7.46,3.9.22,7.24-2.76,7.46-6.65.22-3.9-2.76-7.24-6.66-7.46Z"/>
      <path id="path2" class="cls-1" d="M87.58,22.01c3.48-1.75,4.89-6.01,3.13-9.49-1.76-3.48-6.01-4.89-9.5-3.13-3.48,1.75-4.88,6.01-3.13,9.49,1.76,3.49,6,4.89,9.49,3.13Z"/>
      <path id="path3" class="cls-1" d="M109.76,60.69c5.39-2.71,7.56-9.28,4.84-14.67-2.71-5.39-9.28-7.55-14.67-4.84-5.39,2.71-7.55,9.28-4.84,14.67,2.71,5.39,9.28,7.56,14.67,4.84Z"/>
      <path id="path4" class="cls-1" d="M35.13,87.29c4.16,2.73,9.73,1.57,12.46-2.59,2.72-4.15,1.56-9.73-2.59-12.45-4.16-2.73-9.73-1.57-12.46,2.59-2.73,4.15-1.56,9.73,2.59,12.45Z"/>
      <path id="path5" class="cls-1" d="M48.42,139.35c-6.02-.34-11.18,4.26-11.53,10.28-.34,6.03,4.26,11.18,10.28,11.53,6.02.34,11.19-4.26,11.53-10.29.34-6.03-4.26-11.19-10.29-11.53Z"/>
      <path id="path6" class="cls-1" d="M36.32,212.74c-4.43,2.23-6.22,7.65-3.98,12.08,2.23,4.44,7.65,6.22,12.08,3.98,4.44-2.24,6.22-7.65,3.98-12.08-2.23-4.43-7.64-6.22-12.08-3.98Z"/>
      <path id="path7" class="cls-1" d="M78.75,116.78c5.94,3.89,13.9,2.24,17.79-3.7,3.89-5.93,2.24-13.9-3.7-17.79-5.93-3.9-13.9-2.24-17.79,3.69-3.89,5.94-2.24,13.9,3.7,17.79Z"/>
      <path id="path8" class="cls-1" d="M213.39,59.82c5.05,3.31,11.81,1.9,15.12-3.15,3.31-5.04,1.91-11.81-3.14-15.12-5.04-3.31-11.82-1.9-15.12,3.15-3.31,5.04-1.9,11.81,3.14,15.12Z"/>
      <path id="path9" class="cls-1" d="M235.8,21.27c3.26,2.14,7.65,1.23,9.79-2.03,2.14-3.27,1.23-7.65-2.04-9.79-3.26-2.14-7.64-1.23-9.79,2.03-2.14,3.27-1.23,7.65,2.04,9.79Z"/>
      <path id="path10" class="cls-1" d="M215.1,128.06c-12.11-.7-22.39,8.6-23.07,20.58-.68,12.04,8.55,22.39,20.58,23.07.42.02.84.03,1.26.03,11.57,0,21.15-9.06,21.81-20.62.33-5.83-1.63-11.45-5.52-15.8-3.88-4.36-9.24-6.94-15.07-7.27Z"/>
      <path id="path11" class="cls-1" d="M116.95,115.27c3.74,7.42,11.22,12.03,19.54,12.03,3.38,0,6.78-.81,9.82-2.34,10.77-5.43,15.11-18.6,9.69-29.37-3.74-7.42-11.22-12.03-19.54-12.03-3.38,0-6.78.81-9.82,2.34-10.77,5.43-15.11,18.6-9.69,29.37Z"/>
      <path id="path12" class="cls-1" d="M288.34,87.26c4.43-2.24,6.22-7.64,3.98-12.08-2.24-4.44-7.65-6.22-12.08-3.98-4.44,2.23-6.22,7.64-3.98,12.08,2.24,4.43,7.64,6.22,12.08,3.99Z"/>
      <path id="path13" class="cls-1" d="M232.89,94.23c-6.34,3.19-8.89,10.92-5.7,17.26,3.19,6.34,10.92,8.88,17.26,5.69,6.34-3.19,8.89-10.92,5.7-17.26-3.19-6.34-10.92-8.89-17.26-5.69Z"/>
      <path id="path14" class="cls-1" d="M161.51,17.98c4.96.28,9.21-3.51,9.49-8.47.28-4.96-3.51-9.21-8.47-9.49-4.96-.28-9.21,3.51-9.5,8.47-.28,4.96,3.51,9.21,8.47,9.49Z"/>
      <path id="path15" class="cls-1" d="M161.41,74.57c7.09.4,13.16-5.02,13.56-12.1.4-7.09-5.02-13.16-12.11-13.56-7.08-.4-13.15,5.01-13.56,12.1-.4,7.08,5.02,13.16,12.1,13.56Z"/>
      <path id="path16" class="cls-1" d="M91.77,205.77c6.34-3.2,8.89-10.92,5.7-17.26-3.2-6.34-10.93-8.89-17.26-5.69-6.34,3.19-8.89,10.91-5.69,17.26,3.19,6.34,10.92,8.89,17.26,5.69Z"/>
      <path id="path17" class="cls-1" d="M169.72,93.33c-6.61,10.08-3.79,23.66,6.29,30.27,3.57,2.34,7.71,3.58,11.97,3.58,7.41,0,14.24-3.69,18.3-9.88,6.61-10.08,3.79-23.67-6.29-30.27-3.57-2.34-7.71-3.59-11.97-3.59-7.41,0-14.25,3.69-18.3,9.88Z"/>
      <path id="path18" class="cls-1" d="M207.72,184.73c-3.74-7.42-11.23-12.03-19.54-12.03-3.38,0-6.79.81-9.83,2.34-5.21,2.63-9.09,7.13-10.92,12.68-1.83,5.54-1.4,11.47,1.24,16.69,3.74,7.42,11.22,12.03,19.53,12.03,3.39,0,6.78-.81,9.83-2.34,10.76-5.42,15.11-18.6,9.69-29.36Z"/>
      <path id="path19" class="cls-1" d="M245.91,183.21c-5.93-3.89-13.9-2.23-17.79,3.7-3.89,5.93-2.23,13.9,3.7,17.79,5.94,3.89,13.9,2.24,17.79-3.7,3.89-5.93,2.24-13.9-3.7-17.79Z"/>
      <path id="path20" class="cls-1" d="M287.77,150.37c.35-6.02-4.26-11.19-10.29-11.53-6.02-.34-11.18,4.26-11.52,10.29-.35,6.02,4.26,11.18,10.29,11.53,6.02.34,11.19-4.27,11.53-10.28Z"/>
      <path id="path21" class="cls-1" d="M318,142.6c-3.9-.22-7.24,2.76-7.46,6.66-.22,3.9,2.76,7.24,6.66,7.46,3.89.22,7.23-2.76,7.46-6.66.23-3.9-2.75-7.24-6.65-7.46Z"/>
      <path id="path22" class="cls-1" d="M289.53,212.71c-4.16-2.73-9.74-1.56-12.45,2.59-2.73,4.15-1.57,9.73,2.59,12.46,4.15,2.72,9.73,1.57,12.46-2.59,2.72-4.16,1.56-9.73-2.59-12.45Z"/>
      <path id="path23" class="cls-1" d="M88.87,278.73c-3.26-2.14-7.65-1.23-9.79,2.03-2.14,3.27-1.23,7.65,2.03,9.79,3.26,2.14,7.65,1.23,9.78-2.03,2.14-3.27,1.23-7.65-2.03-9.79Z"/>
      <path id="path24" class="cls-1" d="M237.08,277.99c-3.48,1.75-4.88,6-3.13,9.49,1.75,3.48,6,4.88,9.49,3.13,3.48-1.76,4.89-6,3.13-9.49-1.76-3.49-6.01-4.89-9.5-3.13Z"/>
      <path id="path25" class="cls-1" d="M154.95,206.67c3.2-4.88,4.31-10.72,3.12-16.44-1.19-5.72-4.53-10.63-9.42-13.83-3.57-2.34-7.72-3.59-11.98-3.59-7.4,0-14.24,3.69-18.3,9.88-3.2,4.88-4.31,10.72-3.12,16.44,1.19,5.72,4.53,10.63,9.42,13.83,3.58,2.34,7.71,3.58,11.97,3.58,7.4,0,14.24-3.69,18.3-9.88Z"/>
      <path id="path26" class="cls-1" d="M111.27,240.18c-5.04-3.31-11.81-1.9-15.12,3.14-3.31,5.05-1.9,11.81,3.14,15.13,5.05,3.31,11.82,1.9,15.13-3.14,3.31-5.05,1.9-11.82-3.15-15.12Z"/>
      <path id="path27" class="cls-1" d="M162.23,282.02c-4.96-.28-9.21,3.51-9.49,8.47-.28,4.96,3.51,9.21,8.47,9.5,4.96.28,9.21-3.51,9.49-8.47.28-4.96-3.51-9.21-8.47-9.49Z"/>
      <path id="path28" class="cls-1" d="M162.33,225.42c-7.08-.4-13.16,5.01-13.56,12.1-.4,7.09,5.01,13.16,12.1,13.56,7.09.41,13.16-5.01,13.56-12.1.41-7.09-5.01-13.16-12.1-13.56Z"/>
      <path id="path29" class="cls-1" d="M214.9,239.3c-5.38,2.72-7.55,9.28-4.83,14.67,2.71,5.39,9.28,7.55,14.67,4.84,5.39-2.71,7.55-9.28,4.84-14.67-2.71-5.39-9.28-7.55-14.67-4.84Z"/>
      <path id="path30" class="cls-1" d="M505.78,86.91c28.54,0,48.52,15.7,48.52,44.81h37.39c0-51.09-37.68-75.64-86.48-75.64-59.94,0-94.76,32.54-94.76,101.33s34.82,101.33,94.76,101.33c49.38,0,86.48-23.98,86.48-75.07h-35.96c0,28.54-19.69,44.24-49.95,44.24-39.68,0-57.94-21.98-57.94-67.65v-5.71c0-44.81,18.55-67.64,57.94-67.64Z"/>
      <path id="path31" class="cls-1" d="M690.54,59.51l-76.21,195.8h37.68l15.7-42.53h89.63l15.98,42.53h39.39l-76.21-195.8h-45.95ZM679.12,181.96l19.98-53.66c3.99-10.56,11.13-33.4,12.56-37.39h1.43c1.42,3.99,8.57,27.12,12.56,37.39l19.98,53.66h-66.5Z"/>
      <path id="path32" class="cls-1" d="M1016.55,118.88c0-36.25-20.83-59.37-63.93-59.37h-103.32v195.8h36.53v-75.64h60.8l37.1,75.64h39.97l-41.96-81.35c23.12-9.14,34.82-28.54,34.82-55.09ZM949.76,148.85h-63.93v-58.22h63.93c19.69,0,29.97,10.56,29.97,28.25s-11.13,29.97-29.97,29.97Z"/>
      <path id="path33" class="cls-1" d="M1144.73,59.51h-78.21v195.8h78.21c59.08,0,95.05-30.83,95.05-97.9s-35.97-97.9-95.05-97.9ZM1202.39,160.26c-.28,42.82-20.55,63.93-57.66,63.93h-41.67V90.62h41.67c37.11,0,57.66,21.12,57.66,63.93v5.71Z"/>
      <path id="path34" class="cls-1" d="M1335.43,59.51l-76.21,195.8h37.67l15.7-42.53h89.63l15.99,42.53h39.39l-76.21-195.8h-45.95ZM1324.01,181.96l19.98-53.66c4-10.56,11.13-33.4,12.56-37.39h1.42c1.43,3.99,8.57,27.12,12.56,37.39l19.98,53.66h-66.51Z"/>
      <path id="path35" class="cls-1" d="M1624.62,175.96c0,3.71.57,13.7.57,15.42l-1.42.57c-.86-1.14-6.56-11.13-9.71-15.7l-85.06-116.74h-34.82v195.8h35.11v-117.31c0-4.85-.58-14.27-.58-15.7l1.43-.86c.86,1.14,5.13,9.42,9.7,15.99l85.63,117.88h34.25V59.51h-35.11v116.45h0Z"/>
      <path id="path36" class="cls-1" d="M1805.24,56.08c-61.37,0-98.47,32.54-98.47,101.33s37.11,101.33,98.47,101.33,98.76-32.54,98.76-101.33-37.39-101.33-98.76-101.33ZM1866.61,160.55c0,44.82-21.41,67.36-61.37,67.36s-61.08-22.55-61.08-67.36v-5.99c0-44.81,21.69-67.64,61.08-67.64s61.37,22.83,61.37,67.64v5.99Z"/>
    </g>
  </g>
</svg>