<?xml version="1.0" encoding="UTF-8"?>
<svg id="Layer_2" data-name="Layer 2" xmlns="http://www.w3.org/2000/svg" viewBox="0 0 1490.67 301">
  <defs>
    <style>
      .cls-1, .cls-2 {
        fill: #fff;
      }

      .cls-2 {
        stroke: #231f20;
        stroke-miterlimit: 10;
      }
    </style>
  </defs>
  <g id="Layer_1-2" data-name="Layer 1">
    <g>
      <g>
        <path class="cls-1" d="M1490.67,262.6h-44.45c-.13,0-1.88-1.74-1.88-1.87v-109.83c0-1.73-4.69-12.05-6.01-13.98-9.44-13.75-36.45-9.51-44.34,4.99-3.06,5.63-7.26,20.33-7.26,26.46v94.23h-46.33v-109.21c0-6.24-5.93-17.51-11.36-21.13-9.7-6.47-28.42-3.76-36.03,5.1-4.5,5.24-10.21,23.09-10.21,29.76v93.61c0,.13-1.75,1.87-1.88,1.87h-44.45V94.11h34.44c3.63,6.18,4.42,14.32,6.9,21.21,2.06,1.5,9.52-9.16,11.91-11.2,19.55-16.67,59.65-16.86,79.5-.67,2.7,2.2,10.08,11.77,11.91,11.96,3.68.38,9.39-8.79,13.23-11.85,23.15-18.4,70.65-16.69,87.8,9.64,2.74,4.2,8.52,19.44,8.52,23.96v125.43Z"/>
        <path class="cls-1" d="M1079.93,94.11v107.96c0,5.54,6.39,19.13,11.33,22.4,10.92,7.23,34.54,3.64,42.3-7.64,3.77-5.48,8.98-23.35,8.98-29.74v-92.98h46.33v168.49h-34.44c-3.24-2.3-5.56-20.62-7.52-21.23-1.73-.17-2.01-.26-3.22.85-3.95,3.6-6.78,9.02-12.03,12.67-34.1,23.74-98.07,7.44-98.07-40.34v-120.44h46.33Z"/>
        <path class="cls-1" d="M590.05,91.98c71.63-6.75,106.2,52.87,89.07,117.48-19.95,75.19-135.04,74.84-155.54-.8-14.2-52.41,6.55-111.03,66.47-116.68ZM593.74,129.35c-28,4.38-28.02,42-25.82,63.83,2.41,23.99,15.08,37.74,40.44,34.37,26.79-3.56,28.78-40.65,26.87-61.51-2.24-24.54-14.81-40.86-41.49-36.68Z"/>
        <path class="cls-1" d="M998.54,190.21h-107.69c-.57,54.27,64.38,43.34,97.67,27.46v36.19c-60.02,24.69-139.94,13.01-145.31-64.23-4.42-63.52,33.17-109.99,100.27-96.2,47.95,9.85,58.29,53.86,55.05,96.77ZM954.71,159.01c-.82-12.32-6.42-28.43-19.33-32.53-25.07-7.97-43,7.58-44.54,32.53h63.86Z"/>
        <path class="cls-1" d="M487.62,253.24c-35.46,15.86-91.78,18.9-123.31-6.9-43.48-35.58-46.52-121.34-15.98-165.62,34.25-49.65,97.7-48,148.05-25.28-3.56,4.99-12.09,34.84-14.97,36.9-1.08.77-1.76.49-2.89.33-6.86-.96-20.94-9.11-30.18-11.21-37.08-8.42-62.22,9.85-69.11,46.28-5.48,29-3.46,82.02,29.51,94.28,26.79,9.96,52.78-.45,78.88-6.85v38.07Z"/>
        <path class="cls-1" d="M753.72,94.11c2.58.82,6.35,21.76,7.81,25.97.56,1.62-.52,3.28,2.19,2.75,12.93-23.19,39.36-37.46,65.83-29.2l-3.84,42.93c-18.79-4.48-46.99.55-55.72,19.95-.53,1.17-3.13,8.87-3.13,9.37v94.85c0,.13-1.75,1.87-1.88,1.87h-43.83c-.13,0-1.88-1.74-1.88-1.87V95.98c0-.13,1.75-1.87,1.88-1.87h32.56Z"/>
      </g>
      <g>
        <path class="cls-2" d="M123.22.5c18.75,3.35,36.92,7.95,53.87,16.82,142.84,74.77,82.05,293.87-83.35,282.77-35.23-2.36-67.33-19.77-93.24-42.49v-2.5l53.22-52.4c38.78,40.6,111.35,22.14,125.23-32.46,19.14-75.27-70.29-125.79-125.23-72.42L.5,45.43v-2.5C19.62,26.63,39.77,13.04,64.37,6.12L90.66.5h32.56Z"/>
        <ellipse class="cls-2" cx="106.8" cy="150.29" rx="37.86" ry="37.73"/>
      </g>
    </g>
  </g>
</svg>