<?xml version="1.0" encoding="UTF-8"?>
<svg id="Layer_2" data-name="Layer 2" xmlns="http://www.w3.org/2000/svg" viewBox="0 0 1729.72 335.21">
  <defs>
    <style>
      .cls-1, .cls-2 {
        fill: #fff;
      }

      .cls-2 {
        font-family: SinhalaSangamMN-Bold, 'Sinhala Sangam MN';
        font-size: 303.56px;
        font-weight: 700;
        letter-spacing: .03em;
      }
    </style>
  </defs>
  <g id="Layer_1-2" data-name="Layer 1">
    <g>
      <g id="_80116g" data-name="80116g">
        <g>
          <path class="cls-1" d="M160.56.83c5.7,1.29,11.63,1.43,17.4,2.47,59.68,10.83,108.58,60.04,119.57,119.62l2.47,18.15v19.5l-2.47,18.15c-10.98,59.56-59.92,108.8-119.57,119.62-5.77,1.05-11.69,1.18-17.4,2.47h-20.99c-5.7-1.29-11.63-1.43-17.4-2.47-59.66-10.82-108.59-60.06-119.57-119.62L.13,160.58c.3-6.44-.4-13.08,0-19.5C4.71,68.4,64.96,5.67,138.38,1.53l1.19-.69h20.99ZM100.59,154.58h65.97c2,15.23,22.46,19.22,31.49,7.12,11.11-14.87-4.69-34.49-21.51-27.52-5.99,2.48-8.51,7.38-11.1,12.9h-64.85l.97-1.68,99.48-49.74c3.2-1.37,4.45,2.06,6.98,3.58,13.92,8.35,31.52-5.61,26.39-21.15-5.9-17.86-30.83-15.89-34.96,2.14h-40.66c-1.3-.44-1.41-3.43-2.38-5.11-8.85-15.23-29.93-11.52-33.78,5.26l-21.93-.15c-2.61-10.43-12.69-17.15-23.34-13.77-17.18,5.46-16.18,29.59.79,34.58l-.02,32.04c-17.75,6.52-17.62,28.93,0,35.51l.02,32.04c-9.97,3.26-15.86,13.25-12.2,23.49,6,16.76,29.37,15.38,34.35-1.33,3.61.66,21.67-1.03,23.16.79.55.67.74,2.54,1.53,3.72,9.43,13.96,27.52,10.8,33.03-4.51h41.82c4.98,16.98,29.12,17.98,34.56.79,4.96-15.68-12.45-29.52-26.39-21.15-2.53,1.52-3.77,4.94-6.98,3.58l-99.48-49.74-.97-1.68Z"/>
          <path class="cls-1" d="M199.54,87.08l-1.73,2.4-98.35,48.61,31.24-38.12c2.74-.31,4.85,1.14,7.7,1.39,10.59.92,16.82-4.73,20.28-14.28h40.86Z"/>
          <path class="cls-1" d="M157.56,213.08c-2.94-10.22-11.15-13.9-21.32-12.71-1.91.22-3.51,2.5-5.32.76l-32.2-38.31,100.08,50.26h-41.23Z"/>
          <path class="cls-1" d="M123,87.16l2.74,8.14-34.51,39.57-3.26-1.41-.04-32.79c6.53-1.2,11.26-7.25,12.76-13.48l22.31-.03Z"/>
          <path class="cls-1" d="M99.92,213c-1.27-5.91-6.4-10.69-12.12-12.37l.02-32.04,3.41-1.79,34.77,40.02-3.39,6.16h-22.68Z"/>
          <g>
            <ellipse class="cls-1" cx="217.16" cy="83.66" rx="10.85" ry="10.85"/>
            <ellipse class="cls-1" cx="82.85" cy="218.01" rx="10.84" ry="10.85"/>
            <ellipse class="cls-1" cx="82.82" cy="83.66" rx="10.83" ry="10.84"/>
            <ellipse class="cls-1" cx="217.17" cy="218.02" rx="10.83" ry="10.83"/>
            <ellipse class="cls-1" cx="140.4" cy="83.66" rx="10.81" ry="10.81"/>
            <ellipse class="cls-1" cx="140.41" cy="217.99" rx="10.82" ry="10.82"/>
            <ellipse class="cls-1" cx="82.84" cy="150.86" rx="10.79" ry="10.79"/>
            <ellipse class="cls-1" cx="183.56" cy="150.83" rx="10.78" ry="10.78"/>
          </g>
        </g>
      </g>
      <text class="cls-2" transform="translate(345.31 255.17)"><tspan x="0" y="0">Eternal AI</tspan></text>
    </g>
  </g>
</svg>