<svg width="104" height="34" viewBox="0 0 104 34" fill="none" xmlns="http://www.w3.org/2000/svg">
<path fill-rule="evenodd" clip-rule="evenodd" d="M14.8004 33.2C23.7004 34.5 32.0004 28.3 33.3004 19.4C34.6004 10.5 28.4004 2.20001 19.5004 0.800009C10.6004 -0.499991 2.30039 5.70001 1.00039 14.6C-0.299613 23.5 5.90039 31.9 14.8004 33.2ZM18.8031 9.79998C18.8031 9.69998 21.2031 5.09998 24.5031 7.19998C26.1031 8.19998 25.1031 8.89998 24.8031 8.79998C24.8031 8.79998 24.0031 8.99998 23.6031 7.99998C23.0031 6.59998 21.9031 7.39998 21.7031 7.59998C21.6475 7.66949 21.5933 7.73561 21.5403 7.80034C20.8307 8.66681 20.3266 9.28226 19.3031 14.4L23.5031 15L23.3031 16.2L19.1031 15.6V15.7L18.9031 17C18.9031 17 18.8031 17.4 18.7031 18L23.0031 18.6L22.8031 19.8L18.5031 19.2C18.2031 20.6 17.4031 23.7 16.8031 24.8C16.8031 24.9 14.4031 29.5 11.1031 27.4C9.50308 26.3 10.5031 25.7 10.7031 25.7C10.7031 25.7 11.5031 25.5 11.9031 26.5C12.5031 27.9 13.6031 27.1 13.8031 26.9C14.6031 26 15.4031 24.3 16.5031 18.8L12.3031 18.2L12.5031 17L16.7031 17.6V17.5L16.9031 16.2C16.9031 16.2 17.0031 15.8 17.1031 15.2L12.9031 14.6L13.1031 13.4L17.4031 14C17.7031 12.7 18.2031 10.9 18.8031 9.79998Z" fill="white"/>
<path fill-rule="evenodd" clip-rule="evenodd" d="M47.8016 16.1H41.8016V11.2H48.0016L48.1016 9.70004H40.1016V24.2H41.8016V17.5H47.8016V16.1ZM51.7016 9.70004H50.1016V11.6H51.7016V9.70004ZM51.7016 13.5H50.1016V24.2H51.7016V13.5ZM56.1016 9.60004L54.5016 9.80004V19.7C54.5016 23.2 54.6016 24.5 57.2016 24.5C57.6016 24.5 57.9016 24.4 58.3016 24.4L58.2016 23C57.7016 23 57.6016 23.1 57.3016 23.1C56.2016 23.1 56.1016 22.4 56.1016 20.1V9.60004ZM64.1016 24.4C61.1016 24.4 59.2016 22.2 59.2016 18.8C59.2016 15.6 61.1016 13.3 63.9016 13.2C66.5016 13.2 68.2016 15.2 68.2016 18.3C68.2016 18.5 68.2016 18.9 68.2016 19H60.9016C60.9016 21.4 62.3016 22.9 64.2016 22.9C65.4016 22.9 66.6016 22.5 67.6016 21.8L68.1016 23C67.1016 23.9 65.8016 24.4 64.1016 24.4ZM60.9016 18H66.6016C66.6016 15.7 65.5016 14.6 63.9016 14.6C62.3016 14.6 61.1016 16 60.9016 18ZM77.7016 23.5C77.0016 24.2 75.9016 24.5 74.8016 24.5C71.5016 24.5 69.7016 21.9 69.7016 18.9C69.7016 15.9 71.6016 13.3 74.8016 13.3C76.0016 13.3 77.1016 13.7 77.7016 14.2L77.3016 15.4C76.6016 14.9 75.7016 14.7 74.8016 14.7C72.9016 14.7 71.4016 16.5 71.4016 19C71.4016 21.5 72.8016 23.2 75.0016 23.2C75.9016 23.2 76.7016 22.9 77.4016 22.4L77.7016 23.5ZM87.2016 18.9C87.2016 16.6 86.4016 14.6 84.0016 14.6C81.7016 14.6 80.7016 16.7 80.7016 18.9C80.7016 21.1 81.8016 23.1 84.1016 23.1C86.4016 23.1 87.2016 21.1 87.2016 18.9ZM88.9016 18.9C88.9016 21.8 87.2016 24.5 84.0016 24.5C80.8016 24.5 79.0016 22 79.0016 19C79.0016 16 80.8016 13.4 84.1016 13.4C87.2016 13.3 88.9016 15.8 88.9016 18.9ZM92.8016 9.70004H91.2016V11.6H92.8016V9.70004ZM92.8016 13.5H91.2016V24.2H92.8016V13.5ZM100.502 13.3C99.0016 13.3 97.5016 14 96.7016 15.1L96.6016 13.5H95.2016V16.1V24.2H96.8016V16.9C97.1016 15.9 98.3016 14.7 100.102 14.7C102.102 14.7 102.202 16.1 102.202 18.9V24.2H103.802V17.8C103.902 14.8 102.902 13.3 100.502 13.3Z" fill="white"/>
</svg>
