<svg width="164" height="30" viewBox="0 0 164 30" fill="none" xmlns="http://www.w3.org/2000/svg">
<g clip-path="url(#clip0_713_5768)">
<path fill-rule="evenodd" clip-rule="evenodd" d="M20.3885 0C22.6406 0 24.4662 1.79086 24.4662 4V18L12.2331 30H4.0777C1.82565 30 0 28.2091 0 26V4C0 1.79086 1.82565 0 4.0777 0H20.3885ZM12.2331 26V18H20.3885V4H4.0777V26H12.2331Z" fill="white"/>
<path d="M32.1094 23.3368V12.4945C32.1094 11.6076 32.328 10.8168 32.7653 10.1221C33.2025 9.41262 33.7981 8.85092 34.552 8.43704C35.321 8.02316 36.1804 7.81622 37.1303 7.81622H43.2142V11.2529H37.7636C37.3866 11.2529 37.07 11.3785 36.8137 11.6298C36.5573 11.8811 36.4292 12.1841 36.4292 12.5389V14.5122H42.4904V17.8824H36.4292V23.3368H32.1094Z" fill="white"/>
<path d="M46.0542 23.3368V11.9181H49.9895V23.3368H46.0542ZM48.0219 10.6764C47.4188 10.6764 46.8986 10.4621 46.4613 10.0334C46.0391 9.60476 45.8281 9.10219 45.8281 8.52571C45.8281 7.93445 46.0391 7.43188 46.4613 7.01799C46.8986 6.58933 47.4188 6.375 48.0219 6.375C48.625 6.375 49.1376 6.58933 49.5598 7.01799C49.9971 7.43188 50.2157 7.93445 50.2157 8.52571C50.2157 9.10219 49.9971 9.60476 49.5598 10.0334C49.1376 10.4621 48.625 10.6764 48.0219 10.6764Z" fill="white"/>
<path d="M53.3906 23.3368V7.151H57.3033V23.3368H53.3906Z" fill="white"/>
<path d="M67.0375 23.3368C65.7257 23.3368 64.5647 23.1076 63.5545 22.6494C62.5594 22.1912 61.7678 21.5334 61.1798 20.6761C60.6068 19.8188 60.3203 18.8062 60.3203 17.6385C60.3203 16.3377 60.5993 15.2439 61.1572 14.357C61.715 13.4701 62.4538 12.7976 63.3736 12.3393C64.2933 11.8811 65.2809 11.652 66.3364 11.652C67.4823 11.652 68.4699 11.8885 69.2992 12.3615C70.1435 12.8197 70.7919 13.4701 71.2442 14.3127C71.7116 15.1552 71.9453 16.1382 71.9453 17.2616C71.9453 17.4981 71.9302 17.7715 71.9001 18.0819C71.885 18.3776 71.8473 18.6289 71.787 18.8358H64.3913C64.4818 19.161 64.625 19.4344 64.8211 19.6562C65.0321 19.8631 65.3035 20.0183 65.6353 20.1218C65.982 20.2253 66.3741 20.277 66.8113 20.277H70.6562V23.3368H67.0375ZM64.2556 16.5964H68.2362C68.2362 16.3747 68.206 16.1751 68.1457 15.9978C68.0854 15.8056 68.0025 15.6282 67.8969 15.4656C67.7914 15.303 67.6632 15.1626 67.5124 15.0443C67.3617 14.9261 67.1807 14.8374 66.9696 14.7783C66.7585 14.7192 66.5324 14.6896 66.2911 14.6896C65.9745 14.6896 65.6956 14.7413 65.4543 14.8448C65.2131 14.9483 65.0095 15.0887 64.8437 15.2661C64.6778 15.4287 64.5421 15.6282 64.4366 15.8647C64.3461 16.0864 64.2858 16.3303 64.2556 16.5964Z" fill="white"/>
<path d="M86.5592 23.6028C85.6244 23.6028 84.7498 23.4107 83.9356 23.0263C83.1365 22.642 82.4881 22.0803 81.9906 21.3413C81.5081 20.6022 81.2668 19.7227 81.2668 18.7028V12.3172C81.2668 12.0954 81.2141 11.9033 81.1086 11.7407C81.0181 11.5633 80.89 11.4303 80.7241 11.3416C80.5583 11.2529 80.3697 11.2085 80.1586 11.2085C79.9475 11.2085 79.759 11.2529 79.5932 11.3416C79.4273 11.4303 79.2916 11.5633 79.1861 11.7407C79.0805 11.9033 79.0278 12.0954 79.0278 12.3172V23.3368H74.8438V12.4724C74.8438 11.4672 75.085 10.5951 75.5675 9.85603C76.05 9.11696 76.6907 8.54787 77.4898 8.14877C78.304 7.73489 79.1936 7.52795 80.1586 7.52795C81.1236 7.52795 82.0056 7.73489 82.8048 8.14877C83.6039 8.54787 84.2447 9.11696 84.7272 9.85603C85.2097 10.5951 85.451 11.4672 85.451 12.4724V18.858C85.451 19.0649 85.5037 19.2571 85.6092 19.4344C85.7148 19.597 85.8505 19.7301 86.0163 19.8335C86.1822 19.9222 86.3632 19.9666 86.5592 19.9666C86.7552 19.9666 86.9362 19.9222 87.102 19.8335C87.2829 19.7301 87.4261 19.597 87.5316 19.4344C87.6372 19.2571 87.6899 19.0649 87.6899 18.858V12.4724C87.6899 11.4672 87.9312 10.5951 88.4137 9.85603C88.8962 9.11696 89.5371 8.54787 90.3362 8.14877C91.1504 7.73489 92.04 7.52795 93.005 7.52795C93.9549 7.52795 94.8293 7.73489 95.6284 8.14877C96.4275 8.54787 97.0683 9.11696 97.5508 9.85603C98.0333 10.5951 98.2746 11.4672 98.2746 12.4724V23.3368H94.1132V12.2728C94.1132 12.0659 94.0603 11.8811 93.9548 11.7185C93.8492 11.5559 93.7136 11.4303 93.5478 11.3416C93.3819 11.2529 93.201 11.2085 93.005 11.2085C92.7939 11.2085 92.5978 11.2529 92.4168 11.3416C92.251 11.4303 92.1154 11.5559 92.0098 11.7185C91.9194 11.8811 91.874 12.0659 91.874 12.2728V18.7028C91.874 19.7227 91.6252 20.6022 91.1277 21.3413C90.6301 22.0803 89.9818 22.642 89.1826 23.0263C88.3835 23.4107 87.5091 23.6028 86.5592 23.6028Z" fill="white"/>
<path d="M106.389 23.625C105.378 23.625 104.481 23.3737 103.697 22.8711C102.913 22.3686 102.295 21.6812 101.843 20.8091C101.405 19.9222 101.188 18.9171 101.188 17.7937C101.188 16.6112 101.452 15.5543 101.979 14.6231C102.522 13.6918 103.276 12.9675 104.241 12.4502C105.206 11.9181 106.343 11.652 107.655 11.652C108.937 11.652 110.037 11.9107 110.957 12.428C111.892 12.9454 112.617 13.6549 113.129 14.5566C113.642 15.4582 113.897 16.4929 113.897 17.6607V23.3368H110.12V21.563H110.03C109.819 21.9621 109.547 22.3168 109.216 22.6272C108.884 22.9377 108.485 23.1816 108.018 23.3589C107.566 23.5363 107.022 23.625 106.389 23.625ZM107.565 20.277C108.047 20.277 108.463 20.1661 108.81 19.9444C109.156 19.7079 109.427 19.3901 109.623 18.991C109.819 18.5919 109.917 18.1411 109.917 17.6385C109.917 17.1359 109.819 16.6999 109.623 16.3303C109.427 15.946 109.156 15.643 108.81 15.4213C108.463 15.1848 108.047 15.0665 107.565 15.0665C107.097 15.0665 106.683 15.1848 106.321 15.4213C105.974 15.643 105.703 15.946 105.507 16.3303C105.31 16.6999 105.213 17.1359 105.213 17.6385C105.213 18.1411 105.31 18.5919 105.507 18.991C105.703 19.3901 105.974 19.7079 106.321 19.9444C106.683 20.1661 107.097 20.277 107.565 20.277Z" fill="white"/>
<path d="M117.234 23.3368V15.3548C117.234 14.2905 117.543 13.4553 118.161 12.8493C118.795 12.2285 119.669 11.9181 120.785 11.9181H124.358V14.9335H121.983C121.742 14.9335 121.546 15.0074 121.395 15.1552C121.245 15.303 121.169 15.4952 121.169 15.7317V23.3368H117.234Z" fill="white"/>
<path d="M126.922 23.3368V7.151H130.835V16.1751H132.101L134.612 11.9181H139.022L135.969 16.5964C136.813 16.9512 137.461 17.4759 137.914 18.1706C138.366 18.8506 138.592 19.7005 138.592 20.7204V23.3368H134.679V20.7204C134.679 20.3509 134.589 20.0257 134.408 19.7449C134.242 19.464 134.008 19.2423 133.707 19.0797C133.42 18.9171 133.096 18.8358 132.734 18.8358H130.835V23.3368H126.922Z" fill="white"/>
<path d="M148.077 23.3368C146.765 23.3368 145.604 23.1076 144.594 22.6494C143.598 22.1912 142.807 21.5334 142.219 20.6761C141.646 19.8188 141.359 18.8062 141.359 17.6385C141.359 16.3377 141.638 15.2439 142.196 14.357C142.754 13.4701 143.493 12.7976 144.413 12.3393C145.332 11.8811 146.32 11.652 147.375 11.652C148.521 11.652 149.509 11.8885 150.338 12.3615C151.183 12.8197 151.831 13.4701 152.283 14.3127C152.751 15.1552 152.984 16.1382 152.984 17.2616C152.984 17.4981 152.969 17.7715 152.939 18.0819C152.924 18.3776 152.886 18.6289 152.826 18.8358H145.43C145.521 19.161 145.664 19.4344 145.86 19.6562C146.071 19.8631 146.343 20.0183 146.674 20.1218C147.021 20.2253 147.413 20.277 147.85 20.277H151.695V23.3368H148.077ZM145.295 16.5964H149.275C149.275 16.3747 149.245 16.1751 149.185 15.9978C149.124 15.8056 149.042 15.6282 148.936 15.4656C148.83 15.303 148.702 15.1626 148.551 15.0443C148.401 14.9261 148.22 14.8374 148.009 14.7783C147.798 14.7192 147.571 14.6896 147.33 14.6896C147.014 14.6896 146.735 14.7413 146.493 14.8448C146.252 14.9483 146.049 15.0887 145.883 15.2661C145.717 15.4287 145.581 15.6282 145.476 15.8647C145.385 16.0864 145.325 16.3303 145.295 16.5964Z" fill="white"/>
<path d="M160.469 23.3368C159.368 23.3368 158.501 23.0337 157.868 22.4277C157.25 21.8069 156.941 20.9643 156.941 19.9001V9.19086H160.853V19.6118C160.853 19.7744 160.914 19.9148 161.034 20.0331C161.155 20.1366 161.298 20.1883 161.464 20.1883H163.997V23.3368H160.469ZM155.109 14.9335V11.9181H163.997V14.9335H155.109Z" fill="white"/>
</g>
<defs>
<clipPath id="clip0_713_5768">
<rect width="164" height="30" fill="white"/>
</clipPath>
</defs>
</svg>
