<?xml version="1.0" encoding="UTF-8"?>
<svg id="Layer_2" data-name="Layer 2" xmlns="http://www.w3.org/2000/svg" viewBox="0 0 334.54 300">
  <defs>
    <style>
      .cls-1 {
        fill: #fff;
      }
    </style>
  </defs>
  <g id="Layer_1-2" data-name="Layer 1">
    <g>
      <path class="cls-1" d="M249.87,129.52c4.16.11,7.12-.2,11.1,1.5,10.7,4.55,12.2,21.48,6.46,30.27-4.47,6.83-13.72,7.95-21.38,8.22.23,5.81.9,14.97-7.63,14.41-6.25-.41-7.48-7.82-7.15-12.78.12-1.78.88-3.74.96-5.57.48-10.16-.48-20.43.09-30.6,1.5-7.17,11.8-5.6,17.54-5.45ZM246.06,156.02c7.88,2.1,13.36-4.39,9.64-11.48-1.96-3.74-6.01-2.88-9.64-2.93v14.41Z"/>
      <path class="cls-1" d="M333.89,170.33c.43.43.53,1.43.6,2.05.24,2.19-.27,10.55-1.1,12.41s-3.05,2.12-4.94,2.29c-43.17,3.88-42.68-66.37,1.94-61.2,2.21.26,2.78,1.04,3.08,3.19.24,1.71.46,4.91.52,6.71.41,11.1-2.28,6.12-9.82,7.04-14.68,1.78-14.55,25.69.48,27.36,2.3.26,8.04-1.03,9.23.17Z"/>
      <path class="cls-1" d="M283.28,126.96c4.83-.27,7.95,3.86,8.33,8.3,1.19,13.82-.89,29.34-.06,43.34-1.48,9.75-15.01,9.48-15.88-.42-1.24-14.09.93-30.03.06-44.31.4-3.49,4.1-6.72,7.55-6.91Z"/>
      <g>
        <path class="cls-1" d="M0,180.33v-47.71c4.38-8.8,15.05-6.96,15.92,3.12.93,10.8.81,30.11,0,41s-10.93,12.26-15.93,3.59Z"/>
        <path class="cls-1" d="M36.03,126.01c2.29-.31,5.75-.29,8.09-.14,2.04.12,6.76.24,7.35,2.29.33,1.14.27,10.74-.15,11.69-1.56,3.54-8.78-1.22-11.27,2.71-3.23,5.09,5.81,9.55,8.64,12.95,10.13,12.18,2.87,30.29-13.75,31.57-2.43.19-11.43.77-12.19-1.78.05-3.06-1.41-10.46-.22-13.04,1.75-3.81,8.49,1.56,10.93-3.05s-4.88-9.13-7.42-12.26c-8.51-10.46-4.56-28.97,9.99-30.94Z"/>
        <path class="cls-1" d="M154.71,135.04c.03,1.75-1.69,5.55-3.37,6.26-2.85,1.22-6.58.11-7.6,4.69-.77,10.2.64,21.11-.09,31.23-.38,5.25-1.64,8.08-7.5,7.97-4.19-.08-6.43-1.91-6.93-6.11-1.22-10.32.89-22.56-.16-33.09-1.68-6.68-10.62-1.76-11.01-9.74-.22-4.52,1.26-7.91,6.06-8.44,5.15-.58,19.99-.64,25.02.04,1.38.19,3.33.97,4.15,2.12.56.78,1.42,4.19,1.44,5.07Z"/>
        <path class="cls-1" d="M60.79,143.17c-1.28-2.03,5.99-9.43,7.65-10.79,15.16-12.43,37.66-6.15,45.78,11.09-2.63.94-12.1,6.72-14.19,6.52-1.4-.14-2.18-2.2-3.14-3.16-4.48-4.42-9.81-6.03-15.76-3.21-2.07.98-5.6,5.3-6.68,5.4-.74.07-13.26-5.23-13.66-5.86Z"/>
        <path class="cls-1" d="M84.23,170.81c1.16,1.33.11,3.95.09,5.41-.04,3.62.07,7.25.02,10.86-18.65-1.11-31.42-20.76-26.51-38.55.65-.56,12.37,5.52,14.23,6.25,1.46,1.32,1.26,4.59,1.94,6.74.8,2.56,2.87,5.44,5.07,6.98,1.13.79,4.89,2.01,5.16,2.32Z"/>
        <path class="cls-1" d="M116.15,149.49c4.53,17.13-7.82,35.67-25.49,37.55-.77-.53-.89-14.66,0-16.06.69-1.08,5.04-2.79,6.9-5.15,2.68-3.4,2.1-5.41,3.28-8.77.65-1.85,12.78-6.5,15.31-7.57Z"/>
        <g>
          <path class="cls-1" d="M210.14.11c21.64,2.75,26.97,34.58,6.29,44.6-2.01.97-6.26,1.42-6.65,3.45l-3.49,62.06c.26,2.56,1.64,5.67,3.37,7.58,1.13,1.26,10.71,7.36,12.39,7.98,4.78,1.77,9.09-2.09,13.31-3.83,6.77-2.8,13.82-5.02,20.56-7.87,1.79-.76,9.63-3.99,10.04-5.39.35-1.19.01-2.98.31-4.51,3.38-17.61,30.49-14.72,28.22,5.09-.74,6.47-8.29,12.18-14.68,11.81-3.9-.23-6.06-2.86-9.53-3.3l-21.09,10.52c-5.81-.16-16.21-1.78-17.72,5.65-.58,10.54.39,21.18-.09,31.71-.09,1.89-.85,3.92-.97,5.77-.33,5.14.9,12.82,7.22,13.25l41.57,29.51c5.29.53,8.76-1.33,13.61,2.3,12.16,9.09-1.16,28.59-14.38,19.68-5.63-3.8-3.86-9.27-6.35-11.96-16.06-10.87-31.44-22.93-47.97-33-6.96-2.86-12.6,2.67-18.66,4.93-4.06,1.52-8.11,1.52-11.65,4.25-2.67,2.06-4.52,5.31-6.39,8.07l-19.11,42.6c-.38,2.32,2.98,2.96,4.69,4.27,16.96,13,8.91,42.43-13.7,44.52-33.89,3.13-37.3-38.97-13.38-47.59,3.14-1.13,9.57-1.25,11.44-3.5,5.38-13.03,13.62-26.54,17.97-39.86s-8.31-15.62-15.55-23.24c-10.94-11.54-14.55-29.6-8.43-44.34,1.68-.72,3.41-4.52,3.37-6.26,6.69-8.8-2.99-11.69-7.72-17.58-3.44-3.55-8.42-10.06-12.28-12.78-2.81-1.98-4.8.11-7.76.43-13.25,1.44-22.22-12.92-16.01-24.68,6.52-12.34,25.12-11.03,30.03,2.09,2.13,5.69-.16,8.93,1.19,14.23l22.23,21.62c4.99,2.4,9.4-.8,14.05-2.26,7.54-2.36,13.89-2.7,15.75-12.2l3.42-57.28c-.22-1.42-6.8-4.87-8.47-6.51-13.38-13.15-5.66-36.27,12.31-40.02,2.75.25,6.01-.34,8.68,0ZM224.31,156.58c0-18.62-15.1-33.72-33.72-33.72s-33.72,15.1-33.72,33.72,15.1,33.72,33.72,33.72,33.72-15.1,33.72-33.72Z"/>
          <g>
            <path class="cls-1" d="M217.81,143.67c-.6.85-11.94,5.12-13.72,6.3-.87-.01-4.12-4.5-5.56-5.5-6.9-4.81-15.73-1.78-19.96,4.92l-14.17-6.86c9.44-20.02,36.69-22.5,50.27-5.03.67.86,3.68,5.43,3.14,6.18Z"/>
            <path class="cls-1" d="M188.45,186.36c-.12.39-.7.67-1.16.7-1.19.08-5.52-1.3-6.88-1.82-14.96-5.71-22.34-21.84-18.46-37.19,3.61,2.21,10.53,3.96,13.66,6.34,2.22,1.69,1.45,3.75,2.09,6.1.82,3,2.51,5.66,5.01,7.52,1.98,1.48,4.11,1.74,5.74,3.42-.71,3.77.95,11.73,0,14.94Z"/>
            <path class="cls-1" d="M194.23,171.42c.29-1.37,6.13-3.99,7.92-6.54s2.33-8.11,3.45-9.08c.61-.53,11.62-5.77,12.71-6.09.56-.16,1.09-.31,1.69-.24,4.77,16.64-8.15,36.3-25.77,37.12.64-4.32-.86-11.2,0-15.18Z"/>
          </g>
        </g>
      </g>
    </g>
  </g>
</svg>