<?xml version="1.0" encoding="UTF-8"?>
<svg id="Layer_2" data-name="Layer 2" xmlns="http://www.w3.org/2000/svg" viewBox="0 0 1758.05 400.61">
  <defs>
    <style>
      .cls-1 {
        fill: #fff;
      }
    </style>
  </defs>
  <g id="Layer_1-2" data-name="Layer 1">
    <g>
      <path class="cls-1" d="M602.75,145.88h-25.75c-1.63,0-3.25.53-4.61,1.86-1.08,1.06-1.9,2.66-1.9,4.53v171.36c0,1.6.81,3.19,1.9,4.53,1.08,1.06,2.71,1.86,4.61,1.86h25.75c1.63,0,3.25-.53,4.61-1.86,1.09-1.06,1.9-2.66,1.9-4.53v-171.63c0-1.6-.81-3.19-1.9-4.26-1.35-1.06-2.98-1.86-4.61-1.86ZM824.48,145.88h-141.77c-1.63,0-3.25.53-4.61,1.86-1.09,1.06-1.9,2.66-1.9,4.53v22.88c0,1.6.81,3.19,1.9,4.52,1.08,1.06,2.71,1.86,4.61,1.86h51.5v142.1c0,1.6.81,3.19,1.9,4.53,1.08,1.06,2.71,1.86,4.61,1.86h26.02c1.63,0,3.25-.53,4.61-1.86,1.09-1.06,1.9-2.66,1.9-4.53v-142.36h51.5c1.63,0,3.25-.53,4.61-1.86,1.08-1.06,1.9-2.66,1.9-4.52v-22.89c0-.8-.27-1.6-.54-2.39-.27-.8-.81-1.6-1.36-2.13-.54-.53-1.36-1.07-2.17-1.33-1.08,0-1.9-.26-2.71-.26ZM1039.71,145.88h-25.21c-.81,0-1.63.26-2.44.53-.81.27-1.63.8-2.17,1.33-.54.53-1.08,1.33-1.36,2.13-.27.8-.54,1.6-.54,2.4v67.32h-72.11v-67.32c0-1.6-.81-3.19-1.9-4.53-1.08-1.06-2.98-1.86-4.61-1.86h-25.75c-1.63,0-3.25.53-4.61,1.86-1.08,1.06-1.9,2.66-1.9,4.53v171.36c0,1.6.54,3.19,1.9,4.53,1.08,1.06,2.71,1.86,4.61,1.86h25.75c1.63,0,3.25-.53,4.61-1.86,1.08-1.06,1.9-2.66,1.9-4.53v-68.12h72.11v67.85c0,.8.27,1.6.54,2.4.27.8.81,1.6,1.36,2.13.54.53,1.36,1.06,2.17,1.33.81.27,1.63.53,2.44.53h25.48c.81,0,1.63-.26,2.44-.53.81-.26,1.63-.8,2.17-1.33.54-.53,1.08-1.33,1.35-2.13.27-.8.54-1.6.54-2.4v-171.37c0-1.6-.81-3.19-1.9-4.26-1.36-1.06-2.98-1.86-4.88-1.86ZM1259.55,294.36h-89.99v-38.85h85.39c.81,0,1.63-.26,2.44-.53.81-.26,1.63-.8,2.17-1.33.54-.53,1.09-1.33,1.36-2.13.27-.8.54-1.6.54-2.4v-23.15c0-.8-.27-1.6-.54-2.4-.27-.8-.81-1.6-1.36-2.13-.54-.53-1.35-1.06-2.17-1.33-.81-.27-1.63-.53-2.44-.53h-85.39v-38.05h89.18c1.63,0,3.25-.8,4.61-1.86,1.08-1.06,1.9-2.92,1.9-4.52v-22.88c0-.8-.27-1.6-.54-2.4-.27-.8-.81-1.6-1.35-2.13-.54-.53-1.36-1.06-2.17-1.33-.81-.26-1.63-.53-2.44-.53h-120.62c-1.63,0-3.25.8-4.61,1.86-1.09,1.06-1.9,2.66-1.9,4.53v171.36c0,1.6.54,3.19,1.9,4.53,1.08,1.06,2.71,1.86,4.61,1.86h121.71c1.63,0,3.25-.8,4.61-1.86,1.08-1.06,1.9-2.66,1.9-4.53v-23.15c0-.8-.27-1.6-.54-2.4-.27-.8-.81-1.6-1.36-2.13-.54-.53-1.36-1.07-2.17-1.33-.81-.53-1.9-.53-2.71-.26ZM1484.81,145.88h-25.75c-1.63,0-3.26.53-4.61,1.86-1.08,1.06-1.9,2.66-1.9,4.53v119.74c0,18.63-18.43,25.28-35.78,25.28-24.94,0-37.41-8.51-37.41-25.28v-120.01c0-1.6-.54-3.19-1.9-4.52-1.08-1.07-2.71-1.87-4.61-1.87h-25.75c-1.63,0-3.25.53-4.61,1.87-1.08,1.06-1.9,2.66-1.9,4.52v121.34c0,37.52,26.84,58.27,75.36,58.27s75.08-21.29,75.08-56.68v-122.94c0-1.6-.81-3.19-1.9-4.26-1.08-1.06-2.71-1.86-4.34-1.86ZM1751.54,145.88h-34.7c-1.35,0-2.71.26-3.79,1.06-1.1.8-1.9,1.86-2.43,2.93l-45.01,122.41-43.9-122.41c-.55-1.33-1.35-2.4-2.43-3.19-1.1-.8-2.45-1.07-3.8-1.07h-35.52c-1.61,0-3.24.8-4.6,1.87-1.08,1.06-1.9,2.66-1.9,4.52v171.37c0,1.6.82,3.19,1.9,4.53,1.08,1.06,2.71,1.86,4.6,1.86h24.14c1.63,0,3.26-.8,4.61-1.86,1.08-1.07,1.89-2.66,1.89-4.53v-95l34.97,97.13c.55,1.33,1.35,2.4,2.45,3.19,1.08.8,2.43,1.06,3.79,1.06h26.83c1.37,0,2.72-.53,3.8-1.06,1.08-.8,1.9-1.86,2.43-2.93l36.05-97.92v95.79c0,1.6.82,3.19,1.9,4.53,1.08,1.06,2.98,1.86,4.61,1.86h24.12c1.63,0,3.26-.8,4.61-1.86,1.08-1.06,1.9-2.66,1.9-4.53v-171.63c0-1.6-.82-3.19-1.9-4.26-1.35-1.06-2.98-1.86-4.61-1.86Z"/>
      <path class="cls-1" d="M334.46,321.84c1.75-1.93,3.88-3.68,6.4-4.84,2.52-1.16,5.04-1.94,7.76-1.94l12.03-67.54c-1.36-.58-2.52-1.35-3.69-2.13l-52.38,46.25c1.55,2.9,2.52,6.2,2.52,9.68,0,1.74-.19,3.68-.77,5.42l28.13,15.09ZM455.52,373.9l-74.69-128.89c-3.1,2.52-6.98,3.87-11.06,4.06l-12.22,67.54c3.3,1.36,6.21,3.68,8.53,6.77,2.14,2.9,3.49,6.39,3.88,10.06.39,3.68-.39,7.35-1.94,10.64-1.55,3.29-4.08,6.19-7.18,8.13-3.11,1.94-6.6,3.1-10.28,3.29-3.69.19-7.37-.58-10.48-2.32-3.3-1.74-6.01-4.26-7.76-7.55-1.94-3.1-2.91-6.77-2.91-10.45,0-1.74.19-3.68.78-5.42l-28.32-15.29c-3.49,3.87-8.15,6.39-13.39,6.77l-7.76,57.29c4.46,1.55,8.15,4.65,10.48,8.71,2.33,4.06,3.3,8.71,2.52,13.35h146.28c3.1,0,6.21-.77,8.93-2.32,2.71-1.55,5.04-3.87,6.6-6.58,1.55-2.71,2.33-5.81,2.33-8.9s-.78-6.2-2.33-8.9ZM229.9,223.14c-2.14-3.29-3.3-7.16-3.3-11.03s.97-7.35,2.91-10.45l-70.42-67.93c-2.14,1.35-4.46,2.32-6.98,2.9l-5.24,162.95c1.94.58,3.69,1.35,5.43,2.32l77.6-78.77ZM168.59,116.51c0,3.68-.97,7.35-2.91,10.45l70.42,67.93c3.3-2.13,7.18-3.29,11.06-3.29,5.04,0,9.89,1.93,13.77,5.23,3.69,3.48,6.01,8.13,6.6,13.16l82.26,11.22c.97-2.52,2.52-4.84,4.46-6.77,1.94-1.93,4.07-3.48,6.6-4.64L244.45,8.9c-1.55-2.71-3.88-5.03-6.6-6.58-2.72-1.55-5.82-2.32-8.92-2.32s-6.21.78-8.93,2.32c-2.72,1.55-5.04,3.87-6.6,6.58l-52.96,91.35c2.52,1.93,4.66,4.26,6.01,7.16,1.36,2.9,2.14,6,2.14,9.1ZM267.53,308.1l-105.34,13.16c-.19,1.36-.39,2.71-.77,4.06l97.78,58.25c3.3-3.48,7.95-5.61,12.8-6.19l7.76-57.29c-2.71-.97-5.24-2.52-7.18-4.64-2.52-2.13-4.08-4.45-5.04-7.35ZM247.16,232.43c-3.69,0-7.37-.97-10.67-2.9l-77.41,78.76c.77,1.16,1.36,2.52,1.94,3.87l105.34-13.16c.39-2.71,1.16-5.42,2.52-7.94,1.36-2.52,3.3-4.45,5.43-6.19l-23.47-52.83c-.97.39-2.33.39-3.69.39ZM156.37,333.45c-2.13,2.32-4.85,4.06-7.95,5.03-3.1.97-6.21,1.36-9.31.97-3.1-.39-6.21-1.55-8.73-3.48-2.71-1.74-4.85-4.26-6.4-6.97-1.55-2.71-2.33-6-2.52-9.09-.19-3.1.58-6.39,1.94-9.29,1.36-2.9,3.3-5.42,5.82-7.35,2.52-1.93,5.43-3.29,8.54-3.87l5.24-162.95c-.97-.19-1.75-.58-2.72-.97L2.33,373.71c-1.55,2.71-2.33,5.8-2.33,8.9s.78,6.19,2.33,8.9c1.55,2.71,3.88,5.03,6.6,6.58,2.72,1.55,5.82,2.32,8.92,2.32h235.52c-.19-.97-.19-1.94-.19-3.1,0-2.13.39-4.26.97-6.19l-97.78-57.67ZM286.55,281.2c4.27,0,8.34,1.16,11.83,3.68l52.38-46.26c-1.36-2.32-2.14-5.03-2.33-7.74l-82.26-11.23c-1.36,3.48-3.69,6.58-6.79,8.9l23.48,52.83c1.16-.19,2.33-.39,3.69-.19Z"/>
    </g>
  </g>
</svg>