<svg width="308" height="92" viewBox="0 0 308 92" fill="none" xmlns="http://www.w3.org/2000/svg">
<g clip-path="url(#clip0_406_2)">
<path d="M250.333 9.08655H308V24.9012H251.02V67.532H308V81.9714H250.333C238.8 81.9714 235.917 73.2619 235.917 68.9071V22.1508C235.917 11.6994 245.528 9.08655 250.333 9.08655Z" fill="white"/>
<path d="M-0.929688 70.97V9.77417H14.1735V67.532H71.8404V81.9714H10.0545C1.26715 81.9714 -0.929688 74.6371 -0.929688 70.97Z" fill="white"/>
<path d="M78.019 42.7786V9.77417H93.1223V37.9655H134.999V9.77417H150.103V70.97C147.906 78.671 141.407 81.5131 138.432 81.9714H78.019V66.8444H134.999V53.0925H89.0032C82.1381 53.0925 78.019 46.9042 78.019 42.7786Z" fill="white"/>
<path d="M172.758 81.9714H156.968V20.7757C156.968 13.6247 158.341 11.8369 159.027 11.1493C163.97 7.29876 169.783 11.3785 172.071 13.8997L213.948 55.1552V9.7741H229.051V74.4079C229.051 83.209 220.813 84.0342 218.067 81.9714L172.758 36.5902V81.9714Z" fill="white"/>
</g>
<defs>
<clipPath id="clip0_406_2">
<rect width="308" height="92" fill="white"/>
</clipPath>
</defs>
</svg>
