<svg width="159" height="46" viewBox="0 0 159 46" fill="none" xmlns="http://www.w3.org/2000/svg">
<g clip-path="url(#clip0_713_5759)">
<mask id="mask0_713_5759" style="mask-type:luminance" maskUnits="userSpaceOnUse" x="0" y="0" width="159" height="46">
<path d="M158.5 0.248047H0.5V45.752H158.5V0.248047Z" fill="white"/>
</mask>
<g mask="url(#mask0_713_5759)">
<path d="M123.616 17.2758C127.787 17.2758 132.524 18.8783 132.807 24.0061H126.977C126.855 22.5238 125.479 21.8428 123.657 21.8428C121.956 21.8428 121.187 22.4838 121.187 23.2449C121.187 23.8859 121.673 24.4868 123.212 24.7673L126.896 25.3682C130.58 26.0492 133.01 27.8119 133.01 31.2572C133.01 35.744 128.92 37.8272 123.819 37.8272C118.677 37.8272 114.507 35.704 114.102 30.5361L119.932 30.5761C120.215 32.2587 121.632 33.0199 123.697 33.0199C125.438 33.0199 126.491 32.4991 126.491 31.6578C126.491 31.0168 125.884 30.496 124.588 30.2957L120.62 29.6147C117.219 29.0538 114.871 27.1709 114.871 23.7657C114.871 19.6795 118.393 17.2758 123.616 17.2758ZM99.04 17.3514C101.182 17.3514 102.96 17.9116 104.416 18.832V17.7916H110.963V37.2004H104.416V36.1199C102.96 37.0403 101.182 37.6006 99.04 37.6006C93.7453 37.6006 89.2994 33.2386 89.2994 27.476C89.2994 21.6733 93.7453 17.3514 99.04 17.3514ZM60.6884 9.94683L70.5063 24.5074L80.2835 9.94683H85.3953V37.2228H78.539V23.5447L72.413 32.8907V32.9308H68.5995V32.8907L62.4329 23.4645L62.4735 37.2228H55.6172V9.94683H60.6884ZM143.176 8.81348V25.0988L150.027 17.8164H157.852L150.392 25.739L158.501 37.2228H150.636L145.932 30.5006L143.176 33.4215V37.2228H136.608V8.81348H143.176ZM100.333 22.6338C97.6658 22.6338 95.7257 24.7948 95.7257 27.476C95.7257 30.1572 97.6658 32.2781 100.333 32.2781C101.788 32.2781 103.203 31.878 104.416 30.4773V24.4746C103.203 23.074 101.788 22.6338 100.333 22.6338Z" fill="white"/>
<path fill-rule="evenodd" clip-rule="evenodd" d="M46.004 23C46.004 35.5656 35.8176 45.752 23.252 45.752C10.6864 45.752 0.5 35.5656 0.5 23C0.5 10.4345 10.6864 0.248047 23.252 0.248047C35.8176 0.248047 46.004 10.4345 46.004 23ZM36.9882 24.9631V17.4074H9.35156V33.5765C9.35156 35.0788 10.5889 36.2966 12.1152 36.2966H34.2245C35.7508 36.2966 36.9882 35.0788 36.9882 33.5765V27.2299H32.5244C30.8226 30.6315 27.2652 32.9721 23.1524 32.9721C18.1776 32.9721 14.0155 29.5477 12.9668 24.9632L13.9576 24.9631H36.9882ZM23.1524 30.7229C25.9445 30.7229 28.4081 29.3389 29.8738 27.2299H16.431C17.8967 29.3389 20.3603 30.7229 23.1524 30.7229ZM13.0032 22.8475C13.3012 20.797 15.0929 19.2208 17.2587 19.2208C19.4245 19.2208 21.2162 20.797 21.5142 22.8475H19.1584C18.8994 22.0583 18.1468 21.4875 17.2587 21.4875C16.3706 21.4875 15.618 22.0583 15.359 22.8475H13.0032ZM24.8255 22.8475C25.1235 20.797 26.9152 19.2208 29.081 19.2208C31.2468 19.2208 33.0385 20.797 33.3365 22.8475H30.9807C30.7217 22.0583 29.9691 21.4875 29.081 21.4875C28.1929 21.4875 27.4403 22.0583 27.1813 22.8475H24.8255ZM36.9882 11.8162C36.9882 10.314 35.7508 9.09619 34.2245 9.09619H12.1152C10.5889 9.09619 9.35156 10.314 9.35156 11.8162V15.1407H36.9882V11.8162Z" fill="white"/>
</g>
</g>
<defs>
<clipPath id="clip0_713_5759">
<rect width="159" height="46" fill="white"/>
</clipPath>
</defs>
</svg>
