<?xml version="1.0" encoding="UTF-8"?>
<svg id="Layer_2" data-name="Layer 2" xmlns="http://www.w3.org/2000/svg" viewBox="0 0 1232.84 300">
  <defs>
    <style>
      .cls-1 {
        fill: #fff;
      }
    </style>
  </defs>
  <g id="Layer_1-2" data-name="Layer 1">
    <g>
      <path class="cls-1" d="M194.33,28.84L20.09,224.11"/>
      <path class="cls-1" d="M385.34,69.98L20.09,224.11"/>
      <path class="cls-1" d="M196.93,273.52L19.62,224.35"/>
      <path class="cls-1" d="M199.05,26.95l-56.97,148.23"/>
      <path class="cls-1" d="M205.67,269.74l-62.41-96.45"/>
      <path class="cls-1" d="M198.58,20.57l187.23,35.46"/>
      <path class="cls-1" d="M198.11,18.44l172.81,138.06"/>
      <path class="cls-1" d="M398.58,83.92l-28.13,73.29"/>
      <path class="cls-1" d="M201.19,16.79l9.46,262.88"/>
      <path class="cls-1" d="M392.2,76.83l-182.74,202.13"/>
      <path class="cls-1" d="M358.63,165.96l-140.9,106.15"/>
      <circle class="cls-1" cx="410.17" cy="60.05" r="36.64"/>
      <circle class="cls-1" cx="210.28" cy="272.69" r="27.31"/>
      <circle class="cls-1" cx="201.54" cy="19.74" r="19.74"/>
      <circle class="cls-1" cx="142.44" cy="172.22" r="19.74"/>
      <circle class="cls-1" cx="19.74" cy="224.94" r="19.74"/>
      <circle class="cls-1" cx="370.8" cy="159.69" r="19.74"/>
      <path class="cls-1" d="M501.36,128.22V34.63h17.92l39.85,66.05h-9.49l39.18-66.05h17.78l.27,93.6h-20.32l-.13-62.44h3.74l-31.29,52.55h-9.76l-31.96-52.55h4.55v62.44h-20.32ZM648.98,72.33h45.06v16.85h-45.06v-16.85ZM650.59,110.84h50.94v17.38h-72.47V34.63h70.73v17.38h-49.2v58.83ZM749.52,129.83c-7.49,0-14.66-.98-21.53-2.94-6.86-2.05-12.39-4.68-16.58-7.89l7.35-16.31c4.01,2.85,8.74,5.21,14.17,7.09,5.52,1.78,11.1,2.67,16.71,2.67,4.28,0,7.71-.4,10.3-1.2,2.68-.89,4.64-2.09,5.88-3.61,1.25-1.52,1.87-3.25,1.87-5.21,0-2.5-.98-4.46-2.94-5.88-1.96-1.52-4.54-2.72-7.76-3.61-3.21-.98-6.78-1.87-10.7-2.67-3.83-.89-7.71-1.96-11.63-3.21-3.83-1.25-7.35-2.85-10.56-4.81-3.21-1.96-5.84-4.55-7.89-7.75-1.96-3.21-2.94-7.31-2.94-12.3,0-5.35,1.43-10.21,4.28-14.57,2.94-4.46,7.3-7.98,13.1-10.56,5.88-2.67,13.24-4.01,22.06-4.01,5.88,0,11.68.71,17.39,2.14,5.7,1.34,10.74,3.39,15.11,6.15l-6.69,16.45c-4.37-2.5-8.74-4.32-13.11-5.48-4.37-1.25-8.64-1.87-12.83-1.87s-7.62.49-10.3,1.47c-2.67.98-4.59,2.27-5.75,3.88-1.16,1.52-1.73,3.3-1.73,5.35,0,2.41.98,4.37,2.94,5.88,1.96,1.43,4.54,2.59,7.76,3.48,3.21.89,6.73,1.78,10.56,2.67,3.92.89,7.8,1.92,11.63,3.08,3.92,1.16,7.49,2.72,10.7,4.68,3.21,1.96,5.8,4.55,7.76,7.75,2.05,3.21,3.07,7.26,3.07,12.17,0,5.26-1.47,10.07-4.41,14.44-2.94,4.37-7.35,7.89-13.24,10.56-5.8,2.67-13.15,4.01-22.06,4.01ZM849.49,129.83c-7.4,0-14.26-1.2-20.59-3.61-6.24-2.41-11.67-5.79-16.31-10.16-4.54-4.37-8.11-9.49-10.7-15.38-2.5-5.88-3.74-12.3-3.74-19.25s1.24-13.37,3.74-19.25c2.59-5.88,6.2-11.01,10.83-15.38,4.64-4.37,10.08-7.76,16.32-10.16,6.24-2.41,13.01-3.61,20.32-3.61s14.17,1.2,20.33,3.61c6.24,2.41,11.63,5.79,16.18,10.16,4.63,4.37,8.25,9.49,10.83,15.38,2.58,5.79,3.88,12.21,3.88,19.25s-1.29,13.42-3.88,19.39c-2.58,5.88-6.2,11.01-10.83,15.38-4.55,4.28-9.94,7.62-16.18,10.03-6.15,2.41-12.89,3.61-20.19,3.61ZM849.36,111.37c4.19,0,8.03-.71,11.5-2.14,3.56-1.43,6.68-3.48,9.36-6.15,2.67-2.67,4.72-5.84,6.15-9.49,1.51-3.65,2.28-7.71,2.28-12.17s-.76-8.51-2.28-12.17c-1.43-3.65-3.48-6.82-6.15-9.49-2.59-2.67-5.66-4.72-9.23-6.15-3.56-1.43-7.44-2.14-11.63-2.14s-8.06.71-11.63,2.14c-3.48,1.43-6.55,3.48-9.22,6.15-2.68,2.67-4.77,5.84-6.29,9.49-1.43,3.65-2.14,7.71-2.14,12.17s.72,8.42,2.14,12.17c1.51,3.65,3.56,6.82,6.15,9.49,2.68,2.67,5.8,4.72,9.36,6.15,3.57,1.43,7.45,2.14,11.63,2.14ZM916.85,128.22V34.63h17.91l55.22,67.39h-8.69V34.63h21.4v93.6h-17.78l-55.36-67.39h8.69v67.39h-21.39ZM1031.25,129.29c-3.56,0-6.64-1.2-9.23-3.61-2.5-2.5-3.74-5.66-3.74-9.49s1.24-6.91,3.74-9.23c2.59-2.41,5.66-3.61,9.23-3.61s6.73,1.2,9.23,3.61c2.5,2.32,3.75,5.39,3.75,9.23s-1.25,7-3.75,9.49c-2.5,2.41-5.57,3.61-9.23,3.61ZM501.36,268.39v-93.6h17.92l55.22,67.39h-8.69v-67.39h21.39v93.6h-17.78l-55.36-67.39h8.69v67.39h-21.39ZM629.27,212.5h45.06v16.85h-45.06v-16.85ZM630.87,251h50.94v17.38h-72.47v-93.6h70.73v17.38h-49.2v58.83ZM718.44,268.39v-75.95h-29.96v-17.65h81.57v17.65h-29.95v75.95h-21.66ZM802.34,268.39l-30.62-93.6h22.46l26.61,82.9h-11.23l27.81-82.9h20.06l26.74,82.9h-10.83l27.28-82.9h20.72l-30.62,93.6h-23.27l-23.66-72.74h6.15l-24.33,72.74h-23.27ZM977.85,269.99c-7.4,0-14.26-1.2-20.59-3.61-6.24-2.41-11.68-5.79-16.32-10.16-4.54-4.37-8.11-9.49-10.69-15.38-2.5-5.88-3.75-12.3-3.75-19.25s1.24-13.37,3.75-19.25c2.58-5.88,6.19-11.01,10.83-15.38,4.63-4.37,10.07-7.76,16.31-10.16,6.24-2.41,13.01-3.61,20.32-3.61s14.17,1.2,20.33,3.61c6.24,2.41,11.63,5.79,16.18,10.16,4.63,4.37,8.25,9.49,10.83,15.38,2.58,5.79,3.88,12.21,3.88,19.25s-1.29,13.42-3.88,19.39c-2.58,5.88-6.2,11.01-10.83,15.38-4.54,4.28-9.94,7.62-16.18,10.03-6.15,2.41-12.88,3.61-20.19,3.61ZM977.71,251.54c4.19,0,8.03-.71,11.5-2.14,3.56-1.43,6.69-3.48,9.36-6.15,2.67-2.67,4.73-5.84,6.15-9.49,1.51-3.65,2.27-7.71,2.27-12.17s-.75-8.51-2.27-12.17c-1.43-3.65-3.48-6.82-6.15-9.49-2.58-2.67-5.66-4.72-9.23-6.15-3.56-1.43-7.44-2.14-11.63-2.14s-8.06.71-11.63,2.14c-3.48,1.43-6.56,3.48-9.23,6.15-2.68,2.67-4.77,5.84-6.29,9.49-1.43,3.65-2.14,7.71-2.14,12.17s.71,8.42,2.14,12.17c1.51,3.65,3.56,6.82,6.15,9.49,2.67,2.67,5.79,4.72,9.36,6.15,3.56,1.43,7.44,2.14,11.63,2.14ZM1045.2,268.39v-93.6h40.52c8.38,0,15.59,1.38,21.66,4.15,6.06,2.67,10.74,6.55,14.04,11.63,3.29,5.08,4.95,11.14,4.95,18.18s-1.65,12.97-4.95,18.05c-3.3,4.99-7.98,8.82-14.04,11.5-6.07,2.67-13.28,4.01-21.66,4.01h-28.48l9.62-9.49v35.57h-21.66ZM1104.7,268.39l-23.39-33.96h23.13l23.66,33.96h-23.4ZM1066.86,235.23l-9.62-10.16h27.27c6.69,0,11.68-1.43,14.98-4.28,3.29-2.94,4.95-6.95,4.95-12.03s-1.65-9.18-4.95-12.03c-3.3-2.85-8.29-4.28-14.98-4.28h-27.27l9.62-10.3v53.08ZM1162.91,246.99l-1.21-25,44.8-47.2h24.07l-40.38,43.46-12.03,12.84-15.24,15.91ZM1143.52,268.39v-93.6h21.53v93.6h-21.53ZM1207.57,268.39l-33.29-40.78,14.17-15.38,44.39,56.16h-25.27Z"/>
    </g>
  </g>
</svg>