<?xml version="1.0" encoding="UTF-8"?>
<svg id="Layer_2" data-name="Layer 2" xmlns="http://www.w3.org/2000/svg" viewBox="0 0 920.32 172.84">
  <defs>
    <style>
      .cls-1 {
        fill: #fff;
      }
    </style>
  </defs>
  <g id="Layer_1-2" data-name="Layer 1">
    <path class="cls-1" d="M86.42,0C61.46,0,0,61.46,0,86.42s61.46,86.42,86.42,86.42,86.42-61.46,86.42-86.42S111.38,0,86.42,0ZM72.95,135.84c-10.52-2.87-38.82-52.36-35.95-62.88,2.87-10.52,52.36-38.82,62.88-35.95,10.52,2.87,38.82,52.36,35.95,62.88-2.87,10.52-52.36,38.82-62.88,35.95Z"/>
    <path class="cls-1" d="M293.64,105.57v-.03L244.54,14.97c-.97-1.78-3.64-1.36-4,.64l-24.45,134.51c-.24,1.32.77,2.53,2.11,2.53h18.92c1.04,0,1.93-.74,2.11-1.76l14.24-78.48,38.28,72.97c.8,1.53,3,1.53,3.8,0l38.28-72.97,14.24,78.48c.19,1.02,1.08,1.76,2.11,1.76h18.92c1.34,0,2.35-1.21,2.11-2.53l-24.45-134.51c-.36-2-3.03-2.42-4-.64l-49.12,90.6Z"/>
    <path class="cls-1" d="M450.77,17.51c-38.95,0-69.46,30.27-69.46,68.91s30.51,68.93,69.46,68.93,69.29-30.28,69.29-68.93-30.44-68.91-69.29-68.91ZM450.77,132.28c-25.4,0-45.3-20.15-45.3-45.86s19.9-45.84,45.3-45.84,45.12,20.14,45.12,45.84-19.83,45.86-45.12,45.86Z"/>
    <path class="cls-1" d="M627.11,102.23l-81.45-87.67c-1.33-1.43-3.72-.49-3.72,1.46v134.48c0,1.19.96,2.15,2.15,2.15h19.69c1.19,0,2.15-.96,2.15-2.15v-80.04l81.27,87.83c1.33,1.43,3.72.49,3.72-1.46V22.36c0-1.19-.96-2.15-2.15-2.15h-19.51c-1.19,0-2.15.96-2.15,2.15v79.87Z"/>
    <path class="cls-1" d="M671.8,152.65h21.14c.84,0,1.6-.49,1.95-1.25l15.84-34.3h50.65l15.48,34.28c.35.77,1.11,1.26,1.96,1.26h22.94c1.58,0,2.62-1.66,1.93-3.08L738.71,15.1c-.78-1.62-3.09-1.62-3.87,0l-64.98,134.47c-.69,1.43.35,3.08,1.93,3.08ZM720.66,95.82l15.74-34.16,15.45,34.16h-31.18Z"/>
    <path class="cls-1" d="M855.01,20.21h-32.49c-1.19,0-2.15.96-2.15,2.15v128.14c0,1.19.96,2.15,2.15,2.15h32.49c40.28,0,65.31-25.38,65.31-66.23s-25.03-66.21-65.31-66.21ZM855.01,129.93h-10.48V42.76h10.48c26.15,0,41.15,15.92,41.15,43.67s-15,43.51-41.15,43.51Z"/>
  </g>
</svg>