<svg width="701" height="306" viewBox="0 0 701 306" fill="none" xmlns="http://www.w3.org/2000/svg">
<path d="M294.5 128.94L294.16 128.62L219.1 57.14V68.16L295.44 140.85H300.5V128.94H294.5Z" fill="white"/>
<path d="M216.74 128.94H205.19V140.85H216.74V128.94Z" fill="white"/>
<path d="M219.1 128.94V71.4L294.17 142.88L294.51 143.2H302.86V0.959961H286.44V72.11L211.02 0.959961H202.85V143.2H219.1V128.94ZM205.2 140.85V128.94H216.75V140.85H205.2ZM210.09 3.30996L288.78 77.56V3.30996H300.5V126.59H295.44L216.75 51.66V126.59H205.2V3.30996H210.09ZM295.45 140.85L219.1 68.15V57.14L294.17 128.62L294.51 128.94H300.51V140.85H295.45Z" fill="black"/>
<path d="M356.28 128.94H330.82V140.85H356.28V128.94Z" fill="white"/>
<path d="M384.25 73.35H358.63V85.07H384.25V73.35Z" fill="white"/>
<path d="M398.16 17.5699H358.63V29.1199H398.16V17.5699Z" fill="white"/>
<path d="M467.84 128.94H442.38V140.85H467.84V128.94Z" fill="white"/>
<path d="M495.8 17.5699H470.18V29.1199H495.8V17.5699Z" fill="white"/>
<path d="M440.02 17.5699H414.4V29.1199H440.02V17.5699Z" fill="white"/>
<path d="M205.19 17.5699V126.59H216.75V65.9199V51.6599L295.44 126.59H300.5V17.5699V3.30994H288.78V17.5699V77.5599L210.08 3.30994H205.19V17.5699Z" fill="white"/>
<path d="M330.82 17.5699V126.59H356.28V85.0699V73.3499V70.8099H384.25V59.0899H356.28V29.1199V14.8699H398.15V3.30994H330.82V17.5699Z" fill="white"/>
<path d="M328.47 15.22V143.2H358.63V87.42H386.6V56.74H358.63V31.47H400.51V0.959961H328.48V15.22H328.47ZM398.15 3.30996V14.86H356.27V59.09H384.24V70.81H356.27V126.59H330.81V3.30996H398.14H398.15ZM398.15 29.12H358.62V17.57H398.15V29.12ZM384.25 85.07H358.63V73.35H384.25V85.07ZM330.82 140.85V128.94H356.28V140.85H330.82Z" fill="black"/>
<path d="M442.38 29.1199V126.59H467.83V29.1199V14.8699H495.81V3.30994H414.4V14.8699H442.38V29.1199Z" fill="white"/>
<path d="M412.06 15.22V31.47H440.03V143.2H470.18V31.47H498.15V0.959961H412.05V15.22H412.06ZM414.41 14.87V3.30996H495.81V14.86H467.84V126.59H442.38V14.87H414.41ZM495.81 29.13H470.19V17.58H495.81V29.13ZM442.38 140.86V128.95H467.84V140.86H442.38ZM414.41 17.58H440.03V29.13H414.41V17.58Z" fill="black"/>
<path d="M13.33 235.12C16.36 238.32 19.72 241.53 23.3 244.68C26.89 247.83 30.28 250.91 33.38 253.84C36.48 256.77 39.11 259.6 41.2 262.26C41.57 262.73 41.89 263.18 42.2 263.63V255.79C42.2 254.06 41.24 251.97 39.35 249.56C37.33 246.99 34.77 244.25 31.76 241.4C28.7 238.51 25.33 235.45 21.74 232.3C18.09 229.1 14.69 225.84 11.61 222.59C8.50002 219.32 5.87002 216.02 3.77002 212.79C3.43002 212.26 3.12002 211.74 2.83002 211.21V217C2.83002 219.77 3.81002 222.69 5.74002 225.66C7.76002 228.77 10.31 231.96 13.31 235.12H13.33Z" fill="white"/>
<path d="M56.28 193.64V192.47C56.28 188.33 54.96 185.2 52.26 182.9C50.75 181.62 48.86 180.7 46.62 180.12C45.29 179.92 43.93 179.82 42.55 179.82H30.66V191.21H40.54C46.16 191.21 50.61 192.57 53.78 195.26C56.73 197.77 58.35 201.19 58.6 205.45H69.99C69.85 202.26 69.13 199.18 67.86 196.3C67.45 195.38 66.99 194.51 66.5 193.65H56.29L56.28 193.64Z" fill="white"/>
<path d="M67.84 286.32C69.17 283.07 69.85 279.59 69.85 275.96V273.42C68.41 276.8 66.43 279.85 63.92 282.47C61.31 285.2 58.14 287.37 54.49 288.93C52.11 289.95 48.61 291.09 44.65 291.28H44.38C44.09 291.3 43.81 291.32 43.52 291.32C43.14 291.32 42.76 291.31 42.37 291.29H30.74C29.17 291.38 27.69 291.26 26.29 290.98C23.71 290.62 21.24 289.94 18.89 288.93C15.25 287.37 12.03 285.23 9.32003 282.58C6.82003 280.13 4.80003 277.26 3.28003 274.07C3.65003 279.2 4.24003 284.68 5.02003 286.45C6.46003 289.71 8.46003 292.6 10.96 295.05C13.46 297.5 16.44 299.48 19.81 300.93C23.17 302.37 26.81 303.1 30.65 303.1H42.38C46.44 303.1 50.2 302.37 53.56 300.93C56.92 299.49 59.83 297.49 62.22 295C64.62 292.5 66.51 289.58 67.84 286.32Z" fill="white"/>
<path d="M167.5 179.82H141.88V191.37H167.5V179.82Z" fill="white"/>
<path d="M139.53 291.3H114.07V303.1H139.53V291.3Z" fill="white"/>
<path d="M111.72 179.82H86.1V191.37H111.72V179.82Z" fill="white"/>
<path d="M256.87 294.98C259.38 292.47 261.41 289.54 262.92 286.27C264.4 283.03 265.16 279.57 265.16 275.96V272.87C265.12 272.95 265.09 273.03 265.06 273.11C263.44 276.63 261.25 279.79 258.54 282.5C255.82 285.21 252.66 287.38 249.14 288.94C245.6 290.51 241.8 291.3 237.86 291.3H211.23C207.29 291.3 203.49 290.5 199.95 288.94C196.43 287.38 193.26 285.21 190.55 282.5C187.84 279.79 185.64 276.63 184.03 273.11C183.99 273.03 183.96 272.95 183.93 272.87V275.96C183.93 279.57 184.68 283.04 186.17 286.27C187.67 289.54 189.7 292.46 192.22 294.97C194.73 297.48 197.65 299.48 200.91 300.93C204.15 302.36 207.63 303.09 211.24 303.09H237.87C241.48 303.09 244.96 302.36 248.2 300.93C251.46 299.49 254.38 297.48 256.89 294.98H256.87Z" fill="white"/>
<path d="M349.07 235.52H323.45V247.32H349.07V235.52Z" fill="white"/>
<path d="M376.88 291.3H351.42V303.1H376.88V291.3Z" fill="white"/>
<path d="M321.11 291.3H295.65V303.1H321.11V291.3Z" fill="white"/>
<path d="M349.07 179.82H323.45V191.21H349.07V179.82Z" fill="white"/>
<path d="M376.88 218.68V216.45C376.83 216.54 376.8 216.64 376.75 216.73C375.12 219.81 373.31 222.23 371.38 223.93C369.95 225.19 368.14 226.31 365.99 227.28C368.17 228.49 369.99 229.83 371.43 231.27C371.9 231.74 372.37 232.26 372.83 232.81C373.46 231.89 374.08 230.9 374.67 229.78C376.14 227.01 376.88 223.27 376.88 218.69V218.68Z" fill="white"/>
<path d="M460.8 235.52H435.68V247.32H460.8V235.52Z" fill="white"/>
<path d="M460.8 179.82H435.68V191.21H460.8V179.82Z" fill="white"/>
<path d="M433.33 291.3H407.87V303.1H433.33V291.3Z" fill="white"/>
<path d="M488.77 291.3H463.15V303.1H488.77V291.3Z" fill="white"/>
<path d="M584.1 300.86C587.41 299.36 590.31 297.36 592.71 294.91C595.1 292.47 596.99 289.55 598.32 286.25C599.65 282.94 600.33 279.43 600.33 275.8V273.35C598.89 276.79 596.9 279.84 594.39 282.41C591.79 285.07 588.65 287.24 585.07 288.86C581.98 290.26 578.56 291.06 574.87 291.26V291.39H544.55V291.27C541.01 291.08 537.67 290.31 534.61 288.95C531.08 287.39 527.95 285.25 525.29 282.59C522.67 279.97 520.59 276.85 519.09 273.34V275.81C519.09 279.55 519.79 283.11 521.18 286.41C522.56 289.72 524.51 292.63 526.96 295.08C529.41 297.53 532.3 299.51 535.57 300.95C538.81 302.38 542.4 303.11 546.23 303.11H573.03C577.09 303.11 580.81 302.36 584.1 300.87V300.86Z" fill="white"/>
<path d="M572.52 235.35H560.8V247.15H572.52V235.35Z" fill="white"/>
<path d="M586.59 193.98V192.81C586.59 188.53 585.66 185.2 583.83 182.91C583.63 182.66 583.43 182.44 583.21 182.22C583.16 182.2 583.12 182.17 583.07 182.15C579.78 180.61 576.34 179.83 572.85 179.83H546.89V191.38H576.54C580.36 191.38 583.43 192.8 585.67 195.59C587.66 198.08 588.75 201.51 588.92 205.79H600.3C600.15 202.81 599.41 199.85 598.09 196.99C597.61 195.95 597.06 194.96 596.47 194H586.59V193.98Z" fill="white"/>
<path d="M684.24 235.52H658.62V247.32H684.24V235.52Z" fill="white"/>
<path d="M630.82 291.3V303.1H698.15V291.38H656.27V291.3H630.82Z" fill="white"/>
<path d="M698.15 179.82H658.62V191.37H698.15V179.82Z" fill="white"/>
<path d="M69.99 191.29C69.85 188.1 69.13 185.02 67.86 182.14C66.42 178.89 64.43 176.03 61.92 173.63C59.41 171.23 56.45 169.27 53.13 167.83C49.83 166.39 46.27 165.67 42.55 165.67H30.66C26.82 165.67 23.16 166.37 19.8 167.76C16.43 169.15 13.46 171.1 10.96 173.54C8.44998 175.99 6.44999 178.89 5.01999 182.14C3.58999 185.38 2.85999 188.97 2.85999 192.8V202.85C2.85999 205.62 3.83999 208.53 5.76999 211.51C7.78999 214.62 10.34 217.8 13.34 220.97C16.36 224.16 19.72 227.38 23.31 230.53C26.92 233.69 30.31 236.78 33.39 239.69C36.49 242.62 39.12 245.45 41.21 248.11C43.46 250.98 44.56 253.49 44.56 255.79V277.4H30.65C25.88 277.4 21.97 275.93 19.02 273.04C16.32 270.4 14.84 267.02 14.6 262.99H2.86999C3.00999 266.29 3.71999 269.41 5.00999 272.31C6.44999 275.57 8.44998 278.46 10.96 280.91C13.46 283.36 16.44 285.34 19.81 286.78C23.16 288.22 26.81 288.95 30.65 288.95H42.38C45.92 289.15 49.87 288.37 53.56 286.78C56.92 285.34 59.83 283.35 62.22 280.85C64.62 278.35 66.51 275.43 67.84 272.17C69.17 268.92 69.85 265.44 69.85 261.81V251.59C69.85 248.47 68.86 245.2 66.91 241.88C64.89 238.45 62.35 235.02 59.35 231.69C56.32 228.34 53 225.01 49.47 221.81C45.98 218.65 42.62 215.57 39.49 212.67C36.41 209.81 33.79 207.16 31.7 204.8C29.42 202.21 28.31 199.99 28.31 197.99V177.05H40.54C46.16 177.05 50.61 178.41 53.78 181.1C56.73 183.61 58.35 187.03 58.6 191.29H69.99Z" fill="white"/>
<path d="M63.54 171.94C60.83 169.34 57.64 167.24 54.07 165.68C50.47 164.12 46.6 163.32 42.55 163.32H30.66C26.51 163.32 22.55 164.08 18.9 165.59C15.25 167.1 12.03 169.21 9.31 171.87C6.59 174.53 4.42 177.67 2.86 181.2C1.29 184.74 0.5 188.65 0.5 192.81V202.86C0.5 203.4 0.54 203.95 0.6 204.49C0.54 205.3 0.5 206.12 0.5 206.96V217.01C0.5 220.25 1.61 223.59 3.79 226.95C5.89 230.18 8.53 233.48 11.63 236.75C14.71 240 18.12 243.27 21.76 246.46C25.33 249.59 28.7 252.65 31.78 255.56C34.79 258.41 37.35 261.16 39.37 263.73C41.26 266.13 42.22 268.23 42.22 269.96V275.07H30.66C26.47 275.07 23.21 273.87 20.68 271.38C18.16 268.91 16.93 265.79 16.93 261.83V260.66H0.5V261.83C0.5 262.03 0.51 262.23 0.51 262.43H0.5V264.85C0.5 267.78 1.14 283.55 2.86 287.43C4.42 290.96 6.59 294.1 9.31 296.75C12.02 299.4 15.24 301.54 18.88 303.11C22.53 304.67 26.49 305.47 30.65 305.47H42.38C46.76 305.47 50.83 304.68 54.48 303.11C58.13 301.54 61.3 299.37 63.91 296.65C66.51 293.94 68.56 290.77 70.01 287.24C71.46 283.71 72.19 279.92 72.19 275.99V265.77C72.19 265.21 72.15 264.66 72.1 264.09C72.15 263.34 72.19 262.59 72.19 261.83V251.61C72.19 248.07 71.09 244.4 68.93 240.71C66.83 237.14 64.2 233.59 61.08 230.13C58 226.72 54.62 223.34 51.03 220.08C47.54 216.92 44.19 213.85 41.07 210.96C38.05 208.16 35.48 205.56 33.45 203.25C31.61 201.17 30.64 199.35 30.64 198V193.56H40.52C45.57 193.56 49.51 194.73 52.24 197.05C54.95 199.35 56.26 202.48 56.26 206.62V207.79H72.34V206.62C72.34 202.68 71.55 198.88 69.98 195.34C69.72 194.76 69.42 194.2 69.13 193.65H72.34V192.48C72.34 188.54 71.55 184.74 69.98 181.2C68.42 177.67 66.25 174.56 63.52 171.95L63.54 171.94ZM69.99 205.45H58.6C58.35 201.19 56.73 197.77 53.78 195.26C50.62 192.57 46.16 191.21 40.54 191.21H30.66V179.82H42.55C43.93 179.82 45.29 179.92 46.62 180.12C48.85 180.7 50.75 181.61 52.26 182.9C54.97 185.2 56.28 188.33 56.28 192.47V193.64H66.49C66.98 194.49 67.45 195.37 67.85 196.29C69.13 199.18 69.84 202.25 69.98 205.44L69.99 205.45ZM58.6 191.3C58.35 187.04 56.73 183.62 53.78 181.11C50.62 178.42 46.16 177.06 40.54 177.06H28.31V198C28.31 199.99 29.42 202.22 31.7 204.81C33.79 207.18 36.41 209.83 39.49 212.68C42.62 215.58 45.97 218.65 49.47 221.82C53 225.02 56.33 228.35 59.35 231.7C62.35 235.04 64.9 238.46 66.91 241.89C68.86 245.21 69.85 248.48 69.85 251.6V261.82C69.85 265.44 69.17 268.93 67.84 272.18C66.5 275.44 64.61 278.36 62.22 280.86C59.83 283.36 56.92 285.35 53.56 286.79C49.87 288.37 45.92 289.15 42.38 288.96H30.65C26.81 288.96 23.16 288.23 19.81 286.79C16.43 285.34 13.46 283.37 10.96 280.92C8.45 278.47 6.45 275.58 5.01 272.32C3.73 269.42 3.01 266.29 2.87 263H14.6C14.84 267.03 16.32 270.41 19.02 273.05C21.97 275.94 25.88 277.41 30.65 277.41H44.56V255.8C44.56 253.5 43.46 250.99 41.21 248.12C39.12 245.46 36.49 242.63 33.39 239.7C30.31 236.79 26.91 233.71 23.31 230.54C19.72 227.39 16.36 224.18 13.34 220.98C10.33 217.81 7.78 214.63 5.77 211.52C3.84 208.55 2.86 205.64 2.86 202.86V192.81C2.86 188.98 3.59 185.39 5.02 182.15C6.46 178.9 8.46 176.01 10.96 173.55C13.46 171.1 16.43 169.16 19.8 167.77C23.16 166.38 26.82 165.68 30.66 165.68H42.55C46.28 165.68 49.84 166.41 53.13 167.84C56.45 169.29 59.4 171.24 61.92 173.64C64.42 176.04 66.42 178.9 67.86 182.15C69.14 185.04 69.85 188.11 69.99 191.3H58.6ZM42.38 303.11H30.65C26.81 303.11 23.16 302.38 19.81 300.94C16.43 299.49 13.46 297.52 10.96 295.06C8.46 292.61 6.46 289.72 5.02 286.46C4.24 284.69 3.64 279.21 3.28 274.08C4.81 277.27 6.82 280.14 9.32 282.59C12.03 285.25 15.25 287.38 18.89 288.94C21.24 289.95 23.72 290.63 26.29 290.99C27.69 291.27 29.17 291.38 30.74 291.3H42.37C42.76 291.32 43.14 291.33 43.52 291.33C43.81 291.33 44.09 291.31 44.38 291.3H44.65C48.61 291.1 52.11 289.96 54.49 288.94C58.14 287.38 61.31 285.2 63.92 282.48C66.43 279.86 68.42 276.81 69.85 273.43V275.97C69.85 279.59 69.17 283.08 67.84 286.33C66.5 289.59 64.61 292.51 62.22 295.01C59.83 297.51 56.92 299.5 53.56 300.94C50.2 302.38 46.44 303.11 42.38 303.11ZM2.85 211.21C3.14 211.74 3.45 212.26 3.79 212.79C5.88 216.02 8.52 219.32 11.63 222.59C14.7 225.83 18.11 229.1 21.76 232.3C25.35 235.44 28.72 238.51 31.78 241.4C34.79 244.25 37.35 247 39.37 249.56C41.26 251.96 42.22 254.06 42.22 255.79V263.63C41.91 263.18 41.59 262.72 41.22 262.26C39.13 259.6 36.5 256.77 33.4 253.84C30.3 250.91 26.91 247.83 23.32 244.68C19.73 241.54 16.38 238.32 13.35 235.12C10.35 231.95 7.8 228.77 5.78 225.66C3.85 222.69 2.87 219.78 2.87 217V211.21H2.85Z" fill="black"/>
<path d="M114.07 191.37V288.95H139.53V191.37V177.23H167.5V165.67H86.1V177.23H114.07V191.37Z" fill="white"/>
<path d="M83.75 177.47V193.72H111.72V305.45H141.88V193.72H169.85V163.32H83.75V177.47ZM86.1 177.22V165.67H167.5V177.22H139.53V288.95H114.07V177.22H86.1ZM167.5 191.37H141.88V179.82H167.5V191.37ZM114.07 303.1V291.3H139.53V303.1H114.07ZM86.1 179.82H111.72V191.37H86.1V179.82Z" fill="black"/>
<path d="M257.12 174.11C254.66 171.6 251.73 169.54 248.42 167.99C245.13 166.45 241.58 165.67 237.86 165.67H211.23C207.51 165.67 203.96 166.45 200.67 167.99C197.35 169.54 194.42 171.6 191.97 174.11C189.51 176.62 187.54 179.55 186.09 182.81C184.66 186.05 183.93 189.41 183.93 192.8V261.81C183.93 265.42 184.68 268.89 186.17 272.12C187.67 275.38 189.7 278.31 192.22 280.83C194.73 283.34 197.65 285.34 200.91 286.78C204.15 288.21 207.62 288.94 211.24 288.94H237.87C241.48 288.94 244.96 288.21 248.2 286.78C251.46 285.34 254.38 283.33 256.89 280.83C259.4 278.32 261.43 275.39 262.93 272.12C264.41 268.88 265.17 265.42 265.17 261.81V192.8C265.17 189.41 264.44 186.05 263.01 182.81C261.57 179.55 259.59 176.62 257.13 174.11H257.12ZM237.59 205.95C237.59 209.82 236.18 212.53 234.91 212.53C233.64 212.53 232.23 209.83 232.23 205.95C232.23 202.07 233.64 199.37 234.91 199.37C236.18 199.37 237.59 202.07 237.59 205.95ZM217.04 205.95C217.04 209.82 215.63 212.53 214.36 212.53C213.09 212.53 211.68 209.83 211.68 205.95C211.68 202.07 213.09 199.37 214.36 199.37C215.63 199.37 217.04 202.07 217.04 205.95ZM252.79 221.54C252.79 237.26 240.16 250.04 224.64 250.04C209.12 250.04 196.49 237.25 196.49 221.54V221.03H198.22V221.54C198.22 236.3 210.07 248.31 224.64 248.31C239.21 248.31 251.06 236.3 251.06 221.54V221.03H252.79V221.54Z" fill="white"/>
<path d="M258.79 172.47C256.13 169.76 252.97 167.53 249.4 165.86C245.8 164.18 241.91 163.32 237.85 163.32H211.22C207.16 163.32 203.27 164.17 199.67 165.86C196.1 167.53 192.94 169.75 190.28 172.47C187.63 175.18 185.49 178.34 183.93 181.86C182.36 185.4 181.57 189.08 181.57 192.8V275.96C181.57 279.91 182.39 283.71 184.02 287.25C185.63 290.77 187.83 293.93 190.54 296.64C193.25 299.35 196.41 301.52 199.94 303.08C203.48 304.65 207.28 305.44 211.22 305.44H237.85C241.79 305.44 245.59 304.64 249.13 303.08C252.66 301.52 255.82 299.35 258.53 296.64C261.24 293.93 263.43 290.78 265.05 287.25C266.68 283.7 267.5 279.9 267.5 275.96V192.8C267.5 189.08 266.7 185.4 265.14 181.85C263.58 178.33 261.45 175.18 258.79 172.46V172.47ZM211.22 303.1C207.61 303.1 204.13 302.37 200.89 300.94C197.63 299.5 194.7 297.49 192.2 294.98C189.69 292.47 187.65 289.54 186.15 286.28C184.67 283.05 183.91 279.58 183.91 275.97V272.88C183.95 272.96 183.98 273.04 184.01 273.12C185.62 276.64 187.82 279.8 190.53 282.51C193.24 285.22 196.41 287.39 199.93 288.95C203.47 290.52 207.27 291.31 211.21 291.31H237.84C241.78 291.31 245.58 290.51 249.12 288.95C252.64 287.39 255.81 285.22 258.52 282.51C261.23 279.8 263.42 276.64 265.04 273.12C265.08 273.04 265.11 272.96 265.14 272.88V275.97C265.14 279.58 264.39 283.05 262.9 286.28C261.4 289.55 259.37 292.48 256.85 294.99C254.34 297.5 251.42 299.5 248.16 300.94C244.92 302.37 241.44 303.1 237.83 303.1H211.2H211.22ZM265.15 206.95V261.81C265.15 265.42 264.4 268.89 262.91 272.12C261.41 275.39 259.38 278.31 256.87 280.83C254.36 283.34 251.44 285.34 248.18 286.78C244.94 288.21 241.46 288.94 237.85 288.94H211.22C207.6 288.94 204.13 288.21 200.89 286.78C197.63 285.34 194.71 283.33 192.2 280.83C189.69 278.32 187.65 275.39 186.15 272.12C184.67 268.89 183.91 265.42 183.91 261.81V192.8C183.91 189.41 184.64 186.05 186.07 182.81C187.51 179.55 189.49 176.62 191.95 174.11C194.41 171.6 197.34 169.54 200.65 167.99C203.94 166.45 207.49 165.67 211.21 165.67H237.84C241.56 165.67 245.11 166.45 248.4 167.99C251.71 169.54 254.64 171.6 257.1 174.11C259.56 176.62 261.54 179.55 262.98 182.81C264.41 186.05 265.14 189.41 265.14 192.8V206.95H265.15Z" fill="black"/>
<path d="M369.77 232.92C368.04 231.19 365.64 229.6 362.65 228.21L360.05 227L362.75 226.04C365.72 224.98 368.1 223.68 369.82 222.16C371.54 220.65 373.17 218.45 374.67 215.63C376.14 212.86 376.88 209.12 376.88 204.54V192.48C376.88 188.51 376.26 184.82 375.03 181.5C373.81 178.21 372.01 175.37 369.69 173.04C367.36 170.71 364.53 168.88 361.3 167.61C358.05 166.33 354.33 165.68 350.26 165.68H295.66V288.96H321.12V233.18H351.44V288.96H376.9V251.27C376.9 246.68 376.15 242.89 374.68 239.99C373.17 237.04 371.53 234.66 369.79 232.92H369.77ZM351.42 221.29H321.1V177.06H351.42V221.29Z" fill="white"/>
<path d="M371.35 171.37C368.79 168.81 365.69 166.8 362.16 165.41C358.63 164.02 354.63 163.32 350.26 163.32H293.31V305.45H323.47V249.67H349.09V305.45H379.25V251.26C379.25 246.3 378.42 242.14 376.78 238.92C376.01 237.4 375.19 236.03 374.34 234.79C375.19 233.63 376 232.33 376.77 230.87C378.42 227.75 379.25 223.65 379.25 218.68V206.62C379.25 206.37 379.22 206.14 379.22 205.89C379.23 205.44 379.25 204.99 379.25 204.53V192.47C379.25 188.23 378.58 184.26 377.25 180.67C375.91 177.07 373.93 173.94 371.37 171.37H371.35ZM351.43 303.1V291.3H376.89V303.1H351.43ZM295.65 303.1V291.3H321.11V303.1H295.65ZM323.46 235.52H349.08V247.32H323.46V235.52ZM376.89 265.41V288.95H351.43V233.17H321.11V288.95H295.65V165.67H350.25C354.32 165.67 358.04 166.32 361.29 167.6C364.52 168.87 367.35 170.7 369.68 173.03C372 175.35 373.8 178.2 375.02 181.49C376.25 184.81 376.87 188.51 376.87 192.47V204.53C376.87 209.12 376.13 212.85 374.66 215.62C373.17 218.45 371.54 220.64 369.81 222.15C368.09 223.66 365.71 224.97 362.74 226.03L360.04 226.99L362.64 228.2C365.63 229.59 368.03 231.18 369.76 232.91C371.5 234.65 373.15 237.03 374.65 239.98C376.12 242.87 376.87 246.67 376.87 251.26V265.41H376.89ZM371.44 231.25C370 229.81 368.18 228.48 366 227.26C368.15 226.29 369.96 225.17 371.39 223.91C373.33 222.21 375.13 219.79 376.76 216.71C376.81 216.62 376.85 216.52 376.89 216.43V218.66C376.89 223.25 376.15 226.98 374.68 229.75C374.09 230.87 373.47 231.86 372.84 232.78C372.38 232.23 371.92 231.71 371.44 231.24V231.25Z" fill="black"/>
<path d="M351.42 177.06H321.1V221.29H351.42V177.06ZM349.07 218.94H323.45V193.56H349.07V218.94ZM323.45 191.21V179.82H349.07V191.21H323.45Z" fill="black"/>
<path d="M479.67 173.97C477.04 171.45 474.03 169.42 470.7 167.91C467.41 166.42 464.13 165.67 460.97 165.67H435.17C432.12 165.67 428.93 166.42 425.69 167.91C422.41 169.42 419.42 171.43 416.79 173.89C414.17 176.35 412 179.28 410.34 182.61C408.7 185.89 407.87 189.32 407.87 192.8V288.94H433.33V233.16H463.15V288.94H488.77V192.8C488.77 189.33 487.91 185.93 486.22 182.71C484.5 179.44 482.3 176.49 479.66 173.97H479.67ZM463.15 221.28H433.33V177.05H463.15V221.28Z" fill="white"/>
<path d="M481.3 172.27C478.48 169.57 475.24 167.38 471.67 165.77C468.07 164.14 464.47 163.32 460.97 163.32H435.17C431.78 163.32 428.26 164.14 424.71 165.77C421.2 167.38 418 169.54 415.18 172.18C412.35 174.83 410.02 177.99 408.23 181.56C406.42 185.17 405.51 188.95 405.51 192.81V305.45H435.67V249.67H460.79V305.45H491.11V192.81C491.11 188.96 490.16 185.19 488.3 181.63C486.46 178.13 484.1 174.99 481.29 172.28L481.3 172.27ZM463.15 303.1V291.3H488.77V303.1H463.15ZM407.87 303.1V291.3H433.33V303.1H407.87ZM435.68 235.52H460.8V247.32H435.68V235.52ZM488.77 206.95V288.95H463.15V233.17H433.33V288.95H407.87V192.81C407.87 189.32 408.7 185.89 410.34 182.62C412 179.3 414.17 176.37 416.79 173.9C419.42 171.43 422.41 169.42 425.69 167.92C428.93 166.43 432.11 165.68 435.17 165.68H460.97C464.13 165.68 467.41 166.43 470.7 167.92C474.02 169.42 477.04 171.46 479.67 173.98C482.3 176.51 484.51 179.45 486.23 182.72C487.92 185.95 488.78 189.34 488.78 192.81V206.96L488.77 206.95Z" fill="black"/>
<path d="M463.15 177.06H433.33V221.29H463.15V177.06ZM460.8 218.94H435.68V193.56H460.8V218.94ZM435.68 191.21V179.82H460.8V191.21H435.68Z" fill="black"/>
<path d="M600.3 191.63C600.15 188.65 599.41 185.69 598.09 182.83C596.59 179.57 594.53 176.64 591.97 174.13C589.4 171.61 586.41 169.55 583.08 167.99C579.79 166.45 576.35 165.67 572.86 165.67H546.23C542.51 165.67 538.96 166.45 535.67 167.99C532.35 169.54 529.43 171.63 526.98 174.19C524.52 176.76 522.57 179.71 521.18 182.97C519.8 186.21 519.1 189.58 519.1 192.98V261.66C519.1 265.4 519.8 268.96 521.19 272.26C522.57 275.56 524.52 278.48 526.97 280.93C529.42 283.38 532.31 285.36 535.58 286.8C538.82 288.23 542.41 288.96 546.24 288.96H573.04C577.1 288.96 580.82 288.21 584.11 286.72C587.42 285.22 590.32 283.22 592.72 280.77C595.11 278.33 597 275.41 598.33 272.11C599.66 268.8 600.34 265.29 600.34 261.66V221.13H560.81V233.02H574.88V277.25H544.56V177.25H576.56C580.38 177.25 583.45 178.67 585.69 181.46C587.68 183.95 588.77 187.38 588.94 191.66H600.32L600.3 191.63Z" fill="white"/>
<path d="M593.62 172.45C590.86 169.75 587.65 167.53 584.08 165.86C580.48 164.18 576.7 163.32 572.86 163.32H546.23C542.17 163.32 538.28 164.17 534.68 165.86C531.1 167.54 527.94 169.79 525.28 172.56C522.62 175.33 520.52 178.52 519.02 182.04C517.51 185.57 516.75 189.25 516.75 192.97V275.8C516.75 279.85 517.51 283.72 519.02 287.31C520.52 290.9 522.64 294.07 525.3 296.73C527.95 299.39 531.09 301.53 534.62 303.09C538.16 304.66 542.07 305.45 546.23 305.45H573.03C577.42 305.45 581.48 304.63 585.07 303C588.65 301.38 591.79 299.21 594.39 296.55C597 293.89 599.05 290.71 600.5 287.12C601.95 283.53 602.68 279.72 602.68 275.79V218.76H558.45V249.5H572.52V274.88H546.9V193.72H576.55C579.66 193.72 582.05 194.81 583.84 197.05C585.67 199.34 586.6 202.67 586.6 206.95V208.12H602.69V206.95C602.69 203.23 601.87 199.54 600.24 195.99C599.92 195.3 599.56 194.64 599.2 193.98H602.69V192.81C602.69 189.09 601.87 185.4 600.24 181.85C598.62 178.33 596.39 175.16 593.63 172.46L593.62 172.45ZM600.3 205.78H588.92C588.75 201.5 587.66 198.08 585.67 195.58C583.44 192.79 580.36 191.37 576.54 191.37H546.89V179.82H572.85C576.34 179.82 579.78 180.6 583.07 182.14C583.12 182.16 583.16 182.19 583.21 182.21C583.42 182.43 583.63 182.66 583.83 182.9C585.66 185.19 586.59 188.52 586.59 192.8V193.97H596.47C597.06 194.94 597.61 195.93 598.09 196.96C599.4 199.82 600.14 202.78 600.3 205.76V205.78ZM588.92 191.63C588.75 187.35 587.66 183.93 585.67 181.43C583.44 178.64 580.37 177.22 576.54 177.22H544.54V277.22H574.86V232.99H560.79V221.1H600.32V261.63C600.32 265.26 599.64 268.77 598.31 272.08C596.98 275.39 595.09 278.3 592.7 280.74C590.3 283.19 587.41 285.19 584.09 286.69C580.8 288.18 577.07 288.93 573.02 288.93H546.22C542.38 288.93 538.8 288.2 535.56 286.77C532.3 285.33 529.4 283.35 526.95 280.9C524.5 278.45 522.56 275.54 521.17 272.23C519.79 268.93 519.08 265.37 519.08 261.63V192.95C519.08 189.55 519.78 186.18 521.16 182.94C522.55 179.68 524.5 176.73 526.96 174.16C529.41 171.6 532.34 169.51 535.65 167.96C538.94 166.42 542.49 165.64 546.21 165.64H572.84C576.33 165.64 579.77 166.42 583.06 167.96C586.39 169.52 589.38 171.58 591.95 174.1C594.51 176.61 596.57 179.53 598.07 182.8C599.38 185.66 600.12 188.62 600.28 191.6H588.9L588.92 191.63ZM560.8 235.35H572.52V247.15H560.8V235.35ZM535.56 300.94C532.3 299.49 529.4 297.52 526.95 295.07C524.5 292.62 522.56 289.71 521.17 286.4C519.79 283.1 519.08 279.54 519.08 275.8V273.33C520.58 276.85 522.66 279.96 525.28 282.58C527.93 285.24 531.07 287.38 534.6 288.94C537.66 290.29 541 291.07 544.54 291.26V291.38H574.86V291.25C578.55 291.05 581.97 290.25 585.06 288.85C588.64 287.23 591.78 285.06 594.38 282.4C596.89 279.83 598.88 276.78 600.32 273.34V275.79C600.32 279.42 599.64 282.93 598.31 286.24C596.98 289.55 595.09 292.46 592.7 294.9C590.3 297.35 587.41 299.35 584.09 300.85C580.8 302.34 577.07 303.09 573.02 303.09H546.22C542.39 303.09 538.8 302.36 535.56 300.93V300.94Z" fill="black"/>
<path d="M630.82 179.82V288.95H698.15V277.23H656.27V247.32V235.43V233.17H684.25V221.28H656.27V191.37V177.23H698.15V165.67H630.82V179.82Z" fill="white"/>
<path d="M628.47 163.32V305.45H700.5V274.88H658.62V249.67H686.59V218.93H658.62V193.72H700.5V163.32H628.47ZM698.15 191.37H658.62V179.82H698.15V191.37ZM698.15 177.22H656.27V221.28H684.24V233.17H656.27V277.23H698.15V288.95H630.82V165.67H698.15V177.22ZM658.62 235.52H684.24V247.32H658.62V235.52ZM698.15 291.38V303.1H630.82V291.3H656.28V291.38H698.16H698.15Z" fill="black"/>
<path d="M211.67 205.95C211.67 209.82 213.08 212.53 214.35 212.53C215.62 212.53 217.03 209.83 217.03 205.95C217.03 202.07 215.62 199.37 214.35 199.37C213.08 199.37 211.67 202.07 211.67 205.95Z" fill="black"/>
<path d="M232.23 205.95C232.23 209.82 233.64 212.53 234.91 212.53C236.18 212.53 237.59 209.83 237.59 205.95C237.59 202.07 236.18 199.37 234.91 199.37C233.64 199.37 232.23 202.07 232.23 205.95Z" fill="black"/>
<path d="M251.05 221.54C251.05 236.3 239.2 248.31 224.63 248.31C210.06 248.31 198.21 236.3 198.21 221.54V221.03H196.48V221.54C196.48 237.26 209.11 250.04 224.63 250.04C240.15 250.04 252.78 237.25 252.78 221.54V221.03H251.05V221.54Z" fill="black"/>
</svg>
