<?xml version="1.0" encoding="UTF-8"?>
<svg id="Layer_2" data-name="Layer 2" xmlns="http://www.w3.org/2000/svg" viewBox="0 0 908.05 300">
  <defs>
    <style>
      .cls-1 {
        fill: #fff;
      }
    </style>
  </defs>
  <g id="Layer_1-2" data-name="Layer 1">
    <g>
      <path class="cls-1" d="M61.26,118.01c-12.29-7.31-21.95-1.45-21.95,12.54v115.61c0,2.07,2.01,3.54,3.98,2.92l27.69-8.75c1.91-.6,3.21-2.32,3.21-4.32-.02-17.68-.13-100.36-.13-105.88,0,0-4.57-5.49-5.51-6.43-3.37-3.67-7.3-5.7-7.3-5.7Z"/>
      <path class="cls-1" d="M106.06,1.45c-2.65-1.5-5.76-1.84-8.68-1-12.11,3.46-30.54,8.91-30.54,8.91l-36.37,10.17c-7.42,2.08-20.35,5.73-28.26,8.02-2.59.75-3,4.24-.67,5.58l81.53,47.09c17.73,11.4,42.18,38.58,43.76,72.71,0,48.26.12,125.34.15,144.02,0,2.07,2.02,3.53,3.99,2.9l27.68-8.86c1.9-.61,3.19-2.32,3.19-4.32-.03-17.17-.18-97.35-.18-145.45,0-31.48-30.47-64.92-43.77-71.38-9.25-5.29-26.96-15.55-44.06-25.44-.47-.27-.97-.51-1.38-.8-5.94-4.24-5.44-10.51,1.46-14.49,7.21-4.16,18.96-4.38,26.3-.45.17.09.33.18.49.27.16.09.31.18.46.28,18.91,10.91,40.97,23.64,53.25,30.77,17.73,11.4,42.26,38.56,43.84,72.69,0,48.35.21,125.29.27,143.69,0,2.03,1.96,3.49,3.91,2.93l27.52-7.95c1.97-.57,3.32-2.31,3.32-4.36-.03-17.46-.18-98-.18-146.03,0-31.17-30.54-64.41-43.76-71.38C171.31,39.26,121.18,10.03,106.06,1.45Z"/>
      <path class="cls-1" d="M392.42,234.07h-32.13v-119.89h31.89v6.71c10.87-6.39,20.86-9.59,29.97-9.59,15.99,0,27.02,4.72,33.09,14.15,6.07,9.43,9.11,23.98,9.11,43.64v64.98h-32.13v-64.02c0-10.23-1.2-17.74-3.6-22.54-2.4-4.96-7.2-7.43-14.39-7.43-6.55,0-12.87,1.12-18.94,3.36l-2.88.96v89.68ZM551.57,114.18h32.13v119.89h-31.89v-6.72c-11.51,6.4-21.5,9.59-29.97,9.59-16.63,0-27.82-4.56-33.57-13.67-5.76-9.27-8.63-24.7-8.63-46.28v-62.82h32.13v63.3c0,11.83.96,19.9,2.88,24.22,1.92,4.32,6.56,6.48,13.91,6.48s13.67-1.12,19.9-3.36l3.12-.96v-89.68ZM633.51,234.07h-32.13V66.22h32.13v95.44l12.23-2.16,23.74-45.32h35.97l-31.17,56.83,32.85,63.07h-36.21l-24.22-46.76-13.19,2.16v44.6ZM714.24,234.07V66.22h32.13v167.85h-32.13ZM857.28,151.59v49.88c.32,3.84.96,6.55,1.92,8.15.96,1.44,2.96,2.48,6,3.12l-.96,24.22c-8.15,0-14.71-.56-19.66-1.68-4.8-1.12-9.67-3.36-14.63-6.71-11.51,5.59-23.26,8.39-35.25,8.39-24.78,0-37.17-13.11-37.17-39.32,0-12.79,3.44-21.82,10.31-27.1,6.87-5.44,17.43-8.63,31.65-9.59l25.66-1.92v-7.43c0-4.96-1.12-8.31-3.36-10.07-2.24-1.92-5.84-2.88-10.79-2.88l-45.08,1.92-.96-22.3c17.1-4.64,33.33-6.95,48.68-6.95s26.62,3.2,33.33,9.59c6.87,6.39,10.31,16.63,10.31,30.69ZM803.33,183.24c-8.95.8-13.43,5.6-13.43,14.39s3.92,13.19,11.75,13.19c6.07,0,12.71-.96,19.9-2.88l3.6-.96v-25.66l-21.82,1.92ZM875.92,234.07v-119.89h32.13v119.89h-32.13ZM875.92,98.83v-32.61h32.13v32.61h-32.13Z"/>
    </g>
  </g>
</svg>