<?xml version="1.0" encoding="UTF-8"?>
<svg id="Layer_2" data-name="Layer 2" xmlns="http://www.w3.org/2000/svg" viewBox="0 0 1496.78 300">
  <defs>
    <style>
      .cls-1 {
        fill: #fff;
        fill-rule: evenodd;
      }
    </style>
  </defs>
  <g id="Layer_1-2" data-name="Layer 1">
    <path class="cls-1" d="M561.39,161.11v-.8c0-48.88-36.68-87.81-83.73-87.81s-82.97,39.35-82.97,87.05v.76c0,48.91,36.7,87.84,83.74,87.84s82.97-39.33,82.97-87.04M373.56,161.12v-.81c0-56.81,44.27-106.08,104.87-106.08s104.1,48.48,104.1,105.32v.76c0,56.84-44.27,106.16-104.87,106.16-60.23,0-104.1-48.51-104.1-105.35M628.24,161.11v-.8c0-56.81,45.34-106.08,103.4-106.08,38.17,0,62.03,17.46,81.13,37.36l-13.92,14.26c-17.5-17.84-37.4-33.35-67.62-33.35-46.12,0-81.91,38.54-81.91,87.05v.76c0,48.91,36.98,87.84,83.51,87.84,28.62,0,50.88-14.67,68-33.78l13.53,11.93c-20.68,23.43-45.36,40.16-82.72,40.16-58.47,0-103.4-48.51-103.4-105.35M1018.57,150.78c-2.79-40.92-26.25-78.7-72.8-78.7-40.2,0-71.2,33.78-74.8,78.7h147.59ZM850.27,160.75v-.84c0-58.82,41.41-105.69,96.29-105.69s93.1,46.09,93.1,106.08c0,3.59,0,4.8-.4,7.96h-168.28c3.59,50.49,39.76,79.9,79.58,79.9,31.39,0,52.9-13.9,69.58-31.78l13.53,11.93c-20.69,22.25-44.93,38.15-83.92,38.15-53.31,0-99.48-42.54-99.48-105.72h0ZM1236.3,185.18v-23.27c-17.22-4.39-40.04-9.17-69.29-9.17-43.29,0-67.34,19.2-67.34,47.64v.8c0,29.63,28.04,46.85,59.33,46.85,41.67,0,77.3-25.61,77.3-62.85M1078.84,202.36v-.78c0-42.46,36.45-66.48,89.38-66.48,28.43,0,48.07,3.62,67.71,8.85v-8.85c0-41.27-25.28-62.46-67.33-62.46-24.87,0-45.29,6.82-64.12,16.44l-7.23-17.25c22.45-10.38,44.51-17.59,72.56-17.59s49.66,7.59,64.5,22.42c13.63,13.62,20.84,32.43,20.84,57.66v127.34h-19.23v-34.04c-14.03,19.61-39.29,38.86-78.15,38.86s-78.94-21.63-78.94-64.1M1323.73,59.01h19.44v38.03c13.42-24.04,36-42.81,72.83-42.81,51.06,0,80.78,35.22,80.78,84.07v124.9h-19.4v-121.29c0-42.04-23.37-69.69-64.15-69.69s-70.07,30.45-70.07,72.87v118.12h-19.44V59.01ZM37.93,144.39c0,8.81-7.13,15.95-15.95,15.95s-15.95-7.14-15.95-15.95,7.14-15.95,15.95-15.95,15.95,7.14,15.95,15.94M291.38,144.39c0,8.81-7.14,15.95-15.94,15.95s-15.95-7.14-15.95-15.95,7.14-15.95,15.95-15.95,15.95,7.14,15.95,15.94M164.65,207.33c0,8.81-7.14,15.95-15.95,15.95s-15.95-7.14-15.95-15.95,7.14-15.95,15.95-15.95,15.95,7.14,15.95,15.95M100.86,176.29c0,8.8-7.14,15.95-15.95,15.95s-15.95-7.14-15.95-15.95,7.14-15.95,15.95-15.95,15.95,7.14,15.95,15.95M227.59,176.29c0,8.8-7.14,15.95-15.95,15.95s-15.95-7.14-15.95-15.95,7.14-15.95,15.95-15.95,15.95,7.14,15.95,15.95M32.76,192.68c0,5.94-4.82,10.77-10.77,10.77s-10.78-4.83-10.78-10.77,4.82-10.78,10.78-10.78,10.77,4.82,10.77,10.78M286.21,192.68c0,5.94-4.83,10.77-10.78,10.77s-10.77-4.83-10.77-10.77,4.82-10.78,10.78-10.78,10.78,4.82,10.78,10.78M159.48,256.46c0,5.95-4.83,10.78-10.77,10.78s-10.78-4.83-10.78-10.78,4.83-10.77,10.78-10.77,10.77,4.82,10.77,10.77M95.69,224.57c0,5.95-4.82,10.77-10.77,10.77s-10.78-4.82-10.78-10.77,4.83-10.78,10.78-10.78,10.77,4.82,10.77,10.78M222.41,224.57c0,5.95-4.83,10.77-10.77,10.77s-10.78-4.82-10.78-10.77,4.83-10.78,10.78-10.78,10.77,4.82,10.77,10.78M27.59,230.6c0,3.09-2.51,5.6-5.6,5.6s-5.6-2.51-5.6-5.6c0-3.09,2.51-5.6,5.6-5.6h0c3.09,0,5.6,2.5,5.6,5.6h0M281.03,230.6c0,3.09-2.51,5.6-5.6,5.6s-5.6-2.51-5.6-5.6,2.51-5.6,5.6-5.6h0c3.09,0,5.6,2.5,5.6,5.6M154.31,294.39c0,3.1-2.51,5.61-5.6,5.61-3.1,0-5.6-2.51-5.6-5.61s2.51-5.6,5.6-5.6h0c3.09,0,5.6,2.51,5.6,5.6M90.52,262.5c0,3.09-2.51,5.6-5.61,5.6-3.09,0-5.6-2.51-5.6-5.6,0-3.09,2.51-5.6,5.6-5.6h0c3.09,0,5.6,2.51,5.61,5.6h0M217.24,262.5c0,3.09-2.51,5.6-5.6,5.6-3.09,0-5.6-2.5-5.61-5.6h0c0-3.1,2.5-5.6,5.59-5.61h.02c3.09,0,5.6,2.51,5.6,5.6M169.83,21.55c0,11.9-9.65,21.55-21.55,21.55s-21.56-9.65-21.56-21.55c0-11.9,9.65-21.55,21.56-21.55s21.55,9.65,21.55,21.55M169.83,85.34c0,11.9-9.65,21.55-21.55,21.55s-21.56-9.65-21.56-21.55,9.65-21.55,21.56-21.55,21.55,9.65,21.55,21.55M169.83,148.28c0,11.9-9.65,21.55-21.55,21.55s-21.56-9.65-21.56-21.55,9.65-21.56,21.56-21.56,21.55,9.65,21.55,21.56M296.55,85.34c0,11.9-9.65,21.55-21.55,21.55s-21.55-9.65-21.55-21.55,9.65-21.55,21.55-21.55,21.55,9.65,21.55,21.55M43.1,85.34c0,11.9-9.65,21.55-21.55,21.55S0,97.25,0,85.34s9.65-21.55,21.55-21.55,21.55,9.65,21.55,21.55M106.9,53.45c0,11.9-9.65,21.55-21.55,21.55s-21.55-9.65-21.55-21.55,9.65-21.55,21.55-21.55,21.55,9.64,21.55,21.55M106.9,116.38c0,11.9-9.65,21.55-21.55,21.55s-21.55-9.65-21.55-21.55,9.65-21.55,21.55-21.55,21.55,9.65,21.55,21.55M233.62,53.45c0,11.9-9.65,21.55-21.55,21.55s-21.55-9.65-21.55-21.55,9.65-21.55,21.55-21.55,21.55,9.64,21.55,21.55M233.62,116.38c0,11.9-9.65,21.55-21.55,21.55s-21.55-9.65-21.55-21.55,9.65-21.55,21.55-21.55,21.55,9.65,21.55,21.55"/>
  </g>
</svg>