<?xml version="1.0" encoding="UTF-8"?>
<svg id="Layer_2" data-name="Layer 2" xmlns="http://www.w3.org/2000/svg" viewBox="0 0 2877.23 300">
  <defs>
    <style>
      .cls-1 {
        fill-rule: evenodd;
      }

      .cls-1, .cls-2 {
        fill: #fff;
      }
    </style>
  </defs>
  <g id="Layer_1-2" data-name="Layer 1">
    <g>
      <g id="contract">
        <path class="cls-2" d="M960.81,245.53c-11.74,13.49-26.22,24.16-43.46,32.03-17.23,7.87-37.09,11.8-59.56,11.8-20.48,0-39.4-3.37-56.76-10.11-17.36-6.74-32.4-16.3-45.14-28.66-12.74-12.36-22.73-27.16-29.97-44.39-7.24-17.23-10.86-36.21-10.86-56.94s3.68-40.46,11.05-57.69c7.37-17.23,17.54-31.91,30.53-44.02,12.99-12.11,28.22-21.42,45.7-27.91,17.48-6.49,36.34-9.74,56.57-9.74,18.73,0,37.15,3.31,55.26,9.93,18.11,6.62,32.78,16.3,44.02,29.03l-43.46,43.46c-5.99-8.24-13.86-14.36-23.6-18.36-9.74-4-19.73-5.99-29.97-5.99-11.24,0-21.54,2.06-30.91,6.18-9.37,4.12-17.42,9.8-24.16,17.05-6.74,7.24-11.99,15.8-15.73,25.66s-5.62,20.67-5.62,32.4,1.87,22.98,5.62,32.97c3.75,9.99,8.93,18.54,15.55,25.66,6.62,7.12,14.55,12.67,23.79,16.67,9.24,4,19.36,5.99,30.34,5.99,12.74,0,23.85-2.5,33.34-7.49,9.49-4.99,17.11-11.49,22.85-19.48l44.58,41.96Z"/>
        <path class="cls-2" d="M1272.85,148.5c0,20.98-3.62,40.15-10.86,57.5-7.24,17.36-17.29,32.22-30.16,44.58-12.86,12.36-28.16,21.92-45.89,28.66-17.73,6.74-36.96,10.11-57.69,10.11s-39.9-3.37-57.5-10.11c-17.61-6.74-32.84-16.3-45.7-28.66-12.86-12.36-22.91-27.22-30.16-44.58-7.24-17.36-10.86-36.53-10.86-57.5s3.62-40.4,10.86-57.5c7.24-17.11,17.3-31.66,30.16-43.64,12.86-11.99,28.1-21.23,45.7-27.72,17.61-6.49,36.78-9.74,57.5-9.74s39.96,3.25,57.69,9.74c17.73,6.49,33.03,15.73,45.89,27.72,12.86,11.99,22.91,26.54,30.16,43.64,7.24,17.11,10.86,36.28,10.86,57.5ZM1204.29,148.5c0-11.49-1.87-22.23-5.62-32.22-3.75-9.99-8.93-18.54-15.55-25.66-6.62-7.12-14.61-12.74-23.98-16.86-9.37-4.12-19.67-6.18-30.91-6.18s-21.48,2.06-30.72,6.18c-9.24,4.12-17.23,9.74-23.98,16.86-6.74,7.12-11.93,15.67-15.55,25.66-3.62,9.99-5.43,20.73-5.43,32.22s1.87,23.04,5.62,33.15c3.75,10.11,8.93,18.79,15.55,26.04,6.62,7.24,14.55,12.92,23.79,17.05,9.24,4.12,19.48,6.18,30.72,6.18s21.48-2.06,30.72-6.18c9.24-4.12,17.23-9.8,23.98-17.05,6.74-7.24,11.99-15.92,15.73-26.04,3.75-10.11,5.62-21.17,5.62-33.15Z"/>
        <path class="cls-2" d="M1494.17,282.24l-106.77-173.45h-1.12l1.5,173.45h-62.19V17.01h73.05l106.39,173.07h1.12l-1.5-173.07h62.19v265.23h-72.68Z"/>
        <path class="cls-2" d="M1745.45,71.7v210.54h-64.06V71.7h-74.92V17.01h213.91v54.69h-74.92Z"/>
        <path class="cls-2" d="M2001.99,282.24l-57.32-105.27h-21.73v105.27h-62.94V17.01h101.15c12.74,0,25.16,1.31,37.27,3.93s22.98,7.06,32.59,13.3c9.62,6.24,17.29,14.49,23.04,24.73,5.74,10.24,8.62,22.98,8.62,38.21,0,17.98-4.87,33.09-14.61,45.33-9.74,12.24-23.23,20.98-40.46,26.22l69.3,113.51h-74.92ZM1999.36,98.3c0-6.24-1.31-11.3-3.93-15.17-2.62-3.87-5.99-6.87-10.11-8.99-4.12-2.12-8.74-3.56-13.86-4.31-5.12-.75-10.05-1.12-14.8-1.12h-34.09v61.81h30.34c5.24,0,10.61-.44,16.11-1.31s10.49-2.44,14.98-4.68c4.5-2.25,8.18-5.49,11.05-9.74s4.31-9.74,4.31-16.48Z"/>
        <path class="cls-2" d="M2309.01,282.24l-20.6-52.07h-102.65l-19.48,52.07h-69.68l111.26-265.23h62.19l110.14,265.23h-71.18ZM2237.83,87.81l-33.72,91.03h66.68l-32.97-91.03Z"/>
        <path class="cls-2" d="M2639.34,245.53c-11.74,13.49-26.22,24.16-43.46,32.03-17.23,7.87-37.09,11.8-59.56,11.8-20.48,0-39.4-3.37-56.76-10.11-17.36-6.74-32.4-16.3-45.14-28.66-12.74-12.36-22.73-27.16-29.97-44.39-7.24-17.23-10.86-36.21-10.86-56.94s3.68-40.46,11.05-57.69c7.37-17.23,17.54-31.91,30.53-44.02s28.22-21.42,45.7-27.91c17.48-6.49,36.34-9.74,56.57-9.74,18.73,0,37.15,3.31,55.26,9.93,18.11,6.62,32.78,16.3,44.02,29.03l-43.46,43.46c-5.99-8.24-13.86-14.36-23.6-18.36-9.74-4-19.73-5.99-29.97-5.99-11.24,0-21.54,2.06-30.91,6.18-9.37,4.12-17.42,9.8-24.16,17.05-6.74,7.24-11.99,15.8-15.73,25.66-3.75,9.87-5.62,20.67-5.62,32.4s1.87,22.98,5.62,32.97c3.75,9.99,8.93,18.54,15.55,25.66,6.62,7.12,14.55,12.67,23.79,16.67,9.24,4,19.36,5.99,30.34,5.99,12.74,0,23.85-2.5,33.34-7.49,9.49-4.99,17.11-11.49,22.85-19.48l44.58,41.96Z"/>
        <path class="cls-2" d="M2802.3,71.7v210.54h-64.06V71.7h-74.92V17.01h213.91v54.69h-74.92Z"/>
      </g>
      <g>
        <g>
          <path class="cls-2" d="M470.14,299.31l-129.87-149.31L460.3.69h90.26l-122.6,149.31,136.24,149.31h-94.06Z"/>
          <path class="cls-2" d="M327.95,139.05V.7h110.96l-110.96,138.35Z"/>
        </g>
        <g>
          <path class="cls-1" d="M157.37,299.88c83.57-3.25,148.8-73.06,145.58-155.79-2.28-58.54-38.24-107.97-88.68-130.71L31.44,241.54c28.94,37.14,75,60.33,125.93,58.35Z"/>
          <path class="cls-1" d="M15.15,215.54c.39.8,6.44,11.85,6.44,11.85L198.38,7.38S173.58-.98,145.69.1C62.12,3.34-3.11,73.16.11,155.89c.83,21.38,6.16,41.56,15.04,59.65Z"/>
        </g>
      </g>
    </g>
  </g>
</svg>