<?xml version="1.0" encoding="UTF-8"?>
<svg id="Layer_2" data-name="Layer 2" xmlns="http://www.w3.org/2000/svg" viewBox="0 0 2250 300">
  <defs>
    <style>
      .cls-1 {
        fill: #fff;
      }
    </style>
  </defs>
  <g id="Layer_1-2" data-name="Layer 1">
    <g>
      <path class="cls-1" d="M113.61,300c-33.38,0-60.73-7.78-82.05-23.33C10.52,260.83,0,238.33,0,209.17c0-6.11.7-13.61,2.1-22.5,3.65-20,8.84-44.03,15.57-72.08C36.75,38.19,85.98,0,165.37,0c21.6,0,40.96,3.61,58.07,10.83,17.11,6.94,30.58,17.5,40.39,31.67,9.82,13.89,14.73,30.56,14.73,50,0,5.83-.7,13.19-2.1,22.08-4.21,24.72-9.26,48.75-15.15,72.08-9.82,38.06-26.79,66.53-50.91,85.42-24.13,18.61-56.38,27.92-96.78,27.92ZM119.5,240c15.71,0,29.03-4.58,39.97-13.75,11.22-9.17,19.22-23.19,23.98-42.08,6.45-26.11,11.36-48.89,14.73-68.33,1.12-5.83,1.68-11.81,1.68-17.92,0-25.28-13.33-37.92-39.97-37.92-15.71,0-29.17,4.58-40.39,13.75-10.94,9.17-18.8,23.19-23.56,42.08-5.05,18.61-10.1,41.39-15.15,68.33-1.12,5.55-1.68,11.39-1.68,17.5,0,25.56,13.47,38.33,40.4,38.33Z"/>
      <path class="cls-1" d="M321.25,295.83c-3.09,0-5.47-.97-7.15-2.92-1.4-2.22-1.82-4.72-1.26-7.5L370.91,14.58c.56-3.06,2.1-5.56,4.63-7.5,2.52-1.94,5.19-2.92,8-2.92h111.93c31.14,0,56.1,6.39,74.9,19.17,19.08,12.78,28.61,31.25,28.61,55.42,0,6.94-.84,14.17-2.52,21.67-7.01,31.94-21.18,55.55-42.5,70.83-21.04,15.28-49.93,22.92-86.68,22.92h-56.8l-19.36,91.25c-.56,3.06-2.1,5.55-4.63,7.5-2.52,1.94-5.19,2.92-7.99,2.92h-57.23ZM470.21,136.67c11.78,0,22.02-3.19,30.72-9.58,8.98-6.39,14.87-15.56,17.67-27.5.84-4.72,1.26-8.89,1.26-12.5,0-8.06-2.39-14.17-7.15-18.33-4.77-4.44-12.9-6.67-24.4-6.67h-50.49l-15.99,74.58h48.39Z"/>
      <path class="cls-1" d="M693.78,295.83c-3.09,0-5.47-.97-7.15-2.92-1.68-2.22-2.24-4.72-1.68-7.5l46.71-215.83h-74.9c-3.09,0-5.47-.97-7.15-2.92-1.4-2.22-1.82-4.72-1.26-7.5l9.68-44.58c.56-3.06,2.1-5.56,4.63-7.5,2.52-1.94,5.19-2.92,8-2.92h226.38c3.09,0,5.47.97,7.15,2.92,1.12,1.67,1.68,3.33,1.68,5,0,.83-.14,1.67-.42,2.5l-9.68,44.58c-.56,3.06-2.1,5.56-4.63,7.5-2.24,1.94-4.91,2.92-7.99,2.92h-74.48l-46.71,215.83c-.56,3.06-2.1,5.55-4.63,7.5-2.53,1.94-5.19,2.92-8,2.92h-55.54Z"/>
      <path class="cls-1" d="M916.59,295.83c-3.09,0-5.47-.97-7.15-2.92-1.68-2.22-2.25-4.72-1.68-7.5L966.24,14.58c.56-3.06,2.1-5.56,4.63-7.5,2.52-1.94,5.19-2.92,7.99-2.92h56.81c3.09,0,5.47.97,7.15,2.92,1.12,1.67,1.68,3.33,1.68,5,0,.83-.14,1.67-.42,2.5l-58.07,270.83c-.56,3.06-2.1,5.55-4.63,7.5-2.52,1.94-5.19,2.92-7.99,2.92h-56.81Z"/>
      <path class="cls-1" d="M1076.81,295.83c-3.09,0-5.47-.97-7.15-2.92-1.68-1.95-2.24-4.44-1.68-7.5l58.07-270.83c.56-3.06,2.1-5.56,4.63-7.5,2.53-1.94,5.33-2.92,8.42-2.92h45.44c6.73,0,11.08,3.06,13.04,9.17l45.87,131.25,102.25-131.25c1.4-2.22,3.37-4.31,5.89-6.25,2.8-1.94,6.17-2.92,10.1-2.92h45.87c3.09,0,5.47.97,7.15,2.92,1.12,1.67,1.68,3.33,1.68,5,0,.83-.14,1.67-.42,2.5l-58.07,270.83c-.56,3.06-2.1,5.55-4.63,7.5-2.52,1.94-5.19,2.92-7.99,2.92h-50.91c-3.09,0-5.47-.97-7.15-2.92-1.4-2.22-1.82-4.72-1.26-7.5l32.82-153.75-64.38,84.58c-2.8,3.06-5.47,5.42-7.99,7.08s-5.47,2.5-8.84,2.5h-21.88c-5.89,0-9.96-3.2-12.2-9.58l-29.88-88.33-33.66,157.5c-.56,3.06-2.1,5.55-4.63,7.5-2.52,1.94-5.19,2.92-7.99,2.92h-50.49Z"/>
      <path class="cls-1" d="M1448.23,295.83c-3.09,0-5.47-.97-7.15-2.92-1.68-2.22-2.24-4.72-1.68-7.5l58.49-270.83c.56-3.06,2.1-5.56,4.63-7.5,2.52-1.94,5.19-2.92,7.99-2.92h56.81c3.09,0,5.47.97,7.15,2.92,1.13,1.67,1.68,3.33,1.68,5,0,.83-.13,1.67-.42,2.5l-58.06,270.83c-.56,3.06-2.1,5.55-4.64,7.5-2.52,1.94-5.19,2.92-7.99,2.92h-56.8Z"/>
      <path class="cls-1" d="M1712.38,300c-24.69,0-45.87-3.33-63.54-10-17.4-6.67-30.58-15.55-39.55-26.67-8.7-11.11-13.05-23.47-13.05-37.08,0-2.22.28-5.55.84-10,.57-2.5,1.69-4.58,3.37-6.25,1.97-1.67,4.2-2.5,6.74-2.5h53.85c3.37,0,5.89.56,7.57,1.67,1.97,1.11,3.93,3.06,5.9,5.83,1.96,7.22,6.45,13.2,13.47,17.92,7.29,4.72,17.25,7.08,29.87,7.08,15.99,0,28.9-2.5,38.71-7.5,9.83-5,15.72-11.8,17.67-20.42.29-1.11.42-2.78.42-5,0-6.95-4.33-12.36-13.03-16.25-8.7-4.17-24.69-9.03-47.97-14.58-27.21-5.83-47.83-14.58-61.86-26.25-14.03-11.94-21.03-27.5-21.03-46.67,0-6.67.84-13.47,2.52-20.42,5.61-25.83,19.5-46.11,41.66-60.83,22.44-14.72,51.33-22.08,86.68-22.08,21.31,0,40.26,3.75,56.8,11.25,16.55,7.5,29.31,17.08,38.3,28.75,9.26,11.39,13.88,22.78,13.88,34.17,0,3.33-.14,5.69-.42,7.08-.56,2.5-1.82,4.58-3.78,6.25-1.68,1.67-3.8,2.5-6.32,2.5h-56.38c-6.17,0-10.38-2.36-12.62-7.08-.28-6.39-3.66-11.81-10.11-16.25-6.45-4.44-14.87-6.67-25.25-6.67-12.34,0-22.57,2.22-30.72,6.67-7.85,4.44-12.76,10.97-14.72,19.58-.28,1.39-.43,3.19-.43,5.42,0,6.67,3.93,12.22,11.79,16.67,8.13,4.17,22.3,8.47,42.5,12.92,31.43,6.11,54.28,14.86,68.59,26.25,14.58,11.39,21.87,26.53,21.87,45.42,0,6.39-.84,13.33-2.52,20.83-6.17,28.33-21.18,49.86-45.03,64.58-23.55,14.44-55.11,21.67-94.67,21.67Z"/>
      <path class="cls-1" d="M1910.43,295.83c-3.09,0-5.47-.97-7.15-2.92-1.68-1.95-2.25-4.44-1.68-7.5l58.06-270.83c.56-3.06,2.1-5.56,4.64-7.5,2.52-1.94,5.32-2.92,8.42-2.92h45.43c6.74,0,11.08,3.06,13.05,9.17l45.87,131.25,102.24-131.25c1.41-2.22,3.37-4.31,5.89-6.25,2.81-1.94,6.17-2.92,10.1-2.92h45.87c3.09,0,5.48.97,7.16,2.92,1.12,1.67,1.68,3.33,1.68,5,0,.83-.14,1.67-.42,2.5l-58.07,270.83c-.57,3.06-2.11,5.55-4.63,7.5-2.52,1.94-5.19,2.92-8,2.92h-50.91c-3.09,0-5.48-.97-7.16-2.92-1.41-2.22-1.83-4.72-1.26-7.5l32.82-153.75-64.38,84.58c-2.8,3.06-5.47,5.42-7.99,7.08-2.52,1.67-5.48,2.5-8.84,2.5h-21.88c-5.9,0-9.96-3.2-12.2-9.58l-29.88-88.33-33.66,157.5c-.57,3.06-2.12,5.55-4.64,7.5-2.52,1.94-5.19,2.92-8,2.92h-50.49Z"/>
    </g>
  </g>
</svg>