<?xml version="1.0" encoding="UTF-8"?>
<svg id="Layer_2" data-name="Layer 2" xmlns="http://www.w3.org/2000/svg" viewBox="0 0 1537.43 300">
  <defs>
    <style>
      .cls-1 {
        fill-rule: evenodd;
      }

      .cls-1, .cls-2 {
        fill: #fff;
      }
    </style>
  </defs>
  <g id="Layer_1-2" data-name="Layer 1">
    <g>
      <path class="cls-2" d="M239.36,0l-93.7,53.81v167.95l-51.7,29.97-52.01-29.99v-59.96l52.01-29.7,33.44,19.4v-48.51l-33.74-19.15L0,138.22v107.65l93.99,54.13,93.67-54.13V77.95l52.01-29.99,51.99,29.99v59.69l-51.99,30.26-33.74-19.57v48.27l33.42,19.27,94.6-53.81V53.81L239.36,0Z"/>
      <path class="cls-1" d="M789.07,233.16h42V2.94h-42v230.22ZM519.06,69.51c19.91,0,36.41,8,49.46,23.97,13.08,15.97,19.59,35.78,19.59,59.43s-6.54,43.46-19.59,59.43c-13.08,15.97-29.55,23.97-49.46,23.97-14.1,0-26.35-4.35-36.7-13.08-10.16-8.92-17.62-20.95-22.41-36.09v108.26h-42V72.62h42v46.03c4.76-15.14,12.25-27.08,22.41-35.78,10.38-8.92,22.6-13.37,36.7-13.37ZM503.8,198.01c11.4,0,21.05-4.25,28.92-12.76,7.87-8.7,11.81-19.49,11.81-32.35s-3.94-23.24-11.81-31.74c-7.88-8.7-17.52-13.08-28.92-13.08-12.66,0-23.11,4.25-31.43,12.76-8.29,8.51-12.44,19.18-12.44,32.03s4.16,23.65,12.44,32.35c8.29,8.51,18.76,12.76,31.43,12.76v.02ZM599.27,152.9c0,23.65,8.19,43.46,24.57,59.43,16.38,15.97,36.82,23.97,61.3,23.97s44.92-8,61.3-23.97c16.38-15.97,24.57-35.78,24.57-59.43s-8.19-43.46-24.57-59.43c-16.38-15.97-36.82-23.97-61.3-23.97s-44.92,8-61.3,23.97c-16.38,15.97-24.57,35.78-24.57,59.43ZM654.95,185.26c-8.09-8.7-12.13-19.49-12.13-32.35s4.03-23.24,12.13-31.74c8.09-8.7,18.16-13.08,30.19-13.08s22.09,4.25,30.19,12.76c8.09,8.51,12.13,19.18,12.13,32.03s-4.03,23.65-12.13,32.35c-8.09,8.51-18.16,12.76-30.19,12.76s-22.09-4.25-30.19-12.76v.02ZM1219.08,212.33c-16.38-15.97-24.57-35.78-24.57-59.43s8.19-43.46,24.57-59.43c16.38-15.97,36.82-23.97,61.3-23.97s44.91,8,61.3,23.97c16.39,15.97,24.58,35.78,24.58,59.43s-8.19,43.46-24.58,59.43c-16.39,15.97-36.82,23.97-61.3,23.97s-44.89-8-61.3-23.97ZM1238.04,152.9c0,12.86,4.03,23.65,12.13,32.35,8.1,8.51,18.16,12.76,30.19,12.76s22.1-4.25,30.19-12.76c8.1-8.7,12.13-19.49,12.13-32.35s-4.03-23.55-12.13-32.04c-8.09-8.51-18.15-12.76-30.19-12.76s-22.09,4.35-30.19,13.08c-8.09,8.51-12.13,19.08-12.13,31.74v-.02ZM1478.02,69.51c17.84,0,32.16,6.22,42.93,18.67,10.99,12.44,16.48,28.32,16.48,47.59v97.37h-42v-89.9c0-10.38-3.3-18.89-9.96-25.52-6.64-6.64-14.93-9.97-24.89-9.97-11.2,0-20.31,3.33-27.36,9.97-7.05,6.64-10.58,15.14-10.58,25.52v89.9h-42V72.62h42v41.08c4.15-13.68,11.1-24.48,20.85-32.35,9.96-7.87,21.46-11.81,34.54-11.81v-.02ZM931.96,190.36l42.92-117.59h42.63l-88.35,222.76h-42.63l22.41-56.63-65.65-166.13h45.43l43.24,117.59ZM1136.95,72.62v40.23c-8.75-26.25-30.36-40.23-59.11-40.23-43.41,0-69.08,37.92-69.08,77.78s25.47,80.89,69.08,80.89c28.75,0,50.36-20.73,59.11-46.98v30.79c0,13.08-4.25,23.84-12.76,32.35-8.51,8.51-18.86,12.76-31.11,12.76-16.6,0-28.92-8.29-37.02-24.89l-37.65,19.91c7.05,13.08,17.11,23.53,30.19,31.43,13.08,7.87,27.9,11.81,44.48,11.81,24.48,0,44.92-7.97,61.3-23.97,16.38-15.97,24.57-35.78,24.57-59.43V72.62h-42ZM1124.82,180.9c-8.09,8.09-18.25,12.13-30.48,12.13s-21.78-4.04-29.87-12.13c-8.09-8.29-12.13-18.45-12.13-30.48s4.03-22.09,12.13-30.19c8.09-8.09,18.03-12.13,29.87-12.13s22.41,4.03,30.48,12.13c8.09,7.87,12.13,17.94,12.13,30.19s-4.03,22.41-12.13,30.48Z"/>
    </g>
  </g>
</svg>