<svg width="616" height="156" viewBox="0 0 616 156" fill="none" xmlns="http://www.w3.org/2000/svg">
<path d="M28.055 3.4812C22.3686 8.9034 17.3675 14.8406 14.5475 21.4032C11.7306 27.7614 10.9797 34.8538 12.4022 41.6676C13.5273 48.1939 16.7267 54.1751 21.5186 58.7106C26.262 63.4577 32.6799 67.362 39.4712 71.5487C46.2174 75.7822 53.6384 80.3722 59.7714 87.3622C65.9338 94.4375 69.5606 103.392 70.0707 112.791C70.6946 121.818 68.4771 130.813 63.7337 138.497C59.0278 145.998 52.343 151.504 45.33 155.711C44.4176 156.258 43.2413 156.008 42.6252 155.137C42.009 154.266 42.1591 153.065 42.9702 152.374C48.8859 147.29 53.9876 141.376 56.995 134.756C59.9626 128.249 60.8546 120.975 59.548 113.936C58.521 107.205 55.2466 101.029 50.2652 96.426C45.3824 91.7152 38.942 87.9543 32.0863 83.9277C25.2815 79.8452 17.7752 75.5316 11.3198 68.7516C8.05923 65.2723 5.39539 61.2712 3.43714 56.9119C1.58038 52.5602 0.45514 47.9276 0.107509 43.2038C-0.522164 34.0842 1.60815 24.43 6.65586 16.9658C11.5349 9.86364 18.1064 4.10984 25.7673 0.232448C26.6519 -0.237926 27.7456 0.0248034 28.3244 0.846736C28.9031 1.66867 28.7879 2.79542 28.055 3.4812Z" fill="white"/>
<path d="M44.2518 0.156831C49.6044 2.69866 54.4517 6.20322 58.5554 10.4983C60.7206 12.8386 62.631 15.4057 64.2537 18.1558C65.9037 21.0839 67.1906 24.205 68.0856 27.4491C68.9375 30.7759 69.3846 34.1948 69.4169 37.6304C69.3479 41.0393 68.5159 57.5687 59.4654 65.5207C58.3162 66.3334 56.8924 66.6499 55.5105 66.4001C54.1286 66.1502 52.9029 65.3546 52.1059 64.1901C50.9832 62.4454 50.8806 60.2266 51.8376 58.3843L51.953 58.1698C54.3817 53.5557 64.4801 35.6201 52.953 15.8268C49.8591 11.2873 46.3356 7.06063 42.4318 3.2063L42.4183 3.19418C41.7378 2.46996 41.7043 1.34687 42.3404 0.582758C42.8066 0.0183741 43.5928 -0.156806 44.2518 0.156831Z" fill="white"/>
<path d="M25.9702 155.845C20.6182 153.302 15.7711 149.798 11.6667 145.504C9.50116 143.163 7.59081 140.595 5.96834 137.845C4.31808 134.917 3.03112 131.797 2.13639 128.553C1.28421 125.226 0.837666 121.806 0.806641 118.37C0.874078 114.961 1.70761 98.4333 10.7566 90.4811C11.9058 89.6685 13.3295 89.3519 14.7115 89.6017C16.0934 89.8516 17.319 90.6472 18.116 91.8117C19.2395 93.5562 19.3421 95.7755 18.3844 97.6176L18.2689 97.8321C15.8403 102.446 5.74189 120.38 17.2705 140.175C20.364 144.715 23.8876 148.942 27.7917 152.796L27.8037 152.808C28.4842 153.532 28.5177 154.655 27.8817 155.419C27.4155 155.984 26.6293 156.159 25.9702 155.845Z" fill="white"/>
<path d="M109.835 89.161H102.711C102.711 97.4979 110.373 105.295 121.178 105.295C131.52 105.295 137.879 99.0434 138.8 91.3996C139.873 82.9088 134.586 77.2719 124.701 74.7257L117.805 73.029C111.139 71.4081 110.295 67.9315 110.295 65.6172C110.295 60.7542 115.047 57.5877 120.18 57.5877C125.928 57.5877 130.141 60.9861 130.141 66.3131H137.268C137.268 56.7382 129.911 50.718 120.257 50.718C111.291 50.718 103.171 56.7382 103.171 65.6928C103.171 70.3264 104.855 76.7323 116.043 79.5887L122.862 81.2879C127.612 82.3667 132.286 85.0693 131.826 90.782C131.215 94.798 127.919 98.5795 121.178 98.5795C114.512 98.5795 109.913 93.7946 109.835 89.161Z" fill="white"/>
<path d="M156.03 104.522H149.137V68.4737H156.03V104.522ZM147.758 55.1954C147.924 57.7581 150.036 59.751 152.585 59.751C155.134 59.751 157.246 57.7581 157.412 55.1954C157.244 52.6339 155.133 50.6426 152.585 50.6426C150.037 50.6426 147.926 52.6339 147.758 55.1954Z" fill="white"/>
<path d="M174.828 85.0695C174.828 77.4284 179.885 74.572 184.942 74.572C189.844 74.572 192.834 78.1241 192.834 84.1443V104.522H199.806V83.6804C199.806 73.5687 194.901 67.7023 186.013 67.7023C182.107 67.7023 176.972 69.5527 174.828 73.8762V68.4737H167.854V104.522H174.828V85.0695Z" fill="white"/>
<path d="M216.753 109.695C215.833 110.159 211.849 112.397 210.928 112.783C214.102 118.803 220.332 122.55 227.098 122.509C238.897 122.509 246.634 116.025 246.634 99.0435V68.4737H239.74V74.1081C237.365 69.9409 232.153 67.7023 227.173 67.7023C217.364 67.7023 209.014 75.1115 209.014 86.615C209.014 98.0376 217.364 105.296 227.173 105.296C232.153 105.296 237.593 102.903 239.74 98.6579C239.74 98.9653 239.817 99.1973 239.817 99.5048C239.817 111.47 234.835 115.871 227.098 115.871C222.792 115.859 218.832 113.494 216.753 109.695ZM239.662 86.5368C239.703 89.7155 238.462 92.775 236.224 95.0158C233.986 97.2566 230.941 98.487 227.786 98.4259C221.35 98.4259 216.14 93.8704 216.14 86.5368C216.039 83.3737 217.226 80.3064 219.425 78.0468C221.624 75.7872 224.645 74.5318 227.786 74.572C234.145 74.572 239.662 78.8174 239.662 86.5368Z" fill="white"/>
<path d="M282.984 87.9256C282.984 95.6451 277.927 98.4258 272.87 98.4258C267.968 98.4258 265.055 94.8736 265.055 88.8508V68.4736H258.081V89.3147C258.006 99.4265 262.91 105.295 271.874 105.295C275.78 105.295 280.84 103.443 282.984 99.119V104.522H289.956V68.4736H282.984V87.9256Z" fill="white"/>
<path d="M301.793 48.8647V104.521H308.767V48.8647H301.793Z" fill="white"/>
<path d="M349.201 104.522H356.097V68.4737H349.201V73.8762C346.826 69.7845 341.614 67.7023 336.634 67.7023C326.827 67.7023 318.475 74.9577 318.475 86.4586C318.475 97.8837 326.827 105.296 336.634 105.296C341.614 105.296 346.826 103.057 349.201 98.9653V104.522ZM349.123 86.3829C349.123 94.0241 343.606 98.4258 337.247 98.4258C334.094 98.4612 331.064 97.1934 328.863 94.9179C326.663 92.6423 325.484 89.5577 325.601 86.3829C325.478 83.2278 326.663 80.1633 328.872 77.9232C331.081 75.6831 334.115 74.4692 337.247 74.572C342.995 74.572 349.123 78.6636 349.123 86.3829Z" fill="white"/>
<path d="M374.93 91.3997C374.93 81.8274 377.841 74.4156 384.737 74.4156C386.568 74.4308 388.374 74.8535 390.024 75.6536L391.098 69.0912C389.171 68.1277 387.04 67.651 384.89 67.7022C380.218 67.7022 376.77 70.2484 374.93 76.5787V68.4736H367.959V104.522H374.93V91.3997Z" fill="white"/>
<path d="M405.531 104.522H398.635V68.4736H405.531V104.522ZM397.256 55.1954C397.423 57.7581 399.535 59.7506 402.084 59.7506C404.633 59.7506 406.745 57.7581 406.912 55.1954C406.744 52.6338 404.632 50.6428 402.084 50.6428C399.536 50.6428 397.424 52.6338 397.256 55.1954Z" fill="white"/>
<path d="M426.8 68.4736V54.8875H419.829V68.4736H413.393V74.4155H419.829V104.521H426.8V74.4155H434.385V68.4736H426.8Z" fill="white"/>
<path d="M454.307 122.048L476.527 68.4736H469.095L458.368 94.5665L447.643 68.4736H440.211L454.536 103.443L447.027 122.048H454.307Z" fill="white"/>
<path d="M522.869 104.521V51.3359H515.742V91.0927L491.913 51.3359H484.863V104.521H491.99V64.4576L516.047 104.521H522.869Z" fill="white"/>
<path d="M537.777 51.3359V104.521H569.805V97.8051H544.904V81.7519H565.974V75.0355H544.904V58.0523H569.039V51.3359H537.777Z" fill="white"/>
<path d="M576.768 51.3359V58.13H592.783V104.521H599.984V58.13H615.999V51.3359H576.768Z" fill="white"/>
</svg>
