<?xml version="1.0" encoding="UTF-8"?>
<svg id="Layer_2" data-name="Layer 2" xmlns="http://www.w3.org/2000/svg" viewBox="0 0 1329.63 300">
  <defs>
    <style>
      .cls-1 {
        fill: #fff;
      }
    </style>
  </defs>
  <g id="Layer_1-2" data-name="Layer 1">
    <g id="cl3sVz.tif">
      <g>
        <path class="cls-1" d="M825.95,300l-.03-278.55,56.46.03v121.54c11.35-4.56,18-30.88,29.06-34.62,13.67-4.62,37.68,1.42,53.02-.78-8.35,17.41-33.72,37.73-30.88,57.76,4.35,30.69,70.81,96.21,71.92,134.62h-51.3c-4.95-13.28-47.3-89.53-53.92-91.15-24.86-6.07-17.12,76.77-17.9,91.15h-56.43Z"/>
        <path class="cls-1" d="M687.43,300c-174.93-69.53-20.77-310.48,112.48-168.94l-38.11,42.31c-83.69-109.26-143.94,85.7-42.42,75.08,22.65-2.37,36.88-25.4,42.29-24.7,7.22.93,28.19,19.93,30.93,25.67,12.61,26.47-31.79,38.94-48.73,50.57h-56.43Z"/>
        <g>
          <path class="cls-1" d="M1154.27,300h-107.73c-2.42-15.05-18.39-24.21-15.39-40.51h94.91c6.02,0,68.66-91.94,68.31-97.87-1.31-22.26-60.41-90.55-66.55-119.06-5.02-3.13-110.02-3-118.7-.92-6.1,1.46-20.85,37.06-25.16,39.55-7.3,4.22-44.41,1.18-55.37-1.45L983.26,2.06c28.7,2.82,159.16-8.69,173.64,4.16l89.53,159.61-92.16,134.17Z"/>
          <path class="cls-1" d="M1185.06,300l91.7-135.36c-1.16-23.1-55-80.21-50-99.07,1.14-4.31,47.09-56.24,52.92-59.55,11.67-6.63,23.27-5.82,36.26-4.8,5.55.44,17.11-2.82,12.71,7.54-5.32,12.52-41.22,33.8-48.76,53.59-9.03,23.7,49.74,81.83,47.72,102.7-1.99,20.55-84.66,104.68-91.26,134.96h-51.3Z"/>
        </g>
        <path class="cls-1" d="M446.32,300c-139.37-45.28-66.9-262.67,70.2-203.49,10.17,4.39,33,24.14,37.44,21.16,2.67-1.79,6.7-28.99,30.85-20.24l.02,202.57h-20.52l-13.35-25.73-48.21,25.73h-56.43ZM460.2,144.11c-55.26,12.58-40.08,111.91,23.24,104.32,64.15-7.69,59.2-123.08-23.24-104.32Z"/>
        <g>
          <path class="cls-1" d="M0,143.02c9.55-18.55,36.76-45.58,59-45.58h107.73c12.74,0-1.96,44.28,2.57,55.7H59c-1.88,0-8.75,7.64-7.67,12.58,3.85,17.55,98.75-8,125.23,38.48,22.33,39.19.51,73.56-32.92,95.79H0v-50.64c20.68-3.18,117.79,6.3,125.98-4.78,3.68-4.98,2.17-10.05,2.27-15.48H48.74c-15.05,0-41.54-32.51-48.74-45.58v-40.51Z"/>
          <path class="cls-1" d="M287.29,300c-23.93-10.91-66.69-45.45-66.69-73.43v-73.43c-31.38,6.8-29.49-10.19-25.9-38.24,3.41-26.65,25.9-15.63,25.9-17.46V21.48h56.43v75.96h76.95v55.7h-76.95c2.52,22.79-5.31,53.47,3.86,74.68,14.72,34.04,68.57,17.01,73.12,21.51,1.96,1.94-1.42,41.97-.03,50.67h-66.69Z"/>
        </g>
      </g>
    </g>
  </g>
</svg>