<svg width="64" height="33" viewBox="0 0 64 33" fill="none" xmlns="http://www.w3.org/2000/svg">
<g clip-path="url(#clip0_9804_2948)">
<path d="M55.1577 20.4589C55.1577 21.358 54.9595 22.1062 54.5697 22.6834C54.184 23.2619 53.6992 23.6965 53.1275 23.9762C52.5612 24.256 51.9962 24.3986 51.4503 24.3986C50.5432 24.3986 49.7854 24.0862 49.2014 23.471C48.6202 22.8531 48.3269 22.0098 48.3269 20.9641V11.5137H45.7656V21.1203C45.7656 22.4036 45.9788 23.4846 46.4012 24.3347C46.8249 25.1835 47.4183 25.8299 48.1639 26.255C48.9054 26.6719 49.7637 26.8838 50.7143 26.8838C51.8632 26.8838 52.8301 26.6108 53.5878 26.073C54.2723 25.5814 54.7992 24.9852 55.1577 24.2994V26.6896H57.719V11.5137H55.1577V20.4603V20.4589Z" fill="white"/>
<path d="M41.9441 17.1167C41.3547 16.6984 40.7273 16.363 40.0795 16.1199C39.448 15.8823 38.8668 15.6921 38.3494 15.555L36.3205 15.0091C35.9565 14.914 35.5518 14.7877 35.12 14.6342C34.6908 14.4767 34.2739 14.2744 33.8842 14.0354C33.5012 13.7936 33.1821 13.4909 32.9349 13.1337C32.6986 12.7765 32.5791 12.342 32.5791 11.8409C32.5791 11.2392 32.7529 10.6947 33.0965 10.2234C33.4483 9.74678 33.9466 9.36653 34.5741 9.09357C35.2137 8.81789 35.9728 8.67801 36.8297 8.67801C38.0004 8.67801 38.9999 8.94418 39.8025 9.4711C40.5915 9.98851 41.0478 10.7259 41.1591 11.663L41.1727 11.7825H43.7624L43.757 11.6426C43.7244 10.6159 43.4012 9.68567 42.7996 8.879C42.2062 8.07505 41.3913 7.43406 40.3796 6.97369C39.3706 6.50789 38.2013 6.27295 36.9071 6.27295C35.6129 6.27295 34.4478 6.51196 33.4062 6.9832C32.3673 7.45036 31.5266 8.11715 30.9074 8.96727C30.2908 9.81468 29.9785 10.821 29.9785 11.9576C29.9785 13.3306 30.4511 14.4577 31.3813 15.3078C32.298 16.1457 33.5569 16.7989 35.1227 17.2498L37.5685 17.9492C38.257 18.1407 38.9075 18.3675 39.501 18.6228C40.0808 18.8726 40.5548 19.1999 40.9092 19.5978C41.2528 19.9835 41.428 20.4955 41.428 21.1188C41.428 21.8087 41.2229 22.4198 40.8169 22.9358C40.4068 23.4519 39.8405 23.862 39.1357 24.1554C38.4254 24.4446 37.6092 24.5913 36.7129 24.5913C35.9429 24.5913 35.2123 24.4758 34.5455 24.2491C33.891 24.0182 33.341 23.6651 32.9132 23.1993C32.4949 22.7321 32.2518 22.1319 32.1907 21.4149L32.1799 21.2913H29.4258L29.4366 21.4366C29.5154 22.5434 29.8603 23.5307 30.462 24.3686C31.069 25.2065 31.9096 25.8678 32.9621 26.335C34.0159 26.7994 35.2789 27.0357 36.7143 27.0357C38.2543 27.0357 39.5838 26.7736 40.6634 26.2562C41.7553 25.7361 42.5973 25.0245 43.1636 24.1404C43.738 23.255 44.03 22.2514 44.03 21.1555C44.03 20.2035 43.8304 19.3873 43.4379 18.7287C43.0481 18.0741 42.5457 17.5323 41.9441 17.1154V17.1167Z" fill="white"/>
<path d="M63.0699 7.61136C63.0699 7.14692 62.892 6.74494 62.543 6.4163C62.2008 6.08902 61.7852 5.92334 61.3045 5.92334C60.8238 5.92334 60.4055 6.08902 60.0565 6.41766C59.7129 6.7463 59.5391 7.14828 59.5391 7.61272C59.5391 8.07717 59.7129 8.47778 60.0578 8.80778C60.4055 9.13507 60.8251 9.30075 61.3059 9.30075C61.7866 9.30075 62.1628 9.15001 62.4941 8.85396L62.5091 8.84038C62.5213 8.82951 62.5335 8.81865 62.5457 8.80643L62.5946 8.7589C62.9124 8.4384 63.0726 8.05272 63.0726 7.61136H63.0699Z" fill="white"/>
<path d="M62.5651 11.5117H60.0039V26.6877H62.5651V11.5117Z" fill="white"/>
<path fill-rule="evenodd" clip-rule="evenodd" d="M20.6338 13.746C21.9783 15.434 22.7822 17.5688 22.7822 19.8911C22.7822 22.2133 21.9538 24.4133 20.5741 26.1108L20.4546 26.2575L20.4233 26.0714C20.3962 25.9139 20.3649 25.7537 20.3283 25.5934C19.637 22.5569 17.3854 19.9535 13.6794 17.8445C11.1765 16.424 9.74383 14.7156 9.36766 12.7723C9.12457 11.5161 9.30519 10.2545 9.6542 9.17352C10.0032 8.09389 10.522 7.18808 10.9633 6.64352L12.4056 4.8808C12.6581 4.57117 13.1321 4.57117 13.3847 4.8808L20.6352 13.746H20.6338ZM22.914 11.9846L13.2502 0.169807C13.0656 -0.0556256 12.7206 -0.0556256 12.5359 0.169807L2.87358 11.9846L2.84235 12.024C1.06469 14.2308 0 17.0351 0 20.088C0 27.1972 5.77296 32.9607 12.8931 32.9607C20.0132 32.9607 25.7862 27.1972 25.7862 20.088C25.7862 17.0351 24.7215 14.2308 22.9438 12.0254L22.9126 11.986L22.914 11.9846ZM5.1863 13.708L6.05 12.6501L6.0758 12.8456C6.09617 13.0004 6.12198 13.1552 6.15185 13.3114C6.71136 16.2461 8.70901 18.6919 12.0484 20.5864C14.9519 22.2391 16.6426 24.139 17.1288 26.2222C17.3325 27.0913 17.3678 27.9469 17.2795 28.6951L17.2741 28.7413L17.232 28.7617C15.9215 29.4013 14.448 29.7612 12.8917 29.7612C7.43111 29.7612 3.00395 25.3422 3.00395 19.8897C3.00395 17.5485 3.82012 15.3987 5.18358 13.7053L5.1863 13.708Z" fill="white"/>
</g>
<defs>
<clipPath id="clip0_9804_2948">
<rect width="63.1482" height="33" fill="white"/>
</clipPath>
</defs>
</svg>
