<?xml version="1.0" encoding="UTF-8"?>
<svg id="Layer_2" data-name="Layer 2" xmlns="http://www.w3.org/2000/svg" viewBox="0 0 2038.63 300">
  <defs>
    <style>
      .cls-1 {
        fill: #fff;
      }
    </style>
  </defs>
  <g id="Layer_1-2" data-name="Layer 1">
    <g id="ePx9Qv">
      <path class="cls-1" d="M1598.57,157.26c0,59.02-47.85,106.87-106.87,106.87s-106.87-47.85-106.87-106.87,47.85-106.87,106.87-106.87,106.87,47.85,106.87,106.87ZM1538.87,109.48c-28.9-28.89-89.2-21.46-106.12,17.55-26.08,60.09,31.81,119.51,91.95,87.17,35.83-19.26,42.07-76.84,14.17-104.72Z"/>
      <path class="cls-1" d="M1856.62,55.17c8.88-1.05,15.02,4.98,21.47,9.66,40.52,29.39,80.53,77.48,119.89,110.04,14.66,1.23,2.33-5.19,2.33-7.15V62.36l7.93-6.43,30.39-.75v201.17c-12.77-3.9-28.24-17.45-38.39-26.28-34.21-29.74-65.68-64.34-100.52-93.47v119.74h-43.11V55.17Z"/>
      <path class="cls-1" d="M1032.77,69.62l-22.17,32.82c-23.55-8.17-50.99-21.93-75.4-8.35-48.4,26.92,54.72,46.51,69.09,54.24,25.74,13.85,37.37,32.59,32.99,62.18-10.01,67.62-113.58,58.16-157.2,30.89,9.55-52.69,26.9-24.86,55.64-19.73,17.77,3.17,57.04,5.27,57.09-20.38.06-30.24-101.87-27.86-112.25-72.88-20.1-87.14,99.66-89.34,152.22-58.79Z"/>
      <path class="cls-1" d="M519.59,102.45c-29.07-3.6-60.73-27.3-87.94-4.23-3.46,10.56-7.03,19.04,3.55,25.47,30.22,18.35,96.17,15.73,103.95,63.46,14.53,89.2-104.23,85.82-157.6,54.6l17.26-33.71c19.15,10.67,100.36,31.32,97.29-6.91-2.68-33.3-102.35-22.63-113.62-77.63-16.17-78.86,106.9-88.38,151.9-51.09l-14.78,30.04Z"/>
      <path class="cls-1" d="M1286.46,107.76c-155-77.21-154.28,173.78-2.69,101.06l22,33.07c-85.66,50.15-188.73,4.35-177.19-102.92,8.93-82.99,116.6-113.69,177.09-62.28l-19.22,31.08Z"/>
      <path class="cls-1" d="M687.92,177.31l-71.82-122.11c11.36,1.09,24.92-2.03,35.8.08,16.72,3.23,48.45,67.33,55.24,86.1,5.09,3.87,43-75.32,50.28-81.37,8.2-6.81,48.92-10.21,45.33,2.18-5.87,20.25-71.72,107.47-71.72,115.12v79.03h-43.11v-79.03Z"/>
      <path class="cls-1" d="M1741.66,55.17v201.17h-43.11V62.36c10.2-12.52,28.66-5.84,43.11-7.18Z"/>
      <g>
        <path class="cls-1" d="M285.53,41.81c-51.44-16.1-120.97-26.2-170.8-.5-47.77,24.64-50.2,75.58-10.24,109.47,14.31,12.14,93.96,47.9,43,70.55-31.93,14.2-88.21-8.89-113.57-30.66C-27.45,137.99,1.71,63.3,63.71,27.11c67.12-39.17,162.64-37.26,221.83,14.7Z"/>
        <path class="cls-1" d="M27.85,262.7c-.66-5.77,6.19-2.36,9.32-1.66,52.21,11.62,97.27,23.55,150.15,3.19,49.96-19.24,69.04-70.23,27.77-110.53-15.55-15.18-71.21-34.32-64.1-60.55,9.03-33.35,80.22-12.62,101.96-1.84,85.34,42.29,76.93,133.95-.23,180.03-71.91,42.95-155.85,35.63-224.87-8.64Z"/>
      </g>
    </g>
  </g>
</svg>