<?xml version="1.0" encoding="UTF-8"?>
<svg id="Layer_2" data-name="Layer 2" xmlns="http://www.w3.org/2000/svg" viewBox="0 0 1920.84 300">
  <defs>
    <style>
      .cls-1 {
        fill: #fff;
      }
    </style>
  </defs>
  <g id="Layer_1-2" data-name="Layer 1">
    <g id="uI82Nb.tif">
      <g>
        <path class="cls-1" d="M1064.72,229.19v-90.23h32.65v160.62l-11.89-1.71c-30.09-31.09-58.32-64.17-89.68-93.94v92.04h-32.65v-160.62l11.89,1.71c30.81,29.83,58.05,63.21,89.68,92.14Z"/>
        <path class="cls-1" d="M347.85,141.27c97.62-11.81,131.21,111.34,50.62,149.62-29.12,13.83-69.01,8.91-92.88-12.92-48.29-44.17-23.23-128.77,42.27-136.69ZM411.35,219.54c0-27.22-22.18-49.29-49.54-49.29s-49.54,22.07-49.54,49.29,22.18,49.29,49.54,49.29,49.54-22.07,49.54-49.29Z"/>
        <path class="cls-1" d="M1387.58,176.86l25.41,64.97,4.07-2.31,28.38-63.35c1.54-2.02,9.27-1.65,11.69-.83,4.13,1.4,27.73,58.49,32.93,66.49,10.72-21.11,17.07-44.61,29.02-64.99h33.56l-56.2,121.83c-2.05,1.21-8.81,1.7-10.63.58-3.25-2.01-27.79-60.65-33.84-68.29l-31.93,65.7c-2.99,4.55-11.44,4.29-14.17.03l-52.75-119.86h34.46Z"/>
        <path class="cls-1" d="M816.22,294.16h-36.28l-8.86-29.61c-1.88-2.68-48.65-.4-56.18-.82l-9.32,30.43h-36.28c10.13-16.75,52.38-154.32,60.69-155.33,5.87-.71,24.75-1.1,28,3.02l58.23,152.31ZM761.81,236.41l-19.05-54.16-19.05,54.16h38.09Z"/>
        <path class="cls-1" d="M1837.41,117.3v108.28c6.57-4.73,39.38-48.73,42.62-48.73h37.18l-42.93,53.24,46.56,65.86h-37.18c-3.86,0-37.5-56.41-46.25-61.36v61.36h-32.65V117.3h32.65Z"/>
        <path class="cls-1" d="M500.62,295.97h-30.84v-153.4h64.39c1.38,0,14.82,3.69,17.18,4.56,38.16,13.96,42.97,68.22,6.72,87.8-2.19,1.18-15.61,6.89-16.65,6.89h-38.09c-.19,0-2.72,2.52-2.72,2.71v51.43ZM500.62,214.76h29.93c16.03,0,24.76-22.35,15.45-35.22-1.9-2.63-11.16-8.09-13.64-8.09h-31.74v43.31Z"/>
        <path class="cls-1" d="M1685.96,236.76c0,34.77-28.33,62.96-63.28,62.96s-63.28-28.19-63.28-62.96,28.33-62.96,63.28-62.96,63.28,28.19,63.28,62.96ZM1613.81,206.15c-29.26,6-29.54,62.37,8.65,62.37,42.69,0,39.89-72.33-8.65-62.37Z"/>
        <path class="cls-1" d="M1240.66,247.24h-83.44c5.73,28.71,46.82,28.76,64.39,10.86,1.4.02,14.26,21.01,13.75,24.1-49.04,39.02-126.66,4.67-109.95-62.08,12.15-48.55,82.5-63.21,108.33-19.24,1.23,2.1,6.91,13.68,6.91,14.78v31.58ZM1209.82,223.78c-4.29-30.44-46.5-28.47-52.6,0h52.6Z"/>
        <path class="cls-1" d="M1305.96,147.98v28.87h32.65v28.87h-32.65v53.24c0,11.04,28.74,10.8,36.28,9.93v27.07c-40.81,6.82-67.25.64-70.72-44.24-.55-7.07,1.62-44.38-.01-46.01-1.87-1.87-16.55,4.13-18.15-4.5-.57-3.1-.46-20.88.8-22.68,2.32-3.32,13.12-1.11,17.35-1.69v-28.87h34.46Z"/>
        <path class="cls-1" d="M1784.81,176.86v27.97c0,4.09-16.33,2.29-20.45,3.11-6.83,1.35-19.45,11.44-19.45,18.55v69.48h-34.46v-119.11h30.84c.63,0-.48,10.96.02,12.63,12.36-11.49,26.94-15.47,43.51-12.63Z"/>
        <rect class="cls-1" x="828.92" y="138.96" width="34.46" height="155.2"/>
        <g>
          <path class="cls-1" d="M317.42,0c2.83,2.99,7.15,2.68,10.71,4.69,20.97,11.85,22.97,47.45,4.7,62.08-21.71,17.38-82.23,4.76-110.53,9.13-9.58,1.48-11.18,8.55-11.97,16.97-5.1,54.37,7.12,122.26-.09,174.97-2.06,15.06-14.35,28.5-29.68,30.02-24.64,2.45-43.69-7.4-46.32-33.5-7.33-72.65,5.42-157.06,0-230.96,1.78-17.44,12.39-28.69,29-33.41h154.18Z"/>
          <path class="cls-1" d="M68.93,0c24.99,7.09,35.01,29.41,25.76,53.6-5.9,15.42-16.34,18.19-31.2,20.39-6.06-4.92-23.73-6.47-29.02,0-4.77-.65-5.61,0-10.88-1.8-2.67-7.15-13.73-12.49-18.14-18.05-.65-.81,1.67-6.79-5.44-7.22v-1.8c9.98,2.86,2.11-11.2,1.81-18.05.73-.44,1.19-1.32,1.81-1.8,7.71-6.04,7.15-14.51,19.9-19,4.72-1.66,12.74,1.4,12.75-6.26h32.65Z"/>
          <path class="cls-1" d="M36.28,0c0,7.66-8.04,4.6-12.75,6.26C10.77,10.76,11.34,19.23,3.63,25.27c-3.49-.93-.14-5.64.83-7.3C10.2,8.12,17.21,4.64,27.21,0h9.07Z"/>
          <path class="cls-1" d="M1.81,27.07c.3,6.84,8.16,20.9-1.81,18.05v-18.05h1.81Z"/>
          <path class="cls-1" d="M0,46.92c7.11.43,4.8,6.4,5.44,7.22h-1.81c-.97-1.91-2.32-3.72-3.63-5.41v-1.8Z"/>
          <path class="cls-1" d="M63.48,73.99c-12.95,1.92-16.06,1.77-29.02,0,5.29-6.47,22.96-4.92,29.02,0Z"/>
          <path class="cls-1" d="M5.44,54.14c4.41,5.56,15.47,10.9,18.14,18.05-12.35-4.24-14.35-6.96-19.95-18.05h1.81Z"/>
        </g>
      </g>
    </g>
  </g>
</svg>