<?xml version="1.0" encoding="UTF-8"?>
<svg id="Layer_2" data-name="Layer 2" xmlns="http://www.w3.org/2000/svg" viewBox="0 0 1903.56 300">
  <defs>
    <style>
      .cls-1 {
        fill: #fff;
      }
    </style>
  </defs>
  <g id="Layer_1-2" data-name="Layer 1">
    <g>
      <g>
        <polygon class="cls-1" points="191.58 77.23 175.25 133.66 2.23 133.66 0 131.44 0 79.46 2.23 77.23 191.58 77.23"/>
        <polygon class="cls-1" points="300 167.82 300 222.77 106.94 222.76 124.01 167.82 300 167.82"/>
        <polygon class="cls-1" points="276.24 0 228.71 160.4 173.76 160.4 222.03 0 276.24 0"/>
        <polygon class="cls-1" points="124.75 139.6 77.23 300 22.28 300 68.32 139.6 124.75 139.6"/>
        <polygon class="cls-1" points="90.59 71.29 109.9 0 164.11 0 165.75 3.07 143.32 71.29 90.59 71.29"/>
        <polygon class="cls-1" points="207.92 230.2 187.13 300 132.18 300 151.49 230.2 207.92 230.2"/>
        <polygon class="cls-1" points="243.56 133.66 259.9 77.23 297.77 77.23 300 79.46 300 131.44 297.77 133.66 243.56 133.66"/>
        <path class="cls-1" d="M53.47,167.82l-15.1,52.47c-2.57,4.3-4.92,2.48-7.92,2.48H0v-54.95h53.47Z"/>
      </g>
      <g>
        <path class="cls-1" d="M955.17,5.46c9.53,13.51-.4,96.44,3.8,101,42.52-21.09,94.3-13.13,122.54,26.45,53.35,74.75-10.98,187.64-107.44,155.03-6.22-2.1-10.69-8.42-13.29-9.31-9.71-3.33-2.57,10.11-7.66,11.44-13.64,3.56-42.6-3.12-58.42-.24l.02-284.36h60.46ZM984.36,152.24c-43.7,8.84-38.56,79.34,3.23,85.01,67.2,9.13,66.64-99.14-3.23-85.01Z"/>
        <path class="cls-1" d="M1778.87,5.46l.04,104.76c30.26-19.45,73.31-22.47,102.1,1.75,6.01,5.05,22.55,27.44,22.55,33.79v144.04h-60.46v-117.85c0-9.42-21.56-23.78-32.12-23.78s-32.12,14.36-32.12,23.78v117.85h-60.46V5.46h60.46Z"/>
        <path class="cls-1" d="M1178.1,5.46l.04,104.76c32.2-20.68,77.11-22.39,105.89,5.49,4.74,4.59,18.77,25.06,18.77,30.06v144.04h-60.46v-117.85c0-9.42-21.56-23.78-32.12-23.78s-32.12,14.36-32.12,23.78v117.85h-60.46V5.46h60.46Z"/>
        <path class="cls-1" d="M439.41,98.99c6.39,2.02,29.27,90.75,32.16,104.73l35.79-101.05c4.49-5.35,45.53-5.74,51.22-1.97,6.89,4.56,28.11,89.25,35.74,103.08l32.12-104.8h60.46l-64.61,190.43c-1.97,1.68-49.81,1.25-52-.14-4.72-2.99-27.52-92.37-36.42-104.28l-35.47,102.58c-2.49,3.53-48.41,5.86-53-3.71l-64.56-184.87h58.57Z"/>
        <path class="cls-1" d="M1461.48,289.8c-.98-1.03.72-11.43-.04-14.97-85.26,58.35-169.18-29.96-137.8-119.65,19.55-55.86,89.87-80.12,137.8-41.23.61-2.46-.72-14.97.04-14.97h60.46v190.81c-8.89-1.61-58.38,2.18-60.46,0ZM1411.36,152.27c-49.48,8.89-40.02,96.67,20.91,84.31,45.64-9.26,43.06-95.81-20.91-84.31Z"/>
        <path class="cls-1" d="M743.58,214.97c4.42,29.99,39.42,34.68,64.35,28.17,9.88-2.58,22.95-16.82,24.44-16.82,2.37,0,32.49,31.16,31.84,34.9-59.72,66.78-185.18,27.44-185.18-66.82,0-105.37,149.31-137.59,192-47.63,5.48,11.54,16.47,68.21,2.91,68.21h-130.36ZM819.13,170.06c-1.58-36.85-69.13-34.59-75.62-1.88-1.5,7.53,1.11,4.96,5.66,5.64,21.22,3.17,47.4-8.03,69.96-3.76Z"/>
        <path class="cls-1" d="M1609.78,161.71c19.17,17.34,77.31,6.5,88.06,56.79,18.7,87.57-123.16,95.99-164.47,39.5,7.42-5.03,26.29-30.03,32.58-31.24,7.37-1.42,34,25.28,61.95,16.47,42.49-13.39-46.46-35.3-54.33-40.09-52.78-32.11-25.53-102.8,33.24-108.04,36.68-3.27,72.09,3.07,96.42,31.96-5.84,4.2-33.28,35.45-35.81,35.44-2.35-.01-18.96-19.21-41.63-18.96-11.61.13-27.43,7.84-16,18.18Z"/>
      </g>
    </g>
  </g>
</svg>