<?xml version="1.0" encoding="UTF-8"?>
<svg id="Layer_2" data-name="Layer 2" xmlns="http://www.w3.org/2000/svg" viewBox="0 0 627.49 300">
  <defs>
    <style>
      .cls-1 {
        fill: #fff;
      }
    </style>
  </defs>
  <g id="Layer_1-2" data-name="Layer 1">
    <g id="hDUFN9">
      <g>
        <path class="cls-1" d="M317.04,26.44l3.57-1.07c10.7-22.4,37.71-32.78,59.61-17.77,25.72,17.63,22.71,67.81,29.3,95.07l23.15,5.56c6.2-32.77-15.64-78.77,24.04-96.03,33.87-14.73,116.9-3.14,145.6,22.06,39.98,35.1,30.57,122.31-15.67,148.77,11.32,9.8,23.42,19.05,17.79,36.04-1.63,4.92-8.46,10.14-8.83,12.01-.41,2.15,5.5,11.32,6.28,15.82,7.84,45.6-40.58,60.66-77.05,47.49-6.11-2.21-18.72-12.07-20.88-12.29-3.51-.36-18.03,7.69-26.04,8.74-8.45,1.11-26.22,1-34.76,0-7.82-.92-21.76-7.14-26.14-7.08s-7.88,4.06-12.54,4.95c-16.92,3.24-24.05-6.32-36.12-15.27-4.52,12.27-16.85,16.16-29.2,13.53-4.04-.86-8.84-5.7-10.83-5.88-3.82-.34-25.18,5.84-32.98,6.35s-20.16.66-27.71-.27c-5.02-.62-13.36-5.03-15.87-4.96-2.79.08-9.58,6.14-15.83,6.79-8.32.86-19.86-5.17-22.11-4.77-1.87.33-3.89,3.36-6.36,4.04-16.9,4.66-26.7-.86-40.79-9.58-18.25,28.73-45.03,13.42-55.78-12.17-7.02,11.63-8.46,25.39-22.98,30.91-47.65,18.11-68.43-64.71-54.75-96.5,3.21-7.47,10.63-11.62,14.12-18.57-18.72-20-30.68-46.82-38.6-72.84C1.07,84.6-10.67,32.47,20.11,19.16c28.2-12.2,49,9.97,56.88,35.11,7.56-10.4,10.33-22.13,19.07-32.22,28-32.31,63.46-5.71,76.6,25.25l9.18-22.96c12.77-25.36,42.22-29.54,61.25-8.36,20.97-24.5,62.7-20.68,73.95,10.46ZM273.09,16.41c-3.73.59-7.78,2.61-10.87,4.8-28.3,20.12-22.92,110.04-6.76,137.24,13.29,22.37,38.35,21.66,48.99-2.81,11.38-26.16,12.54-100.78-2.75-125.19-6.49-10.37-16.24-15.99-28.61-14.04ZM351.33,18.15c-15.57,3.22-23.8,29.38-26.51,43.07-6.84,34.61-9.66,95.05,31.01,109.93,23.01,8.42,78.42,1.3,81.13-29.24,2.3-25.96-29.22-14.73-40.69-30.34-7.48-10.18-7.34-41.6-10.19-55.91-3.92-19.7-9.46-42.74-34.75-37.51ZM227.77,23.51c-3.22-2.91-9.92-4.42-14.22-4.13-26.39,1.75-19.64,54.48-34.9,55.87-13.5,1.23-27.66-45.69-47.24-50.17-34.53-7.89-35.99,56.93-52.1,58.4-13.38-4.07-16.41-24.32-23.16-35.34-14.23-23.24-38.7-18.15-40.09,8.82-1.48,28.53,21.55,87.43,40.09,109.47,14.51,17.25,40.28,32.12,53,4.39,5.66-12.34,12.41-70.71,34.65-45.08,10.5,12.1,18.66,47.04,33.99,51.24,29.33,8.03,45.48-32.62,51.4-54.84,5.62-21.08,15.58-83.21-1.42-98.62ZM478.41,23.46c-43.66,5.5-25.76,42.52-27.38,73.51-.9,17.14-13.15,53.92-6.02,66.76,3.58,6.46,13.33,10.87,20.21,12.84,30.37,8.73,84.16,11.12,111.54-6.05,37.42-23.46,47.92-98.12,10.45-126.38-23.32-17.59-80.4-24.26-108.8-20.68ZM271.79,207.37c9.8-4.68,56.1-1.61,59.05-11.54-1.01-11.17-18.05-13.5-27.09-14.34-17.63-1.65-49.02-5.11-51.17,17.96-1.73,18.48,4.3,40.05,1.86,59.19,3.36,17.71,51.99,11.59,64.7,7.38,16.65-5.52,12.47-16.05-3.13-18.5-6.82-1.07-28.46,2.21-24.03-8.98,9.4-5.7,23.6-1.91,30.09-11.5,3.66-14.04-39.79-9.15-47.27-13.11-3.53-1.87-3.33-2.73-3-6.55ZM351.52,269.66c13.09-53.6,23.42-4.04,40.19,1.26,14.12,4.47,20.31-6.73,23.34-18.6,3.16-12.39,6.97-62.23-5.83-68.46-19.63-9.57-14.15,27.87-21.87,35.61-10.43,2.39-32.21-56.6-49.51-33.45-9.45,12.65-10.08,67.32.01,79.63,3.8,4.63,7.78,5.36,13.66,4.01ZM224.31,183.37c-15.88,4.73-13.4,46.57-11.22,59.2,6.18,35.73,32.34,41.72,36.07,3.9,1.59-16.15,2.33-71.21-24.85-63.11ZM427.11,190.45c-4.32,5.22-1.77,34.75-2.28,43.84-.75,13.46-11.33,30.6,6.57,36.97,14.28,5.09,38.95,5.6,53.07.06,30.43-11.93,36.22-66.58,4.72-80.46-12.39-5.46-53.12-11.25-62.08-.41ZM157.4,256.49c10.21-10.38,34.11,28.74,47.44,13.5,4.49-8.87-2.94-17.66-2.73-25.17.22-8,5.6-16.95,4.93-27.35-1.16-18.06-12.37-29.16-30.07-30.97-22.04-2.25-49.24.34-52.88,27.09-1.84,13.51,2.03,53.88,14.83,61.4,15.33,9,13.73-13.67,18.49-18.5ZM116.55,235.59c-8.48-8.12-46.06,2.8-48.28-6.52-2.51-10.54,54.22-7.95,51.95-23.92-2.39-16.79-49.58-13.51-61.24-6.21-22.15,13.87-7.3,75.71,11.76,83.33,22.01,8.79,19.75-15.06,24.53-24.43,2.59-5.08,32.91-11.11,21.27-22.25ZM555.33,214.32c8.62-2.9,27.16,9.83,31.82-.51,7.31-16.19-54.99-33.27-66.14-8.61-9.92,21.93,17.05,28.11,25.53,42.82-8.24,11.54-24.06-2.43-35.33,1.32-7.08,5.83-1.42,16.13,4.29,21.32,23.47,21.36,80.79,13.87,66.31-24.56-5.59-14.83-25.78-16.82-26.48-31.79Z"/>
        <path class="cls-1" d="M557.17,88.43c4.37,12.13,11.53,21.34,8.33,35.27-2.47,10.76-27.8,26.47-37.78,19.4-13.21-9.35,13.51-17.9,10.21-27.55-2.33-6.83-53.97-10.65-15.72,17.49l-.66,5.83c-13.33,12.23-35.42-9.55-35.85-23.49-.36-11.84,9.26-20.65,15.78-29.59-9.85-4.95-18.9-18.31-4.66-23.96,12.19-4.83,17.44,11.66,19.69,12.44,3.23,1.12,9.32-.12,13.51.4,3.17.39,8.6,2.93,10.69,2.65,2.88-.4,6.6-7.61,9.54-8.87,17.36-7.44,25.44,16.66,6.93,19.98ZM522.47,95.37c0-3.9-3.16-7.05-7.05-7.05s-7.05,3.16-7.05,7.05,3.16,7.05,7.05,7.05,7.05-3.16,7.05-7.05ZM545.11,97.25c0-3.83-3.11-6.94-6.94-6.94s-6.94,3.11-6.94,6.94,3.11,6.94,6.94,6.94,6.94-3.11,6.94-6.94Z"/>
        <path class="cls-1" d="M460.13,244.41c-3.2-1.99-4.61-32.23,6.89-30.29,11.86,2.64,5.93,38.27-6.89,30.29Z"/>
        <path class="cls-1" d="M159.38,237.34c-3.53-1.32-10.89-30.68.76-31.06,12.15.24,13.38,36.34-.76,31.06Z"/>
      </g>
    </g>
  </g>
</svg>