<?xml version="1.0" encoding="UTF-8"?>
<svg id="Layer_2" data-name="Layer 2" xmlns="http://www.w3.org/2000/svg" viewBox="0 0 1566.82 300">
  <defs>
    <style>
      .cls-1 {
        fill: #fff;
      }
    </style>
  </defs>
  <g id="Layer_1-2" data-name="Layer 1">
    <g id="IB1qgZ.tif">
      <path class="cls-1" d="M72.89,0c81.47,20.27,66.37,134.89-19.76,126.55C-6.85,120.75-19.83,33.96,35.64,6.47L54.8,0h18.09Z"/>
      <g>
        <path class="cls-1" d="M412.58,50.6l171.98-.02-2.36,36.08c-35.08,39.45-71.81,78.93-101.74,122.05h108.61l.02,40.68-176.51-.02v-31.62l104.08-126.44c-33.97-2.56-71.41,5.4-104.08-4.56v-36.14Z"/>
        <path class="cls-1" d="M679.57,168.05c9.28,56.6,84.9,47.26,122.05,22.65,1.86,13.27,14.66,19.9,22.68,29.3-79.99,73.42-233.02,13.7-192.11-106.03,29.38-85.99,162.72-90.65,196.89-7.08,3.88,9.5,16.98,61.15,2.09,61.15h-151.59ZM788.17,131.92c-12.71-63.12-97.21-59.16-113.13,0h113.13Z"/>
        <path class="cls-1" d="M1086.84,168.05h-158.38c12.24,39.86,49.44,46.53,87.19,39.61,29-5.32,32.12-33.97,57.28,11.71-22.73,38.57-103.49,37.55-138.46,21.74-79.63-36.01-72.47-157.7,8.9-186.93,80.99-29.1,158.19,28.81,143.48,113.87ZM1041.59,131.92c-10.19-61.25-102.25-59.87-113.13,0h113.13Z"/>
        <path class="cls-1" d="M1408.13,168.05c9.89,39.9,51.14,46.22,87.19,39.61,25.48-4.67,29.78-30.77,50.56,1.42,10.33,16-2.04,23.46-17.71,31.37-56.86,28.69-156.45,5.47-168.75-66.7-25.32-148.67,185.08-168.59,205.99-47.56,1.27,7.36,4.19,41.85-5.69,41.85h-151.59ZM1521.26,131.92c-16.24-59.54-102.08-61.79-113.13,0h113.13Z"/>
        <path class="cls-1" d="M1222.65,195.13l63.8-144.01,49.26-.5-83.56,194.36c-9.13,9.35-36.69,2.15-50.09,4.69l-92.59-199.03c13.54,2.18,48.61-5.25,56.6,4.44l56.58,140.05Z"/>
      </g>
      <path class="cls-1" d="M253.79,177.58c-15.95-3.78-22.58-4.82-39.2,0-14.27,4.14-20.39,12.19-30.26,22.58-2.27,2.39-2.21,6.76-2.91,7.52-15.27,16.48-28.44,24.16-51.31,13.5,10.04-26.23,30.03-55.8,54.32-70.69,4.35-2.66,25.2-13.02,30.15-15.05,12.43-5.1,26.49-7.28,39.2-12.04,1.97-.74,5.25-.2,8.72-1.71,54.76-23.91,46.19-110.41-14.75-118.68-.72-1.07-2.22-1.89-3.02-3.01h-18.09c-2.72,1.75-6.2,5-9.05,6.02-21.54,7.69-20.59,3.78-33.17,24.08-30.1,48.57-4.28,92.32-75.38,126.42-35.6,17.08-91.94,14.19-105.71,58.51-16.23,52.24,28.89,98.58,80.93,80.8,11.97-4.09,21.48-12.64,33.82-15.9,22.42-5.92,44.4-3.74,66.33,3.01,14.16,4.36,23.79,11.86,39.2,15.05,16.18,3.35,17.48,2.65,33.17-3.01,57.78-20.85,56.34-103.31-3.02-117.39Z"/>
    </g>
  </g>
</svg>